<svg width="500" height="501" viewBox="0 0 500 501" fill="none" xmlns="http://www.w3.org/2000/svg">
<rect width="30.8718" height="86.4881" transform="matrix(0.967225 0.254006 -0.254089 0.967158 259.599 266.753)" fill="#F5A020"/>
<rect width="30.8678" height="180.816" transform="matrix(-0.250546 0.968082 -0.968148 -0.250464 434.575 312.092)" fill="#F5A020"/>
<path d="M429.805 311.345L427.952 317.157L424.13 319.129L418.549 318.609L414.843 330.233L420.633 332.102L423.69 338.537L421.837 344.349L417.448 347.098L424.025 358.516L428.414 355.766L433.324 356.389L437.62 361.943L437.006 366.873L448.377 369.261L452.245 363.138L459.633 361.998L465.944 367.24L475.393 361.636L474.351 354.89L477.547 348.871L485.607 347.627L488.073 336.885L481.195 332.421L479.586 326.453L486.036 319.241L479.1 309.951L473.831 311.455L467.057 307.666L466.582 300.141L459.345 297.805L455.211 297.753L448.089 305.069L443.179 304.445L438.316 299.67L428.195 305.377L429.805 311.345Z" fill="#F5A020"/>
<path d="M423.849 317.338C428.297 316.251 429.939 310.769 426.556 307.484C426.36 307.293 426.205 307.063 426.104 306.809C426.002 306.554 425.955 306.281 425.967 306.007C425.978 305.734 426.047 305.465 426.169 305.22C426.291 304.974 426.463 304.757 426.675 304.583C430.267 301.591 434.265 299.259 438.669 297.585C438.844 297.52 439.032 297.494 439.219 297.508C439.405 297.523 439.586 297.578 439.749 297.67C439.912 297.762 440.053 297.888 440.162 298.04C440.271 298.192 440.345 298.365 440.38 298.549C441.697 305.643 453.199 304.502 453.425 296.121C453.428 295.981 453.459 295.844 453.517 295.716C453.575 295.589 453.659 295.475 453.763 295.38C453.867 295.285 453.99 295.212 454.123 295.165C454.257 295.119 454.399 295.099 454.54 295.107C459.406 295.414 464.083 296.49 468.57 298.335C469.042 298.529 469.234 298.876 469.145 299.377L468.42 303.807C468.349 304.241 468.378 304.669 468.507 305.09C469.322 307.742 471.052 309.218 473.697 309.517C475.977 309.786 477.429 308.445 479.194 307.165C479.39 307.023 479.631 306.957 479.871 306.978C480.111 306.999 480.333 307.107 480.497 307.281C484.004 310.897 486.564 315.09 488.176 319.863C488.24 320.057 488.233 320.267 488.155 320.455C488.078 320.644 487.936 320.8 487.755 320.894C480.555 324.571 480.756 333.3 489.424 334.472C489.787 334.522 490.118 334.708 490.35 334.993C490.581 335.277 490.695 335.639 490.669 336.004C490.309 340.769 489.194 345.36 487.324 349.778C487.122 350.259 486.766 350.434 486.257 350.301L482.566 349.312C482.066 349.178 481.569 349.176 481.073 349.308C477.749 350.217 476.187 352.362 476.386 355.743C476.493 357.506 477.659 358.705 478.63 360.156C478.755 360.348 478.809 360.579 478.78 360.803C478.751 361.028 478.642 361.233 478.473 361.38C474.739 364.642 470.589 367.274 466.024 369.275C465.893 369.332 465.752 369.361 465.61 369.36C465.468 369.36 465.327 369.329 465.198 369.272C465.068 369.214 464.951 369.13 464.856 369.024C464.761 368.919 464.688 368.795 464.643 368.661C462.887 363.497 459.312 362.242 453.917 364.895C451.192 366.227 451.961 368.964 450.838 371.179C450.744 371.359 450.596 371.507 450.416 371.601C450.235 371.696 450.03 371.733 449.827 371.707C445.053 371.101 440.441 369.878 435.992 368.035C435.549 367.855 435.375 367.528 435.467 367.054L436.248 363.25C436.334 362.851 436.322 362.448 436.213 362.042C435.308 358.687 433.112 357.086 429.625 357.238C429.077 357.267 428.577 357.436 428.128 357.745L425.277 359.689C425.077 359.822 424.837 359.88 424.599 359.851C424.361 359.821 424.141 359.708 423.98 359.53C420.653 355.823 418.124 351.619 416.394 346.92C416.327 346.738 416.327 346.536 416.394 346.352C416.462 346.168 416.592 346.012 416.763 345.911L419.679 344.206C420.068 343.98 420.38 343.675 420.615 343.289C422.959 339.552 422.407 336.248 418.96 333.378C418.591 333.076 418.173 332.878 417.707 332.785L414.685 332.189C414.21 332.097 413.982 331.815 414.001 331.343C414.19 326.357 415.337 321.613 417.443 317.113C417.547 316.893 417.722 316.715 417.94 316.609C418.157 316.502 418.403 316.474 418.638 316.529C420.539 316.938 421.944 317.798 423.849 317.338ZM430.626 306.539C433.976 315.788 429.495 320.963 420.194 320.606C419.73 320.586 419.445 320.8 419.339 321.248L417.659 328.267C417.506 328.889 417.737 329.281 418.352 329.443C426.789 331.81 427.767 342.612 421.085 347.493C420.595 347.844 420.51 348.276 420.829 348.788L424.592 354.897C424.718 355.106 424.923 355.258 425.162 355.319C425.401 355.379 425.656 355.345 425.872 355.224C433.558 350.754 440.396 357.534 439.696 365.353C439.655 365.801 439.85 366.079 440.281 366.187L447.216 367.861C447.742 367.992 448.091 367.8 448.26 367.286C450.954 358.869 461.26 358.12 466.597 364.4C466.96 364.84 467.386 364.913 467.875 364.617L473.735 361.036C473.829 360.979 473.902 360.893 473.941 360.792C473.981 360.69 473.985 360.58 473.953 360.478C471.472 352.473 475.154 344.276 484.315 346.228C484.859 346.346 485.194 346.133 485.322 345.59L486.982 338.615C487.028 338.419 487.003 338.213 486.912 338.035C486.821 337.857 486.67 337.718 486.486 337.643C478.41 334.214 476.232 325.128 483.575 319.332C483.767 319.178 483.898 318.963 483.946 318.725C483.993 318.488 483.952 318.243 483.831 318.037L480.287 312.004C480.024 311.557 479.655 311.435 479.18 311.637C471.089 315.093 463.727 310.381 465.108 301.339C465.144 301.088 465.085 300.832 464.943 300.624C464.8 300.416 464.585 300.27 464.341 300.216L457.434 298.633C456.995 298.536 456.708 298.704 456.573 299.139C454.175 307.152 442.595 309.133 438.056 302.026C437.94 301.846 437.758 301.718 437.549 301.67C437.34 301.623 437.121 301.659 436.938 301.77L431.028 305.387C430.582 305.658 430.448 306.042 430.626 306.539Z" fill="#F5A020"/>
<path d="M470.101 330.68C470.83 335.4 469.654 340.215 466.832 344.068C464.009 347.92 459.772 350.494 455.051 351.223C450.331 351.952 445.514 350.776 441.661 347.954C437.808 345.132 435.234 340.896 434.505 336.176C433.776 331.457 434.952 326.641 437.774 322.789C440.597 318.936 444.834 316.362 449.554 315.634C454.275 314.905 459.091 316.081 462.945 318.902C466.798 321.724 469.372 325.961 470.101 330.68ZM466.478 331.281C465.897 327.52 463.846 324.145 460.775 321.896C457.705 319.648 453.867 318.711 450.106 319.291C446.344 319.872 442.968 321.923 440.719 324.993C438.47 328.063 437.533 331.9 438.114 335.66C438.694 339.421 440.746 342.797 443.816 345.045C446.886 347.294 450.724 348.231 454.486 347.65C458.247 347.069 461.624 345.018 463.873 341.949C466.122 338.879 467.059 335.042 466.478 331.281Z" fill="#252525"/>
<ellipse cx="15.9509" cy="15.9479" rx="15.9509" ry="15.9479" transform="matrix(0.98829 -0.152588 0.152647 0.988281 433.089 320.258)" fill="#252525"/>
<rect width="76.536" height="28.8099" transform="matrix(0.964869 0.262798 -0.262885 0.964808 298.548 333.317)" fill="#F5A020"/>
<rect width="76.6202" height="28.8098" transform="matrix(0.967793 0.251816 -0.2519 0.967735 232.572 373.709)" fill="#F5A020"/>
<rect width="84.4278" height="33.2356" transform="matrix(-0.265433 0.964111 -0.964172 -0.265345 329.987 342.135)" fill="#F5A020"/>
<rect width="30.8678" height="86.4992" transform="matrix(-0.2594 0.965748 -0.965815 -0.259315 234.187 260.452)" fill="#F5A020"/>
<rect width="30.8718" height="180.792" transform="matrix(-0.966757 -0.255779 0.255863 -0.966691 187.879 435.144)" fill="#F5A020"/>
<path d="M188.65 430.38L182.847 428.496L180.896 424.665L181.447 419.087L169.841 415.318L167.94 421.097L161.487 424.118L155.684 422.233L152.958 417.83L141.502 424.343L144.229 428.746L143.578 433.651L138 437.916L133.073 437.275L130.621 448.631L136.724 452.531L137.824 459.924L132.547 466.205L138.099 475.683L144.852 474.678L150.855 477.907L152.055 485.971L162.786 488.497L167.288 481.644L173.266 480.068L180.444 486.556L189.774 479.673L188.298 474.397L192.125 467.645L199.654 467.212L202.03 459.989L202.106 455.856L194.827 448.696L195.478 443.79L200.28 438.954L194.628 428.804L188.65 430.38Z" fill="#F5A020"/>
<path d="M182.689 424.394C183.752 428.848 189.226 430.518 192.53 427.155C192.722 426.959 192.953 426.806 193.208 426.706C193.463 426.606 193.736 426.561 194.01 426.573C194.284 426.586 194.552 426.656 194.797 426.78C195.042 426.903 195.258 427.077 195.431 427.289C198.404 430.897 200.715 434.907 202.364 439.319C202.428 439.495 202.454 439.683 202.438 439.869C202.422 440.056 202.366 440.237 202.274 440.399C202.181 440.561 202.054 440.702 201.901 440.81C201.749 440.918 201.575 440.991 201.391 441.024C194.288 442.302 195.366 453.809 203.748 454.08C203.887 454.084 204.025 454.116 204.152 454.175C204.279 454.234 204.393 454.318 204.487 454.423C204.581 454.527 204.653 454.65 204.699 454.784C204.746 454.918 204.765 455.059 204.755 455.201C204.422 460.064 203.32 464.734 201.45 469.21C201.253 469.681 200.905 469.871 200.404 469.779L195.978 469.03C195.544 468.956 195.116 468.983 194.694 469.11C192.037 469.91 190.552 471.632 190.237 474.274C189.956 476.553 191.29 478.011 192.56 479.783C192.701 479.98 192.766 480.221 192.743 480.461C192.721 480.701 192.612 480.923 192.437 481.085C188.801 484.572 184.593 487.108 179.81 488.694C179.616 488.756 179.406 488.748 179.218 488.67C179.029 488.591 178.875 488.449 178.782 488.267C175.143 481.049 166.412 481.202 165.192 489.861C165.14 490.224 164.952 490.554 164.666 490.783C164.38 491.013 164.018 491.125 163.652 491.098C158.889 490.711 154.303 489.571 149.895 487.677C149.414 487.472 149.242 487.116 149.377 486.608L150.387 482.923C150.524 482.424 150.528 481.926 150.399 481.43C149.508 478.102 147.372 476.528 143.989 476.709C142.225 476.806 141.019 477.966 139.563 478.928C139.369 479.052 139.139 479.104 138.914 479.074C138.689 479.044 138.485 478.934 138.339 478.765C135.097 475.013 132.487 470.849 130.511 466.274C130.455 466.144 130.427 466.003 130.428 465.86C130.429 465.718 130.46 465.578 130.519 465.449C130.577 465.319 130.662 465.203 130.768 465.108C130.874 465.013 130.998 464.942 131.133 464.898C136.308 463.17 137.583 459.603 134.958 454.194C133.641 451.463 130.9 452.216 128.691 451.081C128.51 450.986 128.364 450.838 128.27 450.657C128.177 450.476 128.141 450.27 128.168 450.068C128.799 445.298 130.049 440.694 131.916 436.256C132.098 435.814 132.426 435.641 132.9 435.737L136.7 436.538C137.099 436.626 137.502 436.617 137.909 436.51C141.27 435.624 142.883 433.437 142.75 429.949C142.724 429.401 142.558 428.901 142.252 428.45L140.323 425.589C140.19 425.389 140.134 425.148 140.165 424.91C140.195 424.672 140.31 424.453 140.489 424.294C144.215 420.987 148.433 418.482 153.142 416.778C153.326 416.712 153.527 416.713 153.711 416.782C153.895 416.85 154.05 416.981 154.149 417.153L155.839 420.077C156.063 420.467 156.367 420.781 156.751 421.018C160.476 423.382 163.784 422.848 166.674 419.418C166.977 419.05 167.177 418.634 167.273 418.169L167.886 415.15C167.981 414.676 168.264 414.45 168.736 414.472C173.722 414.687 178.46 415.86 182.949 417.99C183.169 418.096 183.346 418.272 183.451 418.49C183.556 418.708 183.583 418.954 183.527 419.188C183.107 421.087 182.24 422.487 182.689 424.394ZM193.453 431.229C184.184 434.527 179.032 430.019 179.441 420.721C179.463 420.258 179.251 419.972 178.803 419.864L171.792 418.145C171.171 417.989 170.778 418.218 170.612 418.832C168.198 427.254 157.389 428.172 152.544 421.465C152.195 420.973 151.764 420.886 151.25 421.201L145.119 424.93C144.909 425.056 144.757 425.259 144.695 425.498C144.632 425.737 144.665 425.992 144.786 426.209C149.214 433.917 142.395 440.717 134.578 439.974C134.131 439.93 133.852 440.124 133.741 440.554L132.028 447.478C131.895 448.004 132.085 448.353 132.598 448.525C141.001 451.265 141.695 461.573 135.384 466.875C134.941 467.235 134.867 467.66 135.16 468.151L138.71 474.029C138.766 474.124 138.852 474.197 138.953 474.237C139.053 474.277 139.164 474.282 139.266 474.25C147.286 471.814 155.464 475.54 153.462 484.689C153.34 485.231 153.551 485.568 154.095 485.699L161.061 487.396C161.257 487.444 161.463 487.42 161.642 487.33C161.821 487.24 161.961 487.09 162.036 486.906C165.511 478.851 174.61 476.724 180.367 484.096C180.519 484.289 180.734 484.422 180.971 484.47C181.209 484.518 181.454 484.479 181.661 484.359L187.714 480.849C188.163 480.589 188.287 480.221 188.087 479.744C184.675 471.636 189.429 464.302 198.465 465.733C198.716 465.77 198.971 465.712 199.18 465.571C199.389 465.43 199.536 465.216 199.592 464.971L201.213 458.075C201.313 457.637 201.146 457.349 200.712 457.211C192.711 454.77 190.793 443.181 197.926 438.682C198.107 438.567 198.235 438.386 198.284 438.177C198.333 437.969 198.298 437.749 198.188 437.566L194.603 431.638C194.334 431.19 193.951 431.053 193.453 431.229Z" fill="#F5A020"/>
<path d="M169.093 470.56C164.369 471.263 159.559 470.061 155.721 467.218C151.884 464.375 149.333 460.124 148.63 455.401C147.927 450.678 149.129 445.869 151.973 442.032C154.816 438.195 159.068 435.644 163.792 434.941C168.516 434.238 173.326 435.441 177.164 438.284C181.002 441.127 183.553 445.377 184.256 450.101C184.959 454.824 183.756 459.633 180.913 463.47C178.069 467.307 173.818 469.857 169.093 470.56ZM168.513 466.934C172.277 466.374 175.665 464.342 177.931 461.285C180.196 458.227 181.154 454.395 180.594 450.632C180.034 446.868 178.001 443.481 174.944 441.216C171.886 438.95 168.053 437.992 164.288 438.552C160.524 439.112 157.136 441.145 154.87 444.202C152.605 447.259 151.646 451.091 152.207 454.855C152.767 458.619 154.799 462.006 157.857 464.271C160.915 466.537 164.748 467.495 168.513 466.934Z" fill="#252525"/>
<ellipse cx="15.9479" cy="15.9509" rx="15.9479" ry="15.9509" transform="matrix(0.147214 0.989104 -0.989113 0.147157 179.716 433.613)" fill="#252525"/>
<rect width="76.5257" height="28.8137" transform="matrix(-0.268183 0.96335 -0.963411 -0.268094 167.399 299.027)" fill="#F5A020"/>
<rect width="76.6097" height="28.8138" transform="matrix(-0.257214 0.966336 -0.966395 -0.257128 127.366 232.846)" fill="#F5A020"/>
<rect width="84.4391" height="33.2311" transform="matrix(-0.9627 -0.270637 0.270727 -0.962638 158.407 330.412)" fill="#F5A020"/>
<rect width="30.8718" height="86.4881" transform="matrix(-0.966917 -0.255175 0.255258 -0.96685 240.445 235.144)" fill="#F5A020"/>
<rect width="30.8678" height="180.816" transform="matrix(0.251717 -0.967779 0.967845 0.251634 65.5205 189.593)" fill="#F5A020"/>
<path d="M70.288 190.345L72.148 184.536L75.9717 182.569L81.5525 183.095L85.2724 171.476L79.4848 169.6L76.4357 163.161L78.2956 157.352L82.6877 154.607L76.1245 143.182L71.7324 145.926L66.8233 145.297L62.5341 139.738L63.1539 134.809L51.7855 132.407L47.9103 138.525L40.521 139.657L34.2165 134.407L24.7605 139.999L25.7944 146.747L22.5909 152.762L14.5299 153.997L12.0501 164.735L18.923 169.207L20.5253 175.177L14.0664 182.382L20.9913 191.68L26.2619 190.182L33.0314 193.98L33.4969 201.505L40.7314 203.85L44.8653 203.907L51.9959 196.6L56.9049 197.229L61.7625 202.01L71.8903 196.315L70.288 190.345Z" fill="#F5A020"/>
<path d="M76.2491 184.36C71.7993 185.441 70.1515 190.921 73.5298 194.21C73.7264 194.401 73.8803 194.632 73.9816 194.886C74.083 195.141 74.1294 195.414 74.1179 195.688C74.1063 195.962 74.0372 196.23 73.9148 196.475C73.7925 196.721 73.6197 196.937 73.4078 197.112C69.812 200.099 65.8111 202.427 61.4052 204.094C61.2297 204.16 61.0422 204.186 60.8556 204.171C60.669 204.156 60.488 204.101 60.3251 204.009C60.1622 203.917 60.0215 203.79 59.9128 203.638C59.8041 203.486 59.73 203.312 59.6957 203.129C58.3874 196.033 46.8833 197.161 46.6473 205.541C46.6444 205.681 46.6129 205.818 46.5546 205.946C46.4964 206.073 46.4126 206.187 46.3084 206.282C46.2041 206.376 46.0815 206.449 45.9479 206.496C45.8144 206.542 45.6726 206.562 45.5311 206.553C40.6652 206.241 35.9899 205.16 31.5054 203.309C31.0335 203.114 30.842 202.767 30.9311 202.266L31.662 197.837C31.7337 197.403 31.705 196.975 31.5759 196.553C30.7641 193.901 29.0361 192.423 26.3917 192.12C24.1115 191.849 22.6585 193.188 20.892 194.466C20.6954 194.608 20.4545 194.674 20.2147 194.652C19.9748 194.63 19.7523 194.522 19.5888 194.348C16.0863 190.729 13.5316 186.532 11.9249 181.757C11.8614 181.563 11.869 181.353 11.9464 181.165C12.0239 180.976 12.166 180.821 12.3474 180.727C19.5514 177.058 19.3609 168.329 10.695 167.146C10.3315 167.096 10.0008 166.909 9.76992 166.625C9.53903 166.34 9.42513 165.978 9.45127 165.613C9.81763 160.849 10.9385 156.259 12.8137 151.843C13.0163 151.362 13.372 151.188 13.8807 151.321L17.5705 152.315C18.0702 152.45 18.568 152.452 19.0638 152.321C22.3891 151.416 23.9539 149.273 23.7583 145.892C23.6539 144.128 22.4888 142.928 21.5202 141.476C21.3948 141.283 21.3418 141.053 21.3708 140.828C21.3998 140.603 21.5089 140.398 21.6781 140.252C25.4167 136.994 29.5698 134.368 34.1374 132.372C34.2679 132.315 34.4087 132.286 34.5509 132.287C34.6931 132.288 34.8335 132.318 34.9633 132.376C35.0931 132.434 35.2093 132.519 35.3046 132.624C35.3999 132.729 35.4723 132.853 35.5169 132.988C37.2666 138.154 40.8406 139.413 46.2388 136.766C48.9649 135.438 48.1999 132.7 49.3255 130.487C49.4199 130.306 49.5674 130.159 49.7481 130.065C49.9289 129.97 50.1342 129.934 50.3364 129.959C55.1101 130.571 59.7204 131.8 64.1675 133.648C64.6097 133.828 64.7843 134.156 64.6911 134.63L63.9057 138.432C63.8195 138.832 63.8305 139.235 63.9389 139.641C64.84 142.997 67.0342 144.601 70.5215 144.453C71.0698 144.424 71.5691 144.256 72.0194 143.948L74.8728 142.008C75.072 141.874 75.3127 141.817 75.5507 141.846C75.7888 141.876 76.0081 141.99 76.1686 142.168C79.4918 145.879 82.0157 150.085 83.7401 154.787C83.807 154.969 83.8066 155.17 83.7389 155.355C83.6711 155.539 83.5404 155.695 83.3695 155.795L80.452 157.497C80.0627 157.722 79.7502 158.027 79.5145 158.413C77.1663 162.147 77.714 165.452 81.1578 168.326C81.5265 168.628 81.9438 168.826 82.4096 168.921L85.431 169.52C85.9058 169.613 86.1334 169.895 86.1135 170.367C85.9194 175.353 84.7666 180.095 82.6551 184.592C82.5509 184.812 82.3753 184.99 82.1577 185.096C81.9401 185.202 81.6936 185.23 81.4593 185.176C79.5583 184.763 78.1551 183.902 76.2491 184.36ZM69.4592 195.151C66.1206 185.897 70.6072 180.728 79.9084 181.096C80.3722 181.117 80.6573 180.903 80.7637 180.455L82.4523 173.438C82.6058 172.817 82.3753 172.425 81.7607 172.261C73.3263 169.884 72.362 159.081 79.0499 154.208C79.5397 153.858 79.6256 153.426 79.3076 152.914L75.5518 146.8C75.4254 146.59 75.2211 146.439 74.9822 146.378C74.7432 146.317 74.4884 146.35 74.2716 146.472C66.5809 150.932 59.7509 144.144 60.4599 136.326C60.5018 135.878 60.3072 135.6 59.876 135.491L52.9437 133.808C52.417 133.677 52.0685 133.869 51.8985 134.382C49.194 142.796 38.8877 143.533 33.5577 137.246C33.1953 136.805 32.7696 136.733 32.2806 137.028L26.4163 140.602C26.3218 140.659 26.2489 140.745 26.2093 140.846C26.1697 140.947 26.1656 141.057 26.1977 141.16C28.6683 149.167 24.9764 157.36 15.8179 155.397C15.2746 155.278 14.9386 155.49 14.81 156.034L13.1422 163.006C13.0958 163.203 13.1202 163.408 13.2108 163.587C13.3015 163.765 13.4525 163.904 13.6367 163.979C21.7087 167.418 23.8751 176.506 16.5258 182.294C16.3335 182.447 16.2016 182.662 16.1543 182.9C16.107 183.138 16.1474 183.382 16.2682 183.588L19.8049 189.626C20.0669 190.073 20.4358 190.196 20.9116 189.994C29.0064 186.548 36.3628 191.269 34.9704 200.309C34.9344 200.56 34.9932 200.816 35.1353 201.024C35.2773 201.232 35.4921 201.378 35.7368 201.433L42.6411 203.024C43.08 203.122 43.3674 202.954 43.5035 202.519C45.9106 194.51 57.4933 192.543 62.0239 199.655C62.1395 199.835 62.3212 199.963 62.53 200.011C62.7388 200.059 62.9582 200.023 63.1411 199.912L69.0553 196.302C69.5021 196.032 69.6367 195.648 69.4592 195.151Z" fill="#F5A020"/>
<path d="M30.0135 170.962C29.2903 166.241 30.4722 161.427 33.2992 157.578C36.1262 153.729 40.3668 151.16 45.088 150.437C49.8093 149.714 54.6245 150.896 58.4743 153.722C62.3241 156.549 64.8933 160.788 65.6165 165.509C66.3398 170.229 65.1579 175.043 62.3309 178.892C59.5038 182.741 55.2633 185.31 50.542 186.033C45.8208 186.756 41.0056 185.575 37.1558 182.748C33.3059 179.922 30.7368 175.682 30.0135 170.962ZM33.6376 170.365C34.2139 174.126 36.261 177.505 39.3287 179.757C42.3963 182.009 46.2332 182.951 49.9952 182.375C53.7573 181.798 57.1363 179.752 59.3889 176.685C61.6416 173.618 62.5833 169.781 62.007 166.02C61.4307 162.259 59.3836 158.881 56.3159 156.628C53.2482 154.376 49.4114 153.435 45.6493 154.011C41.8873 154.587 38.5083 156.634 36.2557 159.701C34.003 162.768 33.0613 166.604 33.6376 170.365Z" fill="#252525"/>
<ellipse cx="15.9509" cy="15.9479" rx="15.9509" ry="15.9479" transform="matrix(-0.988474 0.151394 -0.151452 -0.988464 67.0186 181.428)" fill="#252525"/>
<rect width="76.536" height="28.8099" transform="matrix(-0.964551 -0.263964 0.264051 -0.96449 201.571 168.533)" fill="#F5A020"/>
<rect width="76.6202" height="28.8098" transform="matrix(-0.967488 -0.252985 0.25307 -0.96743 267.591 128.22)" fill="#F5A020"/>
<rect width="84.4278" height="33.2356" transform="matrix(0.266598 -0.963789 0.963851 0.26651 170.144 159.676)" fill="#F5A020"/>
<rect width="30.8678" height="86.4992" transform="matrix(0.251124 -0.967932 0.967999 0.251042 265.516 241.863)" fill="#F5A020"/>
<rect width="30.8718" height="180.792" transform="matrix(0.968911 0.247498 -0.247579 0.968845 310.329 66.7808)" fill="#F5A020"/>
<path d="M309.597 71.5511L315.416 73.3858L317.399 77.2004L316.896 82.7823L328.534 86.4517L330.385 80.6573L336.812 77.5813L342.631 79.4161L345.395 83.7956L356.794 77.1849L354.031 72.8054L354.639 67.8947L360.18 63.5825L365.113 64.1812L367.467 52.8049L361.331 48.9566L360.168 41.5737L365.391 35.2481L359.758 25.8179L353.014 26.8804L346.983 23.7033L345.714 15.6492L334.963 13.2158L330.519 20.1064L324.555 21.7338L317.322 15.3071L308.051 22.2702L309.572 27.5334L305.803 34.3177L298.278 34.8152L295.963 42.0582L295.924 46.1916L303.263 53.2894L302.654 58.2002L297.894 63.0772L303.633 73.1785L309.597 71.5511Z" fill="#F5A020"/>
<path d="M315.609 77.4863C314.509 73.0421 309.021 71.4181 305.745 74.8097C305.555 75.007 305.325 75.1619 305.071 75.2643C304.817 75.3667 304.544 75.4143 304.27 75.4039C303.996 75.3936 303.728 75.3256 303.482 75.2043C303.236 75.083 303.018 74.9112 302.843 74.7001C299.84 71.1178 297.495 67.1277 295.808 62.7298C295.742 62.5547 295.715 62.3673 295.729 62.1807C295.743 61.9941 295.797 61.8128 295.889 61.6496C295.98 61.4864 296.106 61.3451 296.257 61.2358C296.409 61.1264 296.583 61.0516 296.766 61.0166C303.858 59.6782 302.681 48.1813 294.298 47.9812C294.158 47.9789 294.02 47.948 293.893 47.8903C293.765 47.8326 293.65 47.7493 293.555 47.6455C293.46 47.5416 293.387 47.4194 293.34 47.286C293.293 47.1527 293.272 47.011 293.28 46.8695C293.572 42.0032 294.634 37.3244 296.466 32.8329C296.658 32.3602 297.005 32.1673 297.507 32.2542L301.939 32.966C302.374 33.0359 302.801 33.0053 303.223 32.8745C305.872 32.0516 307.343 30.3175 307.635 27.6724C307.896 25.3915 306.55 23.9446 305.265 22.1839C305.122 21.9879 305.055 21.7474 305.076 21.5075C305.096 21.2676 305.203 21.0447 305.377 20.8805C308.982 17.3632 313.169 14.7911 317.938 13.1643C318.131 13.1 318.341 13.1067 318.53 13.1833C318.719 13.2599 318.875 13.4014 318.97 13.5824C322.67 20.7692 331.4 20.5415 332.546 11.8723C332.595 11.5086 332.78 11.1772 333.064 10.9451C333.348 10.7131 333.709 10.5977 334.074 10.6222C338.841 10.9682 343.436 12.0691 347.861 13.9252C348.343 14.1257 348.519 14.4805 348.387 14.9897L347.41 18.683C347.277 19.1832 347.277 19.6809 347.41 20.176C348.329 23.4967 350.479 25.0521 353.861 24.842C355.624 24.7301 356.82 23.5602 358.267 22.5855C358.46 22.4594 358.69 22.4054 358.915 22.4334C359.14 22.4615 359.345 22.5697 359.492 22.7382C362.767 26.4621 365.412 30.6031 367.428 35.1612C367.485 35.2914 367.514 35.4321 367.514 35.5743C367.513 35.7165 367.484 35.857 367.426 35.987C367.369 36.117 367.285 36.2336 367.18 36.3293C367.075 36.425 366.952 36.4979 366.817 36.5431C361.657 38.3145 360.413 41.8931 363.084 47.2789C364.424 49.9988 367.159 49.2223 369.378 50.3382C369.559 50.4317 369.706 50.5786 369.802 50.7589C369.897 50.9392 369.934 51.1443 369.909 51.3466C369.318 56.1219 368.108 60.7365 366.279 65.1906C366.101 65.6335 365.774 65.8094 365.3 65.7182L361.493 64.9493C361.093 64.8648 360.69 64.8776 360.284 64.9876C356.931 65.9029 355.336 68.1035 355.499 71.5894C355.53 72.1375 355.701 72.636 356.011 73.0849L357.964 75.9294C358.098 76.128 358.156 76.3684 358.128 76.6065C358.099 76.8446 357.986 77.0644 357.809 77.2256C354.111 80.564 349.915 83.1053 345.22 84.8495C345.038 84.9171 344.837 84.9175 344.652 84.8506C344.467 84.7837 344.311 84.6537 344.21 84.4833L342.495 81.5736C342.268 81.1854 341.962 80.8742 341.575 80.6402C337.83 78.3084 334.527 78.8702 331.667 82.3255C331.366 82.6954 331.17 83.1135 331.078 83.5796L330.491 86.6029C330.401 87.0781 330.119 87.3068 329.647 87.289C324.659 87.1161 319.912 85.9838 315.404 83.892C315.184 83.7887 315.005 83.6139 314.898 83.3968C314.791 83.1797 314.762 82.9334 314.816 82.699C315.22 80.7966 316.075 79.3899 315.609 77.4863ZM304.787 70.744C314.028 67.3665 319.218 71.8301 318.889 81.131C318.87 81.5948 319.085 81.8789 319.534 81.9833L326.56 83.6416C327.182 83.7925 327.573 83.5603 327.734 82.9451C330.075 74.5024 340.877 73.492 345.778 80.1578C346.131 80.6459 346.563 80.73 347.074 80.4098L353.173 76.6287C353.382 76.5015 353.533 76.2966 353.593 76.0574C353.653 75.8182 353.619 75.5636 353.496 75.3474C349.002 67.6774 355.762 60.8197 363.585 61.4952C364.033 61.5352 364.31 61.3394 364.417 60.9078L366.071 53.9698C366.2 53.4426 366.007 53.0951 365.493 52.9272C357.066 50.2593 356.284 39.9582 362.549 34.6025C362.989 34.2383 363.06 33.8124 362.762 33.3247L359.163 27.4769C359.105 27.3827 359.019 27.3102 358.918 27.271C358.816 27.2318 358.706 27.2282 358.604 27.2607C350.606 29.765 342.396 26.1089 344.32 16.9439C344.436 16.4002 344.222 16.0652 343.678 15.939L336.697 14.3013C336.501 14.2557 336.295 14.2809 336.117 14.3724C335.939 14.4638 335.801 14.6154 335.727 14.7998C332.321 22.8848 323.24 25.0896 317.421 17.7666C317.266 17.575 317.051 17.444 316.813 17.3977C316.575 17.3514 316.331 17.3929 316.125 17.5145L310.101 21.0764C309.655 21.3402 309.534 21.7095 309.738 22.1844C313.219 30.2628 308.529 37.6378 299.481 36.2843C299.229 36.2494 298.974 36.3093 298.767 36.4522C298.559 36.5951 298.414 36.8105 298.36 37.0554L296.798 43.9651C296.702 44.4042 296.871 44.6909 297.307 44.8251C305.328 47.1975 307.345 58.7694 300.25 63.3295C300.071 63.4458 299.944 63.628 299.897 63.837C299.85 64.0459 299.886 64.2651 299.999 64.4475L303.634 70.345C303.906 70.7906 304.291 70.9235 304.787 70.744Z" fill="#F5A020"/>
<path d="M328.815 31.2053C333.533 30.462 338.353 31.6231 342.215 34.4331C346.077 37.2431 348.664 41.4718 349.408 46.189C350.151 50.9062 348.99 55.7254 346.179 59.5865C343.369 63.4476 339.139 66.0344 334.421 66.7776C329.703 67.5209 324.883 66.3598 321.021 63.5498C317.159 60.7398 314.572 56.5111 313.828 51.7939C313.085 47.0768 314.246 42.2575 317.057 38.3964C319.867 34.5353 324.097 31.9486 328.815 31.2053ZM329.427 34.826C325.667 35.4183 322.297 37.4795 320.057 40.5561C317.818 43.6328 316.893 47.4729 317.485 51.2316C318.077 54.9904 320.139 58.36 323.216 60.5991C326.293 62.8381 330.134 63.7633 333.894 63.1711C337.653 62.5788 341.024 60.5176 343.263 57.441C345.503 54.3643 346.428 50.5242 345.836 46.7655C345.243 43.0067 343.182 39.6371 340.104 37.398C337.027 35.159 333.186 34.2338 329.427 34.826Z" fill="#252525"/>
<ellipse cx="15.9479" cy="15.9509" rx="15.9479" ry="15.9509" transform="matrix(-0.155675 -0.987809 0.987818 -0.155615 318.504 68.2424)" fill="#252525"/>
<rect width="76.5257" height="28.8137" transform="matrix(0.259927 -0.965609 0.96567 0.259841 331.982 202.718)" fill="#F5A020"/>
<rect width="76.6097" height="28.8138" transform="matrix(0.248933 -0.968502 0.96856 0.24885 372.583 268.554)" fill="#F5A020"/>
<rect width="84.4391" height="33.2311" transform="matrix(0.964981 0.26239 -0.262477 0.964919 340.704 171.258)" fill="#F5A020"/>
</svg>
