<svg width="422" height="226" viewBox="0 0 422 226" fill="none" xmlns="http://www.w3.org/2000/svg">
<path d="M40.1166 97.9888C42.4166 99.1944 44.6166 100.449 46.7167 101.751C51.1333 104.483 48.85 106.447 48.85 109.587C48.8389 115.071 48.8333 120.489 48.8333 125.843C48.835 125.911 48.8017 125.978 48.7377 126.035C48.6738 126.091 48.582 126.136 48.4744 126.162C48.3668 126.188 48.2482 126.195 48.1339 126.181C48.0196 126.168 47.9149 126.135 47.8333 126.086C43.4667 123.617 18.85 110.696 18.85 108.333C18.8278 88.2212 18.8222 68.0768 18.8333 47.8999C18.8332 47.4894 19.115 47.0943 19.6166 46.8013L31.25 40.0152C31.838 39.6656 32.1672 39.1943 32.1666 38.7027C32.1666 28.0407 32.1666 17.3981 32.1666 6.77491C32.1666 3.79019 34.7667 2.28324 38.5167 0.669354C38.6238 0.621891 38.7517 0.59298 38.8856 0.585923C39.0196 0.578866 39.1543 0.593948 39.2743 0.629448C39.3943 0.664949 39.4947 0.719436 39.5641 0.786669C39.6335 0.853902 39.669 0.931166 39.6666 1.00963V97.3957C39.6666 97.6291 39.8166 97.8268 40.1166 97.9888Z" fill="#E49311"/>
<path d="M14.6667 110.501C21.7222 114.475 27.2167 117.764 31.15 120.369C33.3333 121.818 32.1333 123.374 32.15 124.696C32.3611 142.001 32.4055 159.307 32.2833 176.613C32.25 180.858 32.4611 185.123 32.9167 189.407C32.9275 189.476 32.901 189.545 32.8407 189.605C32.7805 189.665 32.6896 189.712 32.5809 189.74C32.4722 189.768 32.3512 189.775 32.235 189.761C32.1188 189.746 32.0133 189.711 31.9333 189.66L21.1167 182.874C20.7055 182.614 20.5 182.307 20.5 181.95V124.735C20.4998 124.535 20.4319 124.337 20.3003 124.154C20.1686 123.97 19.9759 123.804 19.7333 123.665L0.833319 112.883C0.333319 112.598 0.0833173 112.251 0.0833173 111.843V94.8195C0.0814198 94.7356 0.120872 94.6532 0.196976 94.5821C0.27308 94.511 0.382631 94.4541 0.512582 94.4182C0.642533 94.3824 0.787411 94.3691 0.929964 94.3799C1.07252 94.3907 1.20674 94.4252 1.31665 94.4792L12.9 100.06C13.4444 100.326 13.7278 100.669 13.75 101.09L14.0167 109.636C14.0278 109.973 14.2444 110.262 14.6667 110.501Z" fill="#E49311"/>
<path d="M53.9 218.068L53.45 218.418C53.0833 218.71 53.2111 218.855 53.8333 218.855H241.333C241.789 218.855 241.917 218.972 241.717 219.205C238.283 223.289 232.878 225.311 225.5 225.272C170.689 225.006 115.9 224.948 61.1333 225.097C60.7268 225.097 60.3326 225.003 60.0333 224.835L0.983335 190.476C0.673893 190.296 0.500032 190.051 0.5 189.796V152.832C0.5 152.482 0.750001 152.213 1.25 152.025L14.4 147.008C15.1111 146.736 15.4778 146.849 15.5 147.349L17 183.729C17.0222 184.105 17.2444 184.423 17.6667 184.682L49.15 204.185C49.3252 204.292 49.5516 204.366 49.7997 204.397C50.0479 204.428 50.3064 204.415 50.5418 204.36C50.7771 204.304 50.9784 204.209 51.1195 204.086C51.2607 203.962 51.3352 203.817 51.3333 203.669V105.65C51.3327 105.568 51.3738 105.487 51.4514 105.418C51.5291 105.349 51.6399 105.295 51.7699 105.263C51.8998 105.231 52.0432 105.222 52.182 105.237C52.3208 105.252 52.4488 105.291 52.55 105.349L61.1167 110.112C61.5389 110.346 61.75 110.634 61.75 110.978V204.155C61.75 204.493 62.0333 204.697 62.6 204.768C66.75 205.303 69.6 205.04 72.7667 203.193C80.6667 198.591 88.5555 193.986 96.4333 189.378C96.8222 189.151 97.2889 189.037 97.8333 189.037L160.517 189.28C161.228 189.287 161.778 189.465 162.167 189.815L170.383 197.165C170.472 197.241 170.524 197.33 170.533 197.421C170.542 197.513 170.509 197.605 170.436 197.687C170.363 197.769 170.253 197.839 170.118 197.889C169.982 197.939 169.827 197.968 169.667 197.972L107.35 198.867C106.794 198.873 106.317 198.99 105.917 199.217C94.9722 205.205 84.1222 211.207 73.3667 217.222C69.7667 219.244 59.0333 218.146 54.4833 217.912C54.3713 217.907 54.2587 217.918 54.1565 217.945C54.0542 217.973 53.9659 218.015 53.9 218.068Z" fill="#E49311"/>
<path d="M48.8333 132.172V144.52C48.8315 144.596 48.7914 144.67 48.718 144.733C48.6447 144.796 48.5412 144.845 48.4206 144.874C48.2999 144.903 48.1673 144.91 48.0392 144.896C47.9111 144.881 47.7932 144.845 47.7 144.792L34.6667 137.16C34.5511 137.089 34.4857 136.995 34.4833 136.897L34.05 124.715C34.0451 124.638 34.0804 124.561 34.1512 124.495C34.222 124.429 34.3251 124.377 34.4471 124.345C34.5692 124.314 34.7046 124.305 34.8359 124.319C34.9671 124.333 35.0882 124.369 35.1833 124.424L48.6333 131.89C48.6975 131.927 48.7484 131.971 48.7827 132.019C48.8171 132.068 48.8343 132.12 48.8333 132.172Z" fill="#E49311"/>
<path d="M48.8333 149.925V161.854C48.8332 161.942 48.7887 162.028 48.7055 162.101C48.6223 162.174 48.504 162.231 48.3654 162.266C48.2267 162.3 48.0739 162.309 47.926 162.293C47.778 162.277 47.6414 162.236 47.5333 162.175L34.7666 154.747C34.6318 154.666 34.5544 154.559 34.55 154.446L34.05 142.293C34.0468 142.204 34.0888 142.117 34.1708 142.043C34.2527 141.968 34.3708 141.909 34.5101 141.874C34.6494 141.838 34.8036 141.828 34.9532 141.844C35.1027 141.859 35.2408 141.901 35.35 141.962L48.6 149.604C48.6737 149.646 48.7323 149.696 48.7724 149.751C48.8125 149.806 48.8332 149.865 48.8333 149.925Z" fill="#E49311"/>
<path d="M48.8333 168.047V180.375C48.8331 180.44 48.7997 180.504 48.7374 180.558C48.6751 180.613 48.5867 180.655 48.4833 180.68C48.38 180.705 48.2662 180.711 48.1565 180.699C48.0468 180.686 47.9459 180.654 47.8667 180.608L34.7167 172.938C34.6103 172.876 34.5504 172.792 34.55 172.704L34.0833 160.318C34.0802 160.252 34.1112 160.187 34.1722 160.131C34.2332 160.075 34.3214 160.032 34.4255 160.006C34.5296 159.979 34.6447 159.972 34.756 159.984C34.8674 159.997 34.9698 160.028 35.05 160.075L48.6667 167.814C48.773 167.876 48.833 167.96 48.8333 168.047Z" fill="#E49311"/>
<path d="M35.4833 176.846L48.5833 184.118C48.6618 184.162 48.7244 184.215 48.7673 184.273C48.8103 184.332 48.8327 184.395 48.8333 184.458V196.533C48.8357 196.629 48.7891 196.722 48.6995 196.802C48.61 196.881 48.4816 196.943 48.3309 196.98C48.1802 197.017 48.0141 197.026 47.8541 197.007C47.6941 196.988 47.5476 196.942 47.4333 196.874L34.8333 189.553C34.6849 189.464 34.6013 189.346 34.6 189.222L34.1 177.206C34.0942 177.111 34.1372 177.017 34.2233 176.936C34.3095 176.856 34.435 176.792 34.5836 176.753C34.7323 176.715 34.8974 176.703 35.0577 176.719C35.218 176.736 35.3662 176.78 35.4833 176.846Z" fill="#E49311"/>
<path d="M177.5 208.258L177.35 207.967C177.239 207.766 177.006 207.672 176.65 207.685C166.306 208.119 157.594 208.236 150.517 208.035C148.75 207.989 147.761 208.375 147.55 209.192C147.461 209.542 147.205 209.846 146.783 210.106L135.25 217.125C134.828 217.384 134.311 217.514 133.7 217.514H114.183C113.989 217.513 113.799 217.479 113.638 217.415C113.477 217.351 113.353 217.261 113.279 217.156C113.206 217.051 113.188 216.936 113.227 216.825C113.267 216.713 113.362 216.612 113.5 216.532L125.55 209.658C125.983 209.412 126.506 209.269 127.117 209.231C129.15 209.124 146.1 209.133 145.917 208.258C145.85 207.934 145.544 207.792 145 207.831C138.322 208.284 130.85 208.33 122.583 207.967C119.867 207.85 119.517 209.318 118.417 210.086C114.75 212.601 110.867 214.976 106.767 217.213C106.4 217.413 105.961 217.514 105.45 217.514H86.3666C86.1334 217.516 85.9046 217.477 85.7096 217.402C85.5146 217.328 85.3624 217.221 85.2727 217.095C85.183 216.97 85.1599 216.831 85.2064 216.698C85.2528 216.565 85.3667 216.442 85.5333 216.347L98.1999 209.075C98.6222 208.835 98.6833 208.569 98.3833 208.278C97.0666 206.965 107.717 202.026 109.983 201.035C110.428 200.84 110.933 200.743 111.5 200.743C143.589 200.743 175.65 200.75 207.683 200.763C211.533 200.763 225.733 191.478 229.283 189.456C229.683 189.229 230.161 189.112 230.717 189.106L260.517 189.008C260.606 189.007 260.694 189.021 260.771 189.049C260.847 189.076 260.908 189.116 260.947 189.163C260.986 189.21 261 189.263 260.989 189.315C260.978 189.367 260.941 189.416 260.883 189.456L250.833 196.699C250.444 196.977 249.939 197.117 249.317 197.117C244.461 197.084 239.722 197.078 235.1 197.097C229.9 197.117 220.133 207.082 211.967 208.074C211.444 208.138 211.006 208.281 210.65 208.501L196.783 217.057C196.283 217.362 195.672 217.514 194.95 217.514H175.067C174.022 217.514 173.839 217.284 174.517 216.824C176.5 215.463 186.55 208.939 190.067 208.978C195.811 209.049 201.539 209.023 207.25 208.9C207.939 208.887 208.139 208.699 207.85 208.336L207.633 208.074C207.456 207.86 207.161 207.756 206.75 207.763L181.667 208.103C181.178 208.109 180.767 208.219 180.433 208.433L166.7 217.106C166.278 217.378 165.75 217.514 165.117 217.514H145.683C145.44 217.515 145.202 217.473 145 217.393C144.799 217.313 144.643 217.2 144.554 217.067C144.464 216.934 144.444 216.788 144.497 216.647C144.55 216.507 144.673 216.379 144.85 216.279L157.033 209.522C157.544 209.237 158.155 209.088 158.867 209.075L177.017 208.657C177.097 208.654 177.175 208.641 177.246 208.619C177.316 208.596 177.377 208.564 177.424 208.526C177.47 208.488 177.501 208.444 177.514 208.397C177.528 208.351 177.523 208.303 177.5 208.258ZM117.475 208.316C117.473 208.274 117.456 208.232 117.426 208.194C117.397 208.155 117.354 208.121 117.301 208.092C117.249 208.063 117.187 208.041 117.119 208.026C117.051 208.011 116.979 208.004 116.907 208.006L100.816 208.317C100.67 208.32 100.532 208.356 100.433 208.419C100.333 208.481 100.28 208.563 100.285 208.648L100.291 208.765C100.294 208.807 100.31 208.848 100.34 208.887C100.37 208.925 100.412 208.96 100.465 208.989C100.518 209.017 100.58 209.04 100.647 209.055C100.715 209.069 100.787 209.076 100.859 209.075L116.95 208.764C117.096 208.761 117.234 208.724 117.334 208.662C117.433 208.6 117.487 208.517 117.482 208.432L117.475 208.316Z" fill="#E49311"/>
<path d="M254.783 212.206C252.061 213.884 249.2 215.459 246.2 216.931C243.3 218.36 241.817 217.514 239.017 217.514C228.45 217.52 217.867 217.517 207.267 217.504C207.13 217.503 206.997 217.479 206.884 217.435C206.77 217.391 206.681 217.328 206.628 217.255C206.575 217.181 206.56 217.101 206.584 217.022C206.609 216.944 206.672 216.872 206.767 216.814L233.667 200.374C234.067 200.134 234.55 200.014 235.117 200.014H340.817C341.511 200.014 342.176 200.175 342.667 200.461L354.3 207.15C354.744 207.409 355.278 207.542 355.9 207.549C378.011 207.724 395.928 207.753 409.65 207.636C414.961 207.591 418.744 208.861 421 211.447C421.278 211.765 421.111 211.924 420.5 211.924H255.917C255.472 211.924 255.094 212.018 254.783 212.206Z" fill="#E49311"/>
</svg>
