<svg width="1440" height="57" viewBox="0 0 1440 57" fill="none" xmlns="http://www.w3.org/2000/svg">
<path d="M301.315 24.9465L312.48 37.4454C312.743 37.7339 313.064 37.9645 313.423 38.1223C313.782 38.2801 314.17 38.3617 314.563 38.362C470.29 38.3435 625.99 38.3621 781.661 38.4176C783.106 38.4176 785.105 39.5008 785.133 40.9451C785.137 41.1334 785.103 41.3206 785.033 41.4957C784.964 41.6708 784.86 41.8303 784.728 41.9648C784.596 42.0993 784.439 42.206 784.265 42.2789C784.091 42.3518 783.905 42.3895 783.717 42.3895L313.452 42.5839C313.059 42.5836 312.671 42.502 312.312 42.3442C311.953 42.1864 311.632 41.9558 311.369 41.6673L292.982 21.2247C292.719 20.9357 292.401 20.7048 292.047 20.5469C291.693 20.389 291.311 20.3077 290.927 20.308C192.528 20.308 94.1475 20.308 -4.21419 20.308C-5.51963 20.308 -8.21383 19.197 -6.38066 17.5583C-5.86364 17.094 -5.20094 16.8368 -4.51972 16.8361H447.024C447.753 16.8361 448.453 16.5464 448.968 16.0307L463.439 1.67072C463.955 1.15503 464.654 0.865348 465.383 0.865295H567.402C571.383 0.865295 572.096 2.38372 569.541 5.42049L557.875 19.3082C557.615 19.621 557.291 19.8728 556.927 20.0456C556.562 20.2184 556.165 20.308 555.764 20.308H303.398C299.25 20.308 298.555 21.8541 301.315 24.9465Z" fill="#E49311" fill-opacity="0.75"/>
<path d="M783.681 48.7783C771.154 31.391 802.346 10.4205 814.567 36.7516C814.782 37.231 815.132 37.6382 815.575 37.924C816.019 38.2098 816.537 38.3621 817.067 38.3626C1022.86 38.3626 1228.65 38.3626 1434.43 38.3626C1439.85 38.3626 1442.96 42.5289 1435.93 42.5289C1229.47 42.5289 1023 42.5289 816.539 42.5289C815.975 42.5288 815.425 42.7018 814.963 43.0247C814.501 43.3477 814.15 43.8049 813.956 44.3343C808.484 58.7775 792.208 60.6384 783.681 48.7783ZM810.318 40.2513C810.318 36.8995 808.986 33.685 806.616 31.315C804.246 28.9449 801.032 27.6135 797.68 27.6135C796.02 27.6135 794.377 27.9403 792.844 28.5754C791.31 29.2105 789.917 30.1415 788.744 31.315C787.57 32.4885 786.639 33.8817 786.004 35.415C785.369 36.9483 785.042 38.5917 785.042 40.2513C785.042 41.9109 785.369 43.5543 786.004 45.0875C786.639 46.6208 787.57 48.014 788.744 49.1876C789.917 50.3611 791.31 51.292 792.844 51.9271C794.377 52.5622 796.02 52.889 797.68 52.889C799.339 52.889 800.983 52.5622 802.516 51.9271C804.049 51.292 805.442 50.3611 806.616 49.1876C807.79 48.014 808.72 46.6208 809.356 45.0875C809.991 43.5543 810.318 41.9109 810.318 40.2513Z" fill="#E49311" fill-opacity="0.75"/>
</svg>
