<svg width="58" height="59" viewBox="0 0 58 59" fill="none" xmlns="http://www.w3.org/2000/svg">
<path d="M29 5.72227C36.7484 5.72227 37.666 5.75625 40.7133 5.89219C43.5453 6.0168 45.0746 6.49258 46.0941 6.88906C47.4422 7.41016 48.4164 8.04453 49.4246 9.05273C50.4441 10.0723 51.0672 11.0352 51.5883 12.3832C51.9848 13.4027 52.4606 14.9434 52.5852 17.7641C52.7211 20.8227 52.7551 21.7402 52.7551 29.4773C52.7551 37.2258 52.7211 38.1434 52.5852 41.1906C52.4606 44.0227 51.9848 45.552 51.5883 46.5715C51.0672 47.9195 50.4328 48.8938 49.4246 49.902C48.4051 50.9215 47.4422 51.5445 46.0941 52.0656C45.0746 52.4621 43.534 52.9379 40.7133 53.0625C37.6547 53.1984 36.7371 53.2324 29 53.2324C21.2516 53.2324 20.334 53.1984 17.2867 53.0625C14.4547 52.9379 12.9254 52.4621 11.9059 52.0656C10.5578 51.5445 9.58359 50.9102 8.57539 49.902C7.55586 48.8824 6.93281 47.9195 6.41172 46.5715C6.01523 45.552 5.53945 44.0113 5.41484 41.1906C5.27891 38.132 5.24492 37.2145 5.24492 29.4773C5.24492 21.7289 5.27891 20.8113 5.41484 17.7641C5.53945 14.932 6.01523 13.4027 6.41172 12.3832C6.93281 11.0352 7.56719 10.0609 8.57539 9.05273C9.59492 8.0332 10.5578 7.41016 11.9059 6.88906C12.9254 6.49258 14.466 6.0168 17.2867 5.89219C20.334 5.75625 21.2516 5.72227 29 5.72227ZM29 0.5C21.127 0.5 20.1414 0.533984 17.0488 0.669922C13.9676 0.805859 11.8492 1.3043 10.0141 2.01797C8.09961 2.76562 6.47969 3.75117 4.87109 5.37109C3.25117 6.97969 2.26563 8.59961 1.51797 10.5027C0.804297 12.3492 0.305859 14.4562 0.169922 17.5375C0.0339844 20.6414 0 21.627 0 29.5C0 37.373 0.0339844 38.3586 0.169922 41.4512C0.305859 44.5324 0.804297 46.6508 1.51797 48.4859C2.26563 50.4004 3.25117 52.0203 4.87109 53.6289C6.47969 55.2375 8.09961 56.2344 10.0027 56.9707C11.8492 57.6844 13.9563 58.1828 17.0375 58.3187C20.1301 58.4547 21.1156 58.4887 28.9887 58.4887C36.8617 58.4887 37.8473 58.4547 40.9398 58.3187C44.0211 58.1828 46.1395 57.6844 47.9746 56.9707C49.8777 56.2344 51.4977 55.2375 53.1063 53.6289C54.7148 52.0203 55.7117 50.4004 56.4481 48.4973C57.1617 46.6508 57.6602 44.5438 57.7961 41.4625C57.932 38.3699 57.966 37.3844 57.966 29.5113C57.966 21.6383 57.932 20.6527 57.7961 17.5602C57.6602 14.4789 57.1617 12.3605 56.4481 10.5254C55.7344 8.59961 54.7488 6.97969 53.1289 5.37109C51.5203 3.7625 49.9004 2.76562 47.9973 2.0293C46.1508 1.31562 44.0438 0.817188 40.9625 0.68125C37.8586 0.533984 36.8731 0.5 29 0.5Z" fill="#FBFBFB"/>
<path d="M29 14.6035C20.7758 14.6035 14.1035 21.2758 14.1035 29.5C14.1035 37.7242 20.7758 44.3965 29 44.3965C37.2242 44.3965 43.8965 37.7242 43.8965 29.5C43.8965 21.2758 37.2242 14.6035 29 14.6035ZM29 39.1629C23.6645 39.1629 19.3371 34.8355 19.3371 29.5C19.3371 24.1645 23.6645 19.8371 29 19.8371C34.3355 19.8371 38.6629 24.1645 38.6629 29.5C38.6629 34.8355 34.3355 39.1629 29 39.1629Z" fill="#FBFBFB"/>
<path d="M47.9633 14.0139C47.9633 15.9397 46.4 17.4916 44.4855 17.4916C42.5598 17.4916 41.0078 15.9283 41.0078 14.0139C41.0078 12.0881 42.5711 10.5361 44.4855 10.5361C46.4 10.5361 47.9633 12.0994 47.9633 14.0139Z" fill="#FBFBFB"/>
</svg>
