<svg width="58" height="59" viewBox="0 0 58 59" fill="none" xmlns="http://www.w3.org/2000/svg">
<path d="M53.7066 0.5H4.28203C1.91445 0.5 0 2.36914 0 4.68008V54.3086C0 56.6195 1.91445 58.5 4.28203 58.5H53.7066C56.0742 58.5 58 56.6195 58 54.3199V4.68008C58 2.36914 56.0742 0.5 53.7066 0.5ZM17.2074 49.9246H8.59805V22.2387H17.2074V49.9246ZM12.9027 18.4664C10.1387 18.4664 7.90703 16.2348 7.90703 13.482C7.90703 10.7293 10.1387 8.49766 12.9027 8.49766C15.6555 8.49766 17.8871 10.7293 17.8871 13.482C17.8871 16.2234 15.6555 18.4664 12.9027 18.4664ZM49.4246 49.9246H40.8266V36.4668C40.8266 33.2609 40.7699 29.1262 36.352 29.1262C31.8773 29.1262 31.1977 32.6266 31.1977 36.2402V49.9246H22.6109V22.2387H30.8578V26.0223H30.9711C32.1152 23.8473 34.9246 21.5477 39.1047 21.5477C47.816 21.5477 49.4246 27.2797 49.4246 34.7336V49.9246Z" fill="#FBFBFB"/>
</svg>
