<svg width="129" height="57" viewBox="0 0 129 57" fill="none" xmlns="http://www.w3.org/2000/svg">
<path d="M62.1969 0H60.5908C60.5536 0 60.5234 0.0301365 60.5234 0.0673115V54.9423C60.5234 54.9794 60.5536 55.0096 60.5908 55.0096H62.1969C62.2341 55.0096 62.2642 54.9794 62.2642 54.9423V0.0673115C62.2642 0.0301365 62.2341 0 62.1969 0Z" fill="#F5A020"/>
<path d="M34.6341 8.49977L34.3196 8.70634C34.2791 8.73289 34.2305 8.74388 34.1828 8.73726C34.1351 8.73063 34.0918 8.70684 34.0608 8.67037C33.7088 8.26031 33.4353 7.80267 33.2403 7.29745C33.1892 7.16515 33.2337 7.08894 33.3738 7.06882C33.6476 7.0282 33.8403 6.77056 33.8565 6.49203C33.8906 5.93343 33.6128 5.62008 33.0233 5.552C32.9994 5.54907 32.9775 5.5372 32.9622 5.51885C32.9469 5.5005 32.9392 5.47706 32.9409 5.45335C32.9772 4.88237 33.1014 4.33111 33.3134 3.79958C33.3289 3.76012 33.3575 3.74233 33.3993 3.7462C33.5192 3.75626 33.6357 3.77366 33.7486 3.79842C34.2801 3.91215 34.6445 3.55703 34.5796 3.02318C34.5587 2.85374 34.431 2.71912 34.344 2.57985C34.3053 2.51719 34.3122 2.46032 34.3649 2.40926C34.7757 2.01003 35.2534 1.71912 35.7981 1.53653C35.8376 1.52338 35.8716 1.53189 35.9002 1.56206C36.0894 1.76051 36.144 1.98218 36.3958 2.08082C37.1153 2.36167 37.3567 1.90326 37.5169 1.30094C37.5293 1.25529 37.5591 1.23402 37.6062 1.23711C38.1881 1.26883 38.7463 1.40036 39.2809 1.63169C39.3227 1.65026 39.3389 1.68198 39.3296 1.72686C39.2832 1.9462 39.1765 2.16322 39.2368 2.37676C39.4237 3.04407 40.0155 2.9431 40.4728 2.6228C40.4939 2.60822 40.5197 2.60193 40.5452 2.60514C40.5706 2.60835 40.594 2.62083 40.6109 2.6402C40.9939 3.08043 41.3022 3.56863 41.5358 4.1048C41.5419 4.11883 41.5449 4.134 41.5446 4.14926C41.5443 4.16453 41.5407 4.17951 41.5341 4.1932C41.5274 4.20688 41.5179 4.21893 41.5062 4.22852C41.4945 4.2381 41.4808 4.24499 41.4662 4.24871C40.5459 4.48778 40.7722 5.80732 41.6786 5.78875C41.6984 5.78828 41.718 5.79206 41.7362 5.79985C41.7544 5.80764 41.7707 5.81924 41.784 5.83388C41.7973 5.84851 41.8073 5.86584 41.8134 5.88468C41.8194 5.90353 41.8213 5.92345 41.819 5.9431C41.7525 6.50944 41.612 7.0549 41.3977 7.57946C41.3807 7.62201 41.3498 7.63787 41.3049 7.62704C40.8035 7.50635 40.2476 7.49706 40.1652 8.14232C40.1304 8.41621 40.2848 8.62162 40.4519 8.82704C40.4805 8.86186 40.4782 8.89474 40.4449 8.92569C40.0062 9.33961 39.5018 9.64715 38.9316 9.84831C38.9125 9.85514 38.8914 9.85421 38.8732 9.84573C38.8549 9.83724 38.8408 9.82189 38.8341 9.80305C38.7374 9.53613 38.5606 9.34851 38.3037 9.24019C38.2596 9.22085 38.2318 9.23478 38.2202 9.28197L34.0852 25.4669C34.0831 25.4751 34.0845 25.4839 34.0891 25.4913C34.0937 25.4987 34.101 25.5041 34.1095 25.5063L40.2627 27.1055C40.3053 27.1164 40.3211 27.1431 40.3103 27.1856L39.4376 30.5581C39.4353 30.5658 39.4303 30.5722 39.4236 30.5761C39.4169 30.5801 39.4089 30.5811 39.4016 30.579L29.7865 28.0908C29.7409 28.0792 29.7239 28.0506 29.7355 28.005L34.7119 8.55431C34.7142 8.54436 34.7136 8.53391 34.71 8.52433C34.7063 8.51475 34.6999 8.50648 34.6915 8.5006C34.6831 8.49472 34.6732 8.4915 34.6629 8.49135C34.6527 8.4912 34.6427 8.49413 34.6341 8.49977ZM39.4654 5.68662C39.4654 5.13413 39.2459 4.60427 38.8553 4.2136C38.4646 3.82293 37.9348 3.60345 37.3823 3.60345C36.8298 3.60345 36.2999 3.82293 35.9092 4.2136C35.5186 4.60427 35.2991 5.13413 35.2991 5.68662C35.2991 6.23911 35.5186 6.76897 35.9092 7.15964C36.2999 7.55031 36.8298 7.76979 37.3823 7.76979C37.9348 7.76979 38.4646 7.55031 38.8553 7.15964C39.2459 6.76897 39.4654 6.23911 39.4654 5.68662Z" fill="#F5A020"/>
<path d="M24.0709 13.388L22.3684 19.5319C22.3652 19.5431 22.3576 19.5526 22.3474 19.5583C22.3371 19.5639 22.3251 19.5653 22.3139 19.5621L13.7711 17.2247C13.7655 17.2233 13.7601 17.2207 13.7555 17.2171C13.7508 17.2136 13.7469 17.2091 13.744 17.204C13.7411 17.199 13.7392 17.1933 13.7385 17.1875C13.7378 17.1817 13.7382 17.1758 13.7398 17.1702L14.5963 14.0356C14.5977 14.0299 14.6003 14.0246 14.6039 14.0199C14.6074 14.0153 14.6119 14.0114 14.617 14.0085C14.622 14.0056 14.6277 14.0037 14.6335 14.0029C14.6393 14.0022 14.6452 14.0027 14.6508 14.0042L19.4856 15.3261C19.4913 15.3277 19.4972 15.3281 19.503 15.3274C19.5088 15.3267 19.5144 15.3248 19.5195 15.3219C19.5245 15.3189 19.529 15.315 19.5325 15.3104C19.5361 15.3057 19.5387 15.3004 19.5402 15.2948L21.2392 9.14622C21.2424 9.13524 21.2498 9.12596 21.2598 9.12033C21.2697 9.1147 21.2815 9.11316 21.2926 9.11604L30.7545 11.6507C30.7657 11.6539 30.7752 11.6615 30.7808 11.6717C30.7865 11.6819 30.7879 11.694 30.7846 11.7052L29.9653 14.8363C29.9638 14.842 29.9612 14.8473 29.9577 14.852C29.9541 14.8566 29.9497 14.8605 29.9446 14.8634C29.9395 14.8664 29.9339 14.8682 29.9281 14.869C29.9223 14.8697 29.9164 14.8693 29.9107 14.8677L24.1243 13.3567C24.1131 13.3538 24.1012 13.3555 24.0912 13.3614C24.0812 13.3672 24.0739 13.3768 24.0709 13.388Z" fill="#F5A020"/>
<path d="M41.6914 20.7597L47.826 22.4274C47.8398 22.4312 47.8515 22.4403 47.8587 22.4527C47.8658 22.465 47.8679 22.4797 47.8643 22.4936L45.3749 31.9404C45.3711 31.9541 45.3621 31.9659 45.3497 31.973C45.3373 31.9802 45.3226 31.9822 45.3088 31.9787L42.1927 31.1802C42.1857 31.1785 42.1791 31.1753 42.1732 31.171C42.1674 31.1666 42.1625 31.1611 42.1588 31.1549C42.1552 31.1486 42.1528 31.1417 42.1518 31.1344C42.1509 31.1272 42.1514 31.1199 42.1533 31.1129L43.6364 25.3404C43.64 25.3265 43.638 25.3118 43.6308 25.2995C43.6237 25.2871 43.6119 25.278 43.5981 25.2742L37.4624 23.6042C37.4486 23.6004 37.4369 23.5913 37.4297 23.579C37.4225 23.5666 37.4205 23.5519 37.4241 23.5381L39.7219 15.0058C39.7258 14.992 39.7348 14.9803 39.7472 14.9731C39.7596 14.9659 39.7743 14.9639 39.7881 14.9675L42.9123 15.8054C42.9261 15.8092 42.9378 15.8183 42.9449 15.8306C42.9521 15.843 42.9541 15.8577 42.9506 15.8715L41.6531 20.6936C41.6495 20.7074 41.6516 20.7221 41.6587 20.7345C41.6659 20.7469 41.6776 20.7559 41.6914 20.7597Z" fill="#F5A020"/>
<path d="M3.32396 15.9249C3.91003 16.1802 4.52627 15.9168 4.58314 15.2344C4.58486 15.2133 4.59083 15.1928 4.6007 15.174C4.61057 15.1553 4.62412 15.1389 4.64053 15.1256C4.65693 15.1123 4.67585 15.1026 4.69612 15.097C4.71638 15.0913 4.73757 15.0899 4.75838 15.0928C5.29842 15.1648 5.82028 15.3025 6.32395 15.506C6.35676 15.5194 6.38302 15.5451 6.39712 15.5776C6.41121 15.6102 6.41203 15.6469 6.39939 15.68C6.19281 16.2243 6.44233 16.8232 7.09687 16.7593C7.14407 16.7547 7.18778 16.74 7.22801 16.7152L7.60867 16.4739C7.62656 16.4625 7.64786 16.4578 7.66885 16.4606C7.68984 16.4634 7.7092 16.4734 7.72356 16.4889C8.11892 16.923 8.41486 17.4158 8.61138 17.9675C8.6253 18.0077 8.61524 18.0402 8.5812 18.0649C8.3549 18.2274 8.08681 18.3075 8.01834 18.6336C8.00983 18.6738 8.02569 18.6994 8.06592 18.7102L24.18 22.8963C24.1992 22.9011 24.2196 22.8982 24.2367 22.888C24.2539 22.8777 24.2665 22.8611 24.2717 22.8417L25.8872 16.7268C25.8892 16.7193 25.8927 16.7122 25.8975 16.706C25.9022 16.6998 25.9082 16.6946 25.915 16.6907C25.9218 16.6868 25.9293 16.6843 25.9371 16.6833C25.9449 16.6824 25.9527 16.683 25.9603 16.6851L29.3119 17.5706C29.3251 17.5741 29.3364 17.5827 29.3433 17.5946C29.3503 17.6065 29.3523 17.6208 29.3491 17.6344L26.8156 27.2529C26.8134 27.2609 26.8082 27.2677 26.801 27.2719C26.7938 27.276 26.7853 27.2771 26.7773 27.275L7.29997 22.2104C7.29085 22.2082 7.28125 22.2088 7.27243 22.212C7.26362 22.2153 7.256 22.2211 7.25058 22.2286C7.24517 22.2362 7.24222 22.2451 7.24213 22.2543C7.24204 22.2635 7.2448 22.2725 7.25006 22.28L7.45316 22.5887C7.482 22.6329 7.49369 22.686 7.48598 22.738C7.47828 22.79 7.45172 22.8373 7.41138 22.8707C6.99668 23.2166 6.5371 23.4858 6.03266 23.6785C6.01249 23.6863 5.99087 23.6897 5.96925 23.6884C5.94764 23.687 5.92654 23.6811 5.90739 23.6708C5.88824 23.6606 5.87148 23.6463 5.85825 23.629C5.84502 23.6117 5.83563 23.5918 5.83072 23.5706C5.64968 22.8023 4.66322 22.9206 4.37076 23.5543C4.32898 23.6437 4.33711 23.8108 4.2698 23.9176C4.24658 23.9539 4.2137 23.9705 4.17115 23.9675C3.61022 23.9218 3.06902 23.7941 2.54756 23.5845C2.52966 23.5772 2.51469 23.5642 2.50503 23.5476C2.49536 23.531 2.49154 23.5117 2.49417 23.4928C2.53247 23.2305 2.62531 22.9415 2.5197 22.7013C2.26322 22.1164 1.71661 22.2696 1.3023 22.5806C1.26671 22.6077 1.23344 22.6054 1.20249 22.5736C0.780827 22.1427 0.474443 21.641 0.283341 21.0684C0.270962 21.0305 0.282568 21.0023 0.318157 20.9837C0.809066 20.7295 1.17231 20.1191 0.727828 19.6595C0.558389 19.4854 0.303071 19.4239 0.062839 19.3566C0.0438244 19.3511 0.0272521 19.3394 0.0158585 19.3233C0.00446495 19.3073 -0.00106794 19.2879 0.000170608 19.2684C0.0365342 18.6843 0.171931 18.1245 0.40636 17.5891C0.414235 17.5717 0.428597 17.5581 0.446379 17.5512C0.464161 17.5442 0.483952 17.5445 0.501523 17.552C1.10965 17.8154 1.82918 17.5798 1.62144 16.7884C1.58663 16.6549 1.46941 16.5551 1.41835 16.4332C1.38586 16.3582 1.40094 16.2944 1.46361 16.2417C1.89843 15.8781 2.37618 15.5833 2.89688 15.3574C2.93556 15.3404 2.96496 15.3504 2.98508 15.3876L3.22879 15.8379C3.25045 15.8773 3.28218 15.9063 3.32396 15.9249ZM6.52937 19.5249C6.52937 18.9724 6.30989 18.4426 5.91922 18.0519C5.52855 17.6612 4.99869 17.4417 4.4462 17.4417C4.17263 17.4417 3.90175 17.4956 3.649 17.6003C3.39626 17.705 3.16662 17.8584 2.97318 18.0519C2.77974 18.2453 2.62629 18.475 2.5216 18.7277C2.41691 18.9805 2.36303 19.2513 2.36303 19.5249C2.36303 19.7985 2.41691 20.0694 2.5216 20.3221C2.62629 20.5748 2.77974 20.8045 2.97318 20.9979C3.16662 21.1914 3.39626 21.3448 3.649 21.4495C3.90175 21.5542 4.17263 21.6081 4.4462 21.6081C4.99869 21.6081 5.52855 21.3886 5.91922 20.9979C6.30989 20.6073 6.52937 20.0774 6.52937 19.5249Z" fill="#F5A020"/>
<path d="M93.1347 28.6943V31.1535C93.1347 31.1631 93.1385 31.1722 93.1453 31.179C93.152 31.1857 93.1612 31.1895 93.1707 31.1895H108.766C108.776 31.1895 108.785 31.1933 108.791 31.2C108.798 31.2068 108.802 31.2159 108.802 31.2255V34.0839C108.802 34.0934 108.798 34.1026 108.791 34.1093C108.785 34.1161 108.776 34.1199 108.766 34.1199H90.2694C90.2598 34.1199 90.2507 34.1161 90.2439 34.1093C90.2372 34.1026 90.2334 34.0934 90.2334 34.0839V20.3164C90.2334 20.3069 90.2372 20.2977 90.2439 20.291C90.2507 20.2842 90.2598 20.2804 90.2694 20.2804H108.766C108.776 20.2804 108.785 20.2842 108.791 20.291C108.798 20.2977 108.802 20.3069 108.802 20.3164V23.1504C108.802 23.16 108.798 23.1691 108.791 23.1759C108.785 23.1826 108.776 23.1864 108.766 23.1864L93.1707 23.2178C93.1612 23.2178 93.152 23.2215 93.1453 23.2283C93.1385 23.235 93.1347 23.2442 93.1347 23.2537V25.699C93.1347 25.7085 93.1385 25.7177 93.1453 25.7244C93.152 25.7312 93.1612 25.735 93.1707 25.735H105.835C105.844 25.735 105.853 25.7388 105.86 25.7455C105.867 25.7522 105.871 25.7614 105.871 25.7709L105.873 28.5922C105.873 28.6018 105.869 28.6109 105.862 28.6177C105.856 28.6244 105.846 28.6282 105.837 28.6282L93.1707 28.6584C93.1612 28.6584 93.152 28.6622 93.1453 28.6689C93.1385 28.6756 93.1347 28.6848 93.1347 28.6943Z" fill="#D9D9D9"/>
<path d="M113.336 23.2665L113.36 31.1222C113.361 31.1671 113.384 31.1895 113.428 31.1895H128.952C128.981 31.1895 128.995 31.2042 128.995 31.2336L128.999 34.0642C128.999 34.1013 128.98 34.1199 128.942 34.1199H110.485C110.446 34.1199 110.427 34.1005 110.427 34.0618V20.3385C110.427 20.2998 110.446 20.2804 110.485 20.2804H128.934C128.975 20.2804 128.995 20.3009 128.995 20.3419L129 23.1481C129 23.1539 128.999 23.1595 128.997 23.1648C128.994 23.1701 128.991 23.1749 128.987 23.1789C128.983 23.1829 128.978 23.186 128.973 23.1881C128.967 23.1902 128.962 23.1912 128.956 23.1911C125.308 23.1733 121.692 23.1791 118.108 23.2085C116.544 23.2216 114.988 23.2065 113.442 23.1632C113.428 23.1629 113.414 23.1653 113.401 23.1704C113.389 23.1754 113.377 23.183 113.367 23.1926C113.357 23.2022 113.35 23.2137 113.344 23.2264C113.339 23.2391 113.336 23.2527 113.336 23.2665Z" fill="#D9D9D9"/>
<path d="M88.6085 30.6092V34.0827C88.6085 34.0926 88.6046 34.102 88.5976 34.109C88.5906 34.116 88.5812 34.1199 88.5714 34.1199H70.0758C70.066 34.1199 70.0565 34.116 70.0496 34.109C70.0426 34.102 70.0387 34.0926 70.0387 34.0827L70.0399 20.3176C70.0399 20.3077 70.0438 20.2983 70.0507 20.2913C70.0577 20.2843 70.0671 20.2804 70.077 20.2804H88.5714C88.5812 20.2804 88.5906 20.2843 88.5976 20.2913C88.6046 20.2983 88.6085 20.3077 88.6085 20.3176V23.7609C88.6084 23.7704 88.6047 23.7796 88.598 23.7864L85.2278 27.1624C85.2243 27.1659 85.2214 27.17 85.2195 27.1746C85.2175 27.1792 85.2165 27.1841 85.2165 27.1891C85.2165 27.1941 85.2175 27.199 85.2195 27.2036C85.2214 27.2082 85.2243 27.2123 85.2278 27.2158L88.598 30.5837C88.6047 30.5906 88.6084 30.5997 88.6085 30.6092ZM84.2298 24.0383C84.4143 23.8514 84.766 23.5671 84.9853 23.2677C85.0108 23.2336 85.0023 23.2162 84.9598 23.2154L73.0178 23.1992C72.9451 23.1992 72.9091 23.2355 72.9099 23.3083L72.9366 25.6897C72.9373 25.7199 72.9528 25.735 72.983 25.735H82.4611C82.5037 25.735 82.5404 25.7199 82.5714 25.6897C83.1292 25.145 83.682 24.5945 84.2298 24.0383ZM82.5284 28.663C82.5248 28.6593 82.5205 28.6563 82.5157 28.6543C82.5109 28.6523 82.5058 28.6513 82.5006 28.6514L72.976 28.6618C72.9659 28.6618 72.9561 28.6659 72.9489 28.6731C72.9418 28.6802 72.9377 28.69 72.9377 28.7001L72.9284 31.1512C72.9284 31.1614 72.9325 31.1711 72.9397 31.1783C72.9468 31.1855 72.9566 31.1895 72.9667 31.1895H84.9621C84.9696 31.1896 84.9771 31.1874 84.9834 31.1833C84.9897 31.1792 84.9947 31.1732 84.9977 31.1663C85.0007 31.1593 85.0015 31.1517 85.0001 31.1442C84.9987 31.1368 84.9952 31.1299 84.9899 31.1245L82.5284 28.663Z" fill="#D9D9D9"/>
<path d="M7.88375 35.6425L10.4485 26.2224C10.4504 26.2153 10.4537 26.2086 10.4582 26.2028C10.4626 26.197 10.4682 26.1921 10.4746 26.1884C10.4809 26.1847 10.488 26.1824 10.4952 26.1814C10.5025 26.1805 10.5099 26.181 10.517 26.1829L13.6261 27.0104C13.6402 27.0142 13.6522 27.0234 13.6596 27.036C13.667 27.0486 13.6691 27.0636 13.6656 27.0777L12.1383 32.8351C12.1364 32.8422 12.1359 32.8496 12.1368 32.8569C12.1377 32.8642 12.1401 32.8712 12.1438 32.8776C12.1474 32.8839 12.1523 32.8895 12.1582 32.894C12.164 32.8985 12.1707 32.9017 12.1777 32.9036L18.288 34.6224C18.3021 34.6264 18.3141 34.6359 18.3212 34.6487C18.3284 34.6615 18.3302 34.6767 18.3263 34.6908L15.9588 43.2034C15.9547 43.2175 15.9453 43.2295 15.9324 43.2366C15.9196 43.2438 15.9045 43.2456 15.8903 43.2417L12.7801 42.3759C12.7659 42.3719 12.754 42.3624 12.7468 42.3496C12.7396 42.3368 12.7378 42.3216 12.7418 42.3075L14.0752 37.5005C14.0792 37.4864 14.0774 37.4712 14.0702 37.4584C14.063 37.4456 14.0511 37.4361 14.0369 37.432L7.92205 35.711C7.90792 35.7069 7.89598 35.6974 7.8888 35.6846C7.88163 35.6718 7.87981 35.6566 7.88375 35.6425Z" fill="#F5A020"/>
<path d="M20.9885 49.7477L21.3088 49.5318C21.3443 49.5081 21.3873 49.4983 21.4296 49.504C21.4719 49.5098 21.5107 49.5308 21.5386 49.5632C21.9123 49.9926 22.1943 50.4761 22.3846 51.0138C22.3906 51.0308 22.3929 51.0489 22.3914 51.0668C22.3899 51.0847 22.3846 51.1021 22.3758 51.1178C22.367 51.1335 22.3549 51.1472 22.3405 51.1579C22.326 51.1686 22.3094 51.176 22.2918 51.1798C21.3599 51.3771 21.6593 52.6606 22.568 52.6978C22.5812 52.6984 22.5943 52.7016 22.6062 52.7073C22.6182 52.713 22.6289 52.721 22.6377 52.7308C22.6465 52.7407 22.6532 52.7522 22.6573 52.7647C22.6615 52.7771 22.6631 52.7903 22.662 52.8034C22.6171 53.3782 22.4856 53.9322 22.2674 54.4653C22.2601 54.4832 22.2471 54.4981 22.2305 54.5078C22.2139 54.5175 22.1946 54.5213 22.1757 54.5187C21.9123 54.4838 21.6349 54.3852 21.3912 54.485C20.7773 54.738 20.9653 55.2777 21.2542 55.7024C21.2653 55.7186 21.2703 55.7382 21.2684 55.7577C21.2665 55.7772 21.2578 55.7954 21.2438 55.8092C20.8206 56.2208 20.3293 56.5225 19.7699 56.7144C19.7297 56.7283 19.6972 56.7179 19.6724 56.6831C19.5529 56.5194 19.4624 56.357 19.3103 56.2421C18.7533 55.8231 18.1428 56.2142 18.0732 56.849C18.0688 56.8892 18.0489 56.926 18.0179 56.9516C17.9869 56.9772 17.9472 56.9895 17.9073 56.986C17.3285 56.9396 16.7734 56.8003 16.2419 56.5682C16.2001 56.5496 16.1904 56.5206 16.2129 56.4811C16.6632 55.6815 15.8287 54.9028 15.1788 55.533C15.1609 55.5504 15.1396 55.5639 15.1162 55.5725C15.0927 55.5812 15.0677 55.5849 15.0427 55.5834C15.0177 55.5819 14.9933 55.5752 14.971 55.5637C14.9486 55.5522 14.9289 55.5362 14.9131 55.5167C14.5641 55.0827 14.2744 54.6123 14.0438 54.1055C14.0385 54.0941 14.0357 54.0818 14.0353 54.0693C14.035 54.0567 14.0372 54.0442 14.0419 54.0325C14.0466 54.0208 14.0535 54.0101 14.0625 54.0011C14.0714 53.9921 14.082 53.985 14.0937 53.9802C14.6941 53.7326 14.8601 53.3357 14.5916 52.7895C14.4326 52.4645 14.1692 52.4134 13.8384 52.3682C13.8197 52.3656 13.8028 52.3558 13.7913 52.341C13.7798 52.3263 13.7746 52.3077 13.7769 52.2893C13.8419 51.7105 13.9904 51.1546 14.2225 50.6216C14.2302 50.6045 14.2432 50.5903 14.2598 50.5813C14.2763 50.5723 14.2955 50.5689 14.3142 50.5717C14.9003 50.6552 15.4933 50.7156 15.4666 49.8811C15.4659 49.841 15.4538 49.8019 15.4318 49.7686L15.1719 49.3717C15.1463 49.333 15.1506 49.2982 15.1846 49.2672C15.6241 48.8634 16.1243 48.5628 16.6852 48.3655C16.7019 48.3598 16.7199 48.3596 16.7367 48.3651C16.7534 48.3705 16.7679 48.3812 16.778 48.3957C16.944 48.6394 16.9823 48.9237 17.3583 48.9574C17.3893 48.9604 17.4086 48.9469 17.4163 48.9167L21.6755 32.8235C21.6871 32.781 21.6717 32.7539 21.6291 32.7423L15.5316 31.1024C15.4798 31.0885 15.4608 31.0553 15.4748 31.0026L16.3649 27.6893C16.367 27.6813 16.3708 27.6737 16.3759 27.6671C16.3809 27.6606 16.3873 27.6551 16.3945 27.6509C16.4018 27.6468 16.4097 27.6442 16.418 27.6432C16.4263 27.6422 16.4347 27.6429 16.4427 27.6452L26.038 30.2123C26.0466 30.2144 26.0541 30.22 26.0586 30.2279C26.0632 30.2357 26.0646 30.2451 26.0624 30.2541L20.9177 49.6966C20.9151 49.7058 20.9154 49.7155 20.9185 49.7246C20.9216 49.7336 20.9275 49.7414 20.9352 49.747C20.9429 49.7526 20.9522 49.7556 20.9617 49.7557C20.9713 49.7559 20.9806 49.753 20.9885 49.7477ZM20.2968 52.5434C20.2968 51.9909 20.0773 51.4611 19.6867 51.0704C19.296 50.6797 18.7661 50.4603 18.2136 50.4603C17.6611 50.4603 17.1313 50.6797 16.7406 51.0704C16.3499 51.4611 16.1305 51.9909 16.1305 52.5434C16.1305 53.0959 16.3499 53.6258 16.7406 54.0164C17.1313 54.4071 17.6611 54.6266 18.2136 54.6266C18.7661 54.6266 19.296 54.4071 19.6867 54.0164C20.0773 53.6258 20.2968 53.0959 20.2968 52.5434Z" fill="#F5A020"/>
<path d="M47.7146 39.5001L31.6377 35.3442C31.6232 35.3406 31.6079 35.3427 31.5951 35.3501C31.5822 35.3575 31.5729 35.3696 31.5692 35.3837L29.9537 41.5218C29.95 41.5356 29.9408 41.5474 29.9282 41.5546C29.9156 41.5618 29.9006 41.5637 29.8864 41.5601L26.5499 40.6827C26.5027 40.6704 26.4853 40.6406 26.4976 40.5934L29.0044 31.0352C29.0068 31.0259 29.0111 31.0171 29.0169 31.0095C29.0227 31.0018 29.0299 30.9954 29.0382 30.9905C29.0465 30.9857 29.0557 30.9825 29.0652 30.9812C29.0748 30.9799 29.0845 30.9805 29.0938 30.9829L48.5131 36.0069C48.5218 36.0093 48.5309 36.0092 48.5396 36.0067C48.5483 36.0043 48.5561 35.9996 48.5623 35.993C48.5685 35.9865 48.5728 35.9784 48.5747 35.9696C48.5767 35.9608 48.5762 35.9516 48.5734 35.9431C48.498 35.7029 48.144 35.5706 48.4783 35.3048C48.8775 34.9868 49.3309 34.7299 49.8384 34.5342C49.8547 34.5279 49.8723 34.5254 49.8897 34.5267C49.9072 34.528 49.9241 34.5332 49.9393 34.5419C49.9545 34.5505 49.9676 34.5624 49.9777 34.5768C49.9877 34.5911 49.9944 34.6075 49.9974 34.6247C50.0508 34.9369 50.2899 35.1539 50.6125 35.1736C51.1223 35.2061 51.4349 34.9284 51.5502 34.3404C51.555 34.3161 51.5683 34.2943 51.5877 34.2791C51.6072 34.264 51.6314 34.2565 51.6558 34.258C52.2253 34.292 52.773 34.4193 53.2991 34.6398C53.3378 34.6561 53.3537 34.6851 53.3467 34.7268C53.2585 35.2352 53.175 35.8433 53.8759 35.9164C54.1428 35.9442 54.3239 35.7934 54.5305 35.6379C54.5473 35.6249 54.5684 35.6186 54.5895 35.6203C54.6105 35.622 54.6301 35.6316 54.6442 35.6472C55.0465 36.075 55.3498 36.5644 55.5541 37.1152C55.5621 37.1366 55.562 37.1602 55.5539 37.1816C55.5458 37.2029 55.5302 37.2206 55.51 37.2313C54.7022 37.6468 54.6895 38.7168 55.7119 38.8212C55.7464 38.8248 55.7781 38.8413 55.8006 38.8675C55.8231 38.8936 55.8345 38.9274 55.8326 38.9616C55.8009 39.5311 55.6717 40.0777 55.445 40.6015C55.4371 40.6197 55.4233 40.6347 55.4058 40.644C55.3883 40.6533 55.3681 40.6563 55.3486 40.6526C55.1235 40.6096 54.9227 40.4936 54.7022 40.5551C54.0106 40.7489 54.1405 41.35 54.4446 41.8282C54.4686 41.8661 54.4635 41.9001 54.4295 41.9303C53.9908 42.3164 53.5018 42.6232 52.9626 42.8506C52.9486 42.8566 52.9335 42.8595 52.9183 42.859C52.9031 42.8586 52.8881 42.855 52.8744 42.8483C52.8606 42.8416 52.8485 42.832 52.8387 42.8202C52.8288 42.8084 52.8216 42.7946 52.8175 42.7798C52.5703 41.8827 51.3413 42.0522 51.267 42.9864C51.2656 43.0064 51.2601 43.0258 51.2509 43.0436C51.2417 43.0615 51.229 43.0772 51.2135 43.09C51.198 43.1028 51.1801 43.1124 51.1607 43.1181C51.1414 43.1238 51.1211 43.1256 51.1011 43.1233C50.544 43.0607 50.0082 42.9203 49.4937 42.7021C49.4535 42.6851 49.4361 42.6553 49.4415 42.6127C49.4717 42.3829 49.5715 42.145 49.4926 41.9303C49.375 41.6108 49.1463 41.4553 48.8067 41.4638C48.5769 41.4684 48.4133 41.6448 48.2137 41.7574C48.1997 41.765 48.1836 41.7678 48.168 41.7653C48.1525 41.7628 48.1383 41.7551 48.1278 41.7435C47.7293 41.3025 47.428 40.8019 47.2237 40.2417C47.2174 40.2234 47.218 40.2035 47.2252 40.1858C47.2325 40.168 47.246 40.1537 47.2632 40.1454C47.4728 40.0448 47.6489 39.9079 47.7912 39.7346C47.8068 39.7156 47.8174 39.6929 47.8219 39.6688C47.8265 39.6446 47.8248 39.6197 47.8172 39.5964C47.8096 39.573 47.7962 39.5519 47.7782 39.5351C47.7603 39.5183 47.7384 39.5063 47.7146 39.5001ZM53.4744 38.6936C53.4744 38.42 53.4205 38.1491 53.3158 37.8964C53.2111 37.6436 53.0577 37.414 52.8642 37.2205C52.6708 37.0271 52.4411 36.8737 52.1884 36.769C51.9357 36.6643 51.6648 36.6104 51.3912 36.6104C50.8387 36.6104 50.3089 36.8299 49.9182 37.2205C49.5275 37.6112 49.308 38.1411 49.308 38.6936C49.308 39.2461 49.5275 39.7759 49.9182 40.1666C50.3089 40.5573 50.8387 40.7767 51.3912 40.7767C51.6648 40.7767 51.9357 40.7229 52.1884 40.6182C52.4411 40.5135 52.6708 40.36 52.8642 40.1666C53.0577 39.9731 53.2111 39.7435 53.3158 39.4908C53.4205 39.238 53.4744 38.9671 53.4744 38.6936Z" fill="#F5A020"/>
<path d="M36.3077 42.9365L34.6063 49.0989C34.6051 49.1035 34.603 49.1078 34.6001 49.1116C34.5972 49.1153 34.5936 49.1185 34.5896 49.1208C34.5855 49.1232 34.5809 49.1248 34.5762 49.1254C34.5715 49.126 34.5668 49.1257 34.5622 49.1245L25.0876 46.6003C25.083 46.5991 25.0787 46.597 25.0749 46.5941C25.0712 46.5912 25.068 46.5876 25.0656 46.5835C25.0633 46.5794 25.0617 46.5749 25.0611 46.5702C25.0605 46.5655 25.0608 46.5608 25.062 46.5562L25.8802 43.4065C25.8814 43.4019 25.8835 43.3976 25.8864 43.3939C25.8893 43.3901 25.8929 43.3869 25.897 43.3846C25.901 43.3822 25.9056 43.3806 25.9103 43.38C25.915 43.3794 25.9197 43.3797 25.9243 43.3809L31.7282 44.8885C31.7372 44.891 31.7469 44.8899 31.7552 44.8853C31.7634 44.8808 31.7696 44.8732 31.7723 44.8641L33.4736 38.7028C33.4748 38.6982 33.4769 38.6939 33.4798 38.6902C33.4827 38.6864 33.4863 38.6833 33.4904 38.6809C33.4945 38.6785 33.499 38.677 33.5037 38.6764C33.5084 38.6757 33.5131 38.6761 33.5177 38.6773L42.0779 41.0076C42.0824 41.0089 42.0867 41.011 42.0905 41.0138C42.0942 41.0167 42.0974 41.0203 42.0998 41.0244C42.1021 41.0285 42.1037 41.033 42.1043 41.0377C42.1049 41.0424 42.1046 41.0472 42.1034 41.0517L41.2458 44.2061C41.2445 44.2107 41.2424 44.215 41.2396 44.2187C41.2367 44.2225 41.2331 44.2256 41.229 44.228C41.2249 44.2304 41.2204 44.2319 41.2157 44.2325C41.211 44.2332 41.2062 44.2329 41.2016 44.2316L36.3518 42.9109C36.3472 42.9097 36.3424 42.9094 36.3377 42.91C36.333 42.9106 36.3285 42.9122 36.3244 42.9145C36.3203 42.9169 36.3167 42.9201 36.3138 42.9238C36.311 42.9276 36.3089 42.9319 36.3077 42.9365Z" fill="#F5A020"/>
</svg>
