<svg width="58" height="63" viewBox="0 0 58 63" fill="none" xmlns="http://www.w3.org/2000/svg">
<path d="M16.7101 0.229996L32.7102 30.34C32.7382 30.3941 32.7528 30.4541 32.7528 30.515C32.7528 30.5759 32.7382 30.6359 32.7102 30.69L17.1601 61.8C17.1286 61.8631 17.08 61.9162 17.02 61.9533C16.9599 61.9904 16.8907 62.01 16.8201 62.01H0.390146C0.325355 62.01 0.261633 61.9935 0.205034 61.9619C0.148436 61.9304 0.100843 61.8849 0.0667745 61.8298C0.0327057 61.7747 0.013292 61.7118 0.0103819 61.6471C0.00747173 61.5823 0.0211606 61.5179 0.0501463 61.46L15.5401 31.18C15.5665 31.1272 15.5803 31.069 15.5803 31.01C15.5803 30.951 15.5665 30.8928 15.5401 30.84L0.0401479 0.549988C0.0111622 0.492041 -0.00252659 0.427657 0.000383533 0.36293C0.00329365 0.298204 0.0227036 0.235287 0.0567724 0.180176C0.0908412 0.125064 0.138438 0.0795872 0.195036 0.04805C0.251634 0.0165128 0.315357 -2.50535e-05 0.380148 2.84878e-08L16.3701 0.0299988C16.4397 0.0290258 16.5082 0.0471618 16.5681 0.082428C16.6281 0.117694 16.6772 0.168735 16.7101 0.229996ZM15.8201 1.67999C15.7872 1.61873 15.7381 1.56769 15.6781 1.53242C15.6182 1.49716 15.5497 1.47902 15.4801 1.48L2.96015 1.45999C2.89535 1.45997 2.83163 1.4765 2.77503 1.50804C2.71844 1.53958 2.67084 1.58507 2.63677 1.64018C2.60271 1.69529 2.58329 1.7582 2.58038 1.82292C2.57747 1.88765 2.59116 1.95205 2.62015 2.00999L17.3001 30.68C17.3265 30.7328 17.3403 30.791 17.3403 30.85C17.3403 30.909 17.3265 30.9672 17.3001 31.02L2.60015 59.71C2.57116 59.7679 2.55747 59.8323 2.56038 59.8971C2.56329 59.9618 2.58271 60.0247 2.61677 60.0798C2.65084 60.1349 2.69844 60.1804 2.75503 60.2119C2.81163 60.2435 2.87535 60.26 2.94015 60.26H15.7901C15.8607 60.26 15.9299 60.2404 15.99 60.2033C16.05 60.1662 16.0986 60.1131 16.1301 60.05L30.9701 30.57C30.9982 30.5159 31.0128 30.4559 31.0128 30.395C31.0128 30.3341 30.9982 30.2741 30.9701 30.22L15.8201 1.67999Z" fill="#E49311"/>
<path d="M41.7101 0.229996L57.7102 30.34C57.7382 30.3941 57.7528 30.4541 57.7528 30.515C57.7528 30.5759 57.7382 30.6359 57.7102 30.69L42.1601 61.8C42.1286 61.8631 42.08 61.9162 42.02 61.9533C41.9599 61.9904 41.8907 62.01 41.8201 62.01H25.3901C25.3254 62.01 25.2616 61.9935 25.205 61.9619C25.1484 61.9304 25.1008 61.8849 25.0668 61.8298C25.0327 61.7747 25.0133 61.7118 25.0104 61.6471C25.0075 61.5823 25.0212 61.5179 25.0501 61.46L40.5401 31.18C40.5665 31.1272 40.5803 31.069 40.5803 31.01C40.5803 30.951 40.5665 30.8928 40.5401 30.84L25.0401 0.549988C25.0112 0.492041 24.9975 0.427657 25.0004 0.36293C25.0033 0.298204 25.0227 0.235287 25.0568 0.180176C25.0908 0.125064 25.1384 0.0795872 25.195 0.04805C25.2516 0.0165128 25.3154 -2.50535e-05 25.3801 2.84878e-08L41.3701 0.0299988C41.4397 0.0290258 41.5082 0.0471618 41.5681 0.082428C41.6281 0.117694 41.6772 0.168735 41.7101 0.229996ZM40.8201 1.67999C40.7872 1.61873 40.7381 1.56769 40.6781 1.53242C40.6182 1.49716 40.5497 1.47902 40.4801 1.48L27.9601 1.45999C27.8954 1.45997 27.8316 1.4765 27.775 1.50804C27.7184 1.53958 27.6708 1.58507 27.6368 1.64018C27.6027 1.69529 27.5833 1.7582 27.5804 1.82292C27.5775 1.88765 27.5912 1.95205 27.6201 2.00999L42.3001 30.68C42.3265 30.7328 42.3403 30.791 42.3403 30.85C42.3403 30.909 42.3265 30.9672 42.3001 31.02L27.6001 59.71C27.5712 59.7679 27.5575 59.8323 27.5604 59.8971C27.5633 59.9618 27.5827 60.0247 27.6168 60.0798C27.6508 60.1349 27.6984 60.1804 27.755 60.2119C27.8116 60.2435 27.8754 60.26 27.9401 60.26H40.7901C40.8607 60.26 40.9299 60.2404 40.99 60.2033C41.05 60.1662 41.0986 60.1131 41.1301 60.05L55.9701 30.57C55.9982 30.5159 56.0128 30.4559 56.0128 30.395C56.0128 30.3341 55.9982 30.2741 55.9701 30.22L40.8201 1.67999Z" fill="#E49311"/>
</svg>
