<svg width="1246" height="48" viewBox="0 0 1246 48" fill="none" xmlns="http://www.w3.org/2000/svg">
<path d="M265.487 20.7361L275.102 31.4988C275.328 31.7473 275.605 31.9458 275.914 32.0817C276.223 32.2176 276.557 32.2879 276.896 32.2881C410.991 32.2722 545.062 32.2882 679.11 32.336C680.353 32.336 682.076 33.2687 682.099 34.5124C682.103 34.6746 682.073 34.8358 682.013 34.9865C681.954 35.1373 681.864 35.2746 681.751 35.3904C681.637 35.5063 681.502 35.5982 681.352 35.6609C681.202 35.7237 681.042 35.7562 680.88 35.7561L275.939 35.9236C275.6 35.9233 275.266 35.853 274.957 35.7171C274.648 35.5812 274.372 35.3827 274.145 35.1343L258.312 17.5313C258.086 17.2824 257.812 17.0836 257.507 16.9477C257.202 16.8117 256.873 16.7417 256.542 16.742C171.812 16.742 87.0973 16.742 2.39884 16.742C1.27473 16.742 -1.04522 15.7853 0.533307 14.3742C0.978512 13.9744 1.54916 13.7529 2.13575 13.7523H390.956C391.584 13.7523 392.186 13.5029 392.631 13.0588L405.091 0.693544C405.535 0.249486 406.138 4.53067e-05 406.766 0H494.613C498.041 0 498.655 1.3075 496.455 3.92244L486.41 15.881C486.186 16.1504 485.907 16.3672 485.593 16.516C485.278 16.6648 484.937 16.7419 484.592 16.742H267.281C263.709 16.742 263.111 18.0733 265.487 20.7361Z" fill="#E49311"/>
<path d="M680.849 41.2575C670.062 26.2854 696.921 8.22793 707.445 30.9014C707.629 31.3142 707.931 31.6648 708.313 31.9109C708.695 32.1571 709.141 32.2882 709.597 32.2886C886.807 32.2886 1064.01 32.2886 1241.2 32.2886C1245.87 32.2886 1248.55 35.8762 1242.49 35.8762C1064.71 35.8762 886.927 35.8762 709.143 35.8762C708.657 35.8761 708.184 36.0251 707.786 36.3032C707.388 36.5812 707.085 36.975 706.919 37.4308C702.207 49.8677 688.192 51.4701 680.849 41.2575ZM703.785 33.9149C703.785 31.0288 702.639 28.2608 700.598 26.22C698.557 24.1792 695.789 23.0327 692.903 23.0327C691.474 23.0327 690.059 23.3141 688.739 23.861C687.418 24.4078 686.219 25.2095 685.208 26.22C684.198 27.2305 683.396 28.4302 682.849 29.7505C682.302 31.0708 682.021 32.4859 682.021 33.9149C682.021 35.344 682.302 36.7591 682.849 38.0794C683.396 39.3997 684.198 40.5994 685.208 41.6099C686.219 42.6204 687.418 43.422 688.739 43.9689C690.059 44.5158 691.474 44.7972 692.903 44.7972C694.332 44.7972 695.747 44.5158 697.068 43.9689C698.388 43.422 699.588 42.6204 700.598 41.6099C701.609 40.5994 702.41 39.3997 702.957 38.0794C703.504 36.7591 703.785 35.344 703.785 33.9149Z" fill="#E49311"/>
</svg>
