<svg width="753" height="791" viewBox="0 0 753 791" fill="none" xmlns="http://www.w3.org/2000/svg">
<g clip-path="url(#clip0_502_2)">
<path d="M374.54 518L374.75 516.54" stroke="#C8DEDC" stroke-width="2"/>
<path d="M356.46 536.5L330.92 561.72C330.593 562.047 330.377 561.987 330.27 561.54L318.5 512.29" stroke="#C8DEDC" stroke-width="2"/>
<path d="M270 589.46L265.84 589.74C265.46 589.767 265.27 589.97 265.27 590.35C265.223 604.543 265.227 618.743 265.28 632.95C265.3 638.34 266.06 642.68 272.07 643.15C279.557 643.73 287.88 643.76 297.04 643.24C302.74 642.92 305.17 640.43 305.2 634.74C305.273 619.953 305.283 605.123 305.23 590.25C305.23 589.897 305.05 589.717 304.69 589.71L288.25 589.46" stroke="#2F5188" stroke-width="2"/>
<path d="M288.25 589.46C288.723 585.047 288.763 581.7 288.37 579.42C287.72 575.64 282.28 575.73 281.74 579.5C281.447 581.613 281.557 585.017 282.07 589.71" stroke="#9B9658" stroke-width="2"/>
<path d="M282.07 589.71L278.25 589.46" stroke="#2F5188" stroke-width="2"/>
<path d="M278.25 589.46C278.697 583.707 278.743 579.197 278.39 575.93C277.81 570.63 270.7 570.45 270.09 574.81C269.537 578.75 269.507 583.633 270 589.46" stroke="#9B9658" stroke-width="2"/>
<path d="M278.25 589.46C275.497 589.947 272.747 589.947 270 589.46" stroke="#93814B" stroke-width="2"/>
<path d="M288.25 589.46L282.07 589.71" stroke="#93814B" stroke-width="2"/>
<path d="M455.83 279.72C454.803 282.133 453.5 284.166 451.92 285.82C451.647 286.106 451.63 286.403 451.87 286.71C465.823 304.85 472.813 325.453 472.84 348.52C442.22 332.02 409.07 324.58 374.5 324.75L374.36 241.55C377.22 241.296 380.93 241.22 385.49 241.32C392.52 241.48 391.29 246.09 391.83 251.1C391.87 251.44 392.057 251.636 392.39 251.69C404.25 253.716 415.363 257.766 425.73 263.84C426.11 264.06 426.43 263.993 426.69 263.64C429.97 259.13 432.66 257.76 437.33 261.71C445.77 268.85 453.46 274.41 455.83 279.72Z" fill="#FF9F05"/>
<path d="M374.36 241.55L374.5 324.75C340.17 324.96 306.88 332.34 277.09 348.94C277.337 325.766 284.42 305.03 298.34 286.73C298.58 286.416 298.573 286.103 298.32 285.79C295.77 282.63 292.51 279.48 296.73 275.72C304.97 268.373 310.673 263.413 313.84 260.84C318.02 257.46 320.66 260.85 323.45 263.84C323.703 264.113 323.99 264.156 324.31 263.97C334.723 257.876 345.88 253.816 357.78 251.79C357.961 251.756 358.123 251.657 358.236 251.511C358.348 251.365 358.403 251.183 358.39 251C358.1 247.09 357.94 242.28 363.29 241.76C366.737 241.426 370.427 241.356 374.36 241.55Z" fill="#FF9F05"/>
<path d="M374.5 324.75L374.25 355.21L305 355.29L281.71 355.5C279.23 355.15 273.11 356.32 272.71 352.65C272.67 352.277 272.803 351.98 273.11 351.76L277.09 348.94C306.88 332.34 340.17 324.96 374.5 324.75Z" fill="#DC5C00"/>
<path d="M374.5 324.75C409.07 324.58 442.22 332.02 472.84 348.52C474.23 349.93 477.52 350.64 477.27 353.31C477.219 353.849 476.973 354.352 476.577 354.723C476.182 355.095 475.664 355.311 475.12 355.33L468.3 355.54L445.23 355.39L374.5 355.29C374.42 355.263 374.337 355.237 374.25 355.21L374.5 324.75Z" fill="#DC5C00"/>
<path d="M305 355.29C298.887 362.457 295.54 370.957 294.96 380.79C294.952 380.905 294.902 381.013 294.819 381.093C294.735 381.172 294.625 381.218 294.51 381.22L287.55 381.33C287.257 381.33 287.073 381.193 287 380.92L283.25 366.71L281.71 355.5L305 355.29Z" fill="#333333"/>
<path d="M305 355.29L374.25 355.21C374.337 355.237 374.42 355.263 374.5 355.29L374.29 479.25C373.93 479.497 373.497 479.597 372.99 479.55C357.577 478.183 344.04 472.447 332.38 462.34C318.733 450.313 307.89 436.093 299.85 419.68C299.69 419.34 299.423 419.193 299.05 419.24C297.84 419.39 296.58 420.04 295.47 420.05C290.717 420.11 286.98 418.67 284.26 415.73C274.3 404.943 270.83 392.347 273.85 377.94C274.977 372.56 278.11 368.817 283.25 366.71L287 380.92C287.073 381.193 287.257 381.33 287.55 381.33L294.51 381.22C294.625 381.218 294.736 381.172 294.819 381.093C294.902 381.013 294.953 380.905 294.96 380.79C295.54 370.957 298.887 362.457 305 355.29Z" fill="#E8CF89"/>
<path d="M374.5 355.29L445.23 355.39C451.323 362.783 454.55 371.19 454.91 380.61C454.923 380.997 455.123 381.197 455.51 381.21L462.44 381.35C462.74 381.357 462.93 381.213 463.01 380.92L466.7 366.56C472.513 368.933 475.9 373.323 476.86 379.73C479.073 394.53 475.21 406.78 465.27 416.48C461.17 420.47 456.56 420.15 450.99 419.51C450.643 419.477 450.39 419.617 450.23 419.93C442.097 436.357 431.223 450.667 417.61 462.86C403.97 472.9 391.98 479.41 374.54 480L374.29 479.25L374.5 355.29Z" fill="#E8CF89"/>
<path d="M468.3 355.54L466.7 366.56L463.01 380.92C462.93 381.213 462.74 381.357 462.44 381.35L455.51 381.21C455.123 381.197 454.923 380.997 454.91 380.61C454.55 371.19 451.323 362.783 445.23 355.39L468.3 355.54Z" fill="#333333"/>
<path d="M332.38 462.34C344.04 472.447 357.577 478.183 372.99 479.55C373.497 479.597 373.93 479.497 374.29 479.25L374.54 480L374.48 515.44C374.48 515.66 374.4 515.847 374.24 516L374 516.21L332.14 498.34L332.38 462.34Z" fill="#DDAB62"/>
<path d="M417.61 462.86C418.103 474.807 418.203 486.557 417.91 498.11L374.75 516.54L374 516.21L374.24 516C374.4 515.847 374.48 515.66 374.48 515.44L374.54 480C391.98 479.41 403.97 472.9 417.61 462.86Z" fill="#DDAB62"/>
<path d="M417.91 498.11C424.07 498.2 428.32 507.46 431.5 512.04L419.82 561.43C419.801 561.514 419.76 561.591 419.7 561.654C419.641 561.716 419.566 561.761 419.483 561.785C419.4 561.808 419.313 561.809 419.23 561.787C419.146 561.765 419.07 561.721 419.01 561.66L393.79 536.5L375.56 518.06C375.36 517.853 375.13 517.81 374.87 517.93C374.75 517.983 374.64 518.007 374.54 518L374.75 516.54L417.91 498.11Z" fill="#D9EDEC"/>
<path d="M332.14 498.34L374 516.21L374.75 516.54L374.54 518L373.96 518.75L356.46 536.5L330.92 561.72C330.593 562.047 330.377 561.987 330.27 561.54L318.5 512.29C322.7 506.65 326.36 498.59 332.14 498.34Z" fill="#D9EDEC"/>
<path d="M431.5 512.04C433.71 512.48 445.09 514 446.04 515L415.25 669.96C406.37 671.427 397.433 672.44 388.44 673H383.19L383.26 550.67C383.26 550.31 383.37 549.987 383.59 549.7L393.79 536.5L419.01 561.66C419.07 561.721 419.146 561.765 419.229 561.787C419.313 561.809 419.4 561.809 419.483 561.785C419.566 561.761 419.641 561.716 419.7 561.654C419.759 561.591 419.801 561.514 419.82 561.43L431.5 512.04Z" fill="#B7CECC"/>
<path d="M318.5 512.29L330.27 561.54C330.377 561.987 330.593 562.047 330.92 561.72L356.46 536.5L366.46 549.47C366.66 549.73 366.76 550.027 366.76 550.36L366.83 673H361.19L334.5 669.96L304 515.04L318.5 512.29Z" fill="#B7CECC"/>
<path d="M304 515.04L334.5 669.96C297.553 664.073 263.623 650.67 232.71 629.75C232.763 610.803 232.773 591.86 232.74 572.92C232.69 546.2 247.96 526.71 273.92 520.89C282.08 519.063 292.107 517.113 304 515.04ZM270 589.46L265.84 589.74C265.46 589.767 265.27 589.97 265.27 590.35C265.223 604.543 265.227 618.743 265.28 632.95C265.3 638.34 266.06 642.68 272.07 643.15C279.557 643.73 287.88 643.76 297.04 643.24C302.74 642.92 305.17 640.43 305.2 634.74C305.273 619.953 305.283 605.123 305.23 590.25C305.23 589.897 305.05 589.717 304.69 589.71L288.25 589.46C288.723 585.047 288.763 581.7 288.37 579.42C287.72 575.64 282.28 575.73 281.74 579.5C281.447 581.613 281.557 585.017 282.07 589.71L278.25 589.46C278.697 583.707 278.743 579.197 278.39 575.93C277.81 570.63 270.7 570.45 270.09 574.81C269.537 578.75 269.507 583.633 270 589.46Z" fill="#366695"/>
<path d="M446.04 515C456.227 516.807 466.38 518.82 476.5 521.04C500.23 526.23 516.66 544.96 517.05 569.44C517.363 589.64 517.347 609.84 517 630.04C486.127 650.98 452.21 664.287 415.25 669.96L446.04 515Z" fill="#366695"/>
<path d="M393.79 536.5L383.59 549.7C383.37 549.987 383.26 550.31 383.26 550.67L383.19 673H374.52C374.513 623.227 374.51 573.457 374.51 523.69C374.51 522.017 374.327 520.37 373.96 518.75L374.54 518C374.64 518.007 374.75 517.983 374.87 517.93C375.13 517.81 375.36 517.853 375.56 518.06L393.79 536.5Z" fill="#333333"/>
<path d="M373.96 518.75C374.327 520.37 374.51 522.017 374.51 523.69C374.51 573.457 374.513 623.227 374.52 673H366.83L366.76 550.36C366.76 550.027 366.66 549.73 366.46 549.47L356.46 536.5L373.96 518.75Z" fill="#333333"/>
<path d="M278.25 589.46C275.497 589.947 272.747 589.947 270 589.46C269.507 583.633 269.537 578.75 270.09 574.81C270.7 570.45 277.81 570.63 278.39 575.93C278.743 579.197 278.697 583.707 278.25 589.46Z" fill="#FFC61B"/>
<path d="M288.25 589.46L282.07 589.71C281.557 585.017 281.447 581.613 281.74 579.5C282.28 575.73 287.72 575.64 288.37 579.42C288.763 581.7 288.723 585.047 288.25 589.46Z" fill="#FFC61B"/>
<path d="M270 589.46C272.747 589.947 275.497 589.947 278.25 589.46L282.07 589.71L288.25 589.46L304.69 589.71C305.05 589.717 305.23 589.897 305.23 590.25C305.283 605.123 305.273 619.953 305.2 634.74C305.17 640.43 302.74 642.92 297.04 643.24C287.88 643.76 279.557 643.73 272.07 643.15C266.06 642.68 265.3 638.34 265.28 632.95C265.227 618.743 265.223 604.543 265.27 590.35C265.27 589.97 265.46 589.767 265.84 589.74L270 589.46Z" fill="#273B7A"/>
</g>
<path d="M512.929 208.454C495.192 189.167 477.339 169.988 459.372 150.918C456.987 148.396 456.203 146.094 452.061 147.496C426.18 156.23 400.317 165.001 374.471 173.811C374.115 173.929 373.882 174.17 373.77 174.533C373.366 175.837 372.888 177.072 372.337 178.237C369.702 183.792 361.806 182.6 360.206 177.128C359.024 173.078 360.718 169.04 365.09 168.161C367.558 167.669 369.629 168.83 371.762 170.023C372.139 170.232 372.529 170.271 372.934 170.138L455.795 141.857C456.164 141.731 456.499 141.791 456.799 142.035C457.915 142.949 458.943 143.915 459.884 144.933C478.298 164.875 496.722 184.811 515.156 204.739C516.753 206.462 519.033 207.149 521.996 206.801C522.359 206.759 522.697 206.835 523.011 207.031C528.543 210.525 527.1 220.538 518.963 219.932C512.259 219.429 512.249 214.941 513.222 209.469C513.291 209.085 513.194 208.747 512.929 208.454ZM370.34 175.098C370.34 174.11 369.948 173.162 369.249 172.464C368.551 171.765 367.604 171.373 366.617 171.373C365.629 171.373 364.682 171.765 363.984 172.464C363.286 173.162 362.894 174.11 362.894 175.098C362.894 176.086 363.286 177.033 363.984 177.732C364.682 178.43 365.629 178.823 366.617 178.823C367.604 178.823 368.551 178.43 369.249 177.732C369.948 177.033 370.34 176.086 370.34 175.098ZM522.979 213.308C522.979 212.31 522.583 211.351 521.877 210.645C521.17 209.939 520.213 209.542 519.214 209.542C518.216 209.542 517.258 209.939 516.552 210.645C515.846 211.351 515.449 212.31 515.449 213.308C515.449 214.307 515.846 215.266 516.552 215.972C517.258 216.678 518.216 217.075 519.214 217.075C520.213 217.075 521.17 216.678 521.877 215.972C522.583 215.266 522.979 214.307 522.979 213.308Z" fill="#E49311"/>
<path d="M106.947 504.168C114.372 478.785 121.202 453.266 128.345 427.799C143.76 372.848 159.106 317.875 174.382 262.882C174.926 260.908 175.352 258.913 175.658 256.897C175.714 256.548 175.589 256.28 175.282 256.092C165.796 250.316 167.898 236.411 179.015 234.119C185.134 232.853 188.229 236.84 191.879 240.46C192.116 240.704 192.311 240.805 192.465 240.763L435.883 172.817C436.192 172.732 436.471 172.56 436.686 172.323C436.901 172.086 437.043 171.793 437.096 171.478C439.459 157.175 459.989 157.185 460.334 172.712C460.386 174.962 459.299 177.473 458.65 179.764C458.546 180.127 458.622 180.441 458.88 180.706L637.059 363.557C637.366 363.878 637.711 363.919 638.094 363.682C657.16 351.974 666.698 382.306 645.813 383.939C645.384 383.971 644.977 384.136 644.647 384.41C644.318 384.684 644.082 385.053 643.972 385.466C638.126 407.135 632.844 428.908 627.228 450.609C605.098 535.979 589.739 595.378 581.149 628.803C580.898 629.787 580.765 630.92 580.751 632.204C580.744 632.587 580.908 632.873 581.243 633.062C596.502 641.788 583.22 662.86 569.477 653.224C567.563 651.895 566.434 649.855 565.064 647.814C564.848 647.487 564.544 647.372 564.154 647.469C439.714 679.256 358.271 700.004 319.826 709.713C317.62 710.268 316.856 710.498 316.616 712.967C314.785 732.073 287.081 725.795 295.207 706.71C295.34 706.39 295.284 706.107 295.04 705.863L112.448 526.319C112.183 526.06 111.876 525.977 111.528 526.067C106.706 527.313 102.471 528.474 98.0784 525.544C88.4776 519.141 93.895 502.965 106.184 504.66C106.581 504.716 106.835 504.552 106.947 504.168ZM111.214 506.198C115.91 510.488 117.845 515.657 114.969 521.254C114.802 521.586 114.745 521.961 114.805 522.326C114.865 522.691 115.04 523.027 115.303 523.284L297.31 702.494C297.537 702.718 297.827 702.866 298.142 702.919C298.456 702.971 298.779 702.925 299.067 702.787C305.394 699.753 310.027 702.253 314.963 706.438C315.263 706.696 315.601 706.777 315.978 706.679L563.924 643.451C564.321 643.347 564.565 643.096 564.656 642.698C565.639 638.44 568.714 633.386 573.462 632.852C575.616 632.601 576.233 631.848 576.798 629.714C598.018 548.73 618.558 467.579 639.757 386.596C640.029 385.564 640.12 384.51 640.029 383.436C640.001 383.088 639.865 382.784 639.621 382.526C635.135 377.797 633.242 374.417 635.271 368.485C635.389 368.129 635.319 367.819 635.061 367.554C577.624 308.354 520.114 249.207 462.509 190.175C459.759 187.36 456.789 183.217 453.181 183.353C446.519 183.604 441.896 183.949 438.1 177.222C437.898 176.88 437.601 176.733 437.211 176.782C436.43 176.88 435.541 177.068 434.544 177.347C362.109 197.548 289.675 217.741 217.241 237.928C212.785 239.162 195.163 243.159 192.664 245.775C192.413 246.033 192.28 246.34 192.266 246.696C191.858 254.794 187.089 255.349 180.741 257.692C180.406 257.818 180.173 258.048 180.04 258.383C179.259 260.392 178.757 261.801 178.534 262.61C156.286 342.652 133.971 422.676 111.591 502.683C111.367 503.485 111.148 504.36 110.932 505.309C110.855 505.658 110.949 505.954 111.214 506.198Z" fill="#E49311"/>
<path d="M366.617 178.823C368.673 178.823 370.34 177.155 370.34 175.098C370.34 173.041 368.673 171.373 366.617 171.373C364.561 171.373 362.894 173.041 362.894 175.098C362.894 177.155 364.561 178.823 366.617 178.823Z" fill="#E49311"/>
<path d="M246.085 210.797C245.982 210.658 245.841 210.551 245.677 210.491C245.513 210.432 245.335 210.422 245.164 210.463L164.206 229.589C163.863 229.671 163.55 229.846 163.301 230.093C163.051 230.34 162.876 230.651 162.795 230.991C162.279 233.105 161.784 235.399 161.309 237.876C156.52 262.805 151.698 287.732 146.846 312.654C146.769 313.031 146.832 313.38 147.034 313.701C149.439 317.624 153.246 322.5 148.623 326.539C142.108 332.21 132.424 323.557 138.625 316.505C140.1 314.841 142.767 314.412 143.269 311.671C148.477 283.309 153.762 254.993 159.124 226.722C159.145 226.61 159.198 226.507 159.276 226.425C159.354 226.343 159.454 226.287 159.563 226.262L244.265 206.654C244.628 206.57 244.92 206.379 245.143 206.079C246.733 203.923 247.999 201.883 250.592 201.067C257.265 198.953 262.672 206.905 258.039 211.948C254.661 215.61 248.971 214.627 246.085 210.797ZM256.564 207.533C256.564 206.531 256.166 205.571 255.458 204.862C254.75 204.154 253.79 203.756 252.788 203.756C251.787 203.756 250.827 204.154 250.119 204.862C249.411 205.571 249.013 206.531 249.013 207.533C249.013 208.535 249.411 209.496 250.119 210.204C250.827 210.912 251.787 211.31 252.788 211.31C253.79 211.31 254.75 210.912 255.458 210.204C256.166 209.496 256.564 208.535 256.564 207.533ZM147.41 321.182C147.41 320.699 147.315 320.222 147.131 319.776C146.946 319.331 146.676 318.926 146.335 318.585C145.994 318.244 145.59 317.973 145.144 317.789C144.699 317.604 144.222 317.509 143.739 317.509C143.257 317.509 142.78 317.604 142.335 317.789C141.889 317.973 141.485 318.244 141.144 318.585C140.803 318.926 140.532 319.331 140.348 319.776C140.164 320.222 140.069 320.699 140.069 321.182C140.069 322.156 140.455 323.09 141.144 323.779C141.832 324.467 142.766 324.854 143.739 324.854C144.713 324.854 145.647 324.467 146.335 323.779C147.024 323.09 147.41 322.156 147.41 321.182Z" fill="#E49311"/>
<path d="M252.788 211.31C254.874 211.31 256.564 209.619 256.564 207.533C256.564 205.447 254.874 203.756 252.788 203.756C250.703 203.756 249.013 205.447 249.013 207.533C249.013 209.619 250.703 211.31 252.788 211.31Z" fill="#E49311"/>
<path d="M519.214 217.075C521.294 217.075 522.979 215.389 522.979 213.309C522.979 211.228 521.294 209.542 519.214 209.542C517.135 209.542 515.449 211.228 515.449 213.309C515.449 215.389 517.135 217.075 519.214 217.075Z" fill="#E49311"/>
<path d="M509.655 268.166C441.112 216.95 352.32 209.05 276.027 248.307C271.997 250.379 267.88 252.426 263.675 254.449C263.334 254.609 263.062 254.529 262.86 254.208L256.647 244.478C256.278 243.892 256.389 243.424 256.982 243.076C335.21 196.704 432.023 199.382 507.637 249.877C511.277 252.311 514.662 254.906 517.792 257.661C517.95 257.803 518.048 258 518.066 258.21C518.083 258.421 518.019 258.629 517.886 258.791L510.523 268.061C510.266 268.375 509.976 268.41 509.655 268.166Z" fill="#E49311"/>
<path d="M238.335 251.781L256.009 250.17C256.211 250.151 256.413 250.185 256.597 250.268C256.781 250.352 256.94 250.482 257.058 250.646C257.176 250.81 257.25 251.001 257.271 251.202C257.293 251.403 257.262 251.606 257.181 251.791L250.132 268.082C250.051 268.271 249.921 268.435 249.756 268.557C249.591 268.679 249.396 268.755 249.192 268.777C248.988 268.8 248.781 268.767 248.594 268.684C248.406 268.6 248.244 268.469 248.124 268.302L237.498 253.622C237.377 253.456 237.302 253.261 237.281 253.056C237.26 252.851 237.294 252.645 237.379 252.457C237.464 252.27 237.598 252.109 237.766 251.99C237.934 251.871 238.13 251.799 238.335 251.781Z" fill="#E49311"/>
<path d="M243.114 268.835C172.353 324.53 141.501 414.124 164.834 501.804C164.875 501.959 164.884 502.121 164.862 502.28C164.84 502.439 164.786 502.592 164.705 502.73C164.623 502.868 164.515 502.989 164.386 503.085C164.257 503.181 164.111 503.25 163.955 503.289L152.911 506.031C152.542 506.121 152.308 505.982 152.211 505.612C126.619 412.795 159.866 316.275 235.731 257.63C235.821 257.557 235.938 257.526 236.056 257.542C236.173 257.557 236.282 257.619 236.358 257.713L243.365 266.764C243.604 267.073 243.712 267.463 243.665 267.851C243.618 268.239 243.42 268.592 243.114 268.835Z" fill="#E49311"/>
<path d="M523.962 259.68L530.405 276.599C530.477 276.792 530.495 277.001 530.459 277.204C530.423 277.407 530.332 277.597 530.198 277.753C530.063 277.909 529.889 278.026 529.693 278.092C529.498 278.157 529.289 278.169 529.087 278.126L511.402 274.297C511.208 274.254 511.028 274.162 510.88 274.029C510.732 273.896 510.621 273.727 510.557 273.539C510.494 273.35 510.481 273.148 510.519 272.953C510.557 272.757 510.645 272.575 510.774 272.424L522.017 259.335C522.148 259.184 522.315 259.07 522.502 259.004C522.69 258.937 522.892 258.92 523.088 258.955C523.284 258.99 523.467 259.075 523.621 259.202C523.774 259.329 523.892 259.494 523.962 259.68Z" fill="#E49311"/>
<path d="M586.901 507.956C607.493 441.411 595.1 369.792 554.25 313.721C546.678 303.332 537.464 293.203 528.229 283.766C528.098 283.633 528.023 283.453 528.021 283.266C528.019 283.078 528.09 282.897 528.219 282.761L536.241 274.506C536.441 274.3 536.714 274.181 537.001 274.175C537.287 274.169 537.563 274.277 537.768 274.475C574.253 309.512 597.112 351.845 606.343 401.474C610.432 423.478 610.631 446.831 608.696 469.065C606.939 489.374 601.354 509.243 594.368 528.631C593.978 529.712 593.249 530.047 592.182 529.635L581.891 525.68C581.508 525.541 581.379 525.275 581.504 524.885C583.359 519.221 585.158 513.578 586.901 507.956Z" fill="#E49311"/>
<path d="M611.718 303.646L674.029 364.812C674.306 365.082 674.501 365.424 674.594 365.8C674.686 366.175 674.672 366.569 674.552 366.936C674.113 368.262 673.621 369.639 673.077 371.069C658.178 410.096 648.741 435.347 644.767 446.821C644.118 448.694 645.854 452.189 645.907 454.145C646.262 467.308 624.091 459.827 634.392 449.196C635.34 448.22 637.198 447.48 639.966 446.978C640.329 446.908 640.576 446.702 640.709 446.361C650.254 420.594 659.771 394.824 669.26 369.05C669.769 367.662 669.563 366.507 668.643 365.587C643.982 341.117 624.795 322.211 611.08 308.867C610.564 308.365 609.784 307.81 608.738 307.203C608.424 307.022 608.089 306.952 607.734 306.994C593.552 308.626 595.623 291.582 606.416 293.873C610.819 294.815 612.545 298.414 611.446 302.652C611.342 303.036 611.432 303.367 611.718 303.646ZM608.497 300.34C608.497 299.33 608.096 298.361 607.382 297.647C606.668 296.932 605.7 296.531 604.69 296.531C603.681 296.531 602.712 296.932 601.999 297.647C601.285 298.361 600.883 299.33 600.883 300.34C600.883 301.35 601.285 302.318 601.999 303.033C602.712 303.747 603.681 304.148 604.69 304.148C605.7 304.148 606.668 303.747 607.382 303.033C608.096 302.318 608.497 301.35 608.497 300.34ZM642.56 454.365C642.56 453.408 642.18 452.489 641.503 451.812C640.827 451.135 639.909 450.755 638.952 450.755C638.478 450.755 638.009 450.849 637.571 451.03C637.133 451.211 636.736 451.477 636.401 451.812C636.065 452.148 635.8 452.546 635.618 452.983C635.437 453.421 635.344 453.891 635.344 454.365C635.344 454.839 635.437 455.308 635.618 455.746C635.8 456.184 636.065 456.582 636.401 456.917C636.736 457.253 637.133 457.518 637.571 457.7C638.009 457.881 638.478 457.975 638.952 457.975C639.909 457.975 640.827 457.594 641.503 456.917C642.18 456.24 642.56 455.322 642.56 454.365Z" fill="#E49311"/>
<path d="M604.69 304.148C606.793 304.148 608.497 302.443 608.497 300.339C608.497 298.236 606.793 296.531 604.69 296.531C602.588 296.531 600.884 298.236 600.884 300.339C600.884 302.443 602.588 304.148 604.69 304.148Z" fill="#E49311"/>
<path d="M143.739 324.854C145.767 324.854 147.41 323.21 147.41 321.182C147.41 319.154 145.767 317.509 143.739 317.509C141.712 317.509 140.068 319.154 140.068 321.182C140.068 323.21 141.712 324.854 143.739 324.854Z" fill="#E49311"/>
<path d="M80.6025 524.048L143.112 580.098C143.398 580.349 143.729 580.457 144.105 580.422C146.521 580.182 149.481 579.313 151.949 581.197C159.249 586.763 153.434 595.364 145.486 593.25C141.878 592.287 140.686 588.468 141.282 585.194C141.333 584.925 141.313 584.648 141.225 584.39C141.137 584.131 140.984 583.9 140.78 583.718L75.6661 525.429C75.3106 525.115 75.206 524.735 75.3524 524.289L101.76 441.861C101.892 441.457 101.857 441.066 101.655 440.69C94.8153 427.663 111.528 424.231 113.431 432.717C114.407 437.062 112.887 439.989 108.871 441.495C105.441 442.782 105.274 443.494 104.249 446.748C96.3353 472.019 88.3207 497.294 80.2051 522.573C80.1239 522.832 80.1181 523.109 80.1886 523.37C80.259 523.632 80.4026 523.867 80.6025 524.048ZM110.597 435.092C110.597 434.112 110.208 433.173 109.516 432.48C108.823 431.788 107.884 431.398 106.905 431.398C105.926 431.398 104.987 431.788 104.295 432.48C103.602 433.173 103.213 434.112 103.213 435.092C103.213 436.071 103.602 437.011 104.295 437.704C104.987 438.396 105.926 438.785 106.905 438.785C107.884 438.785 108.823 438.396 109.516 437.704C110.208 437.011 110.597 436.071 110.597 435.092ZM151.928 587.066C151.928 586.109 151.548 585.191 150.871 584.514C150.195 583.837 149.277 583.457 148.32 583.457C147.363 583.457 146.445 583.837 145.769 584.514C145.092 585.191 144.712 586.109 144.712 587.066C144.712 588.024 145.092 588.942 145.769 589.619C146.445 590.296 147.363 590.676 148.32 590.676C149.277 590.676 150.195 590.296 150.871 589.619C151.548 588.942 151.928 588.024 151.928 587.066Z" fill="#E49311"/>
<path d="M106.905 438.785C108.944 438.785 110.597 437.132 110.597 435.092C110.597 433.052 108.944 431.398 106.905 431.398C104.866 431.398 103.213 433.052 103.213 435.092C103.213 437.132 104.866 438.785 106.905 438.785Z" fill="#E49311"/>
<path d="M638.952 457.974C640.945 457.974 642.56 456.358 642.56 454.365C642.56 452.371 640.945 450.755 638.952 450.755C636.959 450.755 635.344 452.371 635.344 454.365C635.344 456.358 636.959 457.974 638.952 457.974Z" fill="#E49311"/>
<path d="M156.185 526.664L159.092 508.458C159.117 508.294 159.185 508.139 159.288 508.009C159.392 507.879 159.527 507.778 159.682 507.717C159.836 507.655 160.004 507.635 160.168 507.659C160.333 507.683 160.488 507.749 160.619 507.851L175.156 519.183C175.29 519.286 175.394 519.423 175.457 519.58C175.52 519.737 175.541 519.907 175.516 520.074C175.492 520.242 175.423 520.399 175.318 520.531C175.212 520.663 175.073 520.765 174.916 520.825L157.482 527.7C157.325 527.763 157.154 527.784 156.987 527.759C156.82 527.735 156.662 527.667 156.53 527.561C156.398 527.456 156.297 527.317 156.236 527.159C156.175 527.002 156.158 526.831 156.185 526.664Z" fill="#E49311"/>
<path d="M358.491 662.881C437.514 670.111 514.958 631.743 558.747 566.653C562.979 560.361 566.946 554.038 570.648 547.684C570.857 547.321 571.197 547.053 571.598 546.934C571.999 546.816 572.43 546.855 572.803 547.046L582.079 551.754C582.279 551.855 582.433 552.027 582.514 552.235C582.595 552.443 582.597 552.674 582.519 552.884C581.598 555.322 580.542 557.927 579.193 560.197C547.232 613.988 496.624 654.061 435.757 669.619C320.882 698.989 205.088 639.475 160.337 530.556C160.269 530.385 160.269 530.194 160.337 530.024C160.405 529.854 160.536 529.719 160.703 529.646L171.276 525C171.442 524.927 171.62 524.888 171.802 524.885C171.983 524.882 172.163 524.916 172.332 524.984C172.5 525.052 172.654 525.154 172.783 525.282C172.913 525.411 173.015 525.564 173.085 525.732C204.429 603.075 275.483 655.295 358.491 662.881Z" fill="#E49311"/>
<path d="M594.943 537.2L580.929 548.426C580.761 548.56 580.56 548.646 580.348 548.676C580.135 548.706 579.918 548.68 579.72 548.599C579.521 548.518 579.347 548.386 579.216 548.216C579.085 548.046 579.001 547.844 578.973 547.631L576.693 529.823C576.668 529.614 576.697 529.402 576.778 529.207C576.859 529.013 576.989 528.843 577.156 528.714C577.323 528.585 577.52 528.502 577.729 528.473C577.937 528.443 578.15 528.469 578.346 528.547L594.64 535.128C594.836 535.208 595.008 535.337 595.139 535.503C595.269 535.67 595.354 535.868 595.385 536.077C595.415 536.286 595.391 536.5 595.313 536.697C595.236 536.894 595.108 537.067 594.943 537.2Z" fill="#E49311"/>
<path d="M509.54 678.22C536.167 673.079 562.763 667.767 589.327 662.285C591.576 661.824 592.695 662.034 593.312 659.387C599.618 632.34 605.464 605.188 611.948 578.194C612.032 577.845 611.945 577.549 611.687 577.305C610.338 576.007 609.072 574.888 608.539 573.057C604.879 560.804 625.806 560.543 621.058 573.527C619.97 576.509 616.78 576.813 615.682 579.732C615.326 580.674 615.037 581.633 614.814 582.609C608.846 608.976 602.986 635.371 597.234 661.793C596.784 663.896 596.01 665.277 593.688 665.717C557.725 672.622 530.384 678.011 511.663 681.882C508.411 682.552 507.637 686.695 504.562 687.647C501.592 688.561 499.18 688.048 497.325 686.109C490.036 678.513 502.146 668.678 508.662 677.864C508.878 678.171 509.171 678.29 509.54 678.22ZM618.871 570.355C618.822 569.884 618.672 569.427 618.43 569.012C618.188 568.598 617.859 568.232 617.462 567.937C617.065 567.641 616.607 567.422 616.115 567.292C615.623 567.161 615.106 567.121 614.594 567.175C614.082 567.229 613.584 567.375 613.13 567.605C612.676 567.836 612.273 568.145 611.946 568.517C611.619 568.888 611.373 569.314 611.223 569.77C611.073 570.227 611.021 570.704 611.07 571.175C611.12 571.647 611.27 572.103 611.512 572.518C611.753 572.933 612.082 573.298 612.479 573.594C612.877 573.889 613.335 574.108 613.827 574.239C614.319 574.37 614.836 574.409 615.348 574.355C615.86 574.301 616.358 574.155 616.812 573.925C617.266 573.695 617.668 573.385 617.996 573.014C618.323 572.642 618.568 572.216 618.719 571.76C618.869 571.304 618.921 570.826 618.871 570.355ZM505.859 681.066C505.859 680.095 505.473 679.163 504.787 678.476C504.1 677.79 503.169 677.404 502.199 677.404C501.228 677.404 500.297 677.79 499.61 678.476C498.924 679.163 498.538 680.095 498.538 681.066C498.538 682.037 498.924 682.968 499.61 683.655C500.297 684.342 501.228 684.728 502.199 684.728C503.169 684.728 504.1 684.342 504.787 683.655C505.473 682.968 505.859 682.037 505.859 681.066Z" fill="#E49311"/>
<path d="M615.348 574.355C617.502 574.129 619.08 572.338 618.871 570.355C618.663 568.372 616.748 566.949 614.594 567.175C612.44 567.402 610.862 569.193 611.071 571.175C611.279 573.158 613.194 574.582 615.348 574.355Z" fill="#E49311"/>
<path d="M148.32 590.676C150.313 590.676 151.928 589.06 151.928 587.066C151.928 585.073 150.313 583.457 148.32 583.457C146.327 583.457 144.712 585.073 144.712 587.066C144.712 589.06 146.327 590.676 148.32 590.676Z" fill="#E49311"/>
<path d="M300.447 735.578L379.784 707.746C380.09 707.638 380.357 707.443 380.551 707.183C380.744 706.924 380.856 706.614 380.872 706.292C381.154 699.125 391.476 696.561 394.101 703.822C397.103 712.078 388.224 715.489 382.189 711.429C381.911 711.241 381.614 711.202 381.3 711.314L299.098 740.411C298.831 740.505 298.541 740.52 298.265 740.453C297.989 740.386 297.737 740.241 297.54 740.035L238.691 677.686C238.426 677.407 238.105 677.236 237.728 677.173C232.928 676.41 227.887 675.269 228.17 669.357C228.4 664.656 231.133 662.382 236.369 662.536C241.755 662.693 241.504 670.006 241.222 673.501C241.194 673.864 241.298 674.181 241.535 674.453C261.082 696.854 278.945 713.836 288.692 724.518C292.562 728.752 296.156 732.376 299.474 735.389C299.76 735.647 300.085 735.71 300.447 735.578ZM238.471 669.546C238.471 668.588 238.091 667.67 237.414 666.993C236.738 666.316 235.82 665.936 234.863 665.936C233.906 665.936 232.988 666.316 232.312 666.993C231.635 667.67 231.255 668.588 231.255 669.546C231.255 670.503 231.635 671.421 232.312 672.098C232.988 672.775 233.906 673.156 234.863 673.156C235.82 673.156 236.738 672.775 237.414 672.098C238.091 671.421 238.471 670.503 238.471 669.546ZM391.633 706.501C391.633 705.485 391.23 704.511 390.512 703.793C389.794 703.075 388.821 702.672 387.806 702.672C387.303 702.672 386.805 702.771 386.341 702.963C385.876 703.155 385.454 703.438 385.099 703.793C384.743 704.149 384.462 704.571 384.269 705.036C384.077 705.5 383.978 705.998 383.978 706.501C383.978 707.004 384.077 707.502 384.269 707.966C384.462 708.431 384.743 708.853 385.099 709.209C385.454 709.564 385.876 709.846 386.341 710.039C386.805 710.231 387.303 710.33 387.806 710.33C388.821 710.33 389.794 709.927 390.512 709.209C391.23 708.491 391.633 707.517 391.633 706.501Z" fill="#E49311"/>
<path d="M234.863 673.156C236.855 673.156 238.471 671.539 238.471 669.546C238.471 667.552 236.855 665.936 234.863 665.936C232.87 665.936 231.255 667.552 231.255 669.546C231.255 671.539 232.87 673.156 234.863 673.156Z" fill="#E49311"/>
<path d="M502.199 684.728C504.22 684.728 505.859 683.088 505.859 681.066C505.859 679.043 504.22 677.404 502.199 677.404C500.177 677.404 498.538 679.043 498.538 681.066C498.538 683.088 500.177 684.728 502.199 684.728Z" fill="#E49311"/>
<path d="M387.806 710.331C389.92 710.331 391.633 708.616 391.633 706.501C391.633 704.386 389.92 702.672 387.806 702.672C385.692 702.672 383.978 704.386 383.978 706.501C383.978 708.616 385.692 710.331 387.806 710.331Z" fill="#E49311"/>
<defs>
<clipPath id="clip0_502_2">
<rect width="512" height="512" fill="white" transform="translate(119 161)"/>
</clipPath>
</defs>
</svg>
