<svg width="753" height="791" viewBox="0 0 753 791" fill="none" xmlns="http://www.w3.org/2000/svg">
<path d="M513.222 209.469C512.249 214.941 512.26 219.429 518.963 219.932C527.1 220.538 528.543 210.525 523.011 207.031C522.697 206.835 522.359 206.759 521.996 206.801C519.033 207.149 516.753 206.462 515.157 204.739C496.722 184.811 478.298 164.875 459.884 144.933C458.943 143.915 457.915 142.949 456.799 142.035C456.499 141.791 456.165 141.731 455.795 141.857L372.934 170.138C372.529 170.271 372.139 170.232 371.762 170.023C369.629 168.83 367.558 167.669 365.09 168.161C360.718 169.04 359.024 173.078 360.206 177.128C361.806 182.6 369.702 183.792 372.338 178.237C372.888 177.072 373.366 175.837 373.77 174.533C373.882 174.17 374.115 173.929 374.471 173.811C400.317 165.001 426.181 156.23 452.061 147.496C456.203 146.094 456.987 148.396 459.372 150.918C477.339 169.988 495.192 189.167 512.929 208.454C513.194 208.747 513.292 209.085 513.222 209.469Z" stroke="#E49311" stroke-width="2"/>
<path d="M106.183 504.66C93.8949 502.965 88.4775 519.141 98.0782 525.544C102.471 528.474 106.706 527.313 111.528 526.067C111.876 525.977 112.183 526.06 112.448 526.319L295.04 705.863C295.284 706.107 295.34 706.39 295.207 706.71C287.081 725.795 314.785 732.073 316.616 712.967C316.856 710.498 317.62 710.268 319.826 709.713C358.271 700.004 439.714 679.256 564.154 647.469C564.544 647.372 564.848 647.487 565.064 647.814C566.434 649.855 567.563 651.895 569.477 653.224C583.219 662.86 596.502 641.788 581.243 633.062C580.908 632.873 580.744 632.587 580.751 632.204C580.765 630.92 580.898 629.787 581.149 628.803C589.738 595.378 605.098 535.979 627.228 450.609C632.844 428.908 638.126 407.135 643.972 385.466C644.081 385.053 644.317 384.684 644.647 384.41C644.977 384.136 645.384 383.972 645.813 383.939C666.698 382.306 657.16 351.974 638.094 363.682C637.711 363.919 637.366 363.878 637.059 363.557L458.88 180.706C458.622 180.441 458.546 180.127 458.65 179.764C459.299 177.473 460.386 174.962 460.334 172.712C459.989 157.185 439.459 157.175 437.096 171.478C437.043 171.793 436.901 172.086 436.686 172.323C436.471 172.56 436.192 172.732 435.882 172.817L192.465 240.763C192.311 240.805 192.116 240.704 191.879 240.46C188.229 236.84 185.133 232.853 179.015 234.119C167.898 236.411 165.796 250.316 175.282 256.092C175.588 256.28 175.714 256.548 175.658 256.897C175.351 258.913 174.926 260.908 174.382 262.882C159.106 317.875 143.76 372.848 128.345 427.799C121.202 453.266 114.372 478.785 106.947 504.168C106.835 504.552 106.581 504.716 106.183 504.66Z" stroke="#E49311" stroke-width="2"/>
<path d="M246.085 210.797C248.971 214.627 254.66 215.61 258.038 211.948C262.671 206.905 257.265 198.953 250.592 201.067C247.998 201.883 246.733 203.923 245.143 206.079C244.92 206.379 244.627 206.57 244.265 206.654L159.563 226.262C159.454 226.287 159.354 226.343 159.276 226.425C159.198 226.507 159.145 226.61 159.124 226.722C153.762 254.993 148.477 283.309 143.269 311.671C142.767 314.412 140.1 314.841 138.625 316.505C132.423 323.557 142.108 332.21 148.623 326.539C153.246 322.5 149.439 317.624 147.034 313.701C146.832 313.38 146.769 313.031 146.845 312.654C151.698 287.732 156.519 262.805 161.309 237.876C161.783 235.399 162.278 233.105 162.794 230.991C162.876 230.651 163.051 230.34 163.301 230.093C163.55 229.846 163.863 229.671 164.206 229.589L245.164 210.463C245.335 210.422 245.513 210.432 245.677 210.491C245.84 210.551 245.982 210.658 246.085 210.797Z" stroke="#E49311" stroke-width="2"/>
<path d="M611.446 302.652C612.545 298.414 610.819 294.815 606.416 293.873C595.623 291.582 593.552 308.626 607.734 306.994C608.089 306.952 608.424 307.022 608.738 307.203C609.784 307.81 610.564 308.365 611.08 308.867C624.795 322.211 643.982 341.117 668.643 365.587C669.563 366.507 669.769 367.662 669.26 369.05C659.771 394.824 650.254 420.594 640.709 446.361C640.576 446.702 640.329 446.908 639.966 446.978C637.198 447.48 635.34 448.22 634.392 449.196C624.091 459.827 646.262 467.308 645.907 454.145C645.854 452.189 644.118 448.694 644.767 446.821C648.741 435.347 658.178 410.096 673.077 371.069C673.621 369.639 674.113 368.262 674.552 366.936C674.672 366.569 674.686 366.175 674.594 365.8C674.501 365.424 674.306 365.082 674.029 364.812L611.718 303.646C611.432 303.367 611.342 303.036 611.446 302.652Z" stroke="#E49311" stroke-width="2"/>
<path d="M80.6023 524.048C80.4025 523.867 80.2589 523.632 80.1884 523.37C80.118 523.109 80.1237 522.832 80.2049 522.573C88.3206 497.294 96.3352 472.019 104.249 446.748C105.274 443.494 105.441 442.782 108.871 441.495C112.887 439.989 114.407 437.062 113.431 432.717C111.528 424.231 94.8152 427.663 101.655 440.69C101.857 441.066 101.892 441.457 101.76 441.861L75.3523 524.289C75.2058 524.735 75.3104 525.115 75.666 525.429L140.78 583.718C140.984 583.9 141.137 584.131 141.225 584.39C141.313 584.648 141.333 584.925 141.282 585.194C140.685 588.468 141.878 592.287 145.486 593.25C153.434 595.364 159.249 586.763 151.949 581.197C149.481 579.313 146.521 580.182 144.105 580.422C143.729 580.457 143.398 580.349 143.112 580.098L80.6023 524.048Z" stroke="#E49311" stroke-width="2"/>
<path d="M508.662 677.864C502.146 668.678 490.036 678.513 497.325 686.109C499.18 688.048 501.592 688.561 504.562 687.647C507.637 686.695 508.411 682.552 511.663 681.882C530.384 678.011 557.725 672.622 593.688 665.717C596.01 665.277 596.784 663.896 597.234 661.793C602.986 635.371 608.846 608.976 614.814 582.609C615.037 581.633 615.326 580.674 615.682 579.732C616.78 576.813 619.97 576.509 621.058 573.527C625.806 560.543 604.879 560.804 608.539 573.057C609.072 574.888 610.338 576.007 611.687 577.305C611.945 577.549 612.032 577.845 611.948 578.194C605.464 605.188 599.618 632.34 593.312 659.387C592.695 662.034 591.576 661.824 589.327 662.285C562.763 667.767 536.167 673.079 509.54 678.22C509.171 678.29 508.878 678.171 508.662 677.864Z" stroke="#E49311" stroke-width="2"/>
<path d="M299.474 735.389C296.156 732.376 292.561 728.752 288.692 724.518C278.945 713.836 261.082 696.854 241.535 674.453C241.298 674.181 241.194 673.864 241.221 673.501C241.504 670.006 241.755 662.693 236.369 662.536C231.133 662.382 228.4 664.656 228.169 669.357C227.887 675.269 232.928 676.41 237.728 677.173C238.105 677.236 238.426 677.407 238.691 677.686L297.54 740.035C297.737 740.241 297.989 740.386 298.265 740.453C298.541 740.52 298.83 740.505 299.098 740.411L381.3 711.314C381.614 711.202 381.91 711.241 382.189 711.429C388.224 715.489 397.103 712.078 394.101 703.822C391.476 696.561 381.154 699.125 380.872 706.292C380.856 706.614 380.744 706.924 380.551 707.183C380.357 707.443 380.09 707.638 379.784 707.746L300.447 735.578C300.084 735.71 299.76 735.647 299.474 735.389Z" stroke="#E49311" stroke-width="2"/>
<path d="M370.34 175.098C370.34 174.11 369.948 173.163 369.25 172.464C368.551 171.765 367.604 171.373 366.617 171.373C365.629 171.373 364.682 171.765 363.984 172.464C363.286 173.163 362.894 174.11 362.894 175.098C362.894 176.086 363.286 177.033 363.984 177.732C364.682 178.43 365.629 178.823 366.617 178.823C367.604 178.823 368.551 178.43 369.25 177.732C369.948 177.033 370.34 176.086 370.34 175.098Z" stroke="#E49311" stroke-width="2"/>
<path d="M522.979 213.309C522.979 212.31 522.583 211.352 521.877 210.645C521.171 209.939 520.213 209.542 519.214 209.542C518.216 209.542 517.258 209.939 516.552 210.645C515.846 211.352 515.449 212.31 515.449 213.309C515.449 214.308 515.846 215.266 516.552 215.972C517.258 216.678 518.216 217.075 519.214 217.075C520.213 217.075 521.171 216.678 521.877 215.972C522.583 215.266 522.979 214.308 522.979 213.309Z" stroke="#E49311" stroke-width="2"/>
<path d="M111.214 506.198C115.91 510.488 117.844 515.657 114.968 521.254C114.802 521.586 114.744 521.961 114.805 522.326C114.865 522.691 115.039 523.026 115.303 523.284L297.309 702.494C297.536 702.718 297.827 702.866 298.142 702.918C298.456 702.971 298.779 702.925 299.066 702.787C305.394 699.752 310.027 702.253 314.963 706.438C315.263 706.696 315.601 706.777 315.978 706.679L563.924 643.451C564.321 643.347 564.565 643.095 564.656 642.698C565.639 638.439 568.714 633.386 573.462 632.852C575.616 632.601 576.233 631.848 576.798 629.713C598.018 548.73 618.558 467.579 639.757 386.596C640.029 385.564 640.12 384.51 640.029 383.436C640.001 383.087 639.865 382.784 639.621 382.526C635.135 377.797 633.242 374.417 635.27 368.485C635.389 368.129 635.319 367.818 635.061 367.553C577.624 308.354 520.114 249.207 462.509 190.175C459.759 187.36 456.789 183.217 453.18 183.353C446.518 183.604 441.896 183.949 438.099 177.222C437.897 176.88 437.601 176.733 437.211 176.782C436.43 176.88 435.541 177.068 434.544 177.347C362.109 197.548 289.675 217.741 217.24 237.928C212.785 239.162 195.163 243.159 192.663 245.775C192.412 246.033 192.28 246.34 192.266 246.696C191.858 254.794 187.089 255.348 180.741 257.692C180.406 257.818 180.173 258.048 180.04 258.383C179.259 260.392 178.757 261.801 178.534 262.61C156.286 342.651 133.971 422.676 111.59 502.682C111.367 503.485 111.148 504.36 110.931 505.309C110.855 505.657 110.949 505.954 111.214 506.198Z" stroke="#E49311" stroke-width="2"/>
<path d="M276.027 248.307C352.32 209.05 441.112 216.95 509.655 268.166C509.976 268.41 510.266 268.375 510.523 268.061L517.886 258.791C518.019 258.629 518.083 258.421 518.066 258.21C518.048 258 517.95 257.803 517.792 257.661C514.662 254.906 511.277 252.311 507.637 249.877C432.023 199.382 335.21 196.704 256.982 243.076C256.389 243.424 256.278 243.892 256.647 244.478L262.86 254.208C263.062 254.529 263.334 254.609 263.675 254.449C267.88 252.426 271.997 250.379 276.027 248.307Z" stroke="#E49311" stroke-width="2"/>
<path d="M238.335 251.781C238.13 251.799 237.934 251.871 237.766 251.99C237.598 252.109 237.464 252.27 237.379 252.457C237.294 252.645 237.26 252.851 237.281 253.056C237.302 253.261 237.377 253.456 237.498 253.622L248.124 268.302C248.244 268.469 248.406 268.6 248.594 268.684C248.781 268.767 248.988 268.8 249.192 268.777C249.396 268.755 249.591 268.679 249.756 268.557C249.921 268.435 250.051 268.271 250.132 268.082L257.181 251.791C257.262 251.606 257.293 251.403 257.271 251.202C257.25 251.001 257.176 250.81 257.058 250.646C256.94 250.482 256.781 250.352 256.597 250.268C256.413 250.185 256.211 250.151 256.009 250.17L238.335 251.781Z" stroke="#E49311" stroke-width="2"/>
<path d="M164.834 501.804C141.501 414.124 172.353 324.53 243.114 268.835C243.42 268.592 243.618 268.239 243.665 267.851C243.712 267.463 243.604 267.073 243.365 266.764L236.358 257.713C236.282 257.619 236.173 257.557 236.056 257.542C235.938 257.526 235.821 257.557 235.731 257.63C159.866 316.275 126.619 412.795 152.211 505.612C152.308 505.982 152.542 506.121 152.911 506.031L163.955 503.289C164.111 503.25 164.257 503.181 164.386 503.085C164.515 502.989 164.623 502.868 164.705 502.73C164.786 502.592 164.84 502.439 164.862 502.28C164.884 502.121 164.875 501.959 164.834 501.804Z" stroke="#E49311" stroke-width="2"/>
<path d="M523.962 259.68C523.892 259.494 523.774 259.329 523.621 259.202C523.467 259.075 523.284 258.99 523.088 258.955C522.892 258.92 522.69 258.937 522.502 259.004C522.315 259.07 522.148 259.184 522.017 259.335L510.774 272.424C510.645 272.575 510.557 272.757 510.519 272.953C510.481 273.148 510.494 273.35 510.557 273.539C510.621 273.727 510.732 273.896 510.88 274.029C511.028 274.162 511.208 274.254 511.402 274.297L529.087 278.126C529.289 278.169 529.498 278.157 529.693 278.092C529.889 278.026 530.063 277.909 530.198 277.753C530.332 277.597 530.423 277.407 530.459 277.204C530.495 277.001 530.477 276.792 530.405 276.599L523.962 259.68Z" stroke="#E49311" stroke-width="2"/>
<path d="M554.25 313.721C595.1 369.792 607.493 441.411 586.901 507.956C585.158 513.578 583.359 519.221 581.504 524.885C581.379 525.275 581.508 525.541 581.891 525.68L592.182 529.635C593.249 530.047 593.978 529.712 594.368 528.631C601.354 509.243 606.939 489.374 608.696 469.065C610.631 446.831 610.432 423.478 606.343 401.474C597.112 351.845 574.253 309.512 537.768 274.475C537.563 274.277 537.287 274.169 537.001 274.175C536.714 274.181 536.441 274.3 536.241 274.506L528.219 282.761C528.09 282.897 528.019 283.078 528.021 283.266C528.023 283.453 528.098 283.633 528.229 283.766C537.464 293.203 546.678 303.332 554.25 313.721Z" stroke="#E49311" stroke-width="2"/>
<path d="M156.185 526.664C156.157 526.831 156.175 527.002 156.236 527.159C156.297 527.317 156.398 527.456 156.53 527.561C156.662 527.667 156.82 527.735 156.987 527.759C157.154 527.784 157.325 527.763 157.482 527.7L174.916 520.825C175.073 520.765 175.212 520.663 175.318 520.531C175.423 520.399 175.492 520.242 175.516 520.074C175.541 519.907 175.52 519.737 175.457 519.58C175.394 519.423 175.29 519.286 175.156 519.183L160.619 507.851C160.488 507.749 160.333 507.683 160.168 507.659C160.004 507.635 159.836 507.655 159.682 507.717C159.527 507.778 159.392 507.879 159.288 508.009C159.185 508.139 159.117 508.294 159.092 508.458L156.185 526.664Z" stroke="#E49311" stroke-width="2"/>
<path d="M358.491 662.881C275.483 655.295 204.429 603.075 173.085 525.732C173.015 525.564 172.913 525.411 172.783 525.282C172.654 525.154 172.5 525.052 172.332 524.984C172.163 524.916 171.983 524.882 171.802 524.885C171.621 524.888 171.442 524.927 171.276 525L160.703 529.646C160.536 529.719 160.405 529.854 160.337 530.024C160.269 530.194 160.269 530.385 160.337 530.556C205.088 639.475 320.883 698.989 435.757 669.619C496.624 654.061 547.232 613.988 579.193 560.197C580.542 557.927 581.598 555.322 582.519 552.884C582.597 552.674 582.596 552.443 582.514 552.235C582.433 552.027 582.279 551.855 582.079 551.754L572.803 547.046C572.43 546.855 571.999 546.816 571.598 546.934C571.198 547.053 570.857 547.321 570.649 547.684C566.946 554.038 562.979 560.361 558.747 566.653C514.958 631.743 437.514 670.111 358.491 662.881Z" stroke="#E49311" stroke-width="2"/>
<path d="M594.943 537.2C595.108 537.067 595.236 536.894 595.313 536.697C595.391 536.5 595.415 536.286 595.385 536.077C595.354 535.868 595.269 535.67 595.138 535.503C595.008 535.337 594.836 535.208 594.64 535.128L578.346 528.547C578.15 528.469 577.937 528.443 577.729 528.473C577.52 528.502 577.323 528.585 577.156 528.714C576.989 528.843 576.859 529.013 576.778 529.207C576.697 529.402 576.668 529.614 576.693 529.823L578.973 547.631C579.001 547.844 579.085 548.046 579.216 548.216C579.347 548.386 579.521 548.518 579.72 548.599C579.918 548.68 580.135 548.706 580.348 548.676C580.56 548.646 580.761 548.56 580.929 548.426L594.943 537.2Z" stroke="#E49311" stroke-width="2"/>
<path d="M256.564 207.533C256.564 206.531 256.166 205.571 255.458 204.862C254.75 204.154 253.79 203.756 252.788 203.756C251.787 203.756 250.827 204.154 250.119 204.862C249.411 205.571 249.013 206.531 249.013 207.533C249.013 208.535 249.411 209.495 250.119 210.204C250.827 210.912 251.787 211.31 252.788 211.31C253.79 211.31 254.75 210.912 255.458 210.204C256.166 209.495 256.564 208.535 256.564 207.533Z" stroke="#E49311" stroke-width="2"/>
<path d="M147.41 321.182C147.41 320.7 147.315 320.222 147.131 319.776C146.946 319.331 146.676 318.926 146.335 318.585C145.994 318.244 145.589 317.973 145.144 317.789C144.699 317.604 144.221 317.509 143.739 317.509C143.257 317.509 142.78 317.604 142.334 317.789C141.889 317.973 141.484 318.244 141.144 318.585C140.803 318.926 140.532 319.331 140.348 319.776C140.163 320.222 140.068 320.7 140.068 321.182C140.068 322.156 140.455 323.09 141.144 323.779C141.832 324.467 142.766 324.854 143.739 324.854C144.713 324.854 145.647 324.467 146.335 323.779C147.023 323.09 147.41 322.156 147.41 321.182Z" stroke="#E49311" stroke-width="2"/>
<path d="M608.497 300.339C608.497 299.329 608.096 298.36 607.382 297.646C606.668 296.932 605.7 296.531 604.69 296.531C603.681 296.531 602.712 296.932 601.999 297.646C601.285 298.36 600.884 299.329 600.884 300.339C600.884 301.349 601.285 302.318 601.999 303.032C602.712 303.747 603.681 304.148 604.69 304.148C605.7 304.148 606.668 303.747 607.382 303.032C608.096 302.318 608.497 301.349 608.497 300.339Z" stroke="#E49311" stroke-width="2"/>
<path d="M642.56 454.365C642.56 453.407 642.18 452.489 641.503 451.812C640.827 451.135 639.909 450.755 638.952 450.755C638.478 450.755 638.009 450.848 637.571 451.03C637.133 451.211 636.736 451.477 636.401 451.812C636.066 452.147 635.8 452.545 635.618 452.983C635.437 453.421 635.344 453.891 635.344 454.365C635.344 454.839 635.437 455.308 635.618 455.746C635.8 456.184 636.066 456.582 636.401 456.917C636.736 457.252 637.133 457.518 637.571 457.7C638.009 457.881 638.478 457.974 638.952 457.974C639.909 457.974 640.827 457.594 641.503 456.917C642.18 456.24 642.56 455.322 642.56 454.365Z" stroke="#E49311" stroke-width="2"/>
<path d="M110.597 435.092C110.597 434.112 110.208 433.173 109.516 432.48C108.823 431.788 107.884 431.398 106.905 431.398C105.926 431.398 104.987 431.788 104.295 432.48C103.602 433.173 103.213 434.112 103.213 435.092C103.213 436.071 103.602 437.011 104.295 437.704C104.987 438.396 105.926 438.785 106.905 438.785C107.884 438.785 108.823 438.396 109.516 437.704C110.208 437.011 110.597 436.071 110.597 435.092Z" stroke="#E49311" stroke-width="2"/>
<path d="M151.928 587.067C151.928 586.109 151.548 585.191 150.871 584.514C150.195 583.837 149.277 583.457 148.32 583.457C147.363 583.457 146.445 583.837 145.769 584.514C145.092 585.191 144.712 586.109 144.712 587.067C144.712 588.024 145.092 588.942 145.769 589.619C146.445 590.296 147.363 590.676 148.32 590.676C149.277 590.676 150.195 590.296 150.871 589.619C151.548 588.942 151.928 588.024 151.928 587.067Z" stroke="#E49311" stroke-width="2"/>
<path d="M618.871 570.355C618.822 569.884 618.672 569.427 618.43 569.012C618.188 568.597 617.859 568.232 617.462 567.937C617.065 567.641 616.607 567.422 616.115 567.292C615.623 567.161 615.106 567.121 614.594 567.175C614.082 567.229 613.584 567.375 613.13 567.605C612.676 567.836 612.273 568.145 611.946 568.517C611.619 568.888 611.373 569.314 611.223 569.77C611.073 570.226 611.021 570.704 611.07 571.175C611.12 571.647 611.27 572.103 611.512 572.518C611.753 572.933 612.082 573.298 612.479 573.594C612.877 573.889 613.334 574.108 613.827 574.239C614.319 574.369 614.836 574.409 615.348 574.355C615.86 574.301 616.358 574.155 616.812 573.925C617.266 573.695 617.668 573.385 617.996 573.014C618.323 572.642 618.568 572.216 618.719 571.76C618.869 571.304 618.921 570.826 618.871 570.355Z" stroke="#E49311" stroke-width="2"/>
<path d="M505.859 681.066C505.859 680.095 505.473 679.163 504.787 678.476C504.1 677.79 503.169 677.404 502.199 677.404C501.228 677.404 500.297 677.79 499.61 678.476C498.924 679.163 498.538 680.095 498.538 681.066C498.538 682.037 498.924 682.969 499.61 683.655C500.297 684.342 501.228 684.728 502.199 684.728C503.169 684.728 504.1 684.342 504.787 683.655C505.473 682.969 505.859 682.037 505.859 681.066Z" stroke="#E49311" stroke-width="2"/>
<path d="M238.471 669.546C238.471 668.589 238.091 667.671 237.414 666.994C236.737 666.317 235.82 665.937 234.863 665.937C233.906 665.937 232.988 666.317 232.311 666.994C231.635 667.671 231.255 668.589 231.255 669.546C231.255 670.504 231.635 671.422 232.311 672.099C232.988 672.776 233.906 673.156 234.863 673.156C235.82 673.156 236.737 672.776 237.414 672.099C238.091 671.422 238.471 670.504 238.471 669.546Z" stroke="#E49311" stroke-width="2"/>
<path d="M391.633 706.501C391.633 705.486 391.23 704.512 390.512 703.793C389.794 703.075 388.821 702.672 387.805 702.672C387.303 702.672 386.805 702.771 386.341 702.963C385.876 703.156 385.454 703.438 385.099 703.793C384.743 704.149 384.461 704.571 384.269 705.036C384.077 705.5 383.978 705.998 383.978 706.501C383.978 707.004 384.077 707.502 384.269 707.967C384.461 708.431 384.743 708.854 385.099 709.209C385.454 709.565 385.876 709.847 386.341 710.039C386.805 710.232 387.303 710.331 387.805 710.331C388.821 710.331 389.794 709.927 390.512 709.209C391.23 708.491 391.633 707.517 391.633 706.501Z" stroke="#E49311" stroke-width="2"/>
<path d="M512.929 208.454C495.192 189.167 477.339 169.988 459.372 150.918C456.987 148.396 456.203 146.094 452.061 147.496C426.181 156.23 400.317 165.001 374.471 173.811C374.115 173.929 373.882 174.17 373.77 174.533C373.366 175.837 372.888 177.072 372.338 178.237C369.702 183.792 361.806 182.6 360.206 177.128C359.024 173.078 360.718 169.04 365.09 168.161C367.558 167.669 369.629 168.83 371.762 170.023C372.139 170.232 372.529 170.271 372.934 170.138L455.795 141.857C456.165 141.731 456.499 141.791 456.799 142.035C457.915 142.949 458.943 143.915 459.884 144.933C478.298 164.875 496.722 184.811 515.157 204.739C516.753 206.462 519.033 207.149 521.996 206.801C522.359 206.759 522.697 206.835 523.011 207.031C528.543 210.525 527.1 220.538 518.963 219.932C512.26 219.429 512.249 214.941 513.222 209.469C513.292 209.085 513.194 208.747 512.929 208.454ZM370.34 175.098C370.34 174.11 369.948 173.162 369.25 172.464C368.551 171.765 367.604 171.373 366.617 171.373C365.629 171.373 364.682 171.765 363.984 172.464C363.286 173.162 362.894 174.11 362.894 175.098C362.894 176.086 363.286 177.033 363.984 177.732C364.682 178.43 365.629 178.823 366.617 178.823C367.604 178.823 368.551 178.43 369.25 177.732C369.948 177.033 370.34 176.086 370.34 175.098ZM522.979 213.308C522.979 212.31 522.583 211.351 521.877 210.645C521.171 209.939 520.213 209.542 519.214 209.542C518.216 209.542 517.258 209.939 516.552 210.645C515.846 211.351 515.449 212.31 515.449 213.308C515.449 214.307 515.846 215.266 516.552 215.972C517.258 216.678 518.216 217.075 519.214 217.075C520.213 217.075 521.171 216.678 521.877 215.972C522.583 215.266 522.979 214.307 522.979 213.308Z" fill="#E49311"/>
<path d="M106.947 504.168C114.372 478.785 121.202 453.266 128.345 427.799C143.76 372.848 159.106 317.875 174.382 262.882C174.926 260.908 175.351 258.913 175.658 256.897C175.714 256.548 175.588 256.28 175.282 256.092C165.796 250.316 167.898 236.411 179.015 234.119C185.133 232.853 188.229 236.84 191.879 240.46C192.116 240.704 192.311 240.805 192.465 240.763L435.882 172.817C436.192 172.732 436.471 172.56 436.686 172.323C436.901 172.086 437.043 171.793 437.096 171.478C439.459 157.175 459.989 157.185 460.334 172.712C460.386 174.962 459.299 177.473 458.65 179.764C458.546 180.127 458.622 180.441 458.88 180.706L637.059 363.557C637.366 363.878 637.711 363.919 638.094 363.682C657.16 351.974 666.698 382.306 645.813 383.939C645.384 383.971 644.977 384.136 644.647 384.41C644.318 384.684 644.081 385.053 643.972 385.466C638.126 407.135 632.844 428.908 627.228 450.609C605.098 535.979 589.738 595.378 581.149 628.803C580.898 629.787 580.765 630.92 580.751 632.204C580.744 632.587 580.908 632.873 581.243 633.062C596.502 641.788 583.219 662.86 569.477 653.224C567.563 651.895 566.434 649.855 565.064 647.814C564.848 647.487 564.544 647.372 564.154 647.469C439.714 679.256 358.271 700.004 319.826 709.713C317.62 710.268 316.856 710.498 316.616 712.967C314.785 732.073 287.081 725.795 295.207 706.71C295.34 706.39 295.284 706.107 295.04 705.863L112.448 526.319C112.183 526.06 111.876 525.977 111.528 526.067C106.706 527.313 102.471 528.474 98.0782 525.544C88.4775 519.141 93.8949 502.965 106.183 504.66C106.581 504.716 106.835 504.552 106.947 504.168ZM111.214 506.198C115.91 510.488 117.844 515.657 114.968 521.254C114.802 521.586 114.744 521.961 114.805 522.326C114.865 522.691 115.039 523.027 115.303 523.284L297.309 702.494C297.537 702.718 297.827 702.866 298.142 702.919C298.456 702.971 298.779 702.925 299.066 702.787C305.394 699.753 310.027 702.253 314.963 706.438C315.263 706.696 315.601 706.777 315.978 706.679L563.924 643.451C564.321 643.347 564.565 643.096 564.656 642.698C565.639 638.44 568.714 633.386 573.462 632.852C575.616 632.601 576.233 631.848 576.798 629.714C598.018 548.73 618.558 467.579 639.757 386.596C640.029 385.564 640.12 384.51 640.029 383.436C640.001 383.088 639.865 382.784 639.621 382.526C635.135 377.797 633.242 374.417 635.271 368.485C635.389 368.129 635.319 367.819 635.061 367.554C577.624 308.354 520.114 249.207 462.509 190.175C459.759 187.36 456.789 183.217 453.181 183.353C446.519 183.604 441.896 183.949 438.1 177.222C437.897 176.88 437.601 176.733 437.211 176.782C436.43 176.88 435.541 177.068 434.544 177.347C362.109 197.548 289.675 217.741 217.241 237.928C212.785 239.162 195.163 243.159 192.663 245.775C192.412 246.033 192.28 246.34 192.266 246.696C191.858 254.794 187.089 255.349 180.741 257.692C180.406 257.818 180.173 258.048 180.04 258.383C179.259 260.392 178.757 261.801 178.534 262.61C156.286 342.652 133.971 422.676 111.59 502.683C111.367 503.485 111.148 504.36 110.932 505.309C110.855 505.658 110.949 505.954 111.214 506.198Z" fill="#E49311"/>
<path d="M366.617 178.822C368.673 178.822 370.34 177.155 370.34 175.098C370.34 173.04 368.673 171.373 366.617 171.373C364.561 171.373 362.894 173.04 362.894 175.098C362.894 177.155 364.561 178.822 366.617 178.822Z" fill="#E49311"/>
<path d="M246.085 210.797C245.982 210.658 245.84 210.551 245.677 210.491C245.513 210.432 245.335 210.422 245.164 210.463L164.206 229.589C163.863 229.671 163.55 229.846 163.301 230.093C163.051 230.34 162.876 230.651 162.794 230.991C162.278 233.105 161.783 235.399 161.309 237.876C156.519 262.805 151.698 287.732 146.845 312.654C146.769 313.031 146.832 313.38 147.034 313.701C149.439 317.624 153.246 322.5 148.623 326.539C142.108 332.21 132.423 323.557 138.625 316.505C140.1 314.841 142.767 314.412 143.269 311.671C148.477 283.309 153.762 254.993 159.124 226.722C159.145 226.61 159.198 226.507 159.276 226.425C159.354 226.343 159.454 226.287 159.563 226.262L244.265 206.654C244.627 206.57 244.92 206.379 245.143 206.079C246.733 203.923 247.998 201.883 250.592 201.067C257.265 198.953 262.671 206.905 258.038 211.948C254.66 215.61 248.971 214.627 246.085 210.797ZM256.564 207.533C256.564 206.531 256.166 205.571 255.458 204.862C254.75 204.154 253.79 203.756 252.788 203.756C251.787 203.756 250.827 204.154 250.119 204.862C249.411 205.571 249.013 206.531 249.013 207.533C249.013 208.535 249.411 209.496 250.119 210.204C250.827 210.912 251.787 211.31 252.788 211.31C253.79 211.31 254.75 210.912 255.458 210.204C256.166 209.496 256.564 208.535 256.564 207.533ZM147.41 321.182C147.41 320.699 147.315 320.222 147.131 319.776C146.946 319.331 146.676 318.926 146.335 318.585C145.994 318.244 145.589 317.973 145.144 317.789C144.699 317.604 144.221 317.509 143.739 317.509C143.257 317.509 142.78 317.604 142.335 317.789C141.889 317.973 141.484 318.244 141.144 318.585C140.803 318.926 140.532 319.331 140.348 319.776C140.163 320.222 140.068 320.699 140.068 321.182C140.068 322.156 140.455 323.09 141.144 323.779C141.832 324.467 142.766 324.854 143.739 324.854C144.713 324.854 145.647 324.467 146.335 323.779C147.023 323.09 147.41 322.156 147.41 321.182Z" fill="#E49311"/>
<path d="M252.788 211.31C254.874 211.31 256.564 209.619 256.564 207.533C256.564 205.447 254.874 203.756 252.788 203.756C250.703 203.756 249.013 205.447 249.013 207.533C249.013 209.619 250.703 211.31 252.788 211.31Z" fill="#E49311"/>
<path d="M519.214 217.075C521.294 217.075 522.979 215.389 522.979 213.309C522.979 211.228 521.294 209.542 519.214 209.542C517.135 209.542 515.449 211.228 515.449 213.309C515.449 215.389 517.135 217.075 519.214 217.075Z" fill="#E49311"/>
<path d="M509.655 268.166C441.112 216.95 352.32 209.05 276.027 248.307C271.997 250.379 267.88 252.426 263.675 254.449C263.334 254.609 263.062 254.529 262.86 254.208L256.647 244.478C256.278 243.892 256.389 243.424 256.982 243.076C335.21 196.704 432.023 199.382 507.637 249.877C511.277 252.311 514.662 254.906 517.792 257.661C517.95 257.803 518.048 258 518.066 258.21C518.083 258.421 518.019 258.629 517.886 258.791L510.523 268.061C510.266 268.375 509.976 268.41 509.655 268.166Z" fill="#E49311"/>
<path d="M238.335 251.781L256.01 250.17C256.211 250.151 256.413 250.185 256.597 250.268C256.781 250.352 256.94 250.482 257.058 250.646C257.177 250.81 257.25 251.001 257.272 251.202C257.293 251.403 257.262 251.606 257.181 251.791L250.132 268.082C250.051 268.271 249.921 268.435 249.756 268.557C249.591 268.679 249.396 268.755 249.192 268.777C248.988 268.8 248.781 268.767 248.594 268.684C248.406 268.6 248.244 268.469 248.124 268.302L237.498 253.622C237.377 253.456 237.302 253.261 237.281 253.056C237.26 252.851 237.294 252.645 237.379 252.457C237.464 252.27 237.598 252.109 237.766 251.99C237.934 251.871 238.13 251.799 238.335 251.781Z" fill="#E49311"/>
<path d="M243.114 268.835C172.353 324.53 141.501 414.124 164.834 501.804C164.875 501.959 164.884 502.121 164.862 502.28C164.84 502.439 164.786 502.592 164.705 502.73C164.623 502.868 164.515 502.989 164.386 503.085C164.257 503.181 164.111 503.25 163.955 503.289L152.911 506.031C152.542 506.121 152.308 505.982 152.211 505.612C126.619 412.795 159.866 316.275 235.731 257.63C235.821 257.557 235.938 257.526 236.056 257.542C236.173 257.557 236.282 257.619 236.358 257.713L243.365 266.764C243.604 267.073 243.712 267.463 243.665 267.851C243.618 268.239 243.42 268.592 243.114 268.835Z" fill="#E49311"/>
<path d="M523.963 259.68L530.405 276.599C530.477 276.792 530.496 277.001 530.459 277.204C530.423 277.407 530.332 277.597 530.198 277.753C530.063 277.909 529.889 278.026 529.694 278.092C529.498 278.157 529.289 278.169 529.087 278.126L511.402 274.297C511.208 274.254 511.028 274.162 510.88 274.029C510.732 273.896 510.621 273.727 510.558 273.539C510.494 273.35 510.481 273.148 510.519 272.953C510.557 272.757 510.645 272.575 510.775 272.424L522.017 259.335C522.148 259.184 522.315 259.07 522.502 259.004C522.69 258.937 522.892 258.92 523.088 258.955C523.284 258.99 523.468 259.075 523.621 259.202C523.774 259.329 523.892 259.494 523.963 259.68Z" fill="#E49311"/>
<path d="M586.901 507.956C607.493 441.411 595.1 369.792 554.25 313.721C546.678 303.332 537.464 293.203 528.229 283.766C528.098 283.633 528.023 283.453 528.021 283.266C528.019 283.078 528.09 282.897 528.219 282.761L536.241 274.506C536.441 274.3 536.714 274.181 537.001 274.175C537.287 274.169 537.563 274.277 537.768 274.475C574.253 309.512 597.112 351.845 606.343 401.474C610.432 423.478 610.631 446.831 608.696 469.065C606.939 489.374 601.354 509.243 594.368 528.631C593.978 529.712 593.249 530.047 592.182 529.635L581.891 525.68C581.508 525.541 581.379 525.275 581.504 524.885C583.359 519.221 585.158 513.578 586.901 507.956Z" fill="#E49311"/>
<path d="M611.718 303.646L674.029 364.812C674.306 365.082 674.501 365.424 674.594 365.8C674.686 366.175 674.672 366.569 674.552 366.936C674.113 368.262 673.621 369.639 673.077 371.069C658.178 410.096 648.741 435.347 644.767 446.821C644.118 448.694 645.854 452.189 645.907 454.145C646.262 467.308 624.091 459.827 634.392 449.196C635.34 448.22 637.198 447.48 639.966 446.978C640.329 446.908 640.576 446.702 640.709 446.361C650.254 420.594 659.771 394.824 669.26 369.05C669.769 367.662 669.563 366.507 668.643 365.587C643.982 341.117 624.795 322.211 611.08 308.867C610.564 308.365 609.784 307.81 608.738 307.203C608.424 307.022 608.089 306.952 607.734 306.994C593.552 308.626 595.623 291.582 606.416 293.873C610.819 294.815 612.545 298.414 611.446 302.652C611.342 303.036 611.432 303.367 611.718 303.646ZM608.497 300.34C608.497 299.33 608.096 298.361 607.382 297.647C606.668 296.932 605.7 296.531 604.69 296.531C603.681 296.531 602.712 296.932 601.999 297.647C601.285 298.361 600.883 299.33 600.883 300.34C600.883 301.35 601.285 302.318 601.999 303.033C602.712 303.747 603.681 304.148 604.69 304.148C605.7 304.148 606.668 303.747 607.382 303.033C608.096 302.318 608.497 301.35 608.497 300.34ZM642.56 454.365C642.56 453.408 642.18 452.489 641.503 451.812C640.827 451.135 639.909 450.755 638.952 450.755C638.478 450.755 638.009 450.849 637.571 451.03C637.133 451.211 636.736 451.477 636.401 451.812C636.065 452.148 635.8 452.546 635.618 452.983C635.437 453.421 635.344 453.891 635.344 454.365C635.344 454.839 635.437 455.308 635.618 455.746C635.8 456.184 636.065 456.582 636.401 456.917C636.736 457.253 637.133 457.518 637.571 457.7C638.009 457.881 638.478 457.975 638.952 457.975C639.909 457.975 640.827 457.594 641.503 456.917C642.18 456.24 642.56 455.322 642.56 454.365Z" fill="#E49311"/>
<path d="M604.69 304.148C606.793 304.148 608.497 302.443 608.497 300.339C608.497 298.236 606.793 296.531 604.69 296.531C602.588 296.531 600.884 298.236 600.884 300.339C600.884 302.443 602.588 304.148 604.69 304.148Z" fill="#E49311"/>
<path d="M143.739 324.854C145.767 324.854 147.41 323.21 147.41 321.182C147.41 319.154 145.767 317.509 143.739 317.509C141.712 317.509 140.068 319.154 140.068 321.182C140.068 323.21 141.712 324.854 143.739 324.854Z" fill="#E49311"/>
<path d="M80.6023 524.048L143.112 580.098C143.398 580.349 143.729 580.457 144.105 580.422C146.521 580.182 149.481 579.313 151.949 581.197C159.249 586.763 153.434 595.364 145.486 593.25C141.878 592.287 140.685 588.468 141.282 585.194C141.333 584.925 141.313 584.648 141.225 584.39C141.137 584.131 140.984 583.9 140.78 583.718L75.666 525.429C75.3104 525.115 75.2058 524.735 75.3523 524.289L101.76 441.861C101.892 441.457 101.857 441.066 101.655 440.69C94.8152 427.663 111.528 424.231 113.431 432.717C114.407 437.062 112.887 439.989 108.871 441.495C105.441 442.782 105.274 443.494 104.249 446.748C96.3352 472.019 88.3206 497.294 80.2049 522.573C80.1237 522.832 80.118 523.109 80.1884 523.37C80.2589 523.632 80.4025 523.867 80.6023 524.048ZM110.597 435.092C110.597 434.112 110.208 433.173 109.516 432.48C108.823 431.788 107.884 431.398 106.905 431.398C105.926 431.398 104.987 431.788 104.295 432.48C103.602 433.173 103.213 434.112 103.213 435.092C103.213 436.071 103.602 437.011 104.295 437.704C104.987 438.396 105.926 438.785 106.905 438.785C107.884 438.785 108.823 438.396 109.516 437.704C110.208 437.011 110.597 436.071 110.597 435.092ZM151.928 587.066C151.928 586.109 151.548 585.191 150.871 584.514C150.195 583.837 149.277 583.457 148.32 583.457C147.363 583.457 146.445 583.837 145.769 584.514C145.092 585.191 144.712 586.109 144.712 587.066C144.712 588.024 145.092 588.942 145.769 589.619C146.445 590.296 147.363 590.676 148.32 590.676C149.277 590.676 150.195 590.296 150.871 589.619C151.548 588.942 151.928 588.024 151.928 587.066Z" fill="#E49311"/>
<path d="M106.905 438.785C108.944 438.785 110.597 437.132 110.597 435.092C110.597 433.052 108.944 431.398 106.905 431.398C104.866 431.398 103.213 433.052 103.213 435.092C103.213 437.132 104.866 438.785 106.905 438.785Z" fill="#E49311"/>
<path d="M638.952 457.974C640.945 457.974 642.56 456.358 642.56 454.365C642.56 452.371 640.945 450.755 638.952 450.755C636.959 450.755 635.344 452.371 635.344 454.365C635.344 456.358 636.959 457.974 638.952 457.974Z" fill="#E49311"/>
<path d="M156.185 526.664L159.092 508.458C159.117 508.294 159.185 508.139 159.288 508.009C159.392 507.879 159.527 507.778 159.682 507.717C159.836 507.655 160.004 507.635 160.168 507.659C160.333 507.683 160.488 507.749 160.619 507.851L175.156 519.183C175.29 519.286 175.394 519.423 175.457 519.58C175.52 519.737 175.541 519.907 175.516 520.074C175.492 520.242 175.423 520.399 175.318 520.531C175.212 520.663 175.073 520.765 174.916 520.825L157.482 527.7C157.325 527.763 157.154 527.784 156.987 527.759C156.82 527.735 156.662 527.667 156.53 527.561C156.398 527.456 156.297 527.317 156.236 527.159C156.175 527.002 156.158 526.831 156.185 526.664Z" fill="#E49311"/>
<path d="M358.491 662.881C437.514 670.111 514.958 631.743 558.747 566.653C562.979 560.361 566.946 554.038 570.649 547.684C570.857 547.321 571.198 547.053 571.598 546.934C571.999 546.816 572.43 546.855 572.803 547.046L582.079 551.754C582.279 551.855 582.433 552.027 582.514 552.235C582.595 552.443 582.597 552.674 582.519 552.884C581.598 555.322 580.542 557.927 579.193 560.197C547.232 613.988 496.624 654.061 435.757 669.619C320.883 698.989 205.088 639.475 160.337 530.556C160.269 530.385 160.269 530.194 160.337 530.024C160.405 529.854 160.536 529.719 160.703 529.646L171.276 525C171.442 524.927 171.621 524.888 171.802 524.885C171.983 524.882 172.163 524.916 172.332 524.984C172.5 525.052 172.654 525.154 172.783 525.282C172.913 525.411 173.015 525.564 173.085 525.732C204.429 603.075 275.483 655.295 358.491 662.881Z" fill="#E49311"/>
<path d="M594.943 537.2L580.929 548.426C580.761 548.56 580.56 548.646 580.348 548.676C580.135 548.706 579.918 548.68 579.72 548.599C579.521 548.518 579.347 548.386 579.216 548.216C579.085 548.046 579.001 547.844 578.973 547.631L576.693 529.823C576.668 529.614 576.697 529.402 576.778 529.207C576.859 529.013 576.989 528.843 577.156 528.714C577.323 528.585 577.52 528.502 577.729 528.473C577.937 528.443 578.15 528.469 578.346 528.547L594.64 535.128C594.836 535.208 595.008 535.337 595.139 535.503C595.269 535.67 595.354 535.868 595.385 536.077C595.415 536.286 595.391 536.5 595.313 536.697C595.236 536.894 595.108 537.067 594.943 537.2Z" fill="#E49311"/>
<path d="M509.541 678.22C536.167 673.079 562.763 667.767 589.327 662.285C591.576 661.824 592.695 662.034 593.312 659.387C599.618 632.34 605.464 605.188 611.949 578.194C612.032 577.845 611.945 577.549 611.687 577.305C610.338 576.007 609.072 574.888 608.539 573.057C604.879 560.804 625.806 560.543 621.058 573.527C619.97 576.509 616.78 576.813 615.682 579.732C615.327 580.674 615.037 581.633 614.814 582.609C608.846 608.976 602.986 635.371 597.234 661.793C596.784 663.896 596.01 665.277 593.688 665.717C557.726 672.622 530.384 678.011 511.664 681.882C508.411 682.552 507.637 686.695 504.562 687.647C501.592 688.561 499.18 688.048 497.325 686.109C490.036 678.513 502.146 668.678 508.662 677.864C508.878 678.171 509.171 678.29 509.541 678.22ZM618.871 570.355C618.822 569.884 618.672 569.427 618.43 569.012C618.188 568.598 617.86 568.232 617.462 567.937C617.065 567.641 616.607 567.422 616.115 567.292C615.623 567.161 615.106 567.121 614.594 567.175C614.082 567.229 613.584 567.375 613.13 567.605C612.676 567.836 612.273 568.145 611.946 568.517C611.619 568.888 611.373 569.314 611.223 569.77C611.073 570.227 611.021 570.704 611.071 571.175C611.12 571.647 611.27 572.103 611.512 572.518C611.754 572.933 612.082 573.298 612.48 573.594C612.877 573.889 613.335 574.108 613.827 574.239C614.319 574.37 614.836 574.409 615.348 574.355C615.86 574.301 616.358 574.155 616.812 573.925C617.266 573.695 617.669 573.385 617.996 573.014C618.323 572.642 618.569 572.216 618.719 571.76C618.869 571.304 618.921 570.826 618.871 570.355ZM505.859 681.066C505.859 680.095 505.474 679.163 504.787 678.476C504.101 677.79 503.17 677.404 502.199 677.404C501.228 677.404 500.297 677.79 499.61 678.476C498.924 679.163 498.538 680.095 498.538 681.066C498.538 682.037 498.924 682.968 499.61 683.655C500.297 684.342 501.228 684.728 502.199 684.728C503.17 684.728 504.101 684.342 504.787 683.655C505.474 682.968 505.859 682.037 505.859 681.066Z" fill="#E49311"/>
<path d="M615.348 574.355C617.502 574.129 619.08 572.338 618.871 570.355C618.663 568.372 616.748 566.949 614.594 567.175C612.44 567.402 610.862 569.193 611.071 571.175C611.279 573.158 613.194 574.582 615.348 574.355Z" fill="#E49311"/>
<path d="M148.32 590.676C150.313 590.676 151.928 589.06 151.928 587.066C151.928 585.073 150.313 583.457 148.32 583.457C146.327 583.457 144.712 585.073 144.712 587.066C144.712 589.06 146.327 590.676 148.32 590.676Z" fill="#E49311"/>
<path d="M300.447 735.578L379.784 707.746C380.09 707.638 380.357 707.443 380.551 707.183C380.744 706.924 380.856 706.614 380.872 706.292C381.154 699.125 391.476 696.561 394.101 703.822C397.103 712.078 388.224 715.489 382.189 711.429C381.91 711.241 381.614 711.202 381.3 711.314L299.098 740.411C298.83 740.505 298.541 740.52 298.265 740.453C297.989 740.386 297.737 740.241 297.54 740.035L238.691 677.686C238.426 677.407 238.105 677.236 237.728 677.173C232.928 676.41 227.887 675.269 228.169 669.357C228.4 664.656 231.133 662.382 236.369 662.536C241.755 662.693 241.504 670.006 241.221 673.501C241.194 673.864 241.298 674.181 241.535 674.453C261.082 696.854 278.945 713.836 288.692 724.518C292.561 728.752 296.156 732.376 299.474 735.389C299.76 735.647 300.084 735.71 300.447 735.578ZM238.471 669.546C238.471 668.588 238.091 667.67 237.414 666.993C236.737 666.316 235.82 665.936 234.863 665.936C233.906 665.936 232.988 666.316 232.311 666.993C231.635 667.67 231.255 668.588 231.255 669.546C231.255 670.503 231.635 671.421 232.311 672.098C232.988 672.775 233.906 673.156 234.863 673.156C235.82 673.156 236.737 672.775 237.414 672.098C238.091 671.421 238.471 670.503 238.471 669.546ZM391.633 706.501C391.633 705.485 391.23 704.511 390.512 703.793C389.794 703.075 388.821 702.672 387.805 702.672C387.303 702.672 386.805 702.771 386.341 702.963C385.876 703.155 385.454 703.438 385.099 703.793C384.743 704.149 384.461 704.571 384.269 705.036C384.077 705.5 383.978 705.998 383.978 706.501C383.978 707.004 384.077 707.502 384.269 707.966C384.461 708.431 384.743 708.853 385.099 709.209C385.454 709.564 385.876 709.846 386.341 710.039C386.805 710.231 387.303 710.33 387.805 710.33C388.821 710.33 389.794 709.927 390.512 709.209C391.23 708.491 391.633 707.517 391.633 706.501Z" fill="#E49311"/>
<path d="M234.863 673.156C236.855 673.156 238.471 671.539 238.471 669.546C238.471 667.552 236.855 665.936 234.863 665.936C232.87 665.936 231.255 667.552 231.255 669.546C231.255 671.539 232.87 673.156 234.863 673.156Z" fill="#E49311"/>
<path d="M502.199 684.728C504.22 684.728 505.859 683.088 505.859 681.066C505.859 679.043 504.22 677.404 502.199 677.404C500.177 677.404 498.538 679.043 498.538 681.066C498.538 683.088 500.177 684.728 502.199 684.728Z" fill="#E49311"/>
<path d="M387.805 710.331C389.919 710.331 391.633 708.616 391.633 706.501C391.633 704.386 389.919 702.672 387.805 702.672C385.691 702.672 383.978 704.386 383.978 706.501C383.978 708.616 385.691 710.331 387.805 710.331Z" fill="#E49311"/>
</svg>
