<svg width="512" height="512" viewBox="0 0 512 512" fill="none" xmlns="http://www.w3.org/2000/svg">
<g clip-path="url(#clip0_190_3140)">
<path d="M255.54 357L255.75 355.54" stroke="#C8DEDC" stroke-width="2"/>
<path d="M237.46 375.5L211.92 400.72C211.593 401.047 211.377 400.987 211.27 400.54L199.5 351.29" stroke="#C8DEDC" stroke-width="2"/>
<path d="M151 428.46L146.84 428.74C146.46 428.767 146.27 428.97 146.27 429.35C146.223 443.543 146.227 457.743 146.28 471.95C146.3 477.34 147.06 481.68 153.07 482.15C160.557 482.73 168.88 482.76 178.04 482.24C183.74 481.92 186.17 479.43 186.2 473.74C186.273 458.953 186.283 444.123 186.23 429.25C186.23 428.897 186.05 428.717 185.69 428.71L169.25 428.46" stroke="#2F5188" stroke-width="2"/>
<path d="M169.25 428.46C169.723 424.047 169.763 420.7 169.37 418.42C168.72 414.64 163.28 414.73 162.74 418.5C162.447 420.613 162.557 424.017 163.07 428.71" stroke="#9B9658" stroke-width="2"/>
<path d="M163.07 428.71L159.25 428.46" stroke="#2F5188" stroke-width="2"/>
<path d="M159.25 428.46C159.697 422.707 159.743 418.197 159.39 414.93C158.81 409.63 151.7 409.45 151.09 413.81C150.537 417.75 150.507 422.633 151 428.46" stroke="#9B9658" stroke-width="2"/>
<path d="M159.25 428.46C156.497 428.947 153.747 428.947 151 428.46" stroke="#93814B" stroke-width="2"/>
<path d="M169.25 428.46L163.07 428.71" stroke="#93814B" stroke-width="2"/>
<path d="M336.83 118.72C335.803 121.133 334.5 123.166 332.92 124.82C332.647 125.106 332.63 125.403 332.87 125.71C346.823 143.85 353.813 164.453 353.84 187.52C323.22 171.02 290.07 163.58 255.5 163.75L255.36 80.5498C258.22 80.2965 261.93 80.2198 266.49 80.3198C273.52 80.4798 272.29 85.0898 272.83 90.0998C272.87 90.4398 273.057 90.6365 273.39 90.6898C285.25 92.7165 296.363 96.7665 306.73 102.84C307.11 103.06 307.43 102.993 307.69 102.64C310.97 98.1298 313.66 96.7598 318.33 100.71C326.77 107.85 334.46 113.41 336.83 118.72Z" fill="#FF9F05"/>
<path d="M255.36 80.5498L255.5 163.75C221.17 163.96 187.88 171.34 158.09 187.94C158.337 164.766 165.42 144.03 179.34 125.73C179.58 125.416 179.573 125.103 179.32 124.79C176.77 121.63 173.51 118.48 177.73 114.72C185.97 107.373 191.673 102.413 194.84 99.8398C199.02 96.4598 201.66 99.8498 204.45 102.84C204.703 103.113 204.99 103.156 205.31 102.97C215.723 96.8765 226.88 92.8165 238.78 90.7898C238.961 90.7559 239.123 90.6567 239.236 90.511C239.348 90.3653 239.403 90.1834 239.39 89.9998C239.1 86.0898 238.94 81.2798 244.29 80.7598C247.737 80.4265 251.427 80.3565 255.36 80.5498Z" fill="#FF9F05"/>
<path d="M255.5 163.75L255.25 194.21L186 194.29L162.71 194.5C160.23 194.15 154.11 195.32 153.71 191.65C153.67 191.277 153.803 190.98 154.11 190.76L158.09 187.94C187.88 171.34 221.17 163.96 255.5 163.75Z" fill="#DC5C00"/>
<path d="M255.5 163.75C290.07 163.58 323.22 171.02 353.84 187.52C355.23 188.93 358.52 189.64 358.27 192.31C358.219 192.849 357.973 193.352 357.577 193.723C357.182 194.095 356.664 194.311 356.12 194.33L349.3 194.54L326.23 194.39L255.5 194.29C255.42 194.263 255.337 194.237 255.25 194.21L255.5 163.75Z" fill="#DC5C00"/>
<path d="M186 194.29C179.887 201.457 176.54 209.957 175.96 219.79C175.952 219.905 175.902 220.013 175.819 220.093C175.735 220.172 175.625 220.218 175.51 220.22L168.55 220.33C168.257 220.33 168.073 220.193 168 219.92L164.25 205.71L162.71 194.5L186 194.29Z" fill="#333333"/>
<path d="M186 194.29L255.25 194.21C255.337 194.237 255.42 194.263 255.5 194.29L255.29 318.25C254.93 318.497 254.497 318.597 253.99 318.55C238.577 317.183 225.04 311.447 213.38 301.34C199.733 289.313 188.89 275.093 180.85 258.68C180.69 258.34 180.423 258.193 180.05 258.24C178.84 258.39 177.58 259.04 176.47 259.05C171.717 259.11 167.98 257.67 165.26 254.73C155.3 243.943 151.83 231.347 154.85 216.94C155.977 211.56 159.11 207.817 164.25 205.71L168 219.92C168.073 220.193 168.257 220.33 168.55 220.33L175.51 220.22C175.625 220.218 175.736 220.172 175.819 220.093C175.902 220.013 175.953 219.905 175.96 219.79C176.54 209.957 179.887 201.457 186 194.29Z" fill="#E8CF89"/>
<path d="M255.5 194.29L326.23 194.39C332.323 201.783 335.55 210.19 335.91 219.61C335.923 219.997 336.123 220.197 336.51 220.21L343.44 220.35C343.74 220.357 343.93 220.213 344.01 219.92L347.7 205.56C353.513 207.933 356.9 212.323 357.86 218.73C360.073 233.53 356.21 245.78 346.27 255.48C342.17 259.47 337.56 259.15 331.99 258.51C331.643 258.477 331.39 258.617 331.23 258.93C323.097 275.357 312.223 289.667 298.61 301.86C284.97 311.9 272.98 318.41 255.54 319L255.29 318.25L255.5 194.29Z" fill="#E8CF89"/>
<path d="M349.3 194.54L347.7 205.56L344.01 219.92C343.93 220.213 343.74 220.357 343.44 220.35L336.51 220.21C336.123 220.197 335.923 219.997 335.91 219.61C335.55 210.19 332.323 201.783 326.23 194.39L349.3 194.54Z" fill="#333333"/>
<path d="M213.38 301.34C225.04 311.447 238.577 317.183 253.99 318.55C254.497 318.597 254.93 318.497 255.29 318.25L255.54 319L255.48 354.44C255.48 354.66 255.4 354.847 255.24 355L255 355.21L213.14 337.34L213.38 301.34Z" fill="#DDAB62"/>
<path d="M298.61 301.86C299.103 313.807 299.203 325.557 298.91 337.11L255.75 355.54L255 355.21L255.24 355C255.4 354.847 255.48 354.66 255.48 354.44L255.54 319C272.98 318.41 284.97 311.9 298.61 301.86Z" fill="#DDAB62"/>
<path d="M298.91 337.11C305.07 337.2 309.32 346.46 312.5 351.04L300.82 400.43C300.801 400.514 300.76 400.591 300.7 400.654C300.641 400.716 300.566 400.761 300.483 400.785C300.4 400.808 300.313 400.809 300.23 400.787C300.146 400.765 300.07 400.721 300.01 400.66L274.79 375.5L256.56 357.06C256.36 356.853 256.13 356.81 255.87 356.93C255.75 356.983 255.64 357.007 255.54 357L255.75 355.54L298.91 337.11Z" fill="#D9EDEC"/>
<path d="M213.14 337.34L255 355.21L255.75 355.54L255.54 357L254.96 357.75L237.46 375.5L211.92 400.72C211.593 401.047 211.377 400.987 211.27 400.54L199.5 351.29C203.7 345.65 207.36 337.59 213.14 337.34Z" fill="#D9EDEC"/>
<path d="M312.5 351.04C314.71 351.48 326.09 353 327.04 354L296.25 508.96C287.37 510.427 278.433 511.44 269.44 512H264.19L264.26 389.67C264.26 389.31 264.37 388.987 264.59 388.7L274.79 375.5L300.01 400.66C300.07 400.721 300.146 400.765 300.229 400.787C300.313 400.809 300.4 400.809 300.483 400.785C300.566 400.761 300.641 400.716 300.7 400.654C300.759 400.591 300.801 400.514 300.82 400.43L312.5 351.04Z" fill="#B7CECC"/>
<path d="M199.5 351.29L211.27 400.54C211.377 400.987 211.593 401.047 211.92 400.72L237.46 375.5L247.46 388.47C247.66 388.73 247.76 389.027 247.76 389.36L247.83 512H242.19L215.5 508.96L185 354.04L199.5 351.29Z" fill="#B7CECC"/>
<path d="M185 354.04L215.5 508.96C178.553 503.073 144.623 489.67 113.71 468.75C113.763 449.803 113.773 430.86 113.74 411.92C113.69 385.2 128.96 365.71 154.92 359.89C163.08 358.063 173.107 356.113 185 354.04ZM151 428.46L146.84 428.74C146.46 428.767 146.27 428.97 146.27 429.35C146.223 443.543 146.227 457.743 146.28 471.95C146.3 477.34 147.06 481.68 153.07 482.15C160.557 482.73 168.88 482.76 178.04 482.24C183.74 481.92 186.17 479.43 186.2 473.74C186.273 458.953 186.283 444.123 186.23 429.25C186.23 428.897 186.05 428.717 185.69 428.71L169.25 428.46C169.723 424.047 169.763 420.7 169.37 418.42C168.72 414.64 163.28 414.73 162.74 418.5C162.447 420.613 162.557 424.017 163.07 428.71L159.25 428.46C159.697 422.707 159.743 418.197 159.39 414.93C158.81 409.63 151.7 409.45 151.09 413.81C150.537 417.75 150.507 422.633 151 428.46Z" fill="#366695"/>
<path d="M327.04 354C337.227 355.807 347.38 357.82 357.5 360.04C381.23 365.23 397.66 383.96 398.05 408.44C398.363 428.64 398.347 448.84 398 469.04C367.127 489.98 333.21 503.287 296.25 508.96L327.04 354Z" fill="#366695"/>
<path d="M274.79 375.5L264.59 388.7C264.37 388.987 264.26 389.31 264.26 389.67L264.19 512H255.52C255.513 462.227 255.51 412.457 255.51 362.69C255.51 361.017 255.327 359.37 254.96 357.75L255.54 357C255.64 357.007 255.75 356.983 255.87 356.93C256.13 356.81 256.36 356.853 256.56 357.06L274.79 375.5Z" fill="#333333"/>
<path d="M254.96 357.75C255.327 359.37 255.51 361.017 255.51 362.69C255.51 412.457 255.513 462.227 255.52 512H247.83L247.76 389.36C247.76 389.027 247.66 388.73 247.46 388.47L237.46 375.5L254.96 357.75Z" fill="#333333"/>
<path d="M159.25 428.46C156.497 428.947 153.747 428.947 151 428.46C150.507 422.633 150.537 417.75 151.09 413.81C151.7 409.45 158.81 409.63 159.39 414.93C159.743 418.197 159.697 422.707 159.25 428.46Z" fill="#FFC61B"/>
<path d="M169.25 428.46L163.07 428.71C162.557 424.017 162.447 420.613 162.74 418.5C163.28 414.73 168.72 414.64 169.37 418.42C169.763 420.7 169.723 424.047 169.25 428.46Z" fill="#FFC61B"/>
<path d="M151 428.46C153.747 428.947 156.497 428.947 159.25 428.46L163.07 428.71L169.25 428.46L185.69 428.71C186.05 428.717 186.23 428.897 186.23 429.25C186.283 444.123 186.273 458.953 186.2 473.74C186.17 479.43 183.74 481.92 178.04 482.24C168.88 482.76 160.557 482.73 153.07 482.15C147.06 481.68 146.3 477.34 146.28 471.95C146.227 457.743 146.223 443.543 146.27 429.35C146.27 428.97 146.46 428.767 146.84 428.74L151 428.46Z" fill="#273B7A"/>
</g>
<defs>
<clipPath id="clip0_190_3140">
<rect width="512" height="512" fill="white"/>
</clipPath>
</defs>
</svg>
