<svg width="600" height="599" viewBox="0 0 600 599" fill="none" xmlns="http://www.w3.org/2000/svg">
<path d="M437.641 66.6607C419.903 47.374 402.051 28.1954 384.083 9.12489C381.699 6.60332 380.914 4.30146 376.773 5.7035C350.892 14.4366 325.029 23.208 299.183 32.0178C298.827 32.1364 298.593 32.3771 298.482 32.7398C298.078 34.0442 297.6 35.2788 297.049 36.4437C294.414 41.9995 286.518 40.8067 284.917 35.3346C283.736 31.2854 285.43 27.2467 289.801 26.3678C292.27 25.8761 294.34 27.0375 296.474 28.2303C296.85 28.4395 297.241 28.4779 297.645 28.3453L380.507 0.0639628C380.876 -0.0615928 381.211 -0.00230457 381.511 0.241831C382.626 1.1556 383.655 2.12168 384.596 3.14008C403.009 23.0825 421.434 43.0179 439.868 62.9464C441.465 64.6693 443.745 65.3563 446.708 65.0076C447.07 64.9657 447.409 65.0424 447.722 65.2378C453.255 68.7324 451.812 78.7454 443.675 78.1386C436.971 77.6364 436.961 73.1478 437.933 67.6756C438.003 67.292 437.905 66.9537 437.641 66.6607ZM295.052 33.3048C295.052 32.3169 294.659 31.3695 293.961 30.671C293.263 29.9724 292.316 29.58 291.328 29.58C290.341 29.58 289.394 29.9724 288.696 30.671C287.998 31.3695 287.605 32.3169 287.605 33.3048C287.605 34.2927 287.998 35.2401 288.696 35.9386C289.394 36.6372 290.341 37.0296 291.328 37.0296C292.316 37.0296 293.263 36.6372 293.961 35.9386C294.659 35.2401 295.052 34.2927 295.052 33.3048ZM447.691 71.5155C447.691 70.5165 447.294 69.5585 446.588 68.8521C445.882 68.1457 444.924 67.7489 443.926 67.7489C442.927 67.7489 441.97 68.1457 441.264 68.8521C440.558 69.5585 440.161 70.5165 440.161 71.5155C440.161 72.5145 440.558 73.4726 441.264 74.179C441.97 74.8854 442.927 75.2822 443.926 75.2822C444.924 75.2822 445.882 74.8854 446.588 74.179C447.294 73.4726 447.691 72.5145 447.691 71.5155Z" fill="#E49311"/>
<path d="M31.6587 362.375C39.0841 336.992 45.9134 311.473 53.0565 286.006C68.472 231.055 83.8179 176.082 99.094 121.089C99.6379 119.115 100.063 117.12 100.37 115.104C100.426 114.755 100.3 114.487 99.9935 114.299C90.5078 108.523 92.6099 94.6178 103.727 92.3264C109.845 91.0603 112.941 95.0468 116.591 98.6669C116.828 98.9111 117.023 99.0122 117.176 98.9704L360.594 31.0239C360.904 30.9388 361.182 30.7675 361.397 30.5302C361.612 30.293 361.755 29.9995 361.807 29.6846C364.171 15.3817 384.701 15.3922 385.046 30.9192C385.098 33.1688 384.01 35.6799 383.362 37.9713C383.257 38.334 383.334 38.6479 383.592 38.913L561.771 221.764C562.078 222.085 562.423 222.126 562.806 221.889C581.872 210.181 591.41 240.513 570.524 242.146C570.096 242.179 569.689 242.343 569.359 242.617C569.029 242.891 568.793 243.26 568.684 243.673C562.837 265.342 557.556 287.115 551.94 308.816C529.81 394.186 514.45 453.585 505.86 487.01C505.609 487.994 505.477 489.127 505.463 490.411C505.456 490.794 505.62 491.08 505.955 491.269C521.213 499.995 507.931 521.067 494.189 511.431C492.275 510.102 491.146 508.062 489.776 506.022C489.559 505.694 489.256 505.579 488.866 505.676C364.425 537.463 282.983 558.211 244.538 567.92C242.331 568.475 241.568 568.705 241.327 571.174C239.497 590.28 211.793 584.002 219.919 564.917C220.052 564.597 219.996 564.314 219.752 564.07L37.1598 384.526C36.8948 384.267 36.5881 384.184 36.2395 384.274C31.4182 385.52 27.1825 386.681 22.79 383.751C13.1893 377.348 18.6067 361.172 30.8952 362.867C31.2927 362.923 31.5471 362.759 31.6587 362.375ZM35.9257 364.405C40.6215 368.695 42.5563 373.864 39.6802 379.461C39.5136 379.793 39.4563 380.168 39.5164 380.533C39.5766 380.898 39.7512 381.234 40.0149 381.491L222.021 560.701C222.248 560.925 222.539 561.073 222.853 561.126C223.168 561.178 223.491 561.132 223.778 560.994C230.106 557.96 234.739 560.46 239.675 564.645C239.975 564.904 240.313 564.984 240.689 564.886L488.636 501.658C489.033 501.554 489.277 501.303 489.368 500.905C490.351 496.647 493.426 491.593 498.174 491.059C500.328 490.808 500.945 490.055 501.51 487.921C522.73 406.937 543.27 325.786 564.469 244.803C564.741 243.771 564.831 242.718 564.741 241.643C564.713 241.295 564.577 240.991 564.333 240.733C559.846 236.004 557.953 232.624 559.982 226.692C560.101 226.336 560.031 226.026 559.773 225.761C502.336 166.561 444.826 107.414 387.221 48.3819C384.471 45.5674 381.5 41.4241 377.892 41.5601C371.23 41.8112 366.608 42.1565 362.811 35.4288C362.609 35.087 362.313 34.9405 361.922 34.9893C361.142 35.087 360.253 35.2753 359.256 35.5543C286.821 55.7548 214.387 75.9483 141.952 96.1349C137.497 97.3695 119.875 101.366 117.375 103.982C117.124 104.24 116.992 104.547 116.978 104.903C116.57 113.001 111.801 113.556 105.453 115.899C105.118 116.025 104.884 116.255 104.752 116.59C103.971 118.599 103.469 120.008 103.246 120.817C80.9976 200.859 58.683 280.883 36.3022 360.89C36.0791 361.692 35.8595 362.567 35.6433 363.516C35.5666 363.865 35.6608 364.161 35.9257 364.405Z" fill="#E49311"/>
<path d="M291.329 37.0297C293.385 37.0297 295.052 35.3621 295.052 33.3049C295.052 31.2477 293.385 29.5801 291.329 29.5801C289.272 29.5801 287.605 31.2477 287.605 33.3049C287.605 35.3621 289.272 37.0297 291.329 37.0297Z" fill="#E49311"/>
<path d="M170.796 69.0045C170.694 68.8645 170.552 68.7581 170.388 68.6985C170.225 68.6389 170.046 68.6289 169.876 68.6697L88.9181 87.796C88.575 87.8781 88.2615 88.0525 88.0123 88.3C87.7631 88.5474 87.588 88.8582 87.5062 89.198C86.9903 91.3115 86.4952 93.6064 86.0211 96.0827C81.2312 121.012 76.4099 145.939 71.5572 170.861C71.4806 171.238 71.5433 171.587 71.7455 171.908C74.1509 175.831 77.9577 180.707 73.3352 184.746C66.8196 190.417 57.1352 181.764 63.337 174.712C64.8116 173.048 67.4785 172.619 67.9805 169.878C73.1887 141.516 78.4737 113.2 83.8353 84.9291C83.8566 84.8172 83.9095 84.7139 83.9875 84.6322C84.0655 84.5504 84.1653 84.4936 84.2746 84.4688L168.977 64.8612C169.339 64.7775 169.632 64.5857 169.855 64.2857C171.445 62.1303 172.71 60.0901 175.304 59.2739C181.976 57.1604 187.383 65.1123 182.75 70.1554C179.372 73.8175 173.683 72.8339 170.796 69.0045ZM181.276 65.7401C181.276 64.7383 180.878 63.7776 180.17 63.0692C179.462 62.3609 178.501 61.9629 177.5 61.9629C176.499 61.9629 175.539 62.3609 174.831 63.0692C174.122 63.7776 173.725 64.7383 173.725 65.7401C173.725 66.7418 174.122 67.7025 174.831 68.4109C175.539 69.1192 176.499 69.5172 177.5 69.5172C178.501 69.5172 179.462 69.1192 180.17 68.4109C180.878 67.7025 181.276 66.7418 181.276 65.7401ZM72.122 179.389C72.122 178.906 72.027 178.429 71.8426 177.983C71.6581 177.538 71.3877 177.133 71.0468 176.792C70.706 176.451 70.3013 176.18 69.8559 175.996C69.4105 175.811 68.9332 175.716 68.4511 175.716C67.9691 175.716 67.4917 175.811 67.0463 175.996C66.601 176.18 66.1963 176.451 65.8554 176.792C65.5145 177.133 65.2442 177.538 65.0597 177.983C64.8752 178.429 64.7802 178.906 64.7802 179.389C64.7802 180.363 65.167 181.297 65.8554 181.986C66.5438 182.674 67.4775 183.061 68.4511 183.061C69.4247 183.061 70.3584 182.674 71.0468 181.986C71.7352 181.297 72.122 180.363 72.122 179.389Z" fill="#E49311"/>
<path d="M177.5 69.5172C179.585 69.5172 181.276 67.8261 181.276 65.74C181.276 63.654 179.585 61.9629 177.5 61.9629C175.415 61.9629 173.725 63.654 173.725 65.74C173.725 67.8261 175.415 69.5172 177.5 69.5172Z" fill="#E49311"/>
<path d="M443.926 75.2824C446.005 75.2824 447.691 73.596 447.691 71.5157C447.691 69.4354 446.005 67.749 443.926 67.749C441.847 67.749 440.161 69.4354 440.161 71.5157C440.161 73.596 441.847 75.2824 443.926 75.2824Z" fill="#E49311"/>
<path d="M434.367 126.373C365.823 75.1567 277.032 67.2572 200.738 106.514C196.708 108.586 192.591 110.633 188.387 112.656C188.045 112.816 187.774 112.736 187.571 112.415L181.359 102.685C180.99 102.099 181.101 101.632 181.694 101.283C259.922 54.9109 356.735 57.5894 432.349 108.084C435.988 110.518 439.373 113.113 442.504 115.868C442.662 116.01 442.76 116.207 442.777 116.417C442.795 116.628 442.731 116.836 442.598 116.998L435.235 126.268C434.977 126.582 434.688 126.617 434.367 126.373Z" fill="#E49311"/>
<path d="M163.047 109.988L180.721 108.377C180.922 108.358 181.125 108.392 181.309 108.475C181.493 108.559 181.652 108.689 181.77 108.853C181.888 109.017 181.962 109.208 181.983 109.409C182.005 109.61 181.973 109.813 181.892 109.998L174.844 126.289C174.762 126.478 174.633 126.642 174.467 126.764C174.302 126.886 174.108 126.962 173.904 126.984C173.699 127.007 173.493 126.974 173.305 126.891C173.118 126.807 172.956 126.676 172.836 126.509L162.21 111.829C162.089 111.663 162.014 111.468 161.993 111.263C161.972 111.058 162.006 110.852 162.091 110.664C162.176 110.477 162.309 110.316 162.477 110.197C162.645 110.078 162.842 110.006 163.047 109.988Z" fill="#E49311"/>
<path d="M167.826 127.042C97.0649 182.737 66.2128 272.331 89.5454 360.011C89.5862 360.166 89.5957 360.328 89.5736 360.487C89.5514 360.646 89.4979 360.799 89.4162 360.937C89.3345 361.075 89.2262 361.196 89.0976 361.292C88.9689 361.388 88.8226 361.458 88.6669 361.497L77.6229 364.238C77.2534 364.329 77.0198 364.189 76.9222 363.819C51.3306 271.002 84.5777 174.482 160.442 115.837C160.533 115.765 160.65 115.733 160.767 115.749C160.885 115.764 160.994 115.826 161.07 115.92L168.077 124.971C168.316 125.28 168.423 125.67 168.376 126.058C168.329 126.446 168.132 126.799 167.826 127.042Z" fill="#E49311"/>
<path d="M448.674 117.887L455.116 134.806C455.188 134.999 455.207 135.208 455.171 135.411C455.134 135.614 455.044 135.804 454.909 135.96C454.775 136.116 454.601 136.233 454.405 136.299C454.21 136.364 454 136.376 453.799 136.333L436.114 132.504C435.919 132.461 435.739 132.369 435.591 132.236C435.443 132.103 435.332 131.934 435.269 131.746C435.206 131.557 435.193 131.355 435.231 131.16C435.269 130.964 435.357 130.782 435.486 130.631L446.729 117.542C446.859 117.391 447.026 117.277 447.214 117.211C447.402 117.144 447.603 117.127 447.799 117.162C447.995 117.197 448.179 117.282 448.332 117.409C448.486 117.536 448.603 117.701 448.674 117.887Z" fill="#E49311"/>
<path d="M511.612 366.163C532.205 299.618 519.812 227.999 478.962 171.928C471.39 161.539 462.176 151.41 452.941 141.973C452.809 141.84 452.735 141.66 452.733 141.473C452.731 141.285 452.802 141.104 452.931 140.968L460.952 132.713C461.153 132.507 461.426 132.388 461.712 132.382C461.998 132.376 462.274 132.484 462.479 132.682C498.965 167.719 521.823 210.052 531.054 259.681C535.144 281.685 535.342 305.038 533.408 327.272C531.651 347.581 526.066 367.45 519.08 386.838C518.689 387.919 517.961 388.254 516.894 387.842L506.603 383.887C506.219 383.748 506.09 383.483 506.216 383.092C508.071 377.428 509.869 371.785 511.612 366.163Z" fill="#E49311"/>
<path d="M536.43 161.853L598.741 223.019C599.017 223.289 599.213 223.631 599.305 224.007C599.398 224.382 599.383 224.776 599.264 225.143C598.824 226.469 598.333 227.846 597.789 229.276C582.889 268.303 573.453 293.554 569.478 305.028C568.83 306.901 570.566 310.396 570.618 312.352C570.974 325.515 548.802 318.034 559.104 307.403C560.052 306.427 561.91 305.687 564.678 305.185C565.041 305.115 565.288 304.91 565.421 304.568C574.965 278.801 584.483 253.031 593.972 227.257C594.481 225.869 594.275 224.714 593.355 223.794C568.694 199.324 549.506 180.418 535.792 167.074C535.276 166.572 534.495 166.017 533.449 165.41C533.136 165.229 532.801 165.159 532.445 165.201C518.264 166.833 520.335 149.789 531.128 152.081C535.531 153.022 537.256 156.621 536.158 160.859C536.054 161.243 536.144 161.574 536.43 161.853ZM533.209 158.547C533.209 157.537 532.808 156.568 532.094 155.854C531.38 155.139 530.412 154.738 529.402 154.738C528.392 154.738 527.424 155.139 526.71 155.854C525.996 156.568 525.595 157.537 525.595 158.547C525.595 159.557 525.996 160.525 526.71 161.24C527.424 161.954 528.392 162.355 529.402 162.355C530.412 162.355 531.38 161.954 532.094 161.24C532.808 160.525 533.209 159.557 533.209 158.547ZM567.272 312.572C567.272 311.615 566.891 310.696 566.215 310.019C565.538 309.343 564.62 308.962 563.664 308.962C563.19 308.962 562.721 309.056 562.283 309.237C561.845 309.418 561.447 309.684 561.112 310.019C560.777 310.355 560.511 310.753 560.33 311.191C560.149 311.628 560.055 312.098 560.055 312.572C560.055 313.046 560.149 313.515 560.33 313.953C560.511 314.391 560.777 314.789 561.112 315.124C561.447 315.46 561.845 315.725 562.283 315.907C562.721 316.088 563.19 316.182 563.664 316.182C564.62 316.182 565.538 315.801 566.215 315.124C566.891 314.447 567.272 313.529 567.272 312.572Z" fill="#E49311"/>
<path d="M529.402 162.355C531.505 162.355 533.209 160.65 533.209 158.546C533.209 156.443 531.505 154.738 529.402 154.738C527.3 154.738 525.595 156.443 525.595 158.546C525.595 160.65 527.3 162.355 529.402 162.355Z" fill="#E49311"/>
<path d="M68.4509 183.061C70.4783 183.061 72.1218 181.417 72.1218 179.389C72.1218 177.361 70.4783 175.716 68.4509 175.716C66.4235 175.716 64.78 177.361 64.78 179.389C64.78 181.417 66.4235 183.061 68.4509 183.061Z" fill="#E49311"/>
<path d="M5.31414 382.255L67.8236 438.305C68.1094 438.556 68.4406 438.664 68.8171 438.629C71.233 438.389 74.1927 437.52 76.6609 439.404C83.9608 444.97 78.146 453.571 70.1976 451.457C66.5895 450.494 65.3973 446.675 65.9934 443.401C66.0443 443.132 66.0248 442.855 65.9369 442.597C65.8489 442.338 65.6954 442.107 65.4914 441.925L0.377803 383.636C0.0222202 383.322 -0.0823584 382.942 0.0640583 382.496L26.4713 300.068C26.6038 299.664 26.569 299.273 26.3668 298.897C19.527 285.87 36.2394 282.438 38.1428 290.924C39.119 295.269 37.599 298.196 33.583 299.702C30.1527 300.989 29.9853 301.701 28.9604 304.955C21.047 330.226 13.0324 355.501 4.91672 380.78C4.83552 381.039 4.8298 381.316 4.90022 381.577C4.97065 381.839 5.11428 382.074 5.31414 382.255ZM35.3086 293.299C35.3086 292.319 34.9197 291.38 34.2273 290.687C33.535 289.995 32.596 289.605 31.6168 289.605C30.6377 289.605 29.6987 289.995 29.0064 290.687C28.314 291.38 27.9251 292.319 27.9251 293.299C27.9251 294.278 28.314 295.218 29.0064 295.911C29.6987 296.603 30.6377 296.992 31.6168 296.992C32.596 296.992 33.535 296.603 34.2273 295.911C34.9197 295.218 35.3086 294.278 35.3086 293.299ZM76.64 445.273C76.64 444.316 76.2598 443.398 75.5832 442.721C74.9065 442.044 73.9888 441.664 73.0318 441.664C72.0749 441.664 71.1572 442.044 70.4805 442.721C69.8038 443.398 69.4237 444.316 69.4237 445.273C69.4237 446.231 69.8038 447.149 70.4805 447.826C71.1572 448.503 72.0749 448.883 73.0318 448.883C73.9888 448.883 74.9065 448.503 75.5832 447.826C76.2598 447.149 76.64 446.231 76.64 445.273Z" fill="#E49311"/>
<path d="M31.6168 296.992C33.6558 296.992 35.3086 295.339 35.3086 293.299C35.3086 291.259 33.6558 289.605 31.6168 289.605C29.5779 289.605 27.925 291.259 27.925 293.299C27.925 295.339 29.5779 296.992 31.6168 296.992Z" fill="#E49311"/>
<path d="M563.664 316.181C565.656 316.181 567.272 314.565 567.272 312.572C567.272 310.578 565.656 308.962 563.664 308.962C561.671 308.962 560.055 310.578 560.055 312.572C560.055 314.565 561.671 316.181 563.664 316.181Z" fill="#E49311"/>
<path d="M80.8965 384.871L83.8039 366.665C83.8289 366.501 83.8965 366.346 83.9999 366.216C84.1033 366.086 84.239 365.985 84.3934 365.924C84.5478 365.862 84.7156 365.842 84.88 365.866C85.0445 365.89 85.1999 365.956 85.3308 366.058L99.8679 377.39C100.002 377.493 100.106 377.63 100.169 377.787C100.232 377.944 100.253 378.114 100.228 378.282C100.204 378.449 100.135 378.607 100.029 378.738C99.9239 378.87 99.7851 378.972 99.6274 379.032L82.1933 385.907C82.0367 385.97 81.8661 385.991 81.6989 385.967C81.5317 385.942 81.374 385.874 81.242 385.768C81.1099 385.663 81.0083 385.524 80.9476 385.366C80.8869 385.209 80.8692 385.038 80.8965 384.871Z" fill="#E49311"/>
<path d="M283.202 521.088C362.225 528.318 439.669 489.95 483.458 424.86C487.691 418.568 491.658 412.245 495.36 405.891C495.569 405.528 495.909 405.26 496.31 405.142C496.711 405.023 497.142 405.063 497.514 405.253L506.791 409.961C506.99 410.062 507.145 410.234 507.226 410.442C507.307 410.65 507.309 410.881 507.23 411.091C506.31 413.529 505.254 416.134 503.905 418.404C471.944 472.195 421.336 512.268 360.468 527.826C245.594 557.196 129.799 497.682 85.0483 388.763C84.9802 388.592 84.9803 388.401 85.0486 388.231C85.1169 388.061 85.248 387.926 85.4143 387.853L95.9877 383.207C96.1534 383.134 96.3321 383.095 96.5134 383.092C96.6947 383.089 96.8749 383.123 97.0435 383.191C97.212 383.259 97.3655 383.361 97.4949 383.489C97.6243 383.618 97.727 383.771 97.797 383.939C129.141 461.282 200.195 513.502 283.202 521.088Z" fill="#E49311"/>
<path d="M519.655 395.407L505.641 406.634C505.472 406.767 505.272 406.853 505.059 406.883C504.847 406.914 504.63 406.887 504.431 406.806C504.232 406.725 504.059 406.593 503.928 406.423C503.796 406.253 503.713 406.051 503.685 405.838L501.405 388.03C501.379 387.821 501.408 387.609 501.49 387.414C501.571 387.22 501.701 387.05 501.868 386.921C502.034 386.792 502.232 386.709 502.441 386.68C502.649 386.65 502.862 386.676 503.058 386.754L519.352 393.335C519.548 393.415 519.72 393.544 519.85 393.71C519.981 393.877 520.066 394.075 520.096 394.284C520.127 394.493 520.102 394.707 520.025 394.904C519.947 395.101 519.82 395.274 519.655 395.407Z" fill="#E49311"/>
<path d="M434.252 536.427C460.879 531.286 487.475 525.974 514.039 520.492C516.287 520.031 517.406 520.241 518.023 517.594C524.33 490.547 530.176 463.395 536.66 436.401C536.744 436.052 536.657 435.756 536.399 435.512C535.049 434.214 533.784 433.095 533.251 431.264C529.59 419.012 550.517 418.75 545.769 431.734C544.682 434.716 541.492 435.02 540.394 437.939C540.038 438.881 539.749 439.84 539.526 440.816C533.557 467.183 527.697 493.578 521.945 520C521.495 522.103 520.722 523.484 518.4 523.924C482.437 530.829 455.096 536.218 436.375 540.089C433.123 540.759 432.349 544.902 429.274 545.854C426.304 546.768 423.891 546.255 422.037 544.316C414.747 536.72 426.858 526.885 433.374 536.071C433.59 536.378 433.883 536.497 434.252 536.427ZM543.583 428.562C543.533 428.091 543.383 427.634 543.142 427.22C542.9 426.805 542.571 426.439 542.174 426.144C541.777 425.848 541.319 425.629 540.827 425.499C540.335 425.368 539.818 425.328 539.305 425.382C538.793 425.436 538.296 425.582 537.841 425.812C537.387 426.043 536.985 426.352 536.658 426.724C536.331 427.095 536.085 427.521 535.935 427.977C535.784 428.434 535.733 428.911 535.782 429.382C535.832 429.854 535.982 430.31 536.223 430.725C536.465 431.14 536.794 431.505 537.191 431.801C537.588 432.096 538.046 432.315 538.538 432.446C539.031 432.577 539.547 432.616 540.06 432.562C540.572 432.508 541.069 432.362 541.524 432.132C541.978 431.902 542.38 431.592 542.707 431.221C543.034 430.849 543.28 430.423 543.43 429.967C543.581 429.511 543.633 429.034 543.583 428.562ZM430.571 539.273C430.571 538.302 430.185 537.37 429.499 536.683C428.812 535.997 427.881 535.611 426.91 535.611C425.94 535.611 425.008 535.997 424.322 536.683C423.636 537.37 423.25 538.302 423.25 539.273C423.25 540.244 423.636 541.175 424.322 541.862C425.008 542.549 425.94 542.935 426.91 542.935C427.881 542.935 428.812 542.549 429.499 541.862C430.185 541.175 430.571 540.244 430.571 539.273Z" fill="#E49311"/>
<path d="M540.06 432.562C542.214 432.336 543.791 430.545 543.583 428.562C543.375 426.579 541.46 425.156 539.305 425.382C537.151 425.609 535.574 427.4 535.782 429.382C535.99 431.365 537.906 432.789 540.06 432.562Z" fill="#E49311"/>
<path d="M73.0317 448.883C75.0244 448.883 76.6398 447.267 76.6398 445.273C76.6398 443.28 75.0244 441.664 73.0317 441.664C71.039 441.664 69.4236 443.28 69.4236 445.273C69.4236 447.267 71.039 448.883 73.0317 448.883Z" fill="#E49311"/>
<path d="M225.159 593.785L304.496 565.953C304.802 565.845 305.069 565.65 305.262 565.391C305.456 565.131 305.568 564.821 305.583 564.499C305.866 557.332 316.188 554.768 318.813 562.03C321.815 570.285 312.936 573.696 306.901 569.636C306.622 569.448 306.326 569.409 306.012 569.521L223.81 598.619C223.542 598.712 223.253 598.727 222.977 598.66C222.7 598.593 222.449 598.448 222.251 598.242L163.402 535.893C163.137 535.614 162.817 535.443 162.44 535.38C157.64 534.617 152.599 533.476 152.881 527.565C153.111 522.863 155.844 520.589 161.081 520.743C166.467 520.9 166.216 528.213 165.933 531.708C165.905 532.071 166.01 532.388 166.247 532.66C185.794 555.061 203.656 572.043 213.404 582.725C217.273 586.959 220.867 590.583 224.186 593.596C224.472 593.854 224.796 593.917 225.159 593.785ZM163.183 527.753C163.183 526.795 162.803 525.877 162.126 525.2C161.449 524.523 160.531 524.143 159.575 524.143C158.618 524.143 157.7 524.523 157.023 525.2C156.347 525.877 155.966 526.795 155.966 527.753C155.966 528.71 156.347 529.628 157.023 530.305C157.7 530.982 158.618 531.363 159.575 531.363C160.531 531.363 161.449 530.982 162.126 530.305C162.803 529.628 163.183 528.71 163.183 527.753ZM316.345 564.708C316.345 563.692 315.942 562.718 315.224 562C314.506 561.282 313.532 560.879 312.517 560.879C312.015 560.879 311.517 560.978 311.052 561.17C310.588 561.363 310.166 561.645 309.811 562C309.455 562.356 309.173 562.778 308.981 563.243C308.788 563.707 308.689 564.205 308.689 564.708C308.689 565.211 308.788 565.709 308.981 566.174C309.173 566.638 309.455 567.06 309.811 567.416C310.166 567.771 310.588 568.054 311.052 568.246C311.517 568.438 312.015 568.538 312.517 568.538C313.532 568.538 314.506 568.134 315.224 567.416C315.942 566.698 316.345 565.724 316.345 564.708Z" fill="#E49311"/>
<path d="M159.574 531.363C161.567 531.363 163.183 529.746 163.183 527.753C163.183 525.759 161.567 524.143 159.574 524.143C157.582 524.143 155.966 525.759 155.966 527.753C155.966 529.746 157.582 531.363 159.574 531.363Z" fill="#E49311"/>
<path d="M426.91 542.935C428.932 542.935 430.571 541.295 430.571 539.273C430.571 537.25 428.932 535.611 426.91 535.611C424.889 535.611 423.25 537.25 423.25 539.273C423.25 541.295 424.889 542.935 426.91 542.935Z" fill="#E49311"/>
<path d="M312.517 568.538C314.631 568.538 316.345 566.823 316.345 564.708C316.345 562.593 314.631 560.879 312.517 560.879C310.403 560.879 308.689 562.593 308.689 564.708C308.689 566.823 310.403 568.538 312.517 568.538Z" fill="#E49311"/>
</svg>
