<svg width="597" height="350" viewBox="0 0 597 350" fill="none" xmlns="http://www.w3.org/2000/svg">
<path d="M352.497 0H298.393C298.136 0 297.927 0.234739 297.927 0.524295V1.03887C297.927 1.32843 298.136 1.56315 298.393 1.56315H352.497C352.754 1.56315 352.962 1.32843 352.962 1.03887V0.524295C352.962 0.234739 352.754 0 352.497 0Z" fill="#F5A020"/>
<path d="M449.456 324.169C449.66 324.069 449.965 324.019 450.37 324.019C466.531 324.041 482.691 324.038 498.85 324.009C503.82 324.003 506.694 323.957 507.469 323.873C519.778 322.567 530.018 312.033 532.203 298.363C532.525 296.359 532.685 293.133 532.685 288.683C532.685 214.739 532.678 140.798 532.664 66.8611C532.66 62.3367 532.625 57.992 531.164 53.453C527.621 42.4624 519.584 34.9428 509.491 32.9427C507.637 32.5738 504.776 32.3893 500.906 32.3893C431.494 32.3958 362.12 32.3974 292.786 32.3942C292.722 32.3942 292.659 32.3787 292.601 32.3485C292.543 32.3183 292.492 32.2743 292.45 32.2194L271.81 5.15069C271.718 5.02771 271.602 4.96622 271.461 4.96622H193.835C193.749 4.96622 193.667 4.92786 193.606 4.85958C193.546 4.7913 193.512 4.69869 193.512 4.60213V1.81079C193.512 1.77732 193.523 1.74522 193.543 1.72155C193.563 1.69788 193.591 1.68457 193.619 1.68457L272.836 1.68943C272.906 1.68936 272.976 1.70669 273.04 1.74021C273.104 1.77374 273.161 1.82267 273.207 1.88361L293.811 28.9038C293.918 29.0462 294.054 29.1174 294.221 29.1174C364.084 29.1206 433.947 29.1141 503.81 29.098C518.993 29.098 532.099 40.04 535.021 56.9774C535.395 59.1328 535.583 62.3562 535.586 66.6475C535.597 85.7613 535.599 104.875 535.59 123.989C535.59 124.135 535.655 124.207 535.784 124.207L575.666 124.271C575.746 124.27 575.824 124.242 575.888 124.188C575.952 124.135 576 124.06 576.024 123.974C576.527 122.146 577.459 121.036 578.821 120.644C584.217 119.1 586.177 128.174 580.911 129.436C578.598 129.992 576.959 128.916 575.994 126.207C575.936 126.046 575.83 125.965 575.675 125.965H535.81C535.753 125.965 535.698 125.99 535.658 126.036C535.617 126.081 535.594 126.143 535.594 126.207V144.897C535.594 145.059 535.666 145.14 535.81 145.14H587.824C587.885 145.14 587.945 145.119 587.994 145.08C588.044 145.041 588.081 144.985 588.1 144.922C588.703 142.866 589.844 141.729 591.521 141.509C597.865 140.688 597.266 151.995 591.151 150.427C589.789 150.077 588.788 149.007 588.147 147.218C587.901 146.538 587.113 146.96 586.699 146.96C570.997 146.96 555.296 146.96 539.594 146.96C538.784 146.96 537.099 146.737 535.853 146.863C535.681 146.883 535.594 146.99 535.594 147.184V164.558C535.594 164.72 535.666 164.801 535.81 164.801H571.693C571.848 164.801 571.947 164.718 571.99 164.553C572.96 160.835 577.347 159.771 579.273 163.073C582.45 168.529 574.882 173.558 572.236 167.442C572.135 167.205 572.019 166.969 571.886 166.733C571.8 166.577 571.675 166.5 571.512 166.5H535.819C535.759 166.5 535.702 166.526 535.66 166.574C535.618 166.621 535.594 166.685 535.594 166.752C535.592 207.569 535.592 248.423 535.594 289.314C535.597 293.66 535.429 296.887 535.09 298.994C532.823 313.052 522.855 324.242 510.322 326.737C508.507 327.1 505.643 327.284 501.733 327.291C484.377 327.31 467.018 327.313 449.659 327.3C449.521 327.3 449.435 327.375 449.4 327.524C447.008 337.325 434.834 335.286 435.157 325.766C435.476 316.354 447.177 315.028 449.314 324.092C449.337 324.179 449.385 324.205 449.456 324.169ZM446.879 325.97C446.879 324.612 446.4 323.309 445.547 322.349C444.695 321.388 443.538 320.849 442.332 320.849C441.127 320.849 439.97 321.388 439.117 322.349C438.265 323.309 437.786 324.612 437.786 325.97C437.786 327.329 438.265 328.631 439.117 329.592C439.97 330.552 441.127 331.092 442.332 331.092C443.538 331.092 444.695 330.552 445.547 329.592C446.4 328.631 446.879 327.329 446.879 325.97Z" fill="#F5A020"/>
<path d="M352.751 8.48535H298.225C298.108 8.48535 298.013 8.59185 298.013 8.72322V9.70384C298.013 9.83521 298.108 9.9417 298.225 9.9417H352.751C352.868 9.9417 352.962 9.83521 352.962 9.70384V8.72322C352.962 8.59185 352.868 8.48535 352.751 8.48535Z" fill="#F5A020"/>
<path d="M103.87 46.5596C91.3202 46.545 80.5804 55.5793 77.8179 69.3661C77.4472 71.2237 77.2619 73.7157 77.2619 76.842C77.2591 144.035 77.2576 211.228 77.2576 278.42C77.2576 281.906 77.4487 284.621 77.8308 286.566C80.0762 297.936 88.2948 306.848 98.5346 308.863C100.146 309.18 103.012 309.339 107.132 309.339C180.441 309.348 253.75 309.348 327.061 309.339C328.156 309.339 329.923 308.785 331.155 309.737C339.697 316.316 348.236 322.897 356.772 329.48C356.89 329.571 357.021 329.616 357.164 329.616C372.61 329.639 388.055 329.642 403.498 329.626C403.949 329.626 404.325 329.702 404.627 329.854C404.688 329.882 404.737 329.934 404.768 329.999C404.798 330.064 404.807 330.14 404.793 330.212C404.78 330.284 404.744 330.349 404.692 330.394C404.64 330.439 404.576 330.463 404.511 330.461H356.957C356.802 330.461 356.663 330.412 356.539 330.315L330.483 310.237C330.342 310.13 330.186 310.077 330.013 310.077C253.806 310.07 177.599 310.07 101.392 310.077C100.346 310.077 98.9713 309.863 97.2676 309.436C85.89 306.606 76.5034 294.775 76.5034 281.299C76.5034 213.598 76.5034 145.897 76.5034 78.1964C76.5034 74.4002 76.6974 71.4713 77.0852 69.4098C79.2142 58.1328 87.1053 48.8946 97.3667 46.4819C99.082 46.0774 101.653 45.8735 105.081 45.8703C120.076 45.8606 135.065 45.8606 150.049 45.8703C150.066 45.8707 150.082 45.8652 150.096 45.8546C150.11 45.844 150.121 45.8286 150.128 45.8105C150.134 45.7924 150.136 45.7723 150.132 45.7527C150.129 45.7332 150.121 45.7149 150.109 45.7004C144.265 39.1031 144.489 28.2096 150.906 22.1997C157.332 16.185 166.637 17.5685 171.545 25.0833C174.743 29.9718 175.058 37.2098 172.243 42.4381C167.736 50.8316 158.017 52.8268 151.165 46.7538C151.053 46.6532 150.915 46.5984 150.773 46.5985C135.134 46.592 119.5 46.579 103.87 46.5596ZM169.343 34.3651C169.343 31.5841 168.362 28.917 166.617 26.9506C164.871 24.9841 162.503 23.8794 160.034 23.8794C157.565 23.8794 155.197 24.9841 153.452 26.9506C151.706 28.917 150.725 31.5841 150.725 34.3651C150.725 37.1461 151.706 39.8132 153.452 41.7796C155.197 43.7461 157.565 44.8508 160.034 44.8508C162.503 44.8508 164.871 43.7461 166.617 41.7796C168.362 39.8132 169.343 37.1461 169.343 34.3651Z" fill="#F5A020"/>
<path d="M518.877 69.2745C516.628 58.1868 508.749 49.4973 498.897 47.2302C497.067 46.8095 494.207 46.5991 490.317 46.5991C424.824 46.5959 359.333 46.5943 293.846 46.5943C293.766 46.5943 293.687 46.5747 293.614 46.5371C293.542 46.4994 293.477 46.4444 293.424 46.3758L275.038 22.2538C274.955 22.1438 274.85 22.0887 274.724 22.0887L204.889 22.0596C204.819 22.0596 204.751 22.0279 204.7 21.9715C204.65 21.915 204.622 21.8385 204.622 21.7586L204.618 21.4819C204.618 21.3136 204.693 21.2295 204.842 21.2295H274.948C275.043 21.2294 275.136 21.2523 275.222 21.2967C275.309 21.3411 275.386 21.4059 275.448 21.4868L293.919 45.7156C293.994 45.8159 294.089 45.8661 294.204 45.8661C360.881 45.8661 427.553 45.8661 494.221 45.8661C506.724 45.8661 517.054 56.1285 519.644 69.6774C520.012 71.5901 520.196 74.0983 520.196 77.2019C520.184 144.184 520.183 211.167 520.192 278.149C520.192 281.774 519.999 284.593 519.614 286.606C517.477 297.776 509.723 306.839 499.652 309.388C497.879 309.835 495.303 310.06 491.924 310.063C472.482 310.076 453.057 310.077 433.648 310.068C433.607 310.068 433.567 310.058 433.529 310.04C433.491 310.022 433.456 309.996 433.428 309.962C433.399 309.929 433.376 309.889 433.361 309.846C433.345 309.802 433.338 309.755 433.338 309.708C433.347 309.412 433.476 309.301 433.735 309.301C453.321 309.362 472.908 309.369 492.497 309.32C505.319 309.291 516.033 300.883 518.869 286.431C519.245 284.509 519.433 281.886 519.433 278.562C519.433 211.194 519.432 143.827 519.429 76.4592C519.429 73.4753 519.245 71.0804 518.877 69.2745Z" fill="#F5A020"/>
<path d="M60.5489 123.79C60.569 104.45 60.5704 85.0494 60.5532 65.5894C60.5503 61.8158 60.7399 58.8756 61.1221 56.7687C63.6906 42.5644 74.0124 31.5593 86.782 29.5252C88.3623 29.2728 91.2311 29.1434 95.3885 29.1369C108.953 29.1078 122.518 29.1045 136.085 29.1272C136.229 29.1272 136.301 29.2081 136.301 29.3699V32.1467C136.301 32.3182 136.224 32.404 136.072 32.404C121.316 32.3878 106.559 32.3829 91.8028 32.3894C78.3393 32.3894 66.9014 42.3945 64.0311 57.2736C63.6547 59.238 63.4665 61.9242 63.4665 65.3321C63.501 140.116 63.4795 214.904 63.4622 289.688C63.4622 294.05 63.6562 297.269 64.044 299.343C66.4015 311.999 75.7621 321.592 86.8941 323.572C88.5979 323.876 91.4638 324.029 95.492 324.029C175.193 324.029 254.895 324.029 334.599 324.029C334.76 324.029 334.908 324.08 335.043 324.184L364.09 346.587C364.306 346.755 364.563 346.845 364.827 346.845L416.97 346.84C417.084 346.84 417.194 346.892 417.275 346.983C417.356 347.075 417.401 347.2 417.401 347.33V349.757C417.401 349.919 417.329 350 417.185 350H363.517C363.367 350 363.229 349.952 363.103 349.855L334.081 327.461C333.949 327.36 333.803 327.31 333.642 327.31C252.956 327.307 172.271 327.299 91.5874 327.286C73.7323 327.286 60.5618 311.868 60.5618 291.834C60.5561 250.169 60.5546 208.516 60.5575 166.874C60.5575 166.807 60.5339 166.743 60.4919 166.695C60.4498 166.648 60.3928 166.621 60.3334 166.621H24.3689C24.2281 166.621 24.1304 166.694 24.0758 166.84C23.9322 167.231 23.7814 167.604 23.6233 167.956C21.8046 172.049 16.0727 170.165 16.0684 165.888C16.0641 160.374 22.6795 159.257 24.0371 164.548C24.0802 164.717 24.1793 164.801 24.3344 164.801H60.342C60.3992 164.801 60.454 164.775 60.4944 164.73C60.5348 164.684 60.5575 164.622 60.5575 164.558V147.208C60.5575 147.05 60.4871 146.97 60.3463 146.97L8.28078 146.936C8.22151 146.937 8.16367 146.958 8.1151 146.997C8.06653 147.036 8.02958 147.091 8.00927 147.155C7.16026 149.883 4.73821 151.378 2.34632 150.145C-1.84702 147.98 -0.0283248 140.679 4.71235 141.538C6.29257 141.823 7.38868 142.91 8.00065 144.8C8.0495 144.952 8.14431 145.028 8.28509 145.028L60.2343 145.014C60.4497 145.014 60.5575 144.894 60.5575 144.655V126.208C60.5575 126.143 60.5348 126.081 60.4944 126.036C60.454 125.99 60.3992 125.965 60.342 125.965H20.46C20.3882 125.965 20.3179 125.988 20.2575 126.032C20.1972 126.076 20.1493 126.139 20.1195 126.212C19.7834 127.062 19.43 127.882 18.818 128.479C16.6114 130.63 12.7844 129.533 12.1595 126.174C11.0735 120.348 18.3439 118.101 20.0721 123.907C20.1181 124.065 20.2158 124.144 20.3652 124.144H60.23C60.3145 124.144 60.3957 124.107 60.4555 124.041C60.5153 123.974 60.5489 123.884 60.5489 123.79Z" fill="#F5A020"/>
<path d="M95.626 123.667L87.791 123.652C87.6934 123.652 87.6141 123.74 87.6139 123.85L87.5965 135.103C87.5963 135.213 87.6753 135.302 87.7729 135.303L95.6079 135.318C95.7055 135.318 95.7848 135.229 95.7849 135.119L95.8024 123.866C95.8025 123.757 95.7236 123.667 95.626 123.667Z" fill="#F5A020"/>
<path d="M95.5656 141.254L87.8426 141.239C87.7141 141.238 87.6097 141.356 87.6095 141.5L87.5922 152.637C87.592 152.781 87.696 152.899 87.8245 152.899L95.5475 152.914C95.676 152.915 95.7804 152.798 95.7806 152.653L95.7979 141.517C95.7981 141.372 95.6941 141.254 95.5656 141.254Z" fill="#F5A020"/>
<path d="M95.5656 158.856L87.8513 158.841C87.7204 158.841 87.6141 158.96 87.6138 159.108L87.5967 170.186C87.5965 170.333 87.7024 170.453 87.8333 170.453L95.5477 170.468C95.6786 170.469 95.7849 170.349 95.7851 170.202L95.8023 159.124C95.8025 158.976 95.6966 158.857 95.5656 158.856Z" fill="#F5A020"/>
<path d="M508.565 205.829L500.695 205.814C500.578 205.814 500.484 205.92 500.484 206.051L500.466 217.236C500.466 217.367 500.56 217.474 500.677 217.474L508.547 217.49C508.663 217.49 508.758 217.384 508.758 217.252L508.775 206.068C508.776 205.936 508.681 205.83 508.565 205.829Z" fill="#F5A020"/>
<path d="M508.543 223.419H500.699C500.575 223.419 500.475 223.532 500.475 223.671V234.817C500.475 234.957 500.575 235.07 500.699 235.07H508.543C508.666 235.07 508.767 234.957 508.767 234.817V223.671C508.767 223.532 508.666 223.419 508.543 223.419Z" fill="#F5A020"/>
<path d="M508.46 241.001L500.763 241.031C500.603 241.032 500.475 241.178 500.475 241.357L500.509 252.358C500.51 252.537 500.64 252.682 500.799 252.682L508.496 252.652C508.656 252.651 508.784 252.505 508.784 252.325L508.75 241.325C508.749 241.145 508.619 241 508.46 241.001Z" fill="#F5A020"/>
<path d="M251.734 337.605L237.546 337.577C237.448 337.577 237.369 337.666 237.369 337.776L237.357 345.417C237.357 345.527 237.436 345.616 237.534 345.617L251.721 345.644C251.819 345.645 251.898 345.556 251.898 345.446L251.91 337.805C251.91 337.695 251.831 337.606 251.734 337.605Z" fill="#F5A020"/>
<path d="M271.707 337.611H257.321C257.248 337.611 257.188 337.679 257.188 337.762V345.48C257.188 345.564 257.248 345.631 257.321 345.631H271.707C271.781 345.631 271.841 345.564 271.841 345.48V337.762C271.841 337.679 271.781 337.611 271.707 337.611Z" fill="#F5A020"/>
<path d="M291.773 337.816V345.413C291.773 345.47 291.753 345.524 291.718 345.564C291.682 345.604 291.634 345.626 291.583 345.626L277.31 345.646C277.259 345.646 277.211 345.623 277.176 345.583C277.14 345.543 277.12 345.489 277.12 345.432V337.714C277.12 337.657 277.14 337.603 277.176 337.563C277.211 337.523 277.259 337.5 277.31 337.5L291.583 337.602C291.634 337.602 291.682 337.624 291.718 337.665C291.753 337.705 291.773 337.759 291.773 337.816Z" fill="#F5A020"/>
<path d="M331.079 337.625L298.179 337.56C298.096 337.56 298.028 337.636 298.028 337.729L298.016 345.429C298.016 345.523 298.083 345.599 298.167 345.599L331.067 345.664C331.15 345.664 331.218 345.588 331.218 345.494L331.23 337.795C331.23 337.701 331.163 337.625 331.079 337.625Z" fill="#F5A020"/>
</svg>
