<svg width="58" height="59" viewBox="0 0 58 59" fill="none" xmlns="http://www.w3.org/2000/svg">
<g clip-path="url(#clip0_506_306)">
<path fill-rule="evenodd" clip-rule="evenodd" d="M58 29.5C58 45.5163 45.0163 58.5 29 58.5C12.9837 58.5 0 45.5163 0 29.5C0 13.4837 12.9837 0.5 29 0.5C45.0163 0.5 58 13.4837 58 29.5ZM30.0392 21.9091C27.2185 23.0823 21.5812 25.5106 13.1271 29.1939C11.7543 29.7398 11.0351 30.2739 10.9697 30.7961C10.859 31.6786 11.9642 32.0261 13.4692 32.4994C13.6739 32.5638 13.8861 32.6304 14.1035 32.7011C15.5842 33.1824 17.576 33.7455 18.6114 33.7679C19.5507 33.7882 20.599 33.401 21.7564 32.6062C29.6553 27.2743 33.7328 24.5792 33.9888 24.5211C34.1693 24.4801 34.4196 24.4286 34.5892 24.5793C34.7588 24.73 34.7421 25.0154 34.7241 25.092C34.6146 25.5588 30.2763 29.592 28.0312 31.6793C27.3313 32.33 26.8348 32.7915 26.7334 32.897C26.506 33.1331 26.2743 33.3565 26.0516 33.5711C24.676 34.8972 23.6445 35.8916 26.1087 37.5156C27.293 38.296 28.2406 38.9413 29.186 39.5851C30.2184 40.2882 31.2482 40.9895 32.5806 41.8629C32.92 42.0854 33.2442 42.3165 33.56 42.5416C34.7615 43.3982 35.841 44.1678 37.1746 44.045C37.9495 43.9737 38.7499 43.2451 39.1565 41.0718C40.1172 35.9359 42.0056 24.8079 42.442 20.2224C42.4803 19.8206 42.4322 19.3064 42.3935 19.0807C42.3549 18.855 42.2742 18.5334 41.9808 18.2954C41.6333 18.0134 41.097 17.954 40.857 17.9582C39.7663 17.9774 38.0928 18.5593 30.0392 21.9091Z" fill="#FBFBFB"/>
</g>
<defs>
<clipPath id="clip0_506_306">
<rect width="58" height="58" fill="white" transform="translate(0 0.5)"/>
</clipPath>
</defs>
</svg>
