<svg width="422" height="226" viewBox="0 0 422 226" fill="none" xmlns="http://www.w3.org/2000/svg">
<path d="M369.117 7.46531C368.495 7.28382 367.867 7.19632 367.233 7.20281C304.978 7.32595 242.689 7.33244 180.367 7.22225C180.21 7.22333 180.055 7.19677 179.924 7.14602C179.793 7.09528 179.691 7.02271 179.632 6.93774C179.573 6.85278 179.559 6.75936 179.592 6.66965C179.625 6.57994 179.703 6.49809 179.817 6.43475L188.633 1.31114C189.045 1.07132 189.545 0.951416 190.133 0.951416H360.817C361.417 0.951416 361.922 1.07456 362.333 1.32086L370.533 6.09447C371.045 6.3991 371.206 6.75558 371.017 7.16392C370.761 7.6954 371.256 7.93845 372.5 7.89308C373.2 7.86716 373.795 8.00003 374.283 8.29169L420.767 35.407C421.256 35.6922 421.5 36.0357 421.5 36.4375V73.1389C421.5 73.476 421.256 73.7385 420.767 73.9264L407.667 78.9334C407.045 79.1732 406.717 79.076 406.683 78.6417C405.65 62.8528 405.133 51.7857 405.133 45.4403C405.133 43.0875 405.817 42.0861 402.817 40.2681C392.472 34.0329 382.233 27.7167 372.1 21.3195C371.989 21.2492 371.844 21.2001 371.684 21.1785C371.524 21.157 371.357 21.1639 371.205 21.1986C371.052 21.2332 370.92 21.2938 370.827 21.3726C370.734 21.4514 370.684 21.5447 370.683 21.6403L370.667 120.749C370.669 120.832 370.628 120.913 370.549 120.982C370.47 121.051 370.357 121.104 370.225 121.135C370.093 121.165 369.948 121.172 369.81 121.153C369.671 121.134 369.546 121.092 369.45 121.031L360.833 115.79C360.445 115.55 360.25 115.262 360.25 114.925V21.8153C360.25 21.4523 359.939 21.2417 359.317 21.1834C355.6 20.8625 352.633 20.8042 349.75 22.5056C341.828 27.1658 333.867 31.8033 325.867 36.4181C325.4 36.6838 324.845 36.8167 324.2 36.8167L261.467 36.7486C260.867 36.7486 260.406 36.606 260.083 36.3209L251.433 28.7084C251.365 28.6476 251.326 28.5772 251.32 28.5046C251.314 28.432 251.341 28.3598 251.399 28.2953C251.456 28.2309 251.543 28.1767 251.648 28.1382C251.754 28.0997 251.876 28.0784 252 28.0764L314.8 27.075C315.378 27.0685 315.878 26.9486 316.3 26.7153L348.717 8.75836C349.593 8.27177 350.757 8.00028 351.967 8.00003L368.9 7.99031C369.008 7.9889 369.114 7.96642 369.199 7.92655C369.285 7.88668 369.345 7.83178 369.37 7.77082C369.395 7.70986 369.384 7.64644 369.338 7.59095C369.292 7.53545 369.214 7.49116 369.117 7.46531Z" fill="#E49311"/>
<path d="M166.967 13.8527L175.5 9.00131C175.989 8.7226 176.583 8.58325 177.283 8.58325L214.417 8.63187C214.567 8.63195 214.714 8.65788 214.84 8.70642C214.965 8.75496 215.063 8.82397 215.122 8.90483C215.181 8.9857 215.197 9.07484 215.169 9.16115C215.142 9.24746 215.071 9.32712 214.967 9.3902L188.317 25.6069C187.894 25.8596 187.389 25.986 186.8 25.986C151.544 25.986 116.311 25.986 81.0999 25.986C78.8833 25.986 69.7833 19.9485 67.2499 18.7624C66.8055 18.555 66.2999 18.4513 65.7333 18.4513C47.6666 18.4513 29.6333 18.4513 11.6333 18.4513C6.41662 18.461 3.29995 16.8666 0.483286 14.6402C0.415186 14.5865 0.374076 14.5228 0.36456 14.4562C0.355043 14.3896 0.3775 14.3228 0.429409 14.2633C0.481318 14.2037 0.560628 14.1538 0.658457 14.119C0.756285 14.0843 0.868766 14.0661 0.983291 14.0666L166.017 14.0763C166.369 14.0763 166.71 13.9962 166.967 13.8527Z" fill="#E49311"/>
<path d="M213.267 16.2054L225.133 8.94295C225.217 8.89026 225.317 8.84768 225.429 8.81765C225.54 8.78762 225.661 8.77073 225.783 8.76795L246.717 8.45684C246.905 8.45323 247.09 8.48284 247.249 8.54179C247.408 8.60073 247.532 8.68625 247.606 8.78715C247.68 8.88804 247.7 8.99961 247.663 9.10721C247.626 9.21482 247.535 9.31345 247.4 9.39017L234.433 16.8179C234.26 16.9172 234.027 16.973 233.783 16.9735L213.95 17.1193C213.769 17.1191 213.592 17.088 213.44 17.03C213.289 16.972 213.169 16.8895 213.097 16.7926C213.024 16.6956 213.002 16.5885 213.032 16.4843C213.062 16.38 213.144 16.2831 213.267 16.2054Z" fill="#E49311"/>
<path d="M263.9 16.9931H243.55C243.426 16.9937 243.305 16.973 243.201 16.9336C243.097 16.8943 243.015 16.838 242.965 16.7718C242.915 16.7055 242.9 16.6322 242.921 16.561C242.942 16.4897 242.999 16.4236 243.083 16.3709L255.583 8.81671C255.643 8.78249 255.713 8.75542 255.79 8.73707C255.867 8.71871 255.95 8.70944 256.033 8.70977L277.5 8.61255C277.624 8.61395 277.745 8.63672 277.848 8.67801C277.95 8.7193 278.03 8.77729 278.076 8.84472C278.122 8.91214 278.133 8.98603 278.108 9.05713C278.083 9.12823 278.022 9.1934 277.933 9.24449L264.333 16.8862C264.218 16.9529 264.063 16.9912 263.9 16.9931Z" fill="#E49311"/>
<path d="M277.167 17.5279C277.167 17.5866 277.186 17.6448 277.224 17.699C277.261 17.7533 277.317 17.8026 277.386 17.8441C277.456 17.8857 277.539 17.9186 277.63 17.9411C277.721 17.9635 277.818 17.9751 277.917 17.9751L323.917 18.0723C324.029 18.0743 324.138 18.0958 324.23 18.1341C324.321 18.1724 324.391 18.2257 324.43 18.2873C324.47 18.3488 324.477 18.4158 324.451 18.4797C324.424 18.5436 324.366 18.6015 324.283 18.646L312.55 24.8487C312.039 25.121 311.433 25.2571 310.733 25.2571H213.5C213.062 25.257 212.628 25.3077 212.225 25.4062C211.821 25.5047 211.456 25.649 211.15 25.8307L192.667 36.6029C192.244 36.8557 191.728 36.9821 191.117 36.9821L161.633 36.9237C160.822 36.9172 160.678 36.7325 161.2 36.3696L171.1 29.4182C171.589 29.0811 172.211 28.9126 172.967 28.9126L187.283 28.9029C187.961 28.9029 188.539 28.7603 189.017 28.4751L206.117 18.5098C206.605 18.2247 207.2 18.0853 207.9 18.0918C228.189 18.2473 248.405 18.2571 268.55 18.121C269.328 18.1145 270.672 18.0529 272.583 17.9362C273.05 17.9038 273.489 17.8163 273.9 17.6737C274.589 17.4274 274.833 17.2038 274.633 17.0029C274.367 16.7242 274.417 16.4714 274.783 16.2446L286.217 9.15706C286.672 8.87188 287.239 8.72605 287.917 8.71956L308.517 8.50567C309.605 8.49271 309.761 8.70984 308.983 9.15706L296.1 16.5946C295.655 16.8538 295.117 16.9867 294.483 16.9932C289.55 17.0645 284.683 16.9899 279.883 16.7696C278.094 16.6853 277.189 16.9381 277.167 17.5279Z" fill="#E49311"/>
<path d="M313.067 9.87638C316.35 7.84444 331.933 8.44721 336.633 8.67082C337.511 8.70971 337.639 8.91064 337.017 9.2736L324.483 16.5847C323.994 16.8699 323.4 17.0157 322.7 17.0222L302.8 17.0903C302.686 17.0906 302.575 17.0712 302.481 17.0344C302.387 16.9977 302.313 16.9452 302.269 16.8833C302.225 16.8215 302.212 16.7529 302.232 16.6861C302.253 16.6193 302.305 16.557 302.383 16.5069C306.028 14.2579 309.589 12.0477 313.067 9.87638Z" fill="#E49311"/>
<path d="M373.167 41.5708V29.0291C373.162 28.9637 373.192 28.8991 373.252 28.8438C373.312 28.7886 373.399 28.7454 373.503 28.72C373.606 28.6946 373.72 28.6882 373.83 28.7018C373.94 28.7153 374.04 28.7481 374.117 28.7958L387.483 36.7291C387.577 36.787 387.631 36.8633 387.633 36.943L387.983 49.193C387.988 49.2572 387.959 49.3206 387.901 49.3752C387.843 49.4298 387.759 49.473 387.658 49.4992C387.558 49.5254 387.446 49.5333 387.337 49.5221C387.229 49.5108 387.129 49.4809 387.05 49.436L373.333 41.8041C373.28 41.7738 373.238 41.7375 373.209 41.6974C373.18 41.6573 373.166 41.6142 373.167 41.5708Z" fill="#E49311"/>
<path d="M401.983 101.975L421.267 113.224C421.678 113.47 421.883 113.765 421.883 114.108L421.983 131.083C421.981 131.179 421.933 131.272 421.845 131.353C421.757 131.433 421.632 131.498 421.486 131.538C421.339 131.579 421.176 131.595 421.017 131.583C420.857 131.571 420.707 131.533 420.583 131.472L408.333 125.561C407.822 125.321 407.606 125.01 407.683 124.628C408.35 121.024 408.5 118.448 408.133 116.899C407.617 114.672 393.683 107.663 390.4 105.514C390.022 105.261 389.833 104.966 389.833 104.629L389.433 36.6806C389.435 36.6122 389.472 36.5455 389.539 36.4895C389.606 36.4334 389.701 36.3905 389.811 36.3664C389.921 36.3422 390.04 36.3379 390.154 36.3541C390.268 36.3703 390.371 36.4061 390.45 36.457L400.9 43.2237C401.3 43.4829 401.5 43.7843 401.5 44.1278V101.304C401.5 101.57 401.661 101.794 401.983 101.975Z" fill="#E49311"/>
<path d="M373.167 58.0013V45.5568C373.166 45.497 373.196 45.4384 373.253 45.3886C373.309 45.3387 373.39 45.2999 373.485 45.2769C373.58 45.254 373.684 45.248 373.785 45.2598C373.885 45.2715 373.978 45.3005 374.05 45.343L387.6 53.2374C387.648 53.2655 387.686 53.2989 387.711 53.3356C387.737 53.3723 387.75 53.4116 387.75 53.4513V65.6527C387.75 65.7125 387.72 65.7711 387.664 65.8209C387.607 65.8708 387.526 65.9097 387.431 65.9326C387.337 65.9555 387.232 65.9615 387.132 65.9497C387.031 65.938 386.939 65.909 386.867 65.8666L373.317 58.2152C373.269 58.187 373.231 58.1537 373.205 58.117C373.179 58.0803 373.166 58.0409 373.167 58.0013Z" fill="#E49311"/>
<path d="M373.167 76.2597V63.7958C373.164 63.7332 373.194 63.6716 373.252 63.6191C373.311 63.5666 373.395 63.5255 373.494 63.5014C373.593 63.4772 373.702 63.4711 373.807 63.4837C373.913 63.4963 374.009 63.5272 374.083 63.5722L387.6 71.4958C387.695 71.5532 387.749 71.6298 387.75 71.7097V83.8819C387.749 83.9425 387.718 84.0017 387.661 84.0521C387.603 84.1026 387.521 84.1421 387.426 84.1658C387.33 84.1896 387.225 84.1965 387.122 84.1858C387.02 84.1751 386.925 84.1472 386.85 84.1055L373.333 76.4833C373.281 76.4545 373.239 76.4198 373.211 76.3814C373.182 76.343 373.167 76.3016 373.167 76.2597Z" fill="#E49311"/>
<path d="M386.867 101.625L373.833 94.3722C373.389 94.1259 373.167 93.8278 373.167 93.4778V81.4125C373.167 80.9329 373.472 80.8551 374.083 81.1792C379.716 84.2384 383.994 86.737 386.917 88.675C388.467 89.7056 387.817 99.2333 388.017 101.314C388.023 101.393 387.99 101.472 387.919 101.54C387.849 101.608 387.745 101.662 387.622 101.696C387.498 101.729 387.36 101.74 387.225 101.728C387.091 101.715 386.966 101.679 386.867 101.625Z" fill="#E49311"/>
<path d="M381.733 128.011L373.8 123.451C373.378 123.212 373.167 122.92 373.167 122.576V99.9625C373.169 99.9136 373.196 99.8661 373.243 99.8259C373.291 99.7857 373.358 99.7544 373.436 99.7359C373.513 99.7173 373.598 99.7123 373.681 99.7215C373.763 99.7307 373.839 99.7536 373.9 99.7875C382.567 104.688 391.228 109.568 399.883 114.429C401.95 115.586 403.15 116.831 403.15 118.619C403.161 138.219 403.039 157.816 402.783 177.41C402.783 177.812 402.739 178.22 402.65 178.635C402.594 178.946 402.378 179.208 402 179.422L390.467 186.16C390.044 186.4 389.833 186.694 389.833 187.044V221.257C389.833 221.6 389.622 221.895 389.2 222.142L383.35 225.535C383.265 225.582 383.158 225.615 383.042 225.627C382.926 225.64 382.806 225.632 382.698 225.605C382.589 225.578 382.497 225.533 382.432 225.475C382.367 225.418 382.333 225.351 382.333 225.282V128.857C382.333 128.526 382.133 128.244 381.733 128.011Z" fill="#E49311"/>
</svg>
