<svg width="1440" height="38" viewBox="0 0 1440 38" fill="none" xmlns="http://www.w3.org/2000/svg">
<path d="M1006.58 18.5371V21.1448L1002.15 21.9951C1001.7 22.0707 1001.29 22.2502 1000.93 22.5337L983.475 36.2522C982.979 36.6374 982.361 36.8469 981.717 36.8475H447.202C446.507 36.8468 445.831 36.5843 445.303 36.1105L429.742 21.9384C429.212 21.464 428.526 21.2016 427.815 21.2014C284.79 21.5982 141.765 20.9464 -1.28816 21.9951C-3.47066 22.0235 -5.31303 20.4078 -2.76205 18.5938C-2.28183 18.2618 -1.70843 18.0839 -1.11809 18.0836L50.2983 18.2253C50.7605 18.2258 51.2164 18.1124 51.6264 17.8951C52.0364 17.6777 52.3881 17.363 52.6509 16.9782L63.365 1.24716C63.6278 0.86236 63.9795 0.547614 64.3895 0.330259C64.7995 0.112904 65.2554 -0.000483891 65.7175 3.10091e-06H573.362C573.847 -0.00071751 574.324 0.124169 574.746 0.36261C575.169 0.60105 575.522 0.944852 575.772 1.36047L585.38 17.0916C585.63 17.5073 585.983 17.8509 586.406 18.0893C586.828 18.3278 587.305 18.4528 587.789 18.4521L1006.58 18.5371Z" fill="#E49311" fill-opacity="0.75"/>
<path d="M1175.93 23.3833C1172.38 21.7771 1168.6 21.267 1164.59 21.8528L1158.92 22.0794C1154.37 21.4936 1151.05 22.8447 1148.98 26.1326C1146.33 30.3653 1143 33.1338 1138.97 34.4376C1131.88 36.724 1131.16 35.4297 1136.79 30.5545C1139.21 28.4759 1141.85 26.7656 1144.72 25.424C1150.53 22.7029 1150.23 21.5504 1143.85 21.9661C1142.62 22.0417 1141.4 22.174 1140.19 22.3629C1139.81 22.4256 1139.45 22.5661 1139.13 22.7757C1138.81 22.9854 1138.53 23.2597 1138.32 23.5817C1134.97 28.5703 1131.22 32.2834 1127.07 34.721C1126.31 35.1745 1125.52 35.4579 1124.68 35.5713C1118.41 36.4972 1117.86 35.1272 1123.04 31.4613L1134.38 23.4966C1134.71 23.2654 1135 23.0242 1135.2 22.8198C1135.4 22.6154 1135.49 22.4627 1135.46 22.3913C1134.92 20.2655 1126.41 22.7881 1124.91 23.3833C1116.55 16.5523 1107.76 30.9228 1101.56 34.721C1100.88 35.1367 1100.16 35.4201 1099.4 35.5713C1093.11 36.7428 1092.51 35.3918 1097.62 31.5181L1106.77 24.5737C1106.98 24.418 1107.15 24.2202 1107.27 23.9933C1107.39 23.7664 1107.47 23.5158 1107.49 23.2582C1107.51 23.0006 1107.47 22.742 1107.38 22.4996C1107.29 22.2572 1107.15 22.0367 1106.97 21.8528C1104.39 19.2734 1091.13 33.2754 1088.8 34.7493C1087.86 35.3351 1086.83 35.628 1085.71 35.628C1082.48 35.5713 1082.09 34.5037 1084.55 32.4251L1093.11 25.1974C1093.5 24.8635 1093.97 24.6385 1094.47 24.5453C1100.86 23.506 1099.93 22.2024 1091.69 20.634C1091.13 20.5262 1090.54 20.5931 1090.01 20.826C1089.49 21.0589 1089.05 21.4467 1088.74 21.9377C1086.27 25.9815 1083.14 29.4396 1079.36 32.3118C1077.21 33.9557 1075.11 34.9288 1073.07 35.2311C1068.52 35.8736 1068.06 34.7965 1071.71 31.9999L1080.58 25.1406C1083.76 22.703 1083.35 21.6259 1079.36 21.9093C1076.7 22.0983 1074.44 23.5345 1072.59 26.2177L1070.35 24.2052C1072.37 24.1863 1073.02 23.5628 1072.3 22.3346C1072.16 22.0842 1071.94 21.883 1071.68 21.7568C1071.42 21.6305 1071.12 21.5849 1070.83 21.626L1063.8 22.7031C1063.39 22.7659 1063 22.915 1062.66 23.1401C1062.32 23.3651 1062.03 23.6608 1061.82 24.0068C1058.87 28.7686 1055.01 32.2267 1050.22 34.3809C1043.42 37.4231 1042.56 36.2137 1047.65 30.7527C1049.74 28.4852 1052.12 26.5956 1054.79 25.0839C1056.98 23.8556 1056.91 22.7692 1054.59 21.8244C1053.68 21.4654 1052.71 21.4654 1051.67 21.8244C1048.38 22.9582 1041.89 32.2267 1037.78 34.721C1036.67 35.3823 1035.48 35.6657 1034.21 35.5713C1031.09 35.3256 1030.77 34.2485 1033.25 32.34L1042.57 25.0839C1046.8 21.7959 1046.3 20.7283 1041.07 21.881C1040.58 21.9943 1040.09 22.1267 1039.6 22.2778C1034.98 23.7801 1029.9 31.9999 1025.03 34.721C1024.35 35.0989 1023.65 35.354 1022.93 35.4863C1016.22 36.7902 1015.64 35.4391 1021.17 31.4331L1028.4 26.2177C1032.1 23.5345 1031.67 22.1645 1027.1 22.1078L1013.69 21.9377C1013.2 21.9294 1012.73 22.0477 1012.3 22.2811C1011.87 22.5146 1011.51 22.8553 1011.25 23.27C1008.44 27.7862 1004.79 31.3669 1000.31 34.0124C998.799 34.9005 997.268 35.3539 995.719 35.3728C991.996 35.4484 991.628 34.362 994.613 32.1134L1007.68 22.2778C1007.79 22.1912 1007.87 22.0692 1007.9 21.9341C1007.93 21.7989 1007.92 21.6595 1007.85 21.5408C1007.66 21.1818 1007.24 21.0497 1006.57 21.1442V18.5364C1147.94 17.9884 1289.31 17.686 1430.69 17.6293C1431.94 17.6293 1433.11 17.7429 1434.2 17.9696C1449.57 21.2576 1429.61 22.6179 1428.9 22.6179C1349.88 22.7124 1270.84 22.7124 1191.78 22.6179C1191.28 22.619 1190.78 22.7533 1190.35 23.0072C1189.92 23.261 1189.56 23.6254 1189.31 24.0635C1186.02 29.9402 1181.86 33.5589 1176.81 34.9194C1171.07 36.4689 1170.25 35.439 1174.37 31.8298C1176.43 30.0158 1178.54 28.2585 1180.69 26.5578C1184.72 23.4022 1184.19 22.0606 1179.11 22.533C1178.01 22.6275 1176.95 22.9109 1175.93 23.3833Z" fill="#E49311" fill-opacity="0.75"/>
<path d="M1016.28 31.8469C1020.65 28.5913 1023.49 25.0058 1022.62 23.8386C1021.75 22.6714 1017.5 24.3643 1013.13 27.62C1008.77 30.8756 1005.93 34.461 1006.8 35.6283C1007.67 36.7955 1011.92 35.1026 1016.28 31.8469Z" fill="#E49311" fill-opacity="0.75"/>
<path d="M1124.91 23.384C1122.59 28.9205 1118.97 32.5202 1114.06 34.1831C1107.14 36.5262 1106.38 35.2508 1111.79 30.3567C1115.49 27.0121 1119.87 24.6878 1124.91 23.384Z" fill="#E49311" fill-opacity="0.75"/>
<path d="M1175.93 23.384C1172.72 30.1299 1168.96 33.9658 1164.65 34.8917C1147.81 38.5198 1172.96 24.2343 1175.93 23.384Z" fill="#E49311" fill-opacity="0.75"/>
<path d="M1070.35 24.2061L1072.59 26.2186C1069.05 31.1504 1064.44 34.4478 1058.76 36.1107C1058.54 36.1705 1058.32 36.173 1058.11 36.1181C1057.9 36.0632 1057.71 35.9528 1057.57 35.7989L1057.06 35.2604C1056.97 35.1597 1056.93 35.0108 1056.96 34.8398C1056.99 34.6688 1057.07 34.4864 1057.2 34.325C1060.83 29.9033 1065.21 26.5303 1070.35 24.2061Z" fill="#E49311" fill-opacity="0.75"/>
<path d="M1158.93 23.9799C1160.72 23.4886 1161.94 23.9988 1162.58 25.5105C1158.88 30.8014 1153.9 33.9948 1147.64 35.0908C1140.95 36.2813 1158.27 24.4334 1158.93 23.9799Z" fill="#E49311" fill-opacity="0.75"/>
</svg>
