<svg width="203" height="32" viewBox="0 0 203 32" fill="none" xmlns="http://www.w3.org/2000/svg">
<g clip-path="url(#clip0_1284_2331)">
<path d="M0.845703 0L16.6478 15.632L32.4499 0H0.845703Z" fill="#1B3E6C"/>
<path d="M0.845703 31.264L16.6478 15.632L0.845703 0V31.264Z" fill="#F7941D"/>
<path d="M32.4525 31.2638V15.6318L16.6504 31.2638H32.4525Z" fill="#40C4E0"/>
<path d="M24.5488 23.4482L16.6478 31.2642H0.845703L8.74675 23.4482H24.5488Z" fill="#725BA7"/>
<path d="M16.6491 15.6318L8.74805 23.4478H24.5501L16.6491 15.6318Z" fill="#DC4E3A"/>
<path d="M24.5469 7.816L32.4479 15.632V0L24.5469 7.816Z" fill="#00B388"/>
<path d="M32.4479 15.6324L24.5469 7.81641L16.6458 15.6324L24.5469 23.4484L32.4479 15.6324Z" fill="#F5DF2E"/>
<path d="M55.1987 0H45.1387V31.264H54.8883C61.3972 31.264 70.8319 27.2815 70.8319 15.7042C70.8319 4.12699 60.6441 0 55.1987 0ZM54.6738 25.218H52.3551V6.046H55.007C57.3029 6.046 63.2778 7.59926 63.2778 15.7042C63.2778 23.8092 56.705 25.218 54.6738 25.218Z" fill="white"/>
<path d="M89.9867 10.8736V13.7318L89.124 12.7745C88.2476 11.7992 86.3078 10.1602 83.1355 10.1602C80.3512 10.1602 77.6307 11.2348 75.8461 13.0319C74.6776 14.2104 72.7148 16.8473 72.7148 21.2498C72.7148 24.2795 73.6095 26.5959 75.6178 28.7632C77.6353 30.9125 80.0819 32.0052 82.8935 32.0052C84.4409 32.0052 87.3028 31.635 89.0875 29.147L89.9821 27.9008V31.2873H95.925V10.8736H89.9821H89.9867ZM84.2264 26.4514C81.2777 26.4514 78.886 24.0357 78.886 21.0556C78.886 18.0755 81.2777 15.6598 84.2264 15.6598C87.175 15.6598 89.5668 18.0755 89.5668 21.0556C89.5668 24.0357 87.175 26.4514 84.2264 26.4514Z" fill="white"/>
<path d="M131.797 10.8736V13.7318L130.934 12.7745C130.058 11.7992 128.118 10.1602 124.945 10.1602C122.161 10.1602 119.441 11.2348 117.66 13.0319C116.492 14.2104 114.529 16.8473 114.529 21.2498C114.529 24.2795 115.424 26.5959 117.432 28.7632C119.45 30.9125 121.901 32.0052 124.708 32.0052C126.255 32.0052 129.113 31.635 130.902 29.147L131.797 27.9008V31.2873H137.739V10.8736H131.797ZM126.036 26.4514C123.088 26.4514 120.696 24.0357 120.696 21.0556C120.696 18.0755 123.088 15.6598 126.036 15.6598C128.985 15.6598 131.377 18.0755 131.377 21.0556C131.377 24.0357 128.985 26.4514 126.036 26.4514Z" fill="white"/>
<path d="M102.301 0.00927734V10.8776H99.877V16.156H102.301V31.2823H108.901V16.156H113.219V10.8776H108.901V0.00927734H102.301Z" fill="white"/>
<path d="M191.666 0V31.2866H198.271V16.1603H202.584V10.8774H198.271V0H191.666Z" fill="white"/>
<path d="M161.145 20.6711H152.112L156.567 7.36447L161.145 20.6711ZM164.892 31.264H172.41L160.752 0H152.536L140.65 31.2595H148.081L150.259 25.7869H162.907L164.892 31.2595V31.264Z" fill="white"/>
<path d="M174.807 31.2866H181.407V22.6308C181.407 21.7593 181.407 19.1088 183.269 17.3885C184.205 16.5261 185.446 16.1107 187.071 16.1107C188.19 16.1107 189.413 16.1378 189.851 16.1468V10.8955C189.545 10.8774 188.536 10.8232 188.536 10.8232C187.258 10.8232 186.053 10.8232 185.127 11.329C183.94 11.9295 182.977 12.8822 182.338 14.0968L181.407 15.8578V10.8774H174.807V31.2866Z" fill="white"/>
</g>
<defs>
<clipPath id="clip0_1284_2331">
<rect width="201.739" height="32" fill="white" transform="translate(0.845703)"/>
</clipPath>
</defs>
</svg>
