<svg width="159" height="46" viewBox="0 0 159 46" fill="none" xmlns="http://www.w3.org/2000/svg">
<path d="M27.7319 11.1001L27.7188 11.0869L27.7319 11.1001Z" fill="white"/>
<path d="M27.6843 44.335C27.7179 44.3572 27.7741 44.4015 27.8189 44.4348C27.7741 44.4015 27.7292 44.3683 27.6843 44.335Z" fill="white"/>
<path d="M33.0256 0C30.0966 0 27.7288 2.34162 27.7288 5.23812V10.0545C27.7288 10.4207 27.4146 10.7204 27.0443 10.7204C26.9545 10.7204 26.8759 10.7093 26.7974 10.676C26.7974 10.676 26.8086 10.676 26.8198 10.676C24.5979 9.76598 22.1739 9.25549 19.6153 9.25549C9.30228 9.25549 0.953125 17.4789 0.953125 27.6333C0.953125 37.7877 9.30229 46 19.6041 46C21.5455 46 23.4195 45.8668 25.1702 45.323C25.8884 45.1011 26.5954 44.8347 27.2799 44.524C27.3136 44.5129 27.5156 44.413 27.639 44.413C27.7512 44.413 27.8522 44.4463 27.9308 44.5018C27.9308 44.5018 27.9308 44.5018 27.9196 44.5018C29.8049 45.7558 32.1727 45.8113 32.5206 45.8113C32.6665 45.8113 32.6552 45.8113 32.6552 45.8113C32.6552 45.8113 32.6552 45.8113 32.6665 45.8113C35.6403 45.8113 38.2214 43.503 38.3111 40.5732V5.23812C38.3111 2.35271 35.9433 0 33.0143 0H33.0256ZM27.6951 44.3353C27.5717 44.4019 27.437 44.4574 27.3136 44.5129C27.437 44.4574 27.5717 44.3908 27.6951 44.3353C27.74 44.3686 27.7849 44.4019 27.8298 44.4352C27.7849 44.4019 27.7288 44.3575 27.6951 44.3353ZM29.3223 37.5435C24.3398 39.863 21.0293 37.4992 21.9944 35.6347C22.7013 34.2697 24.8447 31.351 24.3398 28.9428C23.7338 26.0796 20.9844 23.8601 18.033 22.3952C15.0816 20.9414 12.6128 19.4321 13.1963 15.903C13.7237 12.7513 17.2923 11.6859 20.5018 11.6859C20.5018 11.6859 23.0492 11.697 24.2724 11.9966C25.0467 12.1853 25.2936 12.2963 24.654 12.829C24.1265 13.2618 22.8921 14.2717 24.048 15.6256C25.9782 17.8895 30.3211 17.6454 33.4071 21.0856C34.7538 22.5838 35.6964 25.0142 35.6964 27.0784C35.6964 27.0784 36.3922 34.2697 29.3335 37.5435H29.3223Z" fill="white"/>
<path d="M66.3555 1.11035V29.6759C66.3555 31.7733 66.4004 34.1704 66.5575 35.7796H62.6522L62.4502 31.6734H62.3492C61.0138 34.3147 58.1522 36.3123 54.2469 36.3123C48.4676 36.3123 43.9788 31.4737 43.9788 24.3046C43.9339 16.3919 48.9165 11.6088 54.6958 11.6088C58.3991 11.6088 60.8679 13.3178 61.9003 15.1711H62.0013V1.11035H66.3442H66.3555ZM62.0126 21.7632C62.0126 21.175 61.9677 20.498 61.8106 19.9099C61.1709 17.2242 58.8031 14.9825 55.5375 14.9825C51.0487 14.9825 48.3778 18.8889 48.3778 24.0604C48.3778 28.899 50.8018 32.8498 55.4365 32.8498C58.3542 32.8498 61.0138 30.8966 61.8106 27.7227C61.9564 27.1345 62.0126 26.5463 62.0126 25.8693V21.7632Z" fill="white"/>
<path d="M73.4052 7.80218C71.778 7.80218 70.6895 6.53704 70.6895 5.01666C70.6895 3.49627 71.8229 2.28662 73.5062 2.28662C75.1895 2.28662 76.2668 3.50737 76.2668 5.01666C76.2668 6.52595 75.1782 7.80218 73.4501 7.80218H73.4052ZM71.3291 35.7795V12.1525H75.672V35.7906H71.3291V35.7795Z" fill="white"/>
<path d="M98.1119 30.1192C98.1119 32.1723 98.2128 34.1699 98.4597 35.7791H94.5657L94.1729 32.8049H94.0271C92.7477 34.6582 90.133 36.3229 86.7215 36.3229C81.8849 36.3229 79.416 32.9492 79.416 29.5311C79.416 23.8157 84.5557 20.6973 93.7802 20.7417V20.2534C93.7802 18.3002 93.2415 14.7378 88.3487 14.7822C86.0819 14.7822 83.7589 15.4148 82.0756 16.5356L81.0881 13.6502C83.0632 12.4295 85.9809 11.5972 88.9884 11.5972C96.35 11.5972 98.1231 16.5246 98.1231 21.2633V30.0971L98.1119 30.1192ZM93.8699 23.7159C89.1343 23.616 83.7477 24.4483 83.7477 29.0428C83.7477 31.8727 85.6218 33.1489 87.7988 33.1489C90.9522 33.1489 92.9834 31.1957 93.6792 29.1981C93.825 28.7542 93.8699 28.2659 93.8699 27.8331V23.727V23.7159Z" fill="white"/>
<path d="M102.488 1.11035H106.831V35.7796H102.488V1.11035Z" fill="white"/>
<path d="M121.803 36.3225C115.384 36.3225 110.346 31.6393 110.346 24.1594C110.346 16.2468 115.631 11.6079 122.196 11.6079C128.761 11.6079 133.699 16.5353 133.699 23.7155C133.699 32.5049 127.527 36.3114 121.848 36.3114H121.803V36.3225ZM121.949 33.1042C126.101 33.1042 129.21 29.2422 129.21 23.8709C129.21 19.8646 127.19 14.8373 122.05 14.8373C116.911 14.8373 114.745 19.5206 114.745 24.0151C114.745 29.1978 117.707 33.0931 121.904 33.0931H121.949V33.1042Z" fill="white"/>
<path d="M158.296 32.3178C158.296 37.789 157.163 41.0628 154.885 43.1603C152.517 45.2578 149.162 45.9902 146.143 45.9902C143.124 45.9902 140.117 45.3022 138.198 44.037L139.286 40.7188C140.868 41.7398 143.337 42.6276 146.3 42.6276C150.744 42.6276 154.009 40.3304 154.009 34.3265V31.7408H153.908C152.629 33.9381 150.003 35.6915 146.3 35.6915C140.375 35.6915 136.133 30.7087 136.133 24.1166C136.133 16.1041 141.418 11.6206 146.94 11.6206C151.092 11.6206 153.314 13.7181 154.391 15.6713H154.492L154.638 12.1533H158.487C158.341 13.818 158.285 15.7157 158.285 18.6011V32.3178H158.296ZM153.953 21.431C153.953 20.7429 153.908 20.1104 153.706 19.5222C152.921 16.9808 150.845 14.9277 147.635 14.9277C143.483 14.9277 140.521 18.3902 140.521 23.9169C140.521 28.5113 142.945 32.4177 147.579 32.4177C150.295 32.4177 152.719 30.7531 153.605 27.9786C153.852 27.2906 153.953 26.4582 153.953 25.6814V21.431Z" fill="white"/>
</svg>
