<svg width="33" height="33" viewBox="0 0 33 33" fill="none" xmlns="http://www.w3.org/2000/svg">
<path fill-rule="evenodd" clip-rule="evenodd" d="M0.5 16.5C0.5 7.66344 7.66344 0.5 16.5 0.5C25.3366 0.5 32.5 7.66344 32.5 16.5C32.5 25.3366 25.3366 32.5 16.5 32.5C7.66344 32.5 0.5 25.3366 0.5 16.5ZM16.5 8.5C20.9 8.5 24.5 12.1 24.5 16.5C24.5 20.5 21.6 23.9 17.6 24.5V18.8H19.5L19.9 16.5H17.7V15C17.7 14.4 18 13.8 19 13.8H20V11.8C20 11.8 19.1 11.6 18.2 11.6C16.4 11.6 15.2 12.7 15.2 14.7V16.5H13.2V18.8H15.2V24.4C11.4 23.8 8.5 20.5 8.5 16.5C8.5 12.1 12.1 8.5 16.5 8.5Z" fill="black"/>
</svg>
