<svg width="159" height="53" viewBox="0 0 159 53" fill="none" xmlns="http://www.w3.org/2000/svg">
<g clip-path="url(#clip0_1284_2416)">
<path d="M10.9419 7.9568C8.12045 8.93076 5.32225 11.7528 5.27574 14.6265C5.24215 16.5033 5.26153 21.1208 5.33388 28.4788C5.33904 28.9308 5.38297 29.3576 5.46565 29.7591C5.4714 29.7891 5.4885 29.8165 5.51414 29.8368C5.53978 29.8571 5.57243 29.869 5.60672 29.8706C5.641 29.8722 5.67488 29.8634 5.70278 29.8456C5.73067 29.8279 5.75092 29.8022 5.76019 29.7728C6.59733 27.2169 7.54686 24.692 8.60878 22.198C10.0118 18.8975 11.438 16.6192 15.1586 15.6865C16.0242 15.4686 18.3689 15.3539 22.1929 15.3424C24.2702 15.3355 26.3488 15.3321 28.4287 15.3321C31.4479 15.3321 33.5988 14.833 34.6879 12.3104C35.2189 11.0817 35.0483 9.43323 35.0832 8.02563C35.0848 7.97279 35.0744 7.92021 35.0527 7.871C35.031 7.82178 34.9984 7.77692 34.9568 7.73907C34.9153 7.70122 34.8656 7.67114 34.8108 7.65061C34.7559 7.63008 34.697 7.61951 34.6375 7.61953C27.6975 7.59429 20.8196 7.56331 14.0037 7.5266C12.8151 7.51972 11.7945 7.66312 10.9419 7.9568Z" stroke="#809DC1" stroke-width="2"/>
<path d="M20.9413 26.4485C22.706 26.4003 24.5262 26.3888 26.402 26.4141C28.9406 26.4519 30.7466 25.8152 31.9093 23.8639C32.8511 22.2808 32.5682 19.7856 32.5759 17.91C32.5759 17.8607 32.5535 17.8134 32.5135 17.7786C32.4735 17.7437 32.4193 17.7242 32.3628 17.7242C27.8593 17.731 23.339 17.731 18.8019 17.7242C16.4107 17.7207 14.7907 18.0201 13.2327 19.4759C12.6022 20.0633 11.9485 21.1841 11.2716 22.8383C9.32603 27.6083 7.3585 32.4139 5.36901 37.255C5.35651 37.2858 5.35259 37.3188 5.35756 37.3512C5.36254 37.3837 5.37627 37.4145 5.39758 37.4413C5.4189 37.468 5.44717 37.4897 5.47998 37.5046C5.5128 37.5195 5.54919 37.5271 5.58605 37.5269C7.89075 37.5154 10.2239 37.5097 12.5854 37.5097C14.3992 37.5097 16.1859 37.1517 16.8137 35.6271C17.9196 32.9519 19.0874 30.0289 20.3173 26.858C20.3627 26.7415 20.4467 26.6399 20.5581 26.5667C20.6696 26.4936 20.8032 26.4524 20.9413 26.4485Z" stroke="#809DC1" stroke-width="2"/>
<path d="M45.6758 29.4736L54.0355 29.4771C54.1341 29.4771 54.2288 29.4423 54.2986 29.3803C54.3683 29.3183 54.4075 29.2343 54.4075 29.1467L54.4114 25.6845C54.4114 25.6261 54.3853 25.57 54.3388 25.5287C54.2922 25.4874 54.2292 25.4642 54.1634 25.4642L45.885 25.4711C45.769 25.4708 45.6572 25.4327 45.5713 25.364C45.4854 25.2954 45.4315 25.2011 45.42 25.0994C45.3192 24.2046 45.1525 21.8024 46.7532 21.7783C49.6857 21.7347 52.5434 21.7278 55.3261 21.7577C55.7162 21.7622 55.9087 21.5913 55.9035 21.2449L55.8609 18.089C55.8599 18.0244 55.8306 17.9628 55.7792 17.9172C55.7278 17.8715 55.6584 17.8455 55.5857 17.8446C51.3949 17.8171 47.1898 17.8125 42.9706 17.8308C41.1929 17.84 39.9282 18.4882 39.1763 19.7753C38.8223 20.3787 38.6441 21.277 38.6415 22.4701C38.6312 27.3869 38.6376 32.3278 38.6609 37.2928C38.6619 37.378 38.7003 37.4594 38.7678 37.5194C38.8353 37.5793 38.9264 37.6129 39.0213 37.6129H45.0905C45.1412 37.6129 45.1915 37.604 45.2383 37.5866C45.2851 37.5693 45.3275 37.5439 45.3632 37.5119C45.3989 37.4799 45.4271 37.4419 45.4461 37.4002C45.4652 37.3585 45.4747 37.3138 45.4742 37.2688L45.4122 29.7111C45.4117 29.6801 45.4181 29.6493 45.4311 29.6205C45.4442 29.5917 45.4635 29.5655 45.488 29.5434C45.5125 29.5213 45.5418 29.5037 45.574 29.4918C45.6062 29.4798 45.6408 29.4736 45.6758 29.4736Z" stroke="#809DC1" stroke-width="2"/>
<path d="M76.216 17.8272C76.0046 17.8272 75.8017 17.9013 75.6515 18.0334C75.5012 18.1655 75.4158 18.345 75.4138 18.5327L75.3673 21.4271C75.3657 21.5273 75.3879 21.6267 75.4325 21.7187C75.477 21.8108 75.543 21.8935 75.626 21.9614C75.7091 22.0293 75.8073 22.0808 75.9143 22.1127C76.0213 22.1446 76.1347 22.156 76.247 22.1464L80.2234 21.8022C80.3969 21.7876 80.5603 21.7234 80.6889 21.6191C80.8176 21.5147 80.9045 21.3761 80.9365 21.224L81.483 18.6635C81.5047 18.5605 81.5005 18.4545 81.4707 18.3531C81.441 18.2517 81.3864 18.1574 81.3109 18.0769C81.2354 17.9963 81.1408 17.9316 81.0339 17.8873C80.927 17.8429 80.8104 17.8201 80.6924 17.8203L76.216 17.8272Z" stroke="#809DC1" stroke-width="2"/>
<path d="M89.3776 21.8676C89.5392 21.8567 89.692 21.7984 89.812 21.7018C89.932 21.6052 90.0124 21.4758 90.0404 21.3341L90.583 18.5809C90.6011 18.4878 90.596 18.3922 90.5681 18.301C90.5402 18.2098 90.4901 18.1252 90.4214 18.053C90.3527 17.9808 90.267 17.9229 90.1704 17.8833C90.0737 17.8437 89.9685 17.8234 89.8621 17.8237H85.5408C85.3495 17.8237 85.1659 17.8905 85.0296 18.0096C84.8933 18.1287 84.8152 18.2906 84.8121 18.4604L84.7501 21.4615C84.7482 21.5515 84.7675 21.6409 84.8068 21.7239C84.846 21.807 84.9043 21.8818 84.978 21.9437C85.0517 22.0056 85.1391 22.0531 85.2347 22.0833C85.3303 22.1134 85.4319 22.1255 85.533 22.1188L89.3776 21.8676Z" stroke="#809DC1" stroke-width="2"/>
<path d="M100.09 27.1711C99.7902 27.2606 99.6404 27.1643 99.6404 26.882L99.6287 18.0545C99.6287 18.0216 99.6215 17.9891 99.6074 17.9588C99.5933 17.9285 99.5727 17.9011 99.5467 17.878C99.5208 17.855 99.49 17.8368 99.4562 17.8245C99.4223 17.8123 99.3861 17.8062 99.3497 17.8067L94.1563 17.8342C94.0943 17.8351 94.0352 17.8576 93.9917 17.8969C93.9482 17.9362 93.9238 17.989 93.9238 18.0441L93.9199 37.3409C93.9199 37.5245 94.0233 37.6174 94.23 37.6197H99.4039C99.5719 37.6197 99.6559 37.544 99.6559 37.3926L99.6326 32.182C99.6321 32.1133 99.6481 32.0452 99.6795 31.9823C99.7109 31.9194 99.757 31.863 99.8147 31.8169C99.8725 31.7707 99.9407 31.7359 100.015 31.7146C100.089 31.6933 100.167 31.6861 100.245 31.6933L102.419 31.8998C102.595 31.9168 102.758 31.9912 102.876 32.1087C102.994 32.2263 103.059 32.3786 103.059 32.5365V37.1861C103.059 37.3029 103.111 37.4149 103.203 37.4976C103.295 37.5802 103.42 37.6266 103.551 37.6266H108.368C108.683 37.6266 108.84 37.4866 108.837 37.2067C108.824 35.3988 108.788 33.6883 108.729 32.0754C108.655 30.0655 106.419 29.742 104.621 29.5493C104.573 29.5444 104.529 29.5277 104.491 29.5012C104.454 29.4747 104.427 29.4395 104.411 29.3995C104.396 29.3595 104.393 29.3165 104.404 29.2754C104.415 29.2343 104.439 29.1968 104.473 29.1672L109.256 24.8963C109.703 24.497 109.61 24.3032 108.977 24.3146L103.83 24.3972C103.779 24.3973 103.73 24.4091 103.686 24.4317C102.271 25.1452 101.404 25.7704 101.086 26.3073C100.812 26.7685 100.48 27.0564 100.09 27.1711Z" stroke="#809DC1" stroke-width="2"/>
<path d="M146.65 29.1605C146.575 29.2885 146.466 29.3982 146.332 29.4798C146.198 29.5614 146.044 29.6125 145.883 29.6285C144.382 29.7776 142.859 29.9497 141.314 30.1447C139.528 30.3673 138.549 31.2621 138.376 32.8292C138.085 35.4757 138.384 37.3238 141.814 37.8125C144.213 38.1567 152.72 38.7486 152.735 35.5342C152.751 32.6938 152.77 29.8545 152.793 27.0164C152.82 23.296 143.081 24.036 140.593 24.4662C140.407 24.4983 140.31 24.5969 140.302 24.7621L140.155 27.388C140.154 27.4215 140.16 27.4548 140.175 27.4857C140.189 27.5166 140.211 27.5444 140.238 27.5673C140.266 27.5901 140.299 27.6074 140.334 27.6181C140.37 27.6287 140.408 27.6324 140.445 27.629C142.037 27.4775 143.629 27.3697 145.22 27.3054C145.83 27.2802 146.273 27.3789 146.55 27.6014C147.004 27.9685 147.038 28.4882 146.65 29.1605Z" stroke="#809DC1" stroke-width="2"/>
<path d="M135.078 27.6048H138.086C138.149 27.6048 138.21 27.5824 138.255 27.5423C138.301 27.5023 138.326 27.4481 138.326 27.3915L138.279 24.535C138.279 24.4755 138.253 24.4184 138.208 24.375C138.163 24.3317 138.101 24.3053 138.035 24.3009C135.264 24.0876 131.013 23.6092 129.404 26.3934C129.063 26.9831 128.896 27.8733 128.904 29.0641C128.922 31.815 128.917 34.5683 128.889 37.3238C128.889 37.3944 128.92 37.4622 128.976 37.5124C129.032 37.5626 129.108 37.5913 129.187 37.5922L134.171 37.6507C134.211 37.6512 134.25 37.6447 134.287 37.6316C134.323 37.6185 134.357 37.599 134.385 37.5744C134.413 37.5497 134.435 37.5203 134.45 37.488C134.466 37.4556 134.473 37.4208 134.473 37.3857C134.463 34.644 134.466 31.8724 134.481 29.0709C134.484 28.5731 134.559 28.1589 134.706 27.8285C134.736 27.7624 134.787 27.7057 134.853 27.6658C134.92 27.6259 134.998 27.6047 135.078 27.6048Z" stroke="#809DC1" stroke-width="2"/>
<path d="M66.1821 33.2283C66.1589 35.159 63.1475 35.2347 63.101 33.4657C63.0493 31.4444 63.0286 28.4915 63.039 24.6072C63.039 24.4833 62.9705 24.4213 62.8336 24.4213L57.3147 24.38C57.2884 24.3796 57.2623 24.3838 57.2378 24.3924C57.2134 24.401 57.1912 24.4138 57.1724 24.4302C57.1536 24.4465 57.1387 24.466 57.1286 24.4876C57.1184 24.5091 57.1131 24.5322 57.1131 24.5555C57.0692 27.7562 57.0718 30.9683 57.1209 34.1919C57.1984 39.251 72.1234 39.454 72.1234 33.9957C72.126 30.8937 72.1247 27.7745 72.1196 24.6381C72.1196 24.4982 72.0408 24.427 71.8832 24.4248L66.5154 24.3697C66.3604 24.3674 66.2829 24.4351 66.2829 24.5727C66.2493 27.4682 66.2157 30.3534 66.1821 33.2283Z" stroke="#809DC1" stroke-width="2"/>
<path d="M75.37 37.0793C75.3739 39.2097 74.2112 38.838 72.4323 38.9034C72.2747 38.9102 72.1881 38.9837 72.1726 39.1236L72.0137 40.6758C72.0074 40.7417 72.0161 40.8082 72.0396 40.871C72.063 40.9338 72.1005 40.9917 72.1499 41.041C72.1993 41.0904 72.2594 41.1301 72.3267 41.1579C72.3939 41.1856 72.4668 41.2007 72.5408 41.2023C74.2177 41.2413 75.8351 41.2505 77.3931 41.2298C79.048 41.2092 80.1797 40.7239 80.8889 39.454C81.1731 38.9447 81.3165 38.0877 81.3191 36.8832C81.3346 32.7671 81.3359 28.6406 81.323 24.5039C81.323 24.4144 81.2726 24.3697 81.1718 24.3697L75.5948 24.3662C75.5445 24.3662 75.4962 24.384 75.4605 24.4156C75.4249 24.4472 75.4049 24.4901 75.4049 24.5348C75.3765 28.729 75.3649 32.9105 75.37 37.0793Z" stroke="#809DC1" stroke-width="2"/>
<path d="M90.4165 24.5451C90.4165 24.5004 90.3965 24.4575 90.3609 24.4259C90.3252 24.3942 90.2769 24.3765 90.2266 24.3765H84.979C84.954 24.3765 84.9293 24.3808 84.9063 24.3893C84.8833 24.3978 84.8623 24.4102 84.8447 24.4259C84.8271 24.4415 84.8131 24.4601 84.8035 24.4806C84.794 24.501 84.7891 24.523 84.7891 24.5451V37.4509C84.7891 37.4731 84.794 37.495 84.8035 37.5155C84.8131 37.5359 84.8271 37.5545 84.8447 37.5702C84.8623 37.5859 84.8833 37.5983 84.9063 37.6067C84.9293 37.6152 84.954 37.6196 84.979 37.6196H90.2266C90.2769 37.6196 90.3252 37.6018 90.3609 37.5702C90.3965 37.5386 90.4165 37.4957 90.4165 37.4509V24.5451Z" stroke="#809DC1" stroke-width="2"/>
<path d="M120.328 32.9496C120.347 35.3277 117.045 34.9767 117.034 33.5588C117.008 30.5577 117.001 27.5555 117.014 24.5522C117.014 24.4329 116.947 24.3733 116.813 24.3733L111.492 24.3526C111.365 24.3503 111.3 24.4065 111.298 24.5212C111.238 27.8481 111.249 31.1749 111.329 34.5018C111.367 36.109 113.135 37.0244 114.677 37.4649C117.693 38.3219 123.762 38.4389 125.696 35.6099C126.042 35.1052 126.216 34.3412 126.219 33.3179C126.229 30.3857 126.231 27.4649 126.223 24.5557C126.223 24.5055 126.2 24.4573 126.159 24.4218C126.119 24.3863 126.063 24.3664 126.006 24.3664L120.491 24.3595C120.372 24.3595 120.311 24.4123 120.309 24.5178C120.293 27.3399 120.3 30.1505 120.328 32.9496Z" stroke="#809DC1" stroke-width="2"/>
<path d="M144.722 32.7155C144.574 32.7541 144.44 32.8266 144.334 32.9258C144.228 33.0249 144.153 33.1471 144.117 33.2802L143.974 33.8207C143.944 33.9295 143.941 34.0427 143.966 34.1525C143.99 34.2623 144.041 34.3662 144.114 34.4571C144.188 34.5479 144.283 34.6236 144.392 34.679C144.502 34.7343 144.623 34.768 144.749 34.7778L145.912 34.8673C146.028 34.8762 146.145 34.8645 146.256 34.8329C146.367 34.8012 146.469 34.7502 146.558 34.6829C146.646 34.6156 146.719 34.5333 146.771 34.4408C146.823 34.3483 146.854 34.2475 146.862 34.1443L146.932 33.2285C146.941 33.1035 146.916 32.9784 146.86 32.8637C146.803 32.749 146.716 32.6482 146.606 32.5698C146.496 32.4913 146.366 32.4377 146.228 32.4133C146.09 32.3889 145.947 32.3946 145.811 32.4298L144.722 32.7155Z" stroke="#809DC1" stroke-width="2"/>
<path d="M0.632812 0H158.371V53H0.632812V0ZM10.942 7.95688C8.12053 8.93084 5.32232 11.7529 5.27581 14.6266C5.24223 16.5034 5.2616 21.1208 5.33395 28.4789C5.33912 28.9309 5.38304 29.3576 5.46572 29.7592C5.47147 29.7892 5.48857 29.8166 5.51421 29.8369C5.53985 29.8572 5.5725 29.8691 5.60679 29.8707C5.64108 29.8723 5.67495 29.8635 5.70285 29.8457C5.73075 29.828 5.751 29.8023 5.76027 29.7729C6.5974 27.217 7.54693 24.692 8.60885 22.1981C10.0118 18.8976 11.4381 16.6193 15.1587 15.6866C16.0242 15.4687 18.369 15.3539 22.1929 15.3425C24.2703 15.3356 26.3489 15.3321 28.4288 15.3321C31.4479 15.3321 33.5989 14.8331 34.688 12.3105C35.2189 11.0818 35.0484 9.43331 35.0833 8.02571C35.0848 7.97288 35.0744 7.9203 35.0527 7.87108C35.031 7.82187 34.9985 7.77701 34.9569 7.73916C34.9154 7.70131 34.8657 7.67123 34.8109 7.65069C34.756 7.63016 34.6971 7.61959 34.6376 7.61961C27.6976 7.59437 20.8197 7.5634 14.0037 7.52669C12.8152 7.51981 11.7946 7.6632 10.942 7.95688ZM20.9411 26.4484C22.7058 26.4002 24.5261 26.3887 26.4019 26.414C28.9404 26.4518 30.7464 25.8151 31.9091 23.8638C32.8509 22.2806 32.568 19.7855 32.5757 17.9099C32.5757 17.8606 32.5533 17.8133 32.5133 17.7785C32.4733 17.7436 32.4191 17.724 32.3626 17.724C27.8591 17.7309 23.3388 17.7309 18.8018 17.724C16.4105 17.7206 14.7905 18.02 13.2325 19.4758C12.602 20.0631 11.9484 21.1839 11.2714 22.8382C9.32585 27.6082 7.35832 32.4137 5.36883 37.2549C5.35633 37.2857 5.35241 37.3187 5.35738 37.3511C5.36236 37.3835 5.37609 37.4144 5.3974 37.4411C5.41872 37.4678 5.44699 37.4896 5.4798 37.5045C5.51262 37.5194 5.54901 37.527 5.58586 37.5268C7.89057 37.5153 10.2237 37.5095 12.5852 37.5095C14.399 37.5095 16.1857 37.1516 16.8136 35.627C17.9194 32.9518 19.0873 30.0287 20.3171 26.8579C20.3625 26.7413 20.4465 26.6398 20.5579 26.5666C20.6694 26.4935 20.803 26.4523 20.9411 26.4484ZM45.6754 29.4735L54.0351 29.4769C54.1338 29.4769 54.2284 29.4421 54.2982 29.3802C54.368 29.3182 54.4072 29.2342 54.4072 29.1466L54.411 25.6843C54.411 25.6259 54.3849 25.5699 54.3384 25.5286C54.2919 25.4873 54.2288 25.4641 54.163 25.4641L45.8846 25.471C45.7686 25.4707 45.6568 25.4326 45.5709 25.3639C45.485 25.2953 45.4311 25.201 45.4196 25.0993C45.3188 24.2045 45.1521 21.8023 46.7528 21.7782C49.6853 21.7346 52.543 21.7277 55.3257 21.7575C55.7158 21.7621 55.9083 21.5912 55.9031 21.2447L55.8605 18.0888C55.8595 18.0243 55.8302 17.9627 55.7788 17.917C55.7274 17.8714 55.658 17.8454 55.5853 17.8445C51.3945 17.8169 47.1894 17.8124 42.9702 17.8307C41.1925 17.8399 39.9278 18.4881 39.1759 19.7752C38.822 20.3786 38.6437 21.2769 38.6411 22.4699C38.6308 27.3868 38.6372 32.3277 38.6605 37.2927C38.6615 37.3779 38.6999 37.4593 38.7674 37.5192C38.8349 37.5792 38.926 37.6128 39.0209 37.6128H45.0901C45.1409 37.6128 45.1911 37.6039 45.2379 37.5865C45.2847 37.5692 45.3271 37.5438 45.3628 37.5118C45.3985 37.4798 45.4267 37.4418 45.4457 37.4001C45.4648 37.3583 45.4743 37.3137 45.4738 37.2686L45.4118 29.711C45.4113 29.68 45.4177 29.6492 45.4308 29.6204C45.4438 29.5916 45.4631 29.5654 45.4876 29.5433C45.5121 29.5212 45.5414 29.5036 45.5736 29.4916C45.6058 29.4797 45.6404 29.4735 45.6754 29.4735ZM76.2153 17.8273C76.0039 17.8273 75.801 17.9014 75.6507 18.0335C75.5005 18.1656 75.4151 18.345 75.413 18.5328L75.3665 21.4271C75.3649 21.5274 75.3871 21.6268 75.4317 21.7188C75.4763 21.8109 75.5423 21.8936 75.6253 21.9615C75.7084 22.0293 75.8066 22.0809 75.9136 22.1128C76.0206 22.1447 76.134 22.1561 76.2463 22.1464L80.2227 21.8023C80.3961 21.7877 80.5595 21.7234 80.6882 21.6191C80.8168 21.5148 80.9038 21.3762 80.9358 21.2241L81.4823 18.6636C81.5039 18.5606 81.4998 18.4546 81.47 18.3532C81.4403 18.2518 81.3857 18.1575 81.3102 18.0769C81.2347 17.9964 81.1401 17.9317 81.0332 17.8873C80.9263 17.843 80.8097 17.8201 80.6917 17.8204L76.2153 17.8273ZM89.3769 21.8677C89.5385 21.8568 89.6913 21.7985 89.8113 21.7019C89.9314 21.6053 90.0117 21.4759 90.0397 21.3342L90.5823 18.581C90.6004 18.4878 90.5953 18.3923 90.5674 18.3011C90.5395 18.2099 90.4894 18.1253 90.4207 18.0531C90.352 17.9809 90.2663 17.923 90.1697 17.8834C90.073 17.8438 89.9678 17.8235 89.8614 17.8238H85.5401C85.3488 17.8238 85.1652 17.8906 85.0289 18.0097C84.8926 18.1288 84.8145 18.2907 84.8114 18.4605L84.7494 21.4616C84.7475 21.5516 84.7668 21.641 84.8061 21.724C84.8453 21.8071 84.9036 21.8819 84.9773 21.9438C85.051 22.0057 85.1385 22.0532 85.234 22.0834C85.3296 22.1135 85.4312 22.1256 85.5323 22.1189L89.3769 21.8677ZM100.089 27.1711C99.7895 27.2606 99.6396 27.1642 99.6396 26.882L99.628 18.0544C99.628 18.0216 99.6207 17.9891 99.6066 17.9588C99.5926 17.9285 99.572 17.901 99.546 17.878C99.52 17.8549 99.4892 17.8367 99.4554 17.8245C99.4216 17.8122 99.3854 17.8062 99.3489 17.8066L94.1556 17.8342C94.0936 17.8351 94.0344 17.8576 93.9909 17.8968C93.9474 17.9361 93.923 17.989 93.923 18.0441L93.9192 37.3409C93.9192 37.5245 94.0225 37.6174 94.2292 37.6197H99.4032C99.5711 37.6197 99.6551 37.544 99.6551 37.3925L99.6319 32.182C99.6314 32.1133 99.6473 32.0452 99.6787 31.9823C99.7101 31.9193 99.7562 31.863 99.814 31.8168C99.8718 31.7707 99.94 31.7359 100.014 31.7146C100.088 31.6933 100.167 31.686 100.244 31.6933L102.418 31.8998C102.594 31.9168 102.757 31.9912 102.875 32.1087C102.993 32.2262 103.058 32.3786 103.058 32.5365V37.186C103.058 37.3029 103.11 37.4149 103.202 37.4975C103.294 37.5801 103.42 37.6266 103.55 37.6266H108.368C108.683 37.6266 108.839 37.4866 108.836 37.2067C108.824 35.3987 108.787 33.6883 108.728 32.0753C108.654 30.0655 106.418 29.7419 104.62 29.5492C104.573 29.5444 104.528 29.5277 104.491 29.5012C104.454 29.4747 104.426 29.4394 104.41 29.3995C104.395 29.3595 104.393 29.3165 104.404 29.2754C104.415 29.2343 104.439 29.1968 104.473 29.1672L109.255 24.8962C109.702 24.497 109.609 24.3031 108.976 24.3146L103.829 24.3972C103.778 24.3972 103.729 24.4091 103.686 24.4316C102.27 25.1452 101.403 25.7704 101.085 26.3073C100.811 26.7684 100.479 27.0564 100.089 27.1711ZM146.651 29.1603C146.576 29.2884 146.467 29.398 146.333 29.4797C146.199 29.5613 146.045 29.6123 145.884 29.6284C144.382 29.7775 142.859 29.9496 141.314 30.1446C139.529 30.3672 138.55 31.262 138.376 32.829C138.086 35.4756 138.384 37.3237 141.814 37.8124C144.213 38.1566 152.72 38.7485 152.736 35.5341C152.751 32.6937 152.771 29.8544 152.794 27.0162C152.821 23.2959 143.082 24.0358 140.593 24.466C140.407 24.4982 140.31 24.5968 140.303 24.762L140.155 27.3879C140.154 27.4214 140.161 27.4547 140.175 27.4856C140.19 27.5165 140.211 27.5443 140.239 27.5671C140.267 27.59 140.299 27.6073 140.335 27.6179C140.371 27.6286 140.409 27.6323 140.446 27.6288C142.038 27.4774 143.629 27.3696 145.221 27.3053C145.831 27.2801 146.274 27.3787 146.55 27.6013C147.005 27.9684 147.039 28.4881 146.651 29.1603ZM135.078 27.6047H138.086C138.15 27.6047 138.211 27.5823 138.256 27.5422C138.301 27.5022 138.326 27.448 138.326 27.3914L138.28 24.5349C138.279 24.4754 138.253 24.4183 138.208 24.375C138.163 24.3316 138.101 24.3052 138.035 24.3008C135.264 24.0875 131.013 23.6091 129.404 26.3933C129.063 26.983 128.897 27.8732 128.904 29.064C128.923 31.8149 128.917 34.5682 128.889 37.3237C128.889 37.3943 128.92 37.4621 128.976 37.5123C129.032 37.5626 129.108 37.5912 129.187 37.5921L134.171 37.6507C134.211 37.6511 134.25 37.6446 134.287 37.6315C134.323 37.6184 134.357 37.5989 134.385 37.5743C134.413 37.5496 134.435 37.5202 134.451 37.4879C134.466 37.4555 134.474 37.4207 134.474 37.3857C134.463 34.6439 134.466 31.8723 134.481 29.0708C134.484 28.573 134.559 28.1588 134.706 27.8284C134.736 27.7623 134.787 27.7056 134.854 27.6657C134.92 27.6258 134.998 27.6046 135.078 27.6047ZM66.1813 33.2282C66.1581 35.159 63.1467 35.2347 63.1002 33.4657C63.0485 31.4444 63.0278 28.4915 63.0382 24.6071C63.0382 24.4832 62.9697 24.4213 62.8328 24.4213L57.3139 24.38C57.2876 24.3795 57.2615 24.3837 57.237 24.3924C57.2126 24.401 57.1904 24.4138 57.1716 24.4302C57.1528 24.4465 57.1379 24.466 57.1277 24.4875C57.1176 24.5091 57.1123 24.5322 57.1123 24.5555C57.0684 27.7562 57.071 30.9683 57.1201 34.1919C57.1976 39.251 72.1226 39.454 72.1226 33.9957C72.1252 30.8937 72.1239 27.7745 72.1188 24.6381C72.1188 24.4982 72.04 24.427 71.8824 24.4247L66.5146 24.3697C66.3596 24.3674 66.2821 24.4351 66.2821 24.5727C66.2485 27.4682 66.2149 30.3534 66.1813 33.2282ZM75.3704 37.0793C75.3743 39.2097 74.2116 38.838 72.4327 38.9034C72.2751 38.9103 72.1885 38.9837 72.173 39.1236L72.0141 40.6758C72.0077 40.7418 72.0165 40.8082 72.0399 40.871C72.0634 40.9339 72.1009 40.9917 72.1503 41.041C72.1997 41.0904 72.2598 41.1301 72.3271 41.1579C72.3943 41.1856 72.4672 41.2007 72.5412 41.2023C74.2181 41.2413 75.8355 41.2505 77.3935 41.2299C79.0484 41.2092 80.1801 40.724 80.8893 39.454C81.1735 38.9447 81.3169 38.0877 81.3195 36.8832C81.335 32.7671 81.3363 28.6406 81.3234 24.5039C81.3234 24.4144 81.273 24.3697 81.1722 24.3697L75.5952 24.3662C75.5448 24.3662 75.4965 24.384 75.4609 24.4156C75.4253 24.4473 75.4053 24.4901 75.4053 24.5349C75.3769 28.729 75.3652 32.9105 75.3704 37.0793ZM90.4156 24.5452C90.4156 24.5005 90.3956 24.4576 90.36 24.426C90.3244 24.3943 90.2761 24.3766 90.2257 24.3766H84.9781C84.9532 24.3766 84.9285 24.3809 84.9054 24.3894C84.8824 24.3979 84.8615 24.4103 84.8438 24.426C84.8262 24.4416 84.8122 24.4602 84.8027 24.4807C84.7931 24.5011 84.7882 24.523 84.7882 24.5452V37.451C84.7882 37.4732 84.7931 37.4951 84.8027 37.5156C84.8122 37.536 84.8262 37.5546 84.8438 37.5703C84.8615 37.5859 84.8824 37.5984 84.9054 37.6068C84.9285 37.6153 84.9532 37.6197 84.9781 37.6197H90.2257C90.2761 37.6197 90.3244 37.6019 90.36 37.5703C90.3956 37.5387 90.4156 37.4958 90.4156 37.451V24.5452ZM120.328 32.9495C120.347 35.3276 117.045 34.9766 117.033 33.5586C117.008 30.5576 117.001 27.5554 117.014 24.5521C117.014 24.4328 116.947 24.3731 116.812 24.3731L111.491 24.3525C111.365 24.3502 111.3 24.4064 111.297 24.5211C111.238 27.8479 111.248 31.1748 111.328 34.5016C111.367 36.1088 113.135 37.0243 114.677 37.4648C117.692 38.3218 123.762 38.4388 125.695 35.6098C126.042 35.105 126.216 34.341 126.219 33.3177C126.229 30.3855 126.23 27.4648 126.223 24.5555C126.223 24.5053 126.2 24.4572 126.159 24.4217C126.118 24.3862 126.063 24.3662 126.005 24.3662L120.49 24.3594C120.372 24.3594 120.311 24.4121 120.308 24.5177C120.293 27.3397 120.299 30.1503 120.328 32.9495Z" fill="#003B83"/>
<path d="M5.27574 14.6265C5.32225 11.7528 8.12045 8.93076 10.9419 7.9568C11.7945 7.66312 12.8151 7.51972 14.0037 7.5266C20.8196 7.56331 27.6975 7.59429 34.6375 7.61953C34.697 7.61951 34.7559 7.63008 34.8108 7.65061C34.8656 7.67114 34.9153 7.70122 34.9568 7.73907C34.9984 7.77692 35.031 7.82178 35.0527 7.871C35.0744 7.92021 35.0848 7.97279 35.0832 8.02563C35.0483 9.43323 35.2189 11.0817 34.6879 12.3104C33.5988 14.833 31.4479 15.3321 28.4287 15.3321C26.3488 15.3321 24.2702 15.3355 22.1929 15.3424C18.3689 15.3539 16.0242 15.4686 15.1586 15.6865C11.438 16.6192 10.0118 18.8975 8.60878 22.198C7.54686 24.6919 6.59733 27.2169 5.76019 29.7728C5.75092 29.8022 5.73067 29.8279 5.70278 29.8456C5.67488 29.8634 5.641 29.8722 5.60672 29.8706C5.57243 29.869 5.53978 29.8571 5.51414 29.8368C5.4885 29.8165 5.4714 29.7891 5.46565 29.7591C5.38297 29.3576 5.33904 28.9308 5.33388 28.4788C5.26153 21.1208 5.24215 16.5033 5.27574 14.6265Z" fill="white"/>
<path d="M20.9413 26.4485C20.8032 26.4524 20.6696 26.4936 20.5581 26.5667C20.4467 26.6399 20.3627 26.7415 20.3173 26.858C19.0874 30.0289 17.9196 32.9519 16.8137 35.6271C16.1859 37.1517 14.3992 37.5097 12.5854 37.5097C10.2239 37.5097 7.89075 37.5154 5.58605 37.5269C5.54919 37.5271 5.5128 37.5195 5.47998 37.5046C5.44717 37.4897 5.4189 37.468 5.39758 37.4413C5.37627 37.4145 5.36254 37.3837 5.35756 37.3512C5.35259 37.3188 5.35651 37.2858 5.36901 37.255C7.3585 32.4139 9.32603 27.6083 11.2716 22.8383C11.9485 21.1841 12.6022 20.0633 13.2327 19.4759C14.7907 18.0201 16.4107 17.7207 18.8019 17.7242C23.339 17.731 27.8593 17.731 32.3628 17.7242C32.4193 17.7242 32.4735 17.7437 32.5135 17.7786C32.5535 17.8134 32.5759 17.8607 32.5759 17.91C32.5682 19.7856 32.8511 22.2808 31.9093 23.8639C30.7466 25.8153 28.9406 26.4519 26.402 26.4141C24.5262 26.3888 22.706 26.4003 20.9413 26.4485Z" fill="white"/>
<path d="M45.4122 29.7111L45.4742 37.2688C45.4747 37.3138 45.4652 37.3585 45.4461 37.4002C45.4271 37.4419 45.3989 37.4799 45.3632 37.5119C45.3275 37.5439 45.2851 37.5693 45.2383 37.5866C45.1915 37.604 45.1412 37.6129 45.0905 37.6129H39.0213C38.9264 37.6129 38.8353 37.5793 38.7678 37.5194C38.7003 37.4594 38.6619 37.378 38.6609 37.2928C38.6376 32.3278 38.6312 27.3869 38.6415 22.4701C38.6441 21.277 38.8223 20.3787 39.1763 19.7753C39.9282 18.4882 41.1929 17.84 42.9706 17.8308C47.1898 17.8125 51.3949 17.8171 55.5857 17.8446C55.6584 17.8455 55.7278 17.8715 55.7792 17.9172C55.8306 17.9628 55.8599 18.0244 55.8609 18.089L55.9035 21.2449C55.9087 21.5913 55.7162 21.7622 55.3261 21.7577C52.5434 21.7278 49.6857 21.7347 46.7532 21.7783C45.1525 21.8024 45.3192 24.2046 45.42 25.0994C45.4315 25.2011 45.4854 25.2954 45.5713 25.364C45.6572 25.4327 45.769 25.4708 45.885 25.4711L54.1634 25.4642C54.2292 25.4642 54.2922 25.4874 54.3388 25.5287C54.3853 25.57 54.4114 25.6261 54.4114 25.6845L54.4075 29.1467C54.4075 29.2343 54.3683 29.3183 54.2986 29.3803C54.2288 29.4423 54.1341 29.4771 54.0355 29.4771L45.6757 29.4736C45.6408 29.4736 45.6062 29.4798 45.574 29.4918C45.5418 29.5037 45.5125 29.5213 45.488 29.5434C45.4635 29.5655 45.4442 29.5917 45.4311 29.6205C45.4181 29.6493 45.4117 29.6801 45.4122 29.7111Z" fill="white"/>
<path d="M76.216 17.8272L80.6924 17.8203C80.8104 17.8201 80.927 17.8429 81.0339 17.8873C81.1408 17.9316 81.2354 17.9963 81.3109 18.0769C81.3864 18.1574 81.441 18.2517 81.4707 18.3531C81.5005 18.4545 81.5047 18.5605 81.483 18.6635L80.9365 21.224C80.9045 21.3761 80.8176 21.5147 80.6889 21.6191C80.5603 21.7234 80.3969 21.7876 80.2234 21.8022L76.247 22.1464C76.1347 22.156 76.0213 22.1446 75.9143 22.1127C75.8073 22.0808 75.7091 22.0293 75.626 21.9614C75.543 21.8935 75.477 21.8108 75.4325 21.7187C75.3879 21.6267 75.3657 21.5273 75.3673 21.4271L75.4138 18.5327C75.4158 18.345 75.5012 18.1655 75.6515 18.0334C75.8017 17.9013 76.0046 17.8272 76.216 17.8272Z" fill="white"/>
<path d="M89.3776 21.8676L85.533 22.1188C85.4319 22.1255 85.3303 22.1134 85.2347 22.0833C85.1391 22.0531 85.0517 22.0056 84.978 21.9437C84.9043 21.8818 84.846 21.807 84.8068 21.7239C84.7675 21.6409 84.7482 21.5515 84.7501 21.4615L84.8121 18.4604C84.8152 18.2906 84.8933 18.1287 85.0296 18.0096C85.1659 17.8905 85.3495 17.8237 85.5408 17.8237H89.8621C89.9685 17.8234 90.0737 17.8437 90.1704 17.8833C90.267 17.9229 90.3527 17.9808 90.4214 18.053C90.4901 18.1252 90.5402 18.2098 90.5681 18.301C90.596 18.3922 90.6011 18.4878 90.583 18.5809L90.0404 21.3341C90.0124 21.4758 89.932 21.6052 89.812 21.7018C89.692 21.7984 89.5392 21.8567 89.3776 21.8676Z" fill="white"/>
<path d="M100.09 27.1711C100.48 27.0564 100.812 26.7685 101.086 26.3073C101.404 25.7704 102.271 25.1452 103.686 24.4317C103.73 24.4091 103.779 24.3973 103.83 24.3972L108.977 24.3146C109.61 24.3032 109.703 24.497 109.256 24.8963L104.473 29.1672C104.439 29.1968 104.415 29.2343 104.404 29.2754C104.393 29.3165 104.396 29.3595 104.411 29.3995C104.427 29.4395 104.454 29.4747 104.491 29.5012C104.529 29.5277 104.573 29.5444 104.621 29.5493C106.419 29.742 108.655 30.0655 108.729 32.0754C108.788 33.6883 108.824 35.3988 108.837 37.2067C108.84 37.4866 108.683 37.6266 108.368 37.6266H103.551C103.42 37.6266 103.295 37.5802 103.203 37.4976C103.111 37.4149 103.059 37.3029 103.059 37.1861V32.5365C103.059 32.3786 102.994 32.2263 102.876 32.1087C102.758 31.9912 102.595 31.9168 102.419 31.8998L100.245 31.6933C100.167 31.6861 100.089 31.6933 100.015 31.7146C99.9407 31.7359 99.8725 31.7707 99.8147 31.8169C99.757 31.863 99.7109 31.9194 99.6795 31.9823C99.6481 32.0452 99.6321 32.1133 99.6326 32.182L99.6558 37.3926C99.6558 37.544 99.5719 37.6197 99.4039 37.6197H94.23C94.0233 37.6174 93.9199 37.5245 93.9199 37.3409L93.9238 18.0441C93.9238 17.989 93.9482 17.9362 93.9917 17.8969C94.0352 17.8576 94.0943 17.8351 94.1563 17.8342L99.3497 17.8067C99.3861 17.8062 99.4223 17.8123 99.4562 17.8245C99.49 17.8368 99.5208 17.855 99.5467 17.878C99.5727 17.9011 99.5933 17.9285 99.6074 17.9588C99.6215 17.9891 99.6287 18.0216 99.6287 18.0545L99.6404 26.882C99.6404 27.1643 99.7902 27.2606 100.09 27.1711Z" fill="white"/>
<path d="M146.65 29.1605C147.038 28.4882 147.004 27.9685 146.55 27.6014C146.273 27.3789 145.83 27.2802 145.22 27.3054C143.629 27.3697 142.037 27.4775 140.445 27.629C140.408 27.6324 140.37 27.6287 140.334 27.6181C140.299 27.6074 140.266 27.5901 140.238 27.5673C140.211 27.5444 140.189 27.5166 140.175 27.4857C140.16 27.4548 140.154 27.4215 140.155 27.388L140.302 24.7621C140.31 24.5969 140.407 24.4983 140.593 24.4662C143.081 24.036 152.82 23.296 152.793 27.0164C152.77 29.8545 152.751 32.6938 152.735 35.5342C152.72 38.7486 144.213 38.1567 141.814 37.8125C138.384 37.3238 138.085 35.4757 138.376 32.8292C138.549 31.2621 139.528 30.3673 141.314 30.1447C142.859 29.9497 144.382 29.7776 145.883 29.6285C146.044 29.6125 146.198 29.5614 146.332 29.4798C146.466 29.3982 146.575 29.2885 146.65 29.1605ZM144.72 32.7156C144.573 32.7542 144.439 32.8266 144.333 32.9257C144.227 33.0248 144.152 33.147 144.116 33.28L143.972 33.8203C143.943 33.9291 143.94 34.0422 143.964 34.152C143.989 34.2618 144.039 34.3657 144.113 34.4565C144.186 34.5473 144.281 34.623 144.391 34.6783C144.5 34.7336 144.622 34.7673 144.747 34.7771L145.91 34.8666C146.026 34.8755 146.143 34.8638 146.254 34.8321C146.365 34.8005 146.467 34.7495 146.556 34.6822C146.644 34.6149 146.717 34.5326 146.769 34.4402C146.821 34.3478 146.852 34.247 146.86 34.1438L146.929 33.2284C146.939 33.1034 146.914 32.9783 146.857 32.8637C146.801 32.749 146.714 32.6482 146.604 32.5699C146.494 32.4915 146.364 32.4378 146.226 32.4135C146.088 32.3891 145.945 32.3947 145.809 32.4299L144.72 32.7156Z" fill="white"/>
<path d="M134.706 27.8285C134.559 28.1589 134.484 28.5731 134.481 29.0709C134.466 31.8724 134.463 34.644 134.473 37.3857C134.473 37.4208 134.466 37.4556 134.45 37.488C134.435 37.5203 134.413 37.5497 134.385 37.5744C134.357 37.599 134.323 37.6185 134.287 37.6316C134.25 37.6447 134.211 37.6512 134.171 37.6507L129.187 37.5922C129.108 37.5913 129.032 37.5626 128.976 37.5124C128.92 37.4622 128.889 37.3944 128.889 37.3238C128.917 34.5683 128.922 31.815 128.904 29.0641C128.896 27.8733 129.063 26.9831 129.404 26.3934C131.013 23.6092 135.264 24.0876 138.035 24.3009C138.101 24.3053 138.163 24.3317 138.208 24.375C138.253 24.4184 138.279 24.4755 138.279 24.535L138.326 27.3915C138.326 27.4481 138.301 27.5023 138.255 27.5423C138.21 27.5824 138.149 27.6048 138.086 27.6048H135.078C134.998 27.6047 134.92 27.6259 134.853 27.6658C134.787 27.7057 134.736 27.7624 134.706 27.8285Z" fill="white"/>
<path d="M63.101 33.4657C63.1475 35.2347 66.1589 35.159 66.1821 33.2283C66.2157 30.3534 66.2493 27.4682 66.2829 24.5727C66.2829 24.4351 66.3604 24.3674 66.5154 24.3697L71.8832 24.4248C72.0408 24.427 72.1196 24.4982 72.1196 24.6381C72.1247 27.7745 72.126 30.8937 72.1234 33.9957C72.1234 39.454 57.1984 39.251 57.1209 34.1919C57.0718 30.9683 57.0692 27.7562 57.1131 24.5555C57.1131 24.5322 57.1184 24.5091 57.1286 24.4876C57.1387 24.466 57.1536 24.4465 57.1724 24.4302C57.1912 24.4138 57.2134 24.401 57.2378 24.3924C57.2623 24.3838 57.2884 24.3796 57.3147 24.38L62.8336 24.4213C62.9705 24.4213 63.039 24.4833 63.039 24.6072C63.0286 28.4915 63.0493 31.4444 63.101 33.4657Z" fill="white"/>
<path d="M72.4323 38.9034C74.2112 38.838 75.3739 39.2097 75.37 37.0793C75.3649 32.9105 75.3765 28.729 75.4049 24.5348C75.4049 24.4901 75.4249 24.4472 75.4605 24.4156C75.4962 24.384 75.5445 24.3662 75.5948 24.3662L81.1718 24.3697C81.2726 24.3697 81.323 24.4144 81.323 24.5039C81.3359 28.6406 81.3346 32.7671 81.3191 36.8832C81.3165 38.0877 81.1731 38.9447 80.8889 39.454C80.1797 40.7239 79.048 41.2092 77.3931 41.2298C75.8351 41.2505 74.2177 41.2413 72.5408 41.2023C72.4668 41.2007 72.3939 41.1856 72.3267 41.1579C72.2594 41.1301 72.1993 41.0904 72.1499 41.041C72.1005 40.9917 72.063 40.9338 72.0396 40.871C72.0161 40.8082 72.0074 40.7417 72.0137 40.6758L72.1726 39.1236C72.1881 38.9837 72.2747 38.9102 72.4323 38.9034Z" fill="white"/>
<path d="M90.2266 24.3765H84.979C84.8741 24.3765 84.7891 24.452 84.7891 24.5451V37.4509C84.7891 37.5441 84.8741 37.6196 84.979 37.6196H90.2266C90.3315 37.6196 90.4165 37.5441 90.4165 37.4509V24.5451C90.4165 24.452 90.3315 24.3765 90.2266 24.3765Z" fill="white"/>
<path d="M117.034 33.5588C117.045 34.9767 120.347 35.3277 120.328 32.9496C120.3 30.1505 120.293 27.3399 120.309 24.5178C120.311 24.4123 120.372 24.3595 120.491 24.3595L126.006 24.3664C126.063 24.3664 126.119 24.3863 126.159 24.4218C126.2 24.4573 126.223 24.5055 126.223 24.5557C126.231 27.4649 126.229 30.3857 126.219 33.3179C126.216 34.3412 126.042 35.1052 125.696 35.6099C123.762 38.4389 117.693 38.3219 114.677 37.4649C113.135 37.0244 111.367 36.109 111.329 34.5018C111.249 31.1749 111.238 27.8481 111.298 24.5212C111.3 24.4065 111.365 24.3503 111.492 24.3526L116.813 24.3733C116.947 24.3733 117.014 24.4329 117.014 24.5522C117.001 27.5555 117.008 30.5577 117.034 33.5588Z" fill="white"/>
<path d="M144.722 32.7155L145.811 32.4298C145.947 32.3946 146.09 32.3889 146.228 32.4133C146.366 32.4377 146.496 32.4913 146.606 32.5698C146.716 32.6482 146.803 32.749 146.86 32.8637C146.916 32.9784 146.941 33.1035 146.932 33.2285L146.862 34.1443C146.854 34.2475 146.823 34.3483 146.771 34.4408C146.719 34.5333 146.646 34.6156 146.558 34.6829C146.469 34.7502 146.367 34.8012 146.256 34.8329C146.145 34.8645 146.028 34.8762 145.912 34.8673L144.749 34.7778C144.623 34.768 144.502 34.7343 144.392 34.679C144.283 34.6236 144.188 34.5479 144.114 34.4571C144.041 34.3662 143.99 34.2623 143.966 34.1525C143.941 34.0427 143.944 33.9295 143.974 33.8207L144.117 33.2802C144.153 33.1471 144.228 33.0249 144.334 32.9258C144.44 32.8266 144.574 32.7541 144.722 32.7155Z" fill="#003B83"/>
</g>
<defs>
<clipPath id="clip0_1284_2416">
<rect x="0.632812" width="157.738" height="53" rx="4" fill="white"/>
</clipPath>
</defs>
</svg>
