<svg width="205" height="36" viewBox="0 0 205 36" fill="none" xmlns="http://www.w3.org/2000/svg">
<path d="M13.6548 16.5296H22.5725C21.4199 20.645 17.6497 23.6629 13.1859 23.6629C7.81382 23.6629 3.43798 19.2732 3.43798 13.884C3.43798 8.4948 7.81382 4.09527 13.1859 4.09527C17.2492 4.09527 20.746 6.60369 22.2013 10.1606H24.8483C23.2758 5.2025 18.646 1.60645 13.1859 1.60645C6.44637 1.60645 0.947266 7.11321 0.947266 13.884C0.947266 20.6548 6.44637 26.1615 13.1859 26.1615C17.0441 26.1615 20.6288 24.2214 22.7288 21.419V25.6324H24.9948V14.08H13.6548V16.5296Z" fill="white"/>
<path d="M31.5786 2.37061H29.1367V25.6225H31.5786V2.37061Z" fill="white"/>
<path d="M103.711 2.37061H101.27V25.6029H103.711V2.37061Z" fill="white"/>
<path d="M44.3065 23.9472C40.5558 23.9472 37.5083 20.7137 37.5083 16.9609C37.5083 13.208 40.5558 9.99412 44.3065 9.99412C48.0572 9.99412 51.1046 13.1982 51.1046 16.9609C51.1046 20.7235 48.0474 23.9472 44.3065 23.9472ZM44.3065 7.67188C39.1981 7.67188 35.0371 11.8362 35.0371 16.9609C35.0371 22.0855 39.1981 26.2499 44.3065 26.2499C49.4149 26.2499 53.5758 22.0757 53.5758 16.9609C53.5758 11.846 49.4149 7.67188 44.3065 7.67188Z" fill="white"/>
<path d="M65.6756 23.9469C61.9151 23.9469 58.8774 20.7134 58.8774 16.9606C58.8774 13.2078 61.9249 9.99385 65.6756 9.99385C69.4263 9.99385 72.4738 13.198 72.4738 16.9606C72.4738 20.7232 69.4263 23.9469 65.6756 23.9469ZM65.783 7.49523C63.0384 7.49523 60.577 8.70045 58.8774 10.621V2.37061H56.4355V25.6225H58.8774V23.2904C60.5867 25.2012 63.0384 26.4064 65.783 26.4064C70.9305 26.4064 75.111 22.1734 75.111 16.9508C75.111 11.7282 70.9305 7.48543 65.783 7.48543" fill="white"/>
<path d="M87.7128 23.938C83.9621 23.938 80.9146 20.7045 80.9146 16.9419C80.9146 13.1792 83.9621 9.97512 87.7128 9.97512C91.4635 9.97512 94.511 13.1792 94.511 16.9419C94.511 20.7045 91.4635 23.938 87.7128 23.938ZM94.5305 10.6512C92.8017 8.71111 90.3012 7.49609 87.5077 7.49609C82.2918 7.49609 78.0723 11.7291 78.0723 16.9615C78.0723 22.1939 82.2918 26.417 87.5077 26.417C90.3012 26.417 92.8017 25.1922 94.5305 23.2619V25.6332H97.0017V8.60333H94.5305V10.661V10.6512Z" fill="white"/>
<path d="M172.3 0H167.973V4.11538H172.3V0Z" fill="white"/>
<path d="M112.415 2.37061H108.449V21.8697V25.6029H121.45V21.8697H112.415V2.37061Z" fill="white"/>
<path d="M172.3 7.31934H167.973V25.574H172.3V7.31934Z" fill="white"/>
<path d="M132.439 22.4382C129.548 22.4382 127.194 19.9101 127.194 16.7942C127.194 13.6783 129.548 11.1601 132.439 11.1601C135.331 11.1601 137.684 13.6881 137.684 16.7942C137.684 19.9003 135.331 22.4382 132.439 22.4382ZM132.439 7.26025C127.194 7.26025 122.926 11.5324 122.926 16.7942C122.926 22.056 127.184 26.3282 132.439 26.3282C137.694 26.3282 141.943 22.0658 141.943 16.7942C141.943 11.5226 137.684 7.26025 132.439 7.26025Z" fill="white"/>
<path d="M190.35 19.3628C189.481 21.2147 187.713 22.4788 185.652 22.4788C182.751 22.4788 180.397 19.9409 180.397 16.825C180.397 13.4249 182.751 11.1811 185.652 11.1811C187.606 11.1811 189.315 12.3275 190.214 14.0324H194.746C193.554 10.1326 189.93 7.28125 185.642 7.28125C180.388 7.28125 176.119 11.5534 176.119 16.8348C176.119 22.1162 180.388 26.3688 185.642 26.3688C190.028 26.3688 193.71 23.3998 194.814 19.353H190.341L190.35 19.3628Z" fill="white"/>
<path d="M153.584 31.9141C151.65 31.9141 149.794 30.895 148.671 29.3665L144.822 31.2478C146.639 34.0991 149.667 36.0001 153.584 36.0001C158.653 36.0001 162.804 31.9827 163.214 27.1128H158.868C158.497 29.8368 156.27 31.9239 153.584 31.9239" fill="white"/>
<path d="M153.781 22.5271C150.9 22.5271 148.556 19.999 148.556 16.9027C148.556 13.8064 150.9 11.2882 153.781 11.2882C156.663 11.2882 159.017 13.7966 159.017 16.9027C159.017 20.0088 156.672 22.5271 153.781 22.5271ZM159.339 9.22067C157.776 8.08404 155.862 7.40794 153.781 7.40794C148.556 7.40794 144.307 11.6605 144.307 16.9027C144.307 22.1449 148.546 26.3975 153.781 26.3975C159.017 26.3975 163.226 22.1645 163.256 16.9419V7.33936H159.339V9.22067Z" fill="white"/>
<path d="M202.198 2.23389C202.325 2.23389 202.432 2.25348 202.53 2.29268C202.627 2.33187 202.715 2.39066 202.784 2.45925C202.852 2.52784 202.911 2.60623 202.95 2.70422C202.989 2.7924 203.008 2.90018 203.008 2.99817C203.008 3.16474 202.979 3.30192 202.911 3.41951C202.842 3.53709 202.725 3.62527 202.578 3.69386C202.657 3.72326 202.715 3.75266 202.764 3.80165C202.813 3.84084 202.852 3.89964 202.881 3.94863C202.911 4.00742 202.94 4.07601 202.95 4.1446C202.959 4.21319 202.969 4.28178 202.979 4.35037C202.979 4.38956 202.979 4.44835 202.979 4.50714C202.979 4.56593 202.979 4.62472 202.989 4.69331C202.989 4.7521 203.008 4.8109 203.018 4.86969C203.038 4.92848 203.057 4.97747 203.086 5.01667H202.481C202.452 4.92848 202.422 4.8207 202.422 4.70311C202.422 4.58553 202.403 4.46795 202.383 4.35037C202.364 4.20339 202.315 4.0956 202.246 4.02701C202.178 3.95842 202.071 3.92903 201.914 3.92903H201.309V5.01667H200.703V2.23389H202.198ZM201.983 3.4881C202.119 3.4881 202.227 3.4587 202.295 3.39011C202.364 3.33132 202.403 3.22354 202.403 3.08636C202.403 2.94918 202.364 2.85119 202.295 2.7924C202.227 2.73361 202.119 2.70422 201.983 2.70422H201.318V3.4881H201.983Z" fill="white"/>
<path d="M201.836 6.55476C200.235 6.55476 198.926 5.24176 198.926 3.6348C198.926 2.02784 200.235 0.714844 201.836 0.714844C203.438 0.714844 204.747 2.02784 204.747 3.6348C204.747 5.24176 203.438 6.55476 201.836 6.55476ZM201.836 1.19497C200.498 1.19497 199.404 2.2924 199.404 3.6348C199.404 4.9772 200.498 6.07463 201.836 6.07463C203.175 6.07463 204.269 4.9772 204.269 3.6348C204.269 2.2924 203.175 1.19497 201.836 1.19497Z" fill="white"/>
</svg>
