<svg width="33" height="33" viewBox="0 0 33 33" fill="none" xmlns="http://www.w3.org/2000/svg">
<path d="M16.5 19.3C15 19.3 13.7 18.1 13.7 16.5C13.7 15 14.9 13.7 16.5 13.7C18 13.7 19.3 14.9 19.3 16.5C19.3 18 18 19.3 16.5 19.3Z" fill="black"/>
<path fill-rule="evenodd" clip-rule="evenodd" d="M19.9 9.7H13.1C12.3 9.8 11.9 9.9 11.6 10C11.2 10.1 10.9 10.3 10.6 10.6C10.3626 10.8374 10.2505 11.0748 10.1149 11.3617C10.0792 11.4373 10.0417 11.5166 10 11.6C9.98453 11.6464 9.96667 11.6952 9.94752 11.7475C9.84291 12.0333 9.7 12.4238 9.7 13.1V19.9C9.8 20.7 9.9 21.1 10 21.4C10.1 21.8 10.3 22.1 10.6 22.4C10.8374 22.6374 11.0748 22.7495 11.3617 22.8851C11.4374 22.9209 11.5165 22.9583 11.6 23C11.6464 23.0155 11.6952 23.0333 11.7475 23.0525C12.0333 23.1571 12.4238 23.3 13.1 23.3H19.9C20.7 23.2 21.1 23.1 21.4 23C21.8 22.9 22.1 22.7 22.4 22.4C22.6374 22.1626 22.7495 21.9252 22.8851 21.6383C22.9209 21.5626 22.9583 21.4835 23 21.4C23.0155 21.3536 23.0333 21.3048 23.0525 21.2525C23.1571 20.9667 23.3 20.5762 23.3 19.9V13.1C23.2 12.3 23.1 11.9 23 11.6C22.9 11.2 22.7 10.9 22.4 10.6C22.1626 10.3626 21.9252 10.2505 21.6383 10.1149C21.5627 10.0792 21.4833 10.0417 21.4 10C21.3536 9.98453 21.3048 9.96666 21.2525 9.94752C20.9667 9.8429 20.5762 9.7 19.9 9.7ZM16.5 12.2C14.1 12.2 12.2 14.1 12.2 16.5C12.2 18.9 14.1 20.8 16.5 20.8C18.9 20.8 20.8 18.9 20.8 16.5C20.8 14.1 18.9 12.2 16.5 12.2ZM21.9 12.1C21.9 12.6523 21.4523 13.1 20.9 13.1C20.3477 13.1 19.9 12.6523 19.9 12.1C19.9 11.5477 20.3477 11.1 20.9 11.1C21.4523 11.1 21.9 11.5477 21.9 12.1Z" fill="black"/>
<path fill-rule="evenodd" clip-rule="evenodd" d="M0.5 16.5C0.5 7.66344 7.66344 0.5 16.5 0.5C25.3366 0.5 32.5 7.66344 32.5 16.5C32.5 25.3366 25.3366 32.5 16.5 32.5C7.66344 32.5 0.5 25.3366 0.5 16.5ZM13.1 8.2H19.9C20.8 8.3 21.4 8.4 21.9 8.6C22.5 8.9 22.9 9.1 23.4 9.6C23.9 10.1 24.2 10.6 24.4 11.1C24.6 11.6 24.8 12.2 24.8 13.1V19.9C24.7 20.8 24.6 21.4 24.4 21.9C24.1 22.5 23.9 22.9 23.4 23.4C22.9 23.9 22.4 24.2 21.9 24.4C21.4 24.6 20.8 24.8 19.9 24.8H13.1C12.2 24.7 11.6 24.6 11.1 24.4C10.5 24.1 10.1 23.9 9.6 23.4C9.1 22.9 8.8 22.4 8.6 21.9C8.4 21.4 8.2 20.8 8.2 19.9V13.1C8.3 12.2 8.4 11.6 8.6 11.1C8.9 10.5 9.1 10.1 9.6 9.6C10.1 9.1 10.6 8.8 11.1 8.6C11.6 8.4 12.2 8.2 13.1 8.2Z" fill="black"/>
</svg>
