<svg width="83" height="110" viewBox="0 0 83 110" fill="none" xmlns="http://www.w3.org/2000/svg">
<path d="M82.0855 55.3176L76.845 41.459L80.7188 32.5654L81.0039 32.348L76.8115 31.5122L79.6036 28.1687L71.8309 17.712L73.2228 12.864L73.3234 12.5129L61.7942 8.60942L56.5621 0.12538V0H56.5118L56.3692 0.108663L47.4059 3.97872L41.3939 0.050152L35.2478 3.97872L26.6869 0.208967L26.4941 0.12538H26.3012C26.3012 0.12538 26.2258 0.158815 26.2006 0.192249L26.1419 0.25076L25.8904 0.660334C25.8904 0.660334 25.8401 0.735562 25.8149 0.785714L25.7311 0.927812L25.622 1.09498L25.2447 1.69681C25.2028 1.77204 25.1609 1.84726 25.1106 1.92249L24.901 2.2652L24.8087 2.42401L24.6746 2.62462L24.4649 2.96733C24.4314 3.02584 24.3979 3.08435 24.3559 3.14286L23.9367 3.81991C23.878 3.92021 23.8193 4.02052 23.7522 4.11246L23.3833 4.72264L23.2072 4.99848L22.7796 5.69225C22.746 5.75076 22.7125 5.80927 22.6706 5.86778L22.5029 6.14362C22.4526 6.23556 22.3939 6.31915 22.3352 6.41109L22.1759 6.67021L22.025 6.92097L21.874 7.15502L21.7399 7.3807L21.6141 7.58967L21.4883 7.78192L21.3793 7.95745L21.2955 8.09954L21.2703 8.15806V8.27508L21.1949 8.40046V8.45897L9.76632 12.2204L9.62378 12.2872L9.53155 12.3374L11.0911 17.6702L3.23454 28.2188L6.06023 31.5623L3.01653 32.1725L2.39605 32.2812L2.51344 32.4985L5.86738 41.4005L0.685547 55.2675V55.4012L7.74558 66.3427V66.4096L7.94681 66.5851L8.01389 66.6938L17.6648 75.5289L17.8242 75.6459L18.0002 75.788L24.2302 81.0289L25.5634 69.4521H31.6759L36.7823 75.6375V75.7295H46.2152V75.6793L51.3803 69.4271H57.2496L58.5828 81.0038L64.7205 75.8382L65.014 75.5958L74.9752 66.4514L75.0842 66.3344L82.0855 55.3176ZM61.0312 8.76824L51.6821 20.9385L56.4866 1.42097L61.0312 8.76824ZM73.4743 65.0973L74.1702 66.2591L65.0727 74.6178L62.2638 46.1983L73.4743 65.0973ZM51.2796 68.7333L48.6384 63.5927H53.2249L56.0674 58.9787L57.191 68.7166L51.2796 68.7333ZM41.1005 60.5251V62.8404H36.5056L41.1005 60.5251ZM25.6472 68.7333L26.7624 58.9954L29.6132 63.6094H34.2333L31.5501 68.7333H25.6472ZM41.4526 16.9096L35.7174 4.58891L41.3939 0.93617L46.9698 4.58891L41.4526 16.9096ZM41.1005 34.9726V47.1596H38.6772L41.1005 34.9726ZM21.7566 44.1003L32.4305 35.7416L26.4689 56.7052L21.7566 44.1003ZM20.5744 46.1565L17.9164 73.1467L17.7655 74.6094L8.69306 66.2591L20.5744 46.1565ZM10.5126 13.2819L30.6362 22.5851L13.3802 23.421L11.8961 18.1132L10.5126 13.2819ZM25.8484 31.0106L21.2703 42.8298L15.9963 29.5897H15.8956L13.724 24.2485L25.8484 31.0106ZM26.8379 30.7264L14.8895 24.0395L31.6591 23.2705L32.3299 30.7014L26.8379 30.7264ZM32.7072 34.0699L28.0872 31.5623H32.4808L32.7072 34.0699ZM33.378 34.0699L33.2019 31.4537L32.4725 23.4293L40.7818 30.6345L33.378 34.0699ZM26.4857 31.5623H26.5444L32.4725 34.8222L21.9914 42.9719L26.4857 31.5623ZM4.18202 28.2188L11.2924 18.6064L12.7849 23.9058L15.1326 29.7568L6.83163 31.3701L4.18202 28.2188ZM21.4045 45.3123L26.1084 57.8503L18.7549 72.3944L21.4045 45.3123ZM27.1397 57.1147L33.4116 35.0395V34.9058L40.9579 31.4202L37.7801 47.4438L27.1397 57.1147ZM38.04 48.2796L41.0921 54.5821V59.5973L34.5771 62.8822H30.0241L27.1397 58.2181L38.04 48.2796ZM40.8657 17.3944L32.4808 22.117L35.3988 5.65046L40.8657 17.3944ZM41.0921 18.0965V29.7986L32.9252 22.7272L37.0254 20.4286C39.5493 19.0243 40.6393 18.3891 41.1005 18.1049H41.0921V18.0965ZM4.12333 32.6991L15.5351 30.4339L20.6582 43.348L4.12333 32.6991ZM8.69306 64.7211L8.15644 65.6155L1.44857 55.209L20.6331 44.5517L8.69306 64.7211ZM41.0753 48.0038V52.6763L38.8785 47.9954H41.0753V48.0038ZM46.3242 62.8488H41.9138V60.6254L46.3242 62.8488ZM41.9138 52.6596V47.9954H44.1442L41.9138 52.6596ZM41.9138 59.6892V54.5904L44.9072 48.3382L55.7152 58.1261L52.7805 62.8822H48.2527L41.9138 59.6892ZM44.3789 47.1512H41.9138V34.9058L44.3789 47.1512ZM66.6658 30.2584L61.6014 42.8632L57.0149 31.0775L69.0555 24.3906L66.6742 30.2416V30.2584H66.6658ZM54.8097 31.5122L50.1896 34.0198L50.416 31.5122H54.8097ZM56.3441 31.5122H56.4028L60.8635 42.9719L50.4244 34.772L56.3441 31.5122ZM68.0829 24.0479L56.0255 30.7766H50.4495L51.1287 23.2538L68.0829 24.0479ZM49.5524 34.1201L42.2324 30.5927L50.3573 23.4711L49.6781 30.9103L49.5524 34.1201ZM45.36 47.5692L42.1234 31.4369L49.4769 34.9977L55.5643 56.8138L45.36 47.5692ZM62.2302 43.3898L67.4624 30.4339L79.1257 32.674L62.2302 43.3898ZM76.0065 31.3116L67.7055 29.6983L70.003 24.0395L71.5793 18.5813L78.6561 28.2188L76.0065 31.3116ZM69.4328 23.3625L55.7152 22.7606L52.3613 22.5935L72.2501 13.5578L69.4328 23.3625ZM50.8017 21.0889L47.8586 4.61398L55.7236 1.12842L50.8017 21.0889ZM42.0228 17.4278L47.2633 5.65046L50.1896 22.0334L42.0228 17.4278ZM41.9389 29.7736V18.2302L49.9548 22.7356L41.9389 29.7736ZM61.1151 44.209L56.3441 56.9559L50.4747 35.7584L61.1151 44.209ZM61.4505 45.7637L64.0749 72.3609L56.8388 58.0927L61.4505 45.7637ZM63.6137 43.348L79.5952 33.3176L76.191 41.1413L63.6137 43.348ZM62.8507 44.2257L76.1994 41.8435L80.8027 54.1307L62.8507 44.2257ZM62.3476 44.7941L81.2638 55.234L74.6566 65.6322L62.3476 44.7941ZM51.615 22.1003L61.5175 9.30319L71.9986 12.8473L51.615 22.1003ZM34.8454 4.62234L31.9023 21.0304L26.9972 1.1535L34.8454 4.62234ZM10.8899 12.6299L21.2703 9.21125L31.0554 21.9415L10.8899 12.6299ZM19.7191 44.2257L1.9265 54.1307L6.50462 41.8518L19.7191 44.2257ZM19.4173 43.3898L6.58009 41.1079L3.5867 33.234L19.4173 43.3898ZM18.4446 75.1945L18.5201 74.4005L25.9155 59.8647L23.6516 79.5578L18.4446 75.1945ZM34.9963 63.6429H41.1005V74.9438H37.1512L32.2545 69.0091L34.9963 63.6429ZM41.9389 74.9103V63.6763H47.8083L50.6592 69.2097L45.9133 74.9438L41.9389 74.9103ZM21.8153 8.67629L26.3012 1.47112L31.047 20.6961L21.8153 8.67629ZM59.2033 79.5578L56.931 59.9818L64.3181 74.5175L64.3935 75.2363L59.2033 79.5578ZM13.3802 93.7675V106.138H18.344V109.632H9.22969V93.7508L13.3802 93.7675ZM31.4244 105.018H23.4588C23.4588 105.67 23.6935 106.297 24.1212 106.79C24.5572 107.166 25.1273 107.35 25.6975 107.309C26.1251 107.309 26.5528 107.208 26.9385 107.024C27.2236 106.857 27.4583 106.606 27.6093 106.314H31.265C31.0387 107.15 30.5943 107.902 29.9738 108.504C28.7915 109.565 27.2236 110.1 25.6304 109.975C24.0038 110.05 22.4107 109.465 21.2116 108.362C20.1635 107.283 19.5934 105.829 19.6353 104.333C19.6017 102.803 20.1971 101.324 21.2703 100.237C22.461 99.1588 24.0373 98.5988 25.6388 98.6907C27.1397 98.6322 28.6154 99.1505 29.7474 100.137C30.9045 101.332 31.5166 102.954 31.4244 104.617V105.018ZM27.9111 102.828C27.8105 102.402 27.5925 102.009 27.2906 101.691C26.863 101.299 26.2928 101.098 25.7143 101.115C25.1357 101.081 24.5739 101.29 24.1631 101.691C23.8612 102.001 23.66 102.402 23.5929 102.828H27.9111ZM44.3622 108.236C41.6203 110.577 37.5788 110.577 34.837 108.236C32.6653 106.113 32.6318 102.644 34.7615 100.479C34.7867 100.454 34.8118 100.429 34.837 100.404C36.1199 99.2173 37.8304 98.5821 39.5828 98.6406C41.3436 98.5821 43.0625 99.2173 44.3622 100.404C45.4438 101.416 46.0559 102.828 46.0391 104.308C46.0475 105.796 45.4354 107.217 44.3454 108.236H44.3622ZM37.8723 102.611C36.8997 103.53 36.8661 105.068 37.7884 106.038C38.2496 106.514 38.8869 106.79 39.5493 106.79C40.1781 106.782 40.7818 106.523 41.2262 106.08C41.6874 105.645 41.9557 105.043 41.9641 104.408C41.9641 103.071 40.8741 101.984 39.5325 101.976C38.9204 101.984 38.3335 102.21 37.8723 102.611ZM52.0007 92.3298V100.062C52.8141 99.1672 53.9712 98.6657 55.1786 98.6824C56.5705 98.6573 57.9288 99.1672 58.9518 100.112C60.0753 101.215 60.7042 102.72 60.6958 104.291C60.7377 105.871 60.1256 107.4 59.0188 108.529C58.0211 109.507 56.6711 110.042 55.2708 110C54.0131 110.042 52.8141 109.473 52.0427 108.479V109.641H48.1856V92.288L52.0007 92.3298ZM56.0338 106.088C56.495 105.654 56.7633 105.052 56.7801 104.416C56.7801 103.739 56.5118 103.096 56.0338 102.611C55.5895 102.16 54.9857 101.909 54.3569 101.917C53.7029 101.909 53.0656 102.168 52.6128 102.636C52.1852 103.112 51.9337 103.714 51.9001 104.35C51.9169 105.043 52.2188 105.695 52.7386 106.155C53.1998 106.565 53.7951 106.79 54.4156 106.799C55.0361 106.765 55.6146 106.498 56.0338 106.046V106.088ZM64.796 92.4719C65.9866 92.4719 66.9509 93.4248 66.9593 94.6117C66.9677 95.7986 66.0034 96.7599 64.8128 96.7682C63.6221 96.7682 62.6579 95.8154 62.6495 94.6284C62.6495 94.6284 62.6495 94.6201 62.6495 94.6117C62.6243 93.4331 63.555 92.4552 64.7373 92.4301C64.7541 92.4301 64.7792 92.4301 64.796 92.4301V92.4719ZM66.7077 99.0418V109.632H62.8843V99L66.7077 99.0418ZM73.533 102.16V109.682H69.7179V102.16H68.4937V99.0418H69.7179V95.5395H73.533V99.0418H75.7047V102.16H73.533Z" fill="white"/>
</svg>
