<svg width="33" height="33" viewBox="0 0 33 33" fill="none" xmlns="http://www.w3.org/2000/svg">
<path fill-rule="evenodd" clip-rule="evenodd" d="M0.5 16.5C0.5 7.66344 7.66344 0.5 16.5 0.5C25.3366 0.5 32.5 7.66344 32.5 16.5C32.5 25.3366 25.3366 32.5 16.5 32.5C7.66344 32.5 0.5 25.3366 0.5 16.5ZM8.7 13.8V24.5H12.1V13.8H8.7ZM8.5 10.4C8.5 11.5 9.3 12.3 10.4 12.3C11.5 12.3 12.3 11.5 12.3 10.4C12.3 9.3 11.5 8.5 10.4 8.5C9.4 8.5 8.5 9.3 8.5 10.4ZM21.1 24.5H24.3V17.9C24.3 14.6 22.3 13.5 20.4 13.5C18.7 13.5 17.5 14.6 17.2 15.3V13.8H14V24.5H17.4V18.8C17.4 17.3 18.4 16.5 19.4 16.5C20.4 16.5 21.1 17 21.1 18.7V24.5Z" fill="black"/>
</svg>
