<svg width="582" height="304" viewBox="0 0 582 304" fill="none" xmlns="http://www.w3.org/2000/svg">
<path fill-rule="evenodd" clip-rule="evenodd" d="M340.609 167.285C340.609 172.15 339.654 176.444 337.764 180.168C335.852 183.903 333.3 186.973 330.076 189.38C326.264 192.284 322.168 194.327 317.831 195.551C313.483 196.755 307.854 197.356 300.965 197.356H271.938V99.4355H298.781C305.996 99.4355 311.393 99.6637 314.996 100.12C318.598 100.577 322.063 101.655 325.371 103.377C328.994 105.255 331.651 107.724 333.311 110.763C334.991 113.802 335.831 117.391 335.831 121.488C335.831 126.104 334.571 130.222 332.051 133.843C329.541 137.484 326.054 140.336 321.612 142.38V142.909C327.64 144.496 332.313 147.379 335.621 151.57C338.961 155.771 340.609 160.989 340.609 167.285ZM321.822 123.356C321.822 120.97 321.412 118.937 320.583 117.184C319.784 115.472 318.461 114.093 316.655 113.086C314.471 111.904 312.045 111.178 309.367 110.908C306.699 110.659 303.003 110.524 298.287 110.524H285.36V139.195H300.671C304.882 139.195 308.001 138.988 309.986 138.562C311.982 138.137 314.04 137.286 316.172 135.969C318.22 134.714 319.669 133.034 320.53 130.98C321.402 128.905 321.822 126.353 321.822 123.356ZM326.611 167.814C326.611 164.121 326.054 161.082 324.962 158.676C323.87 156.29 321.675 154.257 318.377 152.597C316.235 151.487 313.914 150.792 311.404 150.481C308.884 150.18 305.313 150.024 300.682 150.024H285.36V186.278H296.334C302.225 186.278 306.878 186.008 310.28 185.479C313.683 184.95 316.686 183.84 319.259 182.118C321.801 180.407 323.649 178.457 324.836 176.289C326.023 174.111 326.611 171.279 326.611 167.814Z" fill="black"/>
<path fill-rule="evenodd" clip-rule="evenodd" d="M354.032 197.356V99.4355H417.442V111.012H367.464V137.847H414.04V149.444H367.464V185.77H417.442V197.356H354.032Z" fill="black"/>
<path fill-rule="evenodd" clip-rule="evenodd" d="M460.373 199.1C453.022 199.1 446.794 198.353 441.649 196.911C436.503 195.438 431.672 193.623 427.146 191.486V175.19H428.101C432.533 179.215 437.553 182.327 443.182 184.536C448.79 186.746 454.219 187.845 459.428 187.845C466.842 187.845 472.461 186.362 476.273 183.354C480.075 180.346 481.976 176.383 481.976 171.487C481.976 167.577 480.967 164.413 478.983 161.954C476.998 159.496 473.826 157.681 469.468 156.488C466.349 155.617 463.492 154.901 460.909 154.33C458.325 153.76 455.08 152.992 451.184 152.038C447.698 151.156 444.558 150.036 441.796 148.677C439.044 147.318 436.597 145.544 434.455 143.356C432.365 141.198 430.748 138.688 429.593 135.752C428.427 132.858 427.86 129.497 427.86 125.68C427.86 117.745 431.052 111.096 437.458 105.723C443.833 100.37 451.993 97.6836 461.907 97.6836C467.578 97.6836 472.923 98.2334 477.985 99.3225C483.026 100.422 487.71 101.978 492.005 103.99V119.602H490.986C487.783 116.739 483.656 114.26 478.625 112.123C473.595 109.996 468.313 108.938 462.799 108.938C456.551 108.938 451.51 110.349 447.645 113.16C443.791 115.992 441.88 119.705 441.88 124.301C441.88 128.45 443.014 131.759 445.272 134.217C447.54 136.676 450.827 138.48 455.122 139.611C457.989 140.348 461.466 141.198 465.593 142.142C469.72 143.076 473.133 143.957 475.863 144.746C482.837 146.81 487.941 149.922 491.144 154.081C494.368 158.251 495.974 163.376 495.974 169.464C495.974 173.261 495.166 177.047 493.57 180.761C491.952 184.495 489.694 187.659 486.796 190.242C483.54 193.084 479.854 195.283 475.758 196.818C471.652 198.343 466.517 199.1 460.373 199.1Z" fill="black"/>
<path fill-rule="evenodd" clip-rule="evenodd" d="M533.403 197.356V111.012H499.388V99.4355H580.861V111.012H546.845V197.356H533.403Z" fill="black"/>
<path d="M526.671 236.814H511.842V210.487H515.245V233.702H526.671V236.814ZM547.895 210.487L539.095 236.814H535.429L526.629 210.487H530.273L537.351 232.302L544.419 210.487H547.895ZM559.269 236.814H549.334V234.127H552.6V213.174H549.334V210.487H559.269V213.174H556.002V234.127H559.269V236.814ZM582.005 210.487L573.204 236.814H569.529L560.739 210.487H564.383L571.461 232.302L578.529 210.487H582.005Z" fill="black"/>
<path fill-rule="evenodd" clip-rule="evenodd" d="M221.415 197.48L199.12 184.255H140.887L118.571 197.48C139.91 235.632 203.719 298.088 272.832 303.492C248.741 289.613 210.409 239.729 221.415 197.48Z" fill="black"/>
<path fill-rule="evenodd" clip-rule="evenodd" d="M173.664 125.825L173.233 125.026L173.664 125.825ZM237.158 0.508789C237.525 28.9203 214.715 87.9944 173.653 99.332L173.664 125.835L202.785 177.72L225.07 190.977C246.504 152.877 267.172 64.8004 237.158 0.508789Z" fill="black"/>
<path fill-rule="evenodd" clip-rule="evenodd" d="M137.212 177.709L136.781 178.487L137.212 177.709ZM166.344 99.3311C123.58 99.2793 39.0932 124.89 -0.00500488 183.777C23.7291 169.266 84.8601 160.034 114.927 190.976L137.212 177.72L166.333 125.834L166.344 99.3311Z" fill="black"/>
<path fill-rule="evenodd" clip-rule="evenodd" d="M156.335 162.576C156.335 154.838 162.447 148.562 169.987 148.562C177.528 148.562 183.64 154.838 183.64 162.576C183.64 170.356 177.528 176.632 169.987 176.632C162.447 176.632 156.335 170.356 156.335 162.576Z" fill="black"/>
</svg>
