<svg width="185" height="46" viewBox="0 0 185 46" fill="none" xmlns="http://www.w3.org/2000/svg">
<path d="M83.5776 18.3341L89.8852 9.26087C89.8944 9.24797 89.9065 9.23743 89.9206 9.23012C89.9346 9.22281 89.9502 9.21894 89.9661 9.21881H98.9455C98.9641 9.21835 98.9825 9.22309 98.9986 9.2325C99.0147 9.2419 99.0278 9.2556 99.0366 9.27206C99.0453 9.28852 99.0493 9.30708 99.048 9.32567C99.0468 9.34426 99.0404 9.36215 99.0296 9.37731L91.357 20.3364C91.3448 20.3534 91.3383 20.3737 91.3383 20.3946C91.3383 20.4155 91.3448 20.4358 91.357 20.4528L100.579 33.5727C100.59 33.5878 100.596 33.6057 100.597 33.6243C100.599 33.6429 100.595 33.6615 100.586 33.6779C100.577 33.6944 100.564 33.7081 100.548 33.7175C100.532 33.7269 100.514 33.7316 100.495 33.7312L91.4799 33.715C91.464 33.7149 91.4484 33.711 91.4344 33.7037C91.4203 33.6964 91.4082 33.6858 91.399 33.6729L83.5776 22.4713C83.5652 22.4543 83.5477 22.4417 83.5276 22.4352C83.5076 22.4287 83.4861 22.4286 83.466 22.4351C83.446 22.4415 83.4285 22.4541 83.416 22.4711C83.4035 22.488 83.3967 22.5084 83.3964 22.5295V33.6212C83.3964 33.6478 83.3859 33.6733 83.3671 33.6921C83.3483 33.7109 83.3227 33.7215 83.2961 33.7215H75.4909C75.4643 33.7215 75.4388 33.7109 75.42 33.6921C75.4012 33.6733 75.3906 33.6478 75.3906 33.6212V0.100274C75.3906 0.0736795 75.4012 0.0481727 75.42 0.0293675C75.4388 0.0105623 75.4643 0 75.4909 0H83.2961C83.3227 0 83.3483 0.0105623 83.3671 0.0293675C83.3859 0.0481727 83.3964 0.0736795 83.3964 0.100274V18.2759C83.3967 18.2969 83.4035 18.3174 83.416 18.3343C83.4285 18.3513 83.446 18.3639 83.466 18.3703C83.4861 18.3767 83.5076 18.3767 83.5276 18.3702C83.5477 18.3637 83.5652 18.3511 83.5776 18.3341Z" fill="white"/>
<path d="M148.98 16.8365V33.6244C148.98 33.6502 148.97 33.6748 148.952 33.693C148.934 33.7112 148.909 33.7215 148.883 33.7215H141.072C141.046 33.7215 141.021 33.7112 141.003 33.693C140.985 33.6748 140.975 33.6502 140.975 33.6244V0.0970362C140.975 0.0712996 140.985 0.0466184 141.003 0.0284199C141.021 0.0102213 141.046 0 141.072 0H148.883C148.909 0 148.934 0.0102213 148.952 0.0284199C148.97 0.0466184 148.98 0.0712996 148.98 0.0970362V9.12178C148.98 9.14751 148.991 9.1722 149.009 9.19039C149.027 9.20859 149.052 9.21881 149.077 9.21881H157.753C157.769 9.21883 157.785 9.22301 157.8 9.23096C157.814 9.2389 157.826 9.25036 157.835 9.26425C157.844 9.27814 157.849 9.29402 157.85 9.3104C157.851 9.32678 157.847 9.34312 157.84 9.3579L154.405 16.6844C154.397 16.7009 154.385 16.7148 154.369 16.7245C154.354 16.7342 154.336 16.7394 154.318 16.7394H149.077C149.052 16.7394 149.027 16.7496 149.009 16.7678C148.991 16.786 148.98 16.8107 148.98 16.8365Z" fill="white"/>
<path d="M45.4371 27.9842C40.3813 37.3227 25.1686 36.4299 21.921 25.7167C19.6115 18.0958 23.7163 9.97351 31.9324 8.68611C43.0402 6.94909 50.7355 18.2025 45.4371 27.9842ZM30.0595 25.377C31.0881 28.0941 34.1449 29.0775 36.4706 27.6057C40.3781 25.1312 40.0093 14.7446 34.2807 14.6767C28.8627 14.612 28.7333 21.8803 30.0595 25.377Z" fill="white"/>
<path d="M8.85158 16.5221L13.9332 9.26031C13.9424 9.24741 13.9546 9.23687 13.9686 9.22956C13.9827 9.22226 13.9983 9.21838 14.0141 9.21826H22.9645C22.9828 9.2184 23.0008 9.22358 23.0164 9.23323C23.032 9.24287 23.0446 9.25661 23.053 9.27296C23.0613 9.28931 23.065 9.30764 23.0637 9.32594C23.0623 9.34424 23.056 9.36182 23.0453 9.37676L15.8999 19.608C15.8907 19.6209 15.8786 19.6315 15.8645 19.6388C15.8505 19.6461 15.8349 19.65 15.819 19.6501H8.83863C8.81204 19.6501 8.78652 19.6606 8.76772 19.6794C8.74891 19.6983 8.73834 19.7238 8.73834 19.7504L8.66719 33.6206C8.66719 33.6472 8.65661 33.6727 8.63781 33.6915C8.619 33.7103 8.59353 33.7209 8.56693 33.7209H0.852247C0.825652 33.7209 0.800136 33.7103 0.781331 33.6915C0.762525 33.6727 0.751953 33.6472 0.751953 33.6206V9.31854C0.751953 9.29194 0.762525 9.26643 0.781331 9.24763C0.800136 9.22882 0.825652 9.21826 0.852247 9.21826H8.59279C8.61939 9.21826 8.64491 9.22882 8.66371 9.24763C8.68252 9.26643 8.69309 9.29194 8.69309 9.31854L8.66719 16.4639C8.66637 16.4859 8.67278 16.5075 8.68543 16.5254C8.69807 16.5434 8.71626 16.5567 8.73719 16.5633C8.75813 16.5699 8.78066 16.5694 8.80132 16.562C8.82198 16.5546 8.83965 16.5406 8.85158 16.5221Z" fill="white"/>
<path d="M49.9997 15.2542V9.32824C49.9997 9.29907 50.0113 9.2711 50.0319 9.25047C50.0525 9.22985 50.0805 9.21826 50.1097 9.21826H70.6757C70.7049 9.21826 70.7329 9.22985 70.7535 9.25047C70.7741 9.2711 70.7857 9.29907 70.7857 9.32824L70.7987 15.28C70.7995 15.3087 70.789 15.3366 70.7695 15.3577L59.39 27.4004C59.3755 27.4161 59.3659 27.4357 59.3624 27.4567C59.3589 27.4778 59.3616 27.4994 59.3702 27.5189C59.3788 27.5385 59.3929 27.5551 59.4107 27.5668C59.4286 27.5785 59.4495 27.5847 59.4708 27.5847L71.6429 27.5686C71.6573 27.5686 71.6716 27.5714 71.685 27.5769C71.6983 27.5824 71.7104 27.5906 71.7206 27.6008C71.7309 27.611 71.739 27.6231 71.7445 27.6364C71.75 27.6498 71.7529 27.6641 71.7529 27.6785V33.6109C71.7529 33.6254 71.75 33.6397 71.7445 33.653C71.739 33.6663 71.7309 33.6785 71.7206 33.6887C71.7104 33.6989 71.6983 33.707 71.685 33.7125C71.6716 33.7181 71.6573 33.7209 71.6429 33.7209H49.1393C49.1101 33.7209 49.0821 33.7093 49.0615 33.6887C49.0409 33.6681 49.0293 33.6401 49.0293 33.6109V27.4812C49.0294 27.4521 49.041 27.4241 49.0616 27.4036L61.0332 15.5517C61.0485 15.5364 61.0589 15.5168 61.0631 15.4955C61.0674 15.4742 61.0652 15.4521 61.0569 15.4321C61.0486 15.412 61.0345 15.3948 61.0165 15.3828C60.9985 15.3707 60.9772 15.3642 60.9555 15.3641H50.1097C50.0805 15.3641 50.0525 15.3526 50.0319 15.3319C50.0113 15.3113 49.9997 15.2833 49.9997 15.2542Z" fill="white"/>
<path d="M113.266 25.1911L117.688 9.3056C117.695 9.28027 117.71 9.25798 117.731 9.2422C117.752 9.22641 117.778 9.218 117.804 9.21827H125.71C125.729 9.21827 125.748 9.22282 125.765 9.23154C125.782 9.24025 125.796 9.25288 125.807 9.26839C125.818 9.28389 125.826 9.30181 125.828 9.32066C125.831 9.33951 125.829 9.35874 125.823 9.37676L117.707 33.64C117.699 33.6636 117.684 33.6841 117.664 33.6986C117.643 33.7131 117.619 33.7209 117.594 33.7209H108.531C108.506 33.7209 108.481 33.7131 108.461 33.6986C108.441 33.6841 108.425 33.6636 108.417 33.64L100.331 9.37676C100.325 9.35874 100.323 9.33951 100.325 9.32066C100.328 9.30181 100.335 9.28389 100.347 9.26839C100.358 9.25288 100.372 9.24025 100.389 9.23154C100.406 9.22282 100.425 9.21827 100.444 9.21827H108.55C108.576 9.2187 108.601 9.22744 108.621 9.24317C108.641 9.25891 108.656 9.2808 108.663 9.3056L113.036 25.1911C113.044 25.2159 113.059 25.2377 113.08 25.2532C113.1 25.2687 113.125 25.277 113.151 25.277C113.177 25.277 113.202 25.2687 113.223 25.2532C113.244 25.2377 113.259 25.2159 113.266 25.1911Z" fill="white"/>
<path d="M136.709 9.21826H128.985C128.908 9.21826 128.846 9.28053 128.846 9.35735V33.5786C128.846 33.6554 128.908 33.7177 128.985 33.7177H136.709C136.786 33.7177 136.848 33.6554 136.848 33.5786V9.35735C136.848 9.28053 136.786 9.21826 136.709 9.21826Z" fill="white"/>
<path d="M36.4709 27.6047C34.1452 29.0765 31.0884 28.0931 30.0598 25.376C28.7336 21.8793 28.863 14.611 34.281 14.6757C40.0096 14.7437 40.3784 25.1302 36.4709 27.6047Z" fill="black"/>
<path d="M160.024 33.7564L161.985 27.7981C161.999 27.7532 162.026 27.7132 162.062 27.6829C162.098 27.6525 162.142 27.633 162.188 27.6267L166.749 27.0056C166.79 27 166.829 26.9844 166.862 26.9601C166.896 26.9359 166.922 26.9037 166.94 26.8665L168.929 22.7585C168.95 22.7168 168.982 22.6817 169.021 22.6571C169.061 22.6325 169.106 22.6195 169.153 22.6194L175.425 22.5547C175.472 22.5541 175.518 22.5669 175.558 22.5915C175.598 22.6162 175.63 22.6516 175.651 22.6938L177.689 26.8859C177.707 26.9225 177.734 26.954 177.767 26.9777C177.801 27.0014 177.839 27.0165 177.88 27.0218L182.428 27.6299C182.474 27.636 182.518 27.655 182.554 27.6848C182.59 27.7145 182.617 27.7538 182.631 27.7981L184.595 33.7661C184.61 33.8109 184.612 33.859 184.6 33.9049C184.589 33.9507 184.564 33.9923 184.53 34.0249L181.189 37.2369C181.158 37.2654 181.136 37.3011 181.123 37.3406C181.11 37.3802 181.107 37.4224 181.114 37.4633L181.936 42.0468C181.944 42.0931 181.939 42.1407 181.921 42.1842C181.904 42.2277 181.874 42.2653 181.836 42.2927L176.803 45.9446C176.764 45.9721 176.719 45.9882 176.672 45.991C176.625 45.9939 176.579 45.9834 176.537 45.9608L172.416 43.7548C172.38 43.7352 172.34 43.725 172.298 43.725C172.257 43.725 172.217 43.7352 172.18 43.7548L168.075 45.9705C168.034 45.9927 167.987 46.0026 167.94 45.9992C167.893 45.9957 167.848 45.9791 167.81 45.9511L162.771 42.2862C162.732 42.2582 162.703 42.2199 162.686 42.1758C162.669 42.1317 162.664 42.0836 162.674 42.0371L163.518 37.4536C163.526 37.4129 163.523 37.3709 163.511 37.3314C163.498 37.2918 163.476 37.256 163.447 37.2272L160.089 34.0151C160.055 33.9826 160.031 33.941 160.019 33.8951C160.008 33.8493 160.01 33.8012 160.024 33.7564Z" fill="#80C342"/>
</svg>
