<svg width="194" height="54" viewBox="0 0 194 54" fill="none" xmlns="http://www.w3.org/2000/svg">
<g clip-path="url(#clip0_1284_2386)">
<path d="M0.794922 45.7845V43.94C2.00072 37.2719 5.91044 31.0285 10.149 25.8712C10.2391 25.7617 10.2883 25.6245 10.2883 25.4829C10.2883 25.3413 10.2391 25.2041 10.149 25.0946C5.91044 19.9494 1.97027 13.6454 0.794922 6.95302V5.12673C2.74369 -7.02631 21.7564 6.00043 25.861 9.47706C25.9646 9.5651 26.0963 9.61346 26.2325 9.61346C26.3686 9.61346 26.5003 9.5651 26.6039 9.47706C31.0922 5.72133 38.6254 0.709649 44.624 0.212121C53.0646 -0.485631 52.4434 7.12898 50.1231 12.5108C48.1378 17.1099 45.5395 21.2923 42.3281 25.0582C42.2335 25.1689 42.1811 25.3092 42.18 25.4545C42.1789 25.5998 42.2292 25.7409 42.322 25.853C45.6775 29.8878 56.7551 45.6085 49.0879 50.0013C43.0162 53.484 30.9643 45.026 26.4882 41.4463C26.4179 41.3893 26.3303 41.3577 26.2396 41.3566C26.1489 41.3555 26.0606 41.385 25.9889 41.4402C21.4519 44.9836 16.586 48.2114 11.2878 50.0195C6.94572 51.5061 1.70232 51.4272 0.794922 45.7845ZM23.7234 11.5096C21.5493 9.73796 2.26868 -3.91979 3.81551 7.28673C4.52194 12.4076 8.92494 18.9119 12.1343 22.8314C12.2886 23.0175 12.4429 23.0195 12.5972 22.8375C16.0156 18.8613 19.7264 15.1764 23.7295 11.7827C23.7495 11.7657 23.7655 11.7446 23.7762 11.7207C23.787 11.6968 23.7923 11.6709 23.7917 11.6447C23.7911 11.6186 23.7847 11.5929 23.7728 11.5695C23.761 11.5461 23.7442 11.5257 23.7234 11.5096ZM44.9406 3.06987C39.137 4.06493 33.3272 7.851 28.8024 11.4732C28.7778 11.4927 28.7578 11.5174 28.7438 11.5454C28.7299 11.5735 28.7224 11.6043 28.7218 11.6356C28.7212 11.6669 28.7276 11.698 28.7405 11.7266C28.7534 11.7551 28.7724 11.7805 28.7963 11.8009C32.8359 15.227 36.5711 18.9544 40.0017 22.9831C40.0829 23.0762 40.1601 23.0762 40.2331 22.9831C43.3674 19.2052 45.8785 15.051 47.7664 10.5207C48.9417 7.69324 50.0562 2.19617 44.9406 3.06987ZM36.7254 23.6384C33.8327 20.3802 30.2152 16.7034 26.5004 13.6939C26.334 13.5604 26.1695 13.5604 26.0071 13.6939C22.3207 16.764 18.9002 20.1011 15.7456 23.7052C15.5914 23.8791 15.632 23.9661 15.8674 23.9661H36.5792C36.8715 23.9661 36.9202 23.8568 36.7254 23.6384ZM15.6117 27.0908C18.6992 30.6766 22.2253 34.0016 26.001 37.278C26.0683 37.3389 26.1556 37.3732 26.2465 37.3743C26.3374 37.3755 26.4256 37.3433 26.4943 37.284C30.1848 34.1411 33.6459 30.7636 36.8776 27.1514C37.0562 26.9492 37.0096 26.8481 36.7375 26.8481H15.7274C15.5122 26.8481 15.4736 26.929 15.6117 27.0908ZM48.7651 44.4375C48.0404 38.6613 43.8688 32.5211 40.3062 28.0069C40.2047 27.8775 40.0992 27.8755 39.9895 28.0009C36.563 32.0054 32.842 35.7166 28.8267 39.1346C28.8037 39.154 28.7851 39.1781 28.7724 39.2054C28.7597 39.2326 28.7531 39.2623 28.7531 39.2923C28.7531 39.3224 28.7597 39.3521 28.7724 39.3793C28.7851 39.4066 28.8037 39.4307 28.8267 39.4501C32.6918 42.6699 36.9913 45.2182 41.7252 47.095C44.4413 48.169 49.3315 48.9577 48.7651 44.4375ZM23.7356 39.1649C19.696 35.7672 15.9689 32.058 12.5545 28.0373C12.5312 28.0108 12.5024 27.9897 12.4701 27.9754C12.4378 27.9611 12.4027 27.9541 12.3674 27.9546C12.332 27.9552 12.2972 27.9634 12.2654 27.9788C12.2336 27.9941 12.2055 28.0161 12.183 28.0434C9.09343 31.8416 6.60875 36.022 4.729 40.5847C3.63891 43.2422 2.40875 48.2114 7.03707 47.8717C12.6946 47.453 19.43 42.9146 23.7356 39.438C23.7555 39.4218 23.7715 39.4015 23.7824 39.3783C23.7934 39.355 23.7991 39.3296 23.7991 39.3036C23.7991 39.2776 23.7934 39.2517 23.7824 39.2278C23.7715 39.2039 23.7555 39.1824 23.7356 39.1649Z" fill="white"/>
<path d="M73.3008 7.88232C75.4749 8.3131 77.6855 9.22322 77.9413 11.5713C78.532 16.9713 69.4885 16.5223 69.4337 11.9354C69.4296 11.6927 69.5494 11.5713 69.793 11.5713H70.8466C71.1104 11.5713 71.2647 11.6987 71.3094 11.9536C71.8453 14.9145 77.1922 14.1014 75.9134 11.4682C74.6771 8.90771 69.7991 10.6733 69.7808 6.25625C69.7625 1.32344 77.7342 1.72389 77.9961 6.22591C78.0083 6.4403 77.9088 6.54951 77.6977 6.55355L76.4736 6.57176C76.2706 6.5758 76.1549 6.47872 76.1265 6.28052C75.9276 4.84861 74.9714 4.23782 73.2582 4.44816C70.8526 4.74546 71.3337 7.494 73.3008 7.88232Z" fill="white"/>
<path d="M130.778 12.342C131.21 9.5571 125.194 10.5097 124.493 6.90564C123.519 1.86969 131.545 1.07485 132.715 6.06227C132.792 6.38991 132.66 6.55575 132.319 6.5598L131.277 6.57193C131.005 6.57598 130.843 6.44452 130.79 6.17755C130.212 3.39868 125.596 4.04789 126.43 6.578C127.173 8.82295 131.752 7.62767 132.514 11.0376C133.847 17.014 124.183 16.7106 124.104 11.8688C124.104 11.6746 124.201 11.5776 124.396 11.5776L125.614 11.5715C125.817 11.5715 125.93 11.6726 125.955 11.8749C126.241 14.2654 130.431 14.5688 130.778 12.342Z" fill="white"/>
<path d="M147.106 8.23398V15.2115C147.106 15.3126 147.055 15.3632 146.954 15.3632L145.736 15.3571C145.695 15.3571 145.657 15.3418 145.628 15.3145C145.599 15.2872 145.583 15.2501 145.583 15.2115V8.24005C145.583 8.04184 145.484 7.94072 145.285 7.93668L144.329 7.91241C144.114 7.90836 144.012 7.80117 144.024 7.59083L144.073 6.69892C144.081 6.50477 144.185 6.40769 144.384 6.40769L145.267 6.41982C145.466 6.41982 145.569 6.32072 145.577 6.12252C145.65 3.94432 146.266 2.50027 148.945 2.9614C149.148 2.99376 149.25 3.11308 149.25 3.31937L149.237 4.13847C149.233 4.36499 149.12 4.46612 148.896 4.44185C147.715 4.30229 146.984 5.12746 147.082 6.26207C147.102 6.46432 147.216 6.56544 147.423 6.56544H148.622C148.825 6.5614 148.929 6.6605 148.933 6.86274L148.945 7.62117C148.945 7.82746 148.842 7.93061 148.634 7.93061L147.41 7.92454C147.207 7.92454 147.106 8.02769 147.106 8.23398Z" fill="white"/>
<path d="M82.7135 3.90464L81.947 3.14096C81.8209 3.01538 81.6166 3.01538 81.4905 3.14096L80.6379 3.99044C80.5118 4.11602 80.5118 4.31963 80.6379 4.44522L81.4044 5.20889C81.5304 5.33447 81.7348 5.33447 81.8609 5.20889L82.7135 4.35941C82.8395 4.23383 82.8395 4.03022 82.7135 3.90464Z" fill="white"/>
<path d="M152.13 5.96484V4.44798C152.128 4.32892 152.175 4.21408 152.259 4.12874C152.344 4.0434 152.459 3.99455 152.581 3.99293L153.336 3.97473C153.543 3.97068 153.646 4.0718 153.646 4.2781L153.652 5.96484C153.656 6.17113 153.76 6.27226 153.963 6.26821L155.017 6.25001C155.333 6.24596 155.487 6.39967 155.479 6.71113L155.467 7.42709C155.463 7.68192 155.331 7.80529 155.071 7.7972L153.993 7.76686C153.799 7.75877 153.695 7.85181 153.683 8.04596C153.604 9.65383 152.885 14.1983 155.589 13.8282C155.719 13.812 155.784 13.8707 155.784 14.0042L155.778 15.2055C155.778 15.2662 155.749 15.3026 155.692 15.3147C153.273 15.6909 152.075 14.7505 152.099 12.4934C152.12 10.3698 152.132 8.89945 152.136 8.08237C152.14 7.86394 152.032 7.75877 151.813 7.76686L150.936 7.80327C150.895 7.80571 150.854 7.79972 150.816 7.78565C150.777 7.77157 150.742 7.74972 150.711 7.72138C150.681 7.69304 150.657 7.65882 150.64 7.62076C150.623 7.5827 150.614 7.54159 150.614 7.4999L150.607 6.55338C150.607 6.34709 150.713 6.24596 150.924 6.25001L151.819 6.27428C152.026 6.27832 152.13 6.17518 152.13 5.96484Z" fill="white"/>
<path d="M188.237 11.8625C188.231 13.4036 189.625 14.253 191.056 13.7373C191.239 13.6685 191.387 13.5553 191.501 13.3975C191.947 12.7625 192.583 12.5784 193.407 12.8454C193.602 12.9101 193.663 13.0396 193.59 13.2337C193.074 14.5362 192.148 15.244 190.813 15.3573C188.332 15.5717 186.911 14.4128 186.55 11.8807C186.318 10.2384 186.56 8.85506 187.274 7.73056C188.59 5.66158 191.598 5.52203 192.981 7.58495C193.61 8.52337 193.827 9.77124 193.632 11.3285C193.612 11.4903 193.521 11.5712 193.358 11.5712H188.529C188.334 11.5712 188.237 11.6683 188.237 11.8625ZM188.718 10.2607L191.726 10.2C191.768 10.1992 191.809 10.1903 191.847 10.1737C191.885 10.1571 191.92 10.1332 191.948 10.1033C191.977 10.0735 192 10.0382 192.015 9.99964C192.03 9.96105 192.038 9.91986 192.037 9.87843V9.81776C192.025 9.26446 191.831 8.73759 191.498 8.35302C191.164 7.96844 190.719 7.75764 190.259 7.76697H190.088C189.86 7.77147 189.635 7.82999 189.427 7.93918C189.218 8.04836 189.03 8.20608 188.873 8.40331C188.715 8.60054 188.592 8.83341 188.51 9.08861C188.428 9.3438 188.389 9.61631 188.395 9.89056V9.95124C188.396 9.99267 188.405 10.0335 188.421 10.0715C188.438 10.1095 188.462 10.1438 188.492 10.1726C188.522 10.2013 188.557 10.2239 188.596 10.239C188.635 10.2541 188.676 10.2615 188.718 10.2607Z" fill="white"/>
<path d="M90.7805 14.6107C83.2716 18.4756 83.9476 2.79132 90.5734 6.79582C90.7521 6.90099 90.9266 6.89492 91.0972 6.77762C91.4869 6.51065 91.9477 6.44998 92.4796 6.59559C92.6623 6.64413 92.7536 6.76144 92.7536 6.9475C92.7536 9.63537 93.2834 15.1264 92.236 17.2136C90.9936 19.6709 86.4567 19.5859 85.6162 16.443C85.6117 16.4236 85.6116 16.4035 85.6158 16.3841C85.6201 16.3646 85.6287 16.3464 85.641 16.3307C85.6532 16.315 85.6688 16.3022 85.6867 16.2933C85.7045 16.2844 85.7242 16.2796 85.7441 16.2792L87.1326 16.2671C87.2666 16.2671 87.362 16.3298 87.4189 16.4551C88.3932 18.6698 91.2251 17.1165 91.0606 14.7684C91.0444 14.5742 90.951 14.5217 90.7805 14.6107ZM91.1027 9.72735C91.1087 9.48281 91.0663 9.23949 90.9779 9.01127C90.8895 8.78306 90.7569 8.57442 90.5876 8.39728C90.4183 8.22014 90.2156 8.07796 89.9911 7.97885C89.7666 7.87975 89.5248 7.82567 89.2793 7.81969L88.975 7.81229C88.7295 7.80632 88.4853 7.84856 88.2562 7.93662C88.0272 8.02468 87.8177 8.15683 87.64 8.32552C87.4622 8.49421 87.3194 8.69615 87.22 8.91979C87.1205 9.14343 87.0662 9.3844 87.0602 9.62894L87.0114 11.6184C87.0054 11.863 87.0478 12.1063 87.1362 12.3345C87.2246 12.5627 87.3572 12.7714 87.5265 12.9485C87.6958 13.1257 87.8985 13.2678 88.123 13.3669C88.3475 13.466 88.5893 13.5201 88.8348 13.5261L89.1391 13.5335C89.3846 13.5395 89.6288 13.4972 89.8579 13.4092C90.0869 13.3211 90.2963 13.189 90.4741 13.0203C90.6519 12.8516 90.7946 12.6496 90.8941 12.426C90.9936 12.2024 91.0479 11.9614 91.0539 11.7169L91.1027 9.72735Z" fill="white"/>
<path d="M114.614 14.7686C114.358 15.0356 114.027 15.2075 113.621 15.2844C108.366 16.3158 108.445 9.11381 114.492 9.76302C115.125 9.83178 115.33 9.56684 115.107 8.96819L114.985 8.64661C114.831 8.23807 114.545 7.97313 114.127 7.85178C113.059 7.55246 112.316 7.85987 111.898 8.77403C111.788 9.01673 111.599 9.1401 111.331 9.14414H110.984C110.815 9.14532 110.649 9.09555 110.509 9.00134C110.369 8.90712 110.26 8.77286 110.197 8.61614C110.135 8.45942 110.121 8.28753 110.158 8.123C110.196 7.95846 110.282 7.80895 110.406 7.69403C111.981 6.25807 113.621 5.91223 115.326 6.6565C117.324 7.52414 116.599 12.7967 116.873 14.9021C116.893 15.0761 116.818 15.1832 116.648 15.2237C115.994 15.3734 115.473 15.2257 115.083 14.7808C114.928 14.6068 114.772 14.6028 114.614 14.7686ZM112.233 11.6925C112.017 11.769 111.83 11.9084 111.696 12.0923C111.561 12.2763 111.485 12.4963 111.478 12.7239C111.417 14.9143 114.973 14.2165 115.168 11.8199C115.184 11.6014 115.085 11.4781 114.87 11.4498C113.956 11.3163 113.077 11.3972 112.233 11.6925Z" fill="white"/>
<path d="M142.056 12.3128C142.041 13.1784 141.681 14.0025 141.056 14.6039C140.431 15.2053 139.592 15.5347 138.723 15.5196L138.151 15.5096C137.282 15.4945 136.455 15.1361 135.851 14.5134C135.248 13.8906 134.917 13.0545 134.932 12.1889L134.979 9.49533C134.995 8.62973 135.354 7.80559 135.979 7.20421C136.604 6.60283 137.444 6.27347 138.312 6.28858L138.885 6.29853C139.754 6.31364 140.581 6.67199 141.184 7.29474C141.788 7.91749 142.119 8.75363 142.103 9.61923L142.056 12.3128ZM140.494 9.56578C140.489 9.32837 140.438 9.09411 140.343 8.87635C140.248 8.6586 140.111 8.46163 139.94 8.29669C139.768 8.13174 139.566 8.00206 139.344 7.91503C139.123 7.828 138.886 7.78534 138.647 7.78948L138.367 7.7944C137.886 7.80277 137.428 8.00126 137.094 8.3462C136.759 8.69114 136.576 9.15428 136.585 9.63373L136.627 12.0725C136.631 12.3099 136.682 12.5441 136.777 12.7619C136.873 12.9796 137.01 13.1766 137.181 13.3416C137.353 13.5065 137.555 13.6362 137.777 13.7232C137.998 13.8102 138.235 13.8529 138.473 13.8488L138.754 13.8439C139.235 13.8355 139.693 13.637 140.027 13.292C140.362 12.9471 140.545 12.484 140.536 12.0045L140.494 9.56578Z" fill="white"/>
<path d="M175.508 14.7326C170.947 18.1303 167.366 9.33865 175.417 9.7391C175.486 9.74235 175.554 9.73056 175.618 9.70457C175.681 9.67858 175.738 9.63901 175.785 9.58866C175.831 9.53832 175.866 9.47842 175.887 9.4132C175.907 9.34799 175.913 9.27904 175.904 9.21123L175.874 8.98674C175.805 8.46089 175.519 8.10898 175.015 7.93101C173.947 7.56292 173.178 7.7955 172.707 8.62876C172.508 8.97662 172.21 9.14854 171.812 9.14449H171.507C170.955 9.1364 170.795 8.88359 171.026 8.38606C172.39 5.44337 177.494 5.29168 177.378 9.18089C177.325 11.078 177.421 12.969 177.664 14.8539C177.685 15.0238 177.614 15.133 177.451 15.1816C176.802 15.3757 176.286 15.2422 175.904 14.7811C175.787 14.6395 175.655 14.6234 175.508 14.7326ZM172.348 13.1429C173.194 15.0784 175.916 13.6162 175.91 11.8142C175.911 11.7222 175.877 11.6332 175.816 11.5639C175.754 11.4946 175.668 11.4498 175.575 11.438C174.674 11.3368 173.811 11.4258 172.987 11.7049C172.847 11.7523 172.717 11.8282 172.608 11.9279C172.498 12.0276 172.411 12.1488 172.351 12.284C172.29 12.4192 172.259 12.5653 172.259 12.7132C172.258 12.861 172.289 13.0074 172.348 13.1429Z" fill="white"/>
<path d="M97.6013 6.98433C99.0954 6.02568 100.48 6.15714 101.755 7.37872C101.925 7.54456 102.09 7.53647 102.248 7.35445C102.674 6.85287 103.115 6.56164 103.569 6.48074C106.009 6.04793 107.227 7.0349 107.223 9.44164C107.219 11.3994 107.219 13.2783 107.223 15.0783C107.223 15.1539 107.193 15.2264 107.14 15.2799C107.086 15.3334 107.013 15.3634 106.937 15.3634L105.853 15.3695C105.646 15.3695 105.543 15.2684 105.543 15.0661V9.33242C105.543 9.14102 105.504 8.95157 105.429 8.77555C105.353 8.59953 105.243 8.44061 105.104 8.30842C104.965 8.17624 104.8 8.07354 104.62 8.00655C104.44 7.93956 104.249 7.90968 104.057 7.91872L103.588 7.94299C103.218 7.9586 102.869 8.11615 102.613 8.38284C102.356 8.64954 102.213 9.00486 102.211 9.3749L102.187 15.0601C102.187 15.1395 102.156 15.2157 102.1 15.2725C102.044 15.3292 101.968 15.3618 101.889 15.3634L100.993 15.3695C100.794 15.3735 100.695 15.2765 100.695 15.0783L100.622 9.43557C100.61 8.35961 100.064 7.85602 98.9837 7.92478L98.5087 7.95512C98.1485 7.97672 97.81 8.13368 97.5623 8.39406C97.3145 8.65444 97.176 8.99867 97.175 9.35669L97.1629 15.2178C97.1629 15.2564 97.1468 15.2935 97.1183 15.3208C97.0897 15.3481 97.051 15.3634 97.0106 15.3634L95.7987 15.3574C95.7584 15.3574 95.7196 15.342 95.6911 15.3147C95.6625 15.2874 95.6465 15.2504 95.6465 15.2118V7.00254C95.6465 6.81242 95.7358 6.68501 95.9144 6.62029C96.491 6.42209 96.9477 6.52726 97.2847 6.93579C97.374 7.04501 97.4795 7.06119 97.6013 6.98433Z" fill="white"/>
<path d="M182.749 6.83852C183.289 6.43403 183.91 6.29852 184.613 6.432C184.869 6.48054 185 6.63223 185.009 6.88706L185.039 7.58481C185.051 7.872 184.915 7.99133 184.631 7.94279C181.032 7.31785 182.14 13.1304 182.116 15.1084C182.112 15.2823 182.023 15.3693 181.848 15.3693L180.6 15.3572C180.498 15.3572 180.447 15.3086 180.447 15.2116V7.03268C180.447 6.84661 180.541 6.74347 180.727 6.72324C181.219 6.6747 181.692 6.73942 182.146 6.9174C182.362 7.00234 182.562 6.97605 182.749 6.83852Z" fill="white"/>
<path d="M82.1663 6.56464L81.0945 6.5665C80.97 6.56672 80.8693 6.6674 80.8695 6.79139L80.8842 15.1401C80.8844 15.2641 80.9854 15.3645 81.1099 15.3642L82.1817 15.3624C82.3061 15.3622 82.4069 15.2615 82.4066 15.1375L82.392 6.78874C82.3918 6.66476 82.2907 6.56442 82.1663 6.56464Z" fill="white"/>
<path d="M160.869 11.881L162.489 6.88751C162.558 6.67717 162.704 6.56998 162.927 6.56594L163.567 6.5538C163.843 6.54976 164.019 6.6792 164.096 6.94212L165.442 11.6868C165.613 12.2774 165.767 12.2734 165.905 11.6747L167.007 6.85111C167.052 6.66099 167.172 6.56392 167.367 6.55987H168.548C168.751 6.55987 168.828 6.65695 168.78 6.85111L166.612 15.0907C166.563 15.2727 166.443 15.3637 166.252 15.3637H165.418C165.231 15.3637 165.109 15.2747 165.053 15.0967L163.433 9.74526C163.421 9.71171 163.399 9.68258 163.37 9.66195C163.342 9.64133 163.307 9.63024 163.271 9.63024C163.236 9.63024 163.201 9.64133 163.172 9.66195C163.143 9.68258 163.121 9.71171 163.11 9.74526C162.667 11.2783 162.192 12.8498 161.685 14.4596C161.445 15.2241 160.972 15.5255 160.266 15.3637C160.087 15.3232 159.974 15.214 159.925 15.036L157.617 6.73583C157.612 6.71645 157.612 6.69632 157.616 6.67688C157.621 6.65745 157.629 6.63922 157.641 6.62351C157.654 6.60781 157.669 6.59504 157.687 6.58612C157.705 6.57721 157.725 6.57239 157.745 6.57201L159.17 6.56594C159.283 6.56594 159.354 6.62257 159.383 6.73583L160.589 11.8689C160.67 12.2127 160.763 12.2167 160.869 11.881Z" fill="white"/>
<path d="M105.273 27.8797C106.464 27.8797 107.429 26.9181 107.429 25.7319C107.429 24.5456 106.464 23.584 105.273 23.584C104.082 23.584 103.117 24.5456 103.117 25.7319C103.117 26.9181 104.082 27.8797 105.273 27.8797Z" fill="#D40000"/>
<path d="M165.087 27.8797C166.278 27.8797 167.243 26.9181 167.243 25.7319C167.243 24.5456 166.278 23.584 165.087 23.584C163.897 23.584 162.932 24.5456 162.932 25.7319C162.932 26.9181 163.897 27.8797 165.087 27.8797Z" fill="#D40000"/>
<path d="M78.8361 47.5929C75.4623 48.321 71.2298 47.3562 69.8657 43.8796C69.5368 43.0383 69.3602 41.4142 69.3359 39.0075C69.2831 33.9917 69.279 29.0124 69.3237 24.0695C69.3277 23.8996 69.413 23.8147 69.5794 23.8147H72.9228C73.0487 23.8147 73.1116 23.8794 73.1116 24.0088C73.1075 29.5383 73.1096 35.1344 73.1177 40.7974C73.1299 45.6088 79.6339 46.2459 80.255 41.7742C81.0346 36.1194 80.5839 29.8275 80.5717 24.112C80.5717 24.0331 80.6032 23.9575 80.6591 23.9017C80.7151 23.846 80.791 23.8147 80.8701 23.8147L83.9334 23.8086C84.0109 23.8086 84.0852 23.8386 84.14 23.8921C84.1949 23.9456 84.2257 24.0181 84.2257 24.0938C84.2297 29.5342 84.2257 35.0535 84.2135 40.6517C84.2074 44.2861 82.4718 46.8102 78.8361 47.5929Z" fill="#D40000"/>
<path d="M175.138 33.0554C175.089 36.0972 175.095 39.1349 175.156 42.1686C175.184 43.4428 175.657 44.2882 176.575 44.7048C176.79 44.8059 177.011 44.8181 177.239 44.7412C177.697 44.5794 178.172 44.5369 178.664 44.6138C178.838 44.6421 178.925 44.7432 178.925 44.9172V46.8405C178.925 47.0104 178.842 47.1136 178.676 47.15C175.696 47.7769 173.621 47.0711 172.452 45.0324C170.954 42.4174 171.63 36.3985 171.618 33.0796C171.618 32.8693 171.512 32.7641 171.301 32.7641H169.718C169.36 32.7641 169.182 32.5882 169.182 32.2363V30.416C169.182 30.0601 169.358 29.8821 169.711 29.8821H171.313C171.516 29.8821 171.618 29.781 171.618 29.5787V25.4832C171.618 25.443 171.634 25.4044 171.662 25.376C171.691 25.3475 171.729 25.3315 171.77 25.3315H174.967C175.007 25.3315 175.046 25.3475 175.075 25.376C175.103 25.4044 175.119 25.443 175.119 25.4832V29.5787C175.119 29.781 175.221 29.8821 175.424 29.8821H178.012C178.211 29.8821 178.312 29.9832 178.316 30.1855L178.323 32.4608C178.323 32.663 178.219 32.7641 178.012 32.7641H175.436C175.241 32.7641 175.142 32.8612 175.138 33.0554Z" fill="#D40000"/>
<path d="M90.8705 31.5383C93.0994 29.3054 97.6181 28.6502 99.3964 31.878C100.172 33.2816 100.539 34.7904 100.499 36.4043C100.417 40.0124 100.371 43.5396 100.359 46.9859C100.359 47.1073 100.298 47.1679 100.176 47.1679L97.0457 47.174C96.9239 47.174 96.863 47.1133 96.863 46.992C96.863 43.2302 96.863 39.3976 96.863 35.4942C96.863 30.7738 90.5904 32.2846 90.6087 36.914C90.6249 40.336 90.6269 43.7014 90.6147 47.0102C90.6147 47.052 90.5981 47.0921 90.5684 47.1217C90.5387 47.1513 90.4984 47.1679 90.4564 47.1679L87.2714 47.174C87.231 47.174 87.1923 47.158 87.1637 47.1296C87.1352 47.1011 87.1191 47.0625 87.1191 47.0223V30.4886C87.1191 30.1852 87.2714 30.0335 87.5759 30.0335H90.1763C90.4889 30.0335 90.6391 30.1893 90.6269 30.5007L90.5904 31.4169C90.5782 31.696 90.6716 31.7365 90.8705 31.5383Z" fill="#D40000"/>
<path d="M127.959 40.3238C127.941 42.5202 129.006 45.7663 131.85 44.4011C132.538 44.0674 132.904 43.3514 133.105 42.7022C133.214 42.3463 133.454 42.1683 133.823 42.1683H136.253C136.643 42.1683 136.771 42.3503 136.637 42.7144C134 49.8497 125.164 48.5027 124.335 41.2703C123.769 36.3193 124.232 29.4267 131.004 29.6755C136.418 29.8757 137.313 35.4153 137.027 39.7656C137.015 39.9517 136.917 40.0447 136.734 40.0447H128.245C128.054 40.0447 127.959 40.1377 127.959 40.3238ZM128.129 37.1627H133.294C133.342 37.1627 133.389 37.1435 133.423 37.1094C133.457 37.0752 133.476 37.0289 133.476 36.9807V36.8593C133.476 35.691 133.197 34.5706 132.7 33.7445C132.204 32.9185 131.53 32.4544 130.827 32.4544H130.596C129.893 32.4544 129.219 32.9185 128.723 33.7445C128.226 34.5706 127.947 35.691 127.947 36.8593V36.9807C127.947 37.0289 127.966 37.0752 128 37.1094C128.034 37.1435 128.081 37.1627 128.129 37.1627Z" fill="#D40000"/>
<path d="M143.463 31.3686C144.51 29.8841 145.939 29.3987 147.75 29.9125C148.034 29.9934 148.176 30.1814 148.176 30.4767L148.158 32.2848C148.158 32.329 148.147 32.3725 148.127 32.4121C148.108 32.4516 148.079 32.4862 148.044 32.5131C148.009 32.54 147.968 32.5585 147.924 32.5673C147.881 32.5761 147.836 32.575 147.793 32.5639C145.929 32.0745 144.59 32.5659 143.773 34.0383C143.351 34.8028 143.14 36.0203 143.14 37.6909C143.148 40.765 143.15 43.7785 143.146 46.7313C143.146 46.807 143.115 46.8795 143.061 46.933C143.006 46.9865 142.931 47.0165 142.854 47.0165L139.949 47.0226C139.746 47.0226 139.645 46.9214 139.645 46.7192V30.3372C139.645 30.0338 139.797 29.8821 140.101 29.8821H142.702C143.014 29.8821 143.164 30.0378 143.152 30.3493L143.128 31.2594C143.116 31.668 143.227 31.7044 143.463 31.3686Z" fill="#D40000"/>
<path d="M153.073 33.85C151.508 37.6361 162.397 35.9008 160.856 43.8613C159.888 48.879 148.84 49.3037 148.773 42.0168C148.773 41.9963 148.778 41.9761 148.786 41.9573C148.794 41.9385 148.805 41.9215 148.82 41.9073C148.835 41.8931 148.852 41.8821 148.872 41.8748C148.891 41.8676 148.911 41.8643 148.932 41.8651L151.617 41.8712C151.659 41.8731 151.698 41.8886 151.729 41.915C151.76 41.9415 151.781 41.9774 151.788 42.0168C152.105 43.8734 153.174 44.7653 154.997 44.6925C158.121 44.5712 157.945 41.3129 155.491 40.4635C153.207 39.6747 150.588 38.977 149.79 36.6956C147.013 28.7595 160.484 26.8907 160.905 34.8026C160.917 35.0615 160.795 35.1909 160.539 35.1909H158.091C157.839 35.1909 157.726 35.0655 157.75 34.8147C157.994 32.5031 154.084 31.417 153.073 33.85Z" fill="#D40000"/>
<path d="M106.997 30.0337H103.782C103.661 30.0337 103.562 30.1315 103.562 30.2521V46.9496C103.562 47.0703 103.661 47.1681 103.782 47.1681H106.997C107.118 47.1681 107.216 47.0703 107.216 46.9496V30.2521C107.216 30.1315 107.118 30.0337 106.997 30.0337Z" fill="#D40000"/>
<path d="M116.558 41.2101L119.804 30.1613C119.816 30.1224 119.84 30.0883 119.873 30.0642C119.906 30.0402 119.946 30.0274 119.987 30.0278L123.288 30.046C123.318 30.0464 123.347 30.0537 123.373 30.0676C123.4 30.0814 123.422 30.1012 123.44 30.1255C123.457 30.1498 123.468 30.1778 123.472 30.2072C123.477 30.2366 123.474 30.2667 123.464 30.2948L117.575 47.0409C117.563 47.0777 117.539 47.1097 117.507 47.1326C117.476 47.1554 117.438 47.1679 117.399 47.1683L115.359 47.1744C115.32 47.1739 115.282 47.1614 115.25 47.1386C115.218 47.1158 115.195 47.0838 115.182 47.0469L109.299 30.2887C109.289 30.2601 109.287 30.2295 109.291 30.1996C109.296 30.1697 109.308 30.1414 109.325 30.117C109.343 30.0925 109.367 30.0728 109.394 30.0594C109.421 30.046 109.452 30.0393 109.482 30.04L112.649 30.0278C112.689 30.0274 112.729 30.0402 112.762 30.0642C112.795 30.0883 112.819 30.1224 112.831 30.1613L116.199 41.2162C116.212 41.2538 116.236 41.2864 116.269 41.3093C116.302 41.3322 116.341 41.3441 116.381 41.3435C116.421 41.3428 116.46 41.3295 116.491 41.3056C116.523 41.2816 116.547 41.2482 116.558 41.2101Z" fill="#D40000"/>
<path d="M166.799 30.0278H163.644C163.506 30.0278 163.395 30.1392 163.395 30.2766V46.9256C163.395 47.063 163.506 47.1743 163.644 47.1743H166.799C166.937 47.1743 167.048 47.063 167.048 46.9256V30.2766C167.048 30.1392 166.937 30.0278 166.799 30.0278Z" fill="#D40000"/>
<path d="M183.609 53.9998H180.57C180.395 53.1423 180.371 52.2807 180.497 51.4151C180.529 51.2128 180.645 51.1319 180.844 51.1724C183.59 51.7427 184.443 49.1034 184.985 47.0708C185.036 46.8687 185.03 46.6583 184.967 46.4641L179.534 30.2216C179.528 30.2005 179.526 30.178 179.529 30.1561C179.532 30.1342 179.54 30.1135 179.553 30.0957C179.565 30.0779 179.582 30.0635 179.601 30.0538C179.62 30.044 179.641 30.0391 179.662 30.0396H183.182C183.272 30.0396 183.326 30.0821 183.347 30.167L186.41 41.4038C186.499 41.7355 186.589 41.7376 186.678 41.4099L189.723 30.3187C189.747 30.2297 189.806 30.1852 189.899 30.1852L193.413 30.1913C193.432 30.1913 193.45 30.1956 193.466 30.204C193.482 30.2123 193.496 30.2244 193.507 30.2392C193.518 30.254 193.525 30.2711 193.527 30.2892C193.53 30.3072 193.529 30.3256 193.523 30.3429C190.165 40.8315 187.928 47.6917 186.812 50.9236C186.272 52.4931 185.204 53.5185 183.609 53.9998Z" fill="#D40000"/>
</g>
<defs>
<clipPath id="clip0_1284_2386">
<rect width="193.05" height="54" fill="white" transform="translate(0.794922)"/>
</clipPath>
</defs>
</svg>
