<svg width="212" height="36" viewBox="0 0 212 36" fill="none" xmlns="http://www.w3.org/2000/svg">
<path d="M10.7001 21.0564C7.72192 19.8939 5.1488 18.8884 5.1488 16.5722C5.1488 13.8921 7.58756 12.9385 9.86945 12.9385C13.8174 12.9385 15.913 15.1203 15.9346 15.1419L16.1356 15.3567L17.9027 12.3921L17.7938 12.2705C17.6918 12.1557 15.2442 9.47656 9.96751 9.47656C5.76557 9.47656 1.24591 11.6956 1.24591 16.5702C1.24591 21.179 5.40668 22.8271 9.07811 24.282C12.0621 25.4631 14.6382 26.4843 14.6382 28.7828C14.6382 31.3609 12.2425 32.5146 9.86945 32.5146C5.38117 32.5146 2.64623 29.601 2.61877 29.5716L2.43836 29.3763L0.339844 32.1555L0.459452 32.2909C0.491813 32.3292 1.29103 33.2317 2.84923 34.1421C4.28191 34.9799 6.65401 35.9776 9.81846 35.9776C14.8735 35.9776 18.5421 32.9511 18.5421 28.7838C18.5421 24.1162 14.3764 22.4897 10.7001 21.0554" fill="white"/>
<path d="M45.4049 22.6044C45.4049 28.1628 41.2471 32.5175 35.941 32.5175C30.6349 32.5175 26.4771 28.1628 26.4771 22.6044C26.4771 17.046 30.6349 12.9876 35.941 12.9876C41.2471 12.9876 45.4049 17.2118 45.4049 22.6044ZM35.941 9.47754C28.4442 9.47754 22.5723 15.2439 22.5723 22.6044C22.5723 29.965 28.4442 35.9786 35.941 35.9786C43.4378 35.9786 49.3098 30.1043 49.3098 22.6044C49.3098 15.1046 43.4378 9.47754 35.941 9.47754Z" fill="white"/>
<path d="M65.8431 0.102029C65.8176 0.0981048 65.2204 0 64.276 0C61.6274 0 55.4671 0.921181 55.4671 9.45597V10.4193H52.0801V13.6773H55.4671V35.4036H59.267V13.6773H65.6342V10.4193H59.267V9.45597C59.267 7.21534 59.9633 3.45708 64.6222 3.45708C65.2802 3.45708 65.7587 3.54929 65.7636 3.55027L66.0294 3.60325V0.132446L65.8441 0.102029H65.8431Z" fill="white"/>
<path d="M83.7866 32.3194L83.512 32.3792C83.5061 32.3802 83.0688 32.4744 82.4029 32.4744C80.3623 32.4744 76.9399 31.6336 76.9399 26.0026V13.7479H83.2835V10.4242H76.9399V3.12061H73.1135V10.4242H69.7402V13.7479H73.0626V26.3548C73.0626 34.7464 78.7246 36.0001 82.0989 36.0001C83.0168 36.0001 83.5777 35.8991 83.6003 35.8961L83.7866 35.8628V32.3194Z" fill="white"/>
<path d="M91.5177 27.8616C91.5177 27.8616 94.2958 30.6408 98.4144 30.6408C100.2 30.6408 101.737 29.8461 101.737 28.358C101.737 24.5869 89.4349 25.0824 89.4349 16.9429C89.4349 12.2282 93.6526 9.5 99.1087 9.5C104.565 9.5 107.591 12.3773 107.591 12.3773L105.26 17.043C105.26 17.043 102.928 14.8592 99.0587 14.8592C97.422 14.8592 95.8344 15.5538 95.8344 17.1421C95.8344 20.7159 108.136 20.2685 108.136 28.407C108.136 32.6263 104.467 36 98.4635 36C92.164 36 88.6406 32.2781 88.6406 32.2781L91.5177 27.8616Z" fill="white"/>
<path d="M129.976 19.623C129.877 16.1983 127.743 14.3609 124.966 14.3609C121.741 14.3609 119.508 16.3465 118.913 19.623H129.975H129.976ZM125.115 9.49903C132.407 9.49903 136.326 14.8093 136.326 21.5086C136.326 22.2522 136.178 23.9395 136.178 23.9395H118.715C119.112 28.357 122.536 30.6398 126.306 30.6398C130.374 30.6398 133.598 27.8596 133.598 27.8596L136.03 32.3762C136.03 32.3762 132.158 35.9991 125.859 35.9991C117.477 35.9991 112.268 29.9452 112.268 22.7485C112.268 14.9573 117.576 9.49805 125.116 9.49805" fill="white"/>
<path d="M142.666 10.0944H148.717V14.4618C148.717 15.4046 148.617 16.2482 148.617 16.2482H148.717C149.859 12.6254 152.886 9.74707 156.754 9.74707C157.35 9.74707 157.895 9.84615 157.895 9.84615V16.0491C157.895 16.0491 157.25 15.951 156.406 15.951C153.727 15.951 150.701 17.4882 149.511 21.2602C149.115 22.5012 148.965 23.8913 148.965 25.3795V35.4044H142.666V10.0953V10.0944Z" fill="white"/>
<path d="M160.641 10.0947H167.287L172.546 25.7762C173.043 27.2654 173.39 28.9477 173.44 28.9477H173.538C173.589 28.9477 173.935 27.2654 174.431 25.7762L179.689 10.0947H186.337L177.258 35.4038H169.818L160.642 10.0947H160.641Z" fill="white"/>
<path d="M205.6 19.623C205.502 16.1983 203.368 14.3609 200.591 14.3609C197.365 14.3609 195.133 16.3465 194.539 19.623H205.6ZM200.739 9.49903C208.032 9.49903 211.949 14.8093 211.949 21.5086C211.949 22.2522 211.801 23.9395 211.801 23.9395H194.339C194.736 28.357 198.159 30.6398 201.93 30.6398C205.997 30.6398 209.223 27.8596 209.223 27.8596L211.653 32.3762C211.653 32.3762 207.784 35.9991 201.484 35.9991C193.1 35.9991 187.891 29.9452 187.891 22.7485C187.891 14.9573 193.199 9.49805 200.739 9.49805" fill="white"/>
</svg>
