<svg width="187" height="38" viewBox="0 0 187 38" fill="none" xmlns="http://www.w3.org/2000/svg">
<path d="M85.7238 31.108C81.8347 31.1069 78.4736 28.3813 77.8623 24.5845C77.7911 24.1443 77.7561 23.4284 77.7561 22.437C77.7517 14.9781 77.7506 7.51595 77.7539 0.0505945C77.7539 0.0226061 77.7769 0 77.8054 0H84.6568C84.6864 0 84.7094 0.0226055 84.7094 0.0516704C84.7083 7.48689 84.7094 14.9264 84.7105 22.3692C84.7105 23.7169 85.1936 24.2734 86.5762 24.2734C91.2037 24.2745 95.8312 24.2756 100.458 24.2745C101.727 24.2745 102.511 23.9817 102.511 22.634C102.512 15.1094 102.513 7.58162 102.512 0.0516704C102.512 0.0226055 102.535 0 102.564 0H109.416C109.445 0 109.468 0.0226055 109.468 0.0516704C109.468 7.54825 109.468 15.0481 109.468 22.5511C109.468 23.5371 109.431 24.253 109.356 24.6987C108.801 27.9668 106.13 30.4417 102.888 30.9874C102.396 31.0703 101.668 31.1112 100.704 31.1112C95.7107 31.1101 90.7173 31.1091 85.7238 31.108Z" fill="white"/>
<path d="M23.9268 19.1138C19.1634 19.1063 14.4 19.1052 9.63776 19.1095C8.59153 19.1106 7.863 19.0858 7.44999 19.0352C4.13491 18.6272 1.35994 16.2299 0.673037 12.9553C0.383817 11.5752 0.517472 9.79474 0.515281 8.2823C0.514186 7.42004 0.563485 6.74724 0.660987 6.26283C1.27558 3.22394 3.68246 0.804022 6.79596 0.176437C7.28347 0.0784774 7.98132 0.0300349 8.88842 0.0289585C16.6042 0.0268055 24.3223 0.0268055 32.0447 0.0289585C32.0731 0.0289585 32.0961 0.0515646 32.0961 0.0795529V6.81183C32.0961 6.8409 32.0731 6.8635 32.0436 6.8635C24.4077 6.86243 16.7686 6.8635 9.12506 6.86458C8.06897 6.86458 7.47957 7.3759 7.47628 8.43516C7.47409 9.17147 7.473 9.9067 7.473 10.6419C7.473 11.9089 8.20919 12.2717 9.38141 12.2717C14.251 12.2728 19.1196 12.2739 23.9892 12.2728C24.9631 12.2717 25.6895 12.3169 26.1704 12.4074C29.2971 12.9962 31.7762 15.4452 32.3832 18.5067C32.4796 18.9922 32.53 19.7069 32.5344 20.6499C32.5398 22.0429 32.6297 23.6565 32.3777 24.8902C31.7456 27.9926 29.2116 30.4329 26.0291 30.9862C25.5635 31.067 24.835 31.1079 23.8457 31.109C16.2526 31.1133 8.65836 31.1133 1.06524 31.11C1.02909 31.11 1.01046 31.0917 1.01046 31.0551V24.3315C1.01046 24.2949 1.02908 24.2766 1.06633 24.2766C8.51484 24.2744 15.9634 24.2744 23.4097 24.2766C24.3442 24.2766 25.0431 24.269 25.4298 23.452C25.7191 22.8395 25.5788 21.5929 25.5777 20.8846C25.5766 19.7295 25.1428 19.1159 23.9268 19.1138Z" fill="white"/>
<path d="M47.0775 31.1088C43.2168 31.1067 39.8667 28.3778 39.2477 24.6112C39.1754 24.1677 39.1382 23.4519 39.1371 22.4637C39.1316 17.5689 39.1316 12.6742 39.136 7.77839C39.1404 4.06886 41.8025 0.915861 45.4857 0.173093C45.9578 0.0772864 46.6075 0.0299213 47.4335 0.0299213C52.3623 0.0266919 57.2922 0.0266908 62.2221 0.0288438C63.196 0.0288438 63.9223 0.0740568 64.4033 0.164481C67.5277 0.75116 69.9861 3.17754 70.6193 6.22611C70.7168 6.69438 70.765 7.34242 70.765 8.17023C70.7683 18.0953 70.7694 28.0204 70.7661 37.9455C70.7661 37.9821 70.7475 38.0004 70.7103 38.0004H63.8654C63.8347 38.0004 63.8106 37.9768 63.8106 37.9466V31.1627C63.8106 31.1336 63.7876 31.1099 63.758 31.1099C58.2015 31.1121 52.6417 31.1121 47.0775 31.1088ZM46.0926 22.4798C46.0926 23.4433 46.51 24.2786 47.6241 24.2786C53.0087 24.2775 58.3888 24.2754 63.7668 24.2743C63.7909 24.2743 63.8106 24.2549 63.8106 24.2312C63.8117 18.9888 63.8106 13.7496 63.8095 8.51362C63.8095 7.3478 63.23 6.86339 62.0643 6.86339C57.3284 6.86446 52.5924 6.86339 47.8564 6.86231C46.8452 6.86231 46.0915 7.29075 46.0904 8.39736C46.0893 13.0919 46.0893 17.7853 46.0926 22.4798Z" fill="white"/>
<path d="M141.148 23.226H123.455C123.424 23.226 123.4 23.2497 123.4 23.2799V31.0574C123.4 31.0875 123.376 31.1112 123.345 31.1112H116.496C116.466 31.1112 116.443 31.0886 116.443 31.0595C116.443 23.6695 116.443 16.2774 116.443 8.882C116.443 7.8432 116.471 7.12627 116.524 6.7312C116.969 3.47917 119.489 0.831038 122.767 0.179771C123.265 0.0807351 123.988 0.0312173 124.937 0.0301408C129.775 0.0269114 134.613 0.0269109 139.451 0.0279874C140.455 0.0279874 141.183 0.0656638 141.635 0.142094C144.909 0.691096 147.465 3.26064 148.032 6.44701C148.116 6.91958 148.158 7.63544 148.158 8.59243C148.159 16.0782 148.16 23.5673 148.159 31.0606C148.159 31.0886 148.136 31.1112 148.106 31.1112H141.257C141.226 31.1112 141.202 31.0875 141.202 31.0574V23.2799C141.202 23.2443 141.184 23.226 141.148 23.226ZM124.999 6.86576C124.097 6.86576 123.399 7.41907 123.398 8.34484C123.396 10.9973 123.398 13.6529 123.403 16.3108C123.403 16.3463 123.421 16.3635 123.457 16.3635H141.146C141.183 16.3635 141.2 16.3463 141.2 16.3108C141.206 13.7617 141.206 11.2126 141.2 8.66347C141.198 7.38462 140.681 6.86468 139.371 6.86361C134.58 6.86253 129.789 6.86253 124.999 6.86576Z" fill="white"/>
<path d="M180.306 0.15055C183.443 0.707088 185.952 3.12162 186.598 6.18742C186.698 6.66 186.747 7.33387 186.748 8.2112C186.752 13.0456 186.752 17.8801 186.751 22.7156C186.751 23.678 186.706 24.3928 186.615 24.86C186.005 28 183.417 30.4307 180.244 30.9819C179.761 31.0658 179.034 31.1078 178.061 31.1089C170.44 31.1143 162.82 31.1143 155.198 31.1089C155.162 31.1089 155.145 31.0917 155.145 31.0562V0.0805799C155.145 0.0515151 155.169 0.027832 155.198 0.027832C162.835 0.027832 170.476 0.027832 178.123 0.027832C179.115 0.027832 179.842 0.068738 180.306 0.15055ZM179.793 8.3619C179.793 7.63098 179.274 6.8656 178.478 6.86453C173.04 6.8613 167.599 6.8613 162.155 6.8656C162.119 6.8656 162.101 6.88283 162.101 6.91835V24.2216C162.101 24.2518 162.125 24.2754 162.156 24.2754C167.424 24.2765 172.693 24.2754 177.961 24.2744C179.186 24.2744 179.795 23.8298 179.795 22.5735C179.794 17.836 179.794 13.0984 179.793 8.3619Z" fill="white"/>
</svg>
