<svg width="182" height="46" viewBox="0 0 182 46" fill="none" xmlns="http://www.w3.org/2000/svg">
<path d="M174.542 6.4624L170.221 20.6089L169.311 24.1021C169.09 23.219 168.624 21.4496 168.401 20.6089L164.454 6.4624H156.656L165.873 31.7065L160.677 46.0001H167.912L181.953 6.4624H174.54H174.542Z" fill="#58BB69"/>
<path d="M4.38019 6.44484L6.47897 0H11.374V6.44484L16.8942 6.42414V11.6928H11.374V23.3453C11.3865 26.5714 12.4017 27.9162 14.5677 27.9079C15.5788 27.9038 16.5206 27.8055 17.2419 27.6585L17.2626 33.1C16.3012 33.4883 14.3007 33.7358 12.232 33.743C4.53128 33.772 4.4578 27.0787 4.44642 24.0939L4.40088 11.7187L0.791141 11.7322L0.771484 8.73598L4.38122 6.44484H4.38019ZM25.6495 22.0149C25.842 26.59 27.949 28.7207 31.8175 28.7207C35.2844 28.7207 37.9689 27.9773 40.254 26.9203V32.2242C38.0393 33.187 35.1799 33.7648 31.8589 33.7648C23.3427 33.7648 18.8636 28.9185 18.8636 20.2342C18.8636 12.5294 23.292 5.88472 31.1376 5.88472C37.6347 5.88472 41.8705 10.5074 41.8705 19.174C41.8705 20.2342 41.8219 21.2447 41.678 22.0149H25.6505H25.6495ZM35.2761 17.0558C35.3248 14.2625 34.2174 10.8439 30.7039 10.8439C27.1904 10.8439 25.842 14.4064 25.6505 17.0558H35.2772H35.2761ZM45.5796 8.17278C48.1441 6.92418 50.7158 5.93236 55.2891 5.93236C63.6159 5.93236 65.8782 11.229 65.8782 17.1034V33.2823H60.6664L59.4276 30.489H59.2827C57.7428 32.6073 55.1431 33.8113 52.1595 33.8113C47.2023 33.8113 44.1214 30.1039 44.1214 25.77C44.1214 18.8841 50.2346 15.6581 58.7539 15.6581C58.7539 13.0098 58.2747 10.9878 54.7861 10.9878C52.3313 10.9878 50.157 11.5324 47.7974 12.6961L45.5796 8.17174V8.17278ZM58.9464 20.2342C55.0955 20.2342 51.1008 21.1484 51.1008 25.0484C51.1008 27.6005 52.6894 28.7082 54.4705 28.7082C56.1553 28.7082 58.9464 27.5052 58.9464 24.0856V20.2332V20.2342ZM91.4754 10.4111C93.6891 7.13644 96.4326 5.9334 99.4173 5.9334C104.086 5.9334 107.696 9.25572 107.696 17.0082V33.2833H100.717V18.1159C100.717 14.2635 99.6584 11.7115 96.8186 11.7115C94.8451 11.7115 92.6314 13.2531 92.6314 17.0082V33.2833H85.652V17.442C85.652 14.2635 84.6409 11.7115 81.8498 11.7115C79.8763 11.7115 77.5663 13.5409 77.5663 17.1531V33.2833H70.587V6.51109H76.1247L76.7953 10.0747H76.9402C78.1914 8.14898 80.55 5.9334 84.5447 5.9334C87.8181 5.9334 90.3205 7.66652 91.3792 10.4111H91.4754ZM126.986 6.46243H134.35L125.205 33.2823H118.322L109.321 6.46243H116.974L120.488 19.4629C121.065 21.7748 121.547 23.9893 121.98 26.3001H122.125C122.559 23.9883 123.04 21.8224 123.617 19.4629L126.987 6.46243H126.986ZM158.735 25.9326L151.649 6.46243C150.54 6.09282 149.022 5.88472 147.537 5.88472C140.269 5.88472 134.831 10.9889 134.831 19.993C134.831 28.9971 140.029 33.8124 147.248 33.8124C151.789 33.8124 156.663 31.5222 158.735 25.9326ZM147.345 28.5644C143.879 28.5644 142.05 24.6157 142.05 19.8491C142.05 15.7565 143.446 11.1338 147.392 11.1338C151.051 11.1338 152.542 15.6115 152.542 19.8014C152.542 24.568 150.713 28.5654 147.344 28.5654L147.345 28.5644Z" fill="white"/>
</svg>
