<svg width="99" height="36" viewBox="0 0 99 36" fill="none" xmlns="http://www.w3.org/2000/svg">
<path d="M3.63825 9.07416V3.50391H12.195V9.07305L19.0011 9.07527V15.8675H12.2094V28.4674H19.4815V35.2463H3.63825V15.8652H0.371094V9.07084H3.63825V9.07416Z" fill="white"/>
<path d="M82.4968 9.07416V3.50391H91.0535V9.07305L97.8596 9.07527V15.8675H91.0679V28.4674H98.34V35.2463H82.4957V15.8652H79.2285V9.07084H82.4957L82.4968 9.07416Z" fill="white"/>
<path d="M38.8946 17.1271H47.2017C47.2017 17.1271 46.6271 13.8153 43.6173 11.3515C40.6075 8.88768 37.1595 8.17628 33.767 8.28615C30.3745 8.39602 26.3274 9.11964 23.9445 12.9663C21.6392 16.6865 23.6771 20.1137 24.6511 21.0914C25.9059 22.35 27.4191 23.8327 32.6177 24.9825C37.8163 26.1323 38.1169 26.6517 38.391 26.9813C38.665 27.3098 38.6916 27.8459 38.5729 28.1444C38.4542 28.443 38.2068 28.8592 37.4923 29.1266C36.7779 29.3941 35.5587 29.4729 34.9241 29.454C34.2895 29.4352 33.5962 29.4241 32.7231 29.0878C31.8511 28.7504 30.6208 27.877 30.3334 26.6872H21.7656C21.7656 26.6872 22.2327 29.7226 24.6412 32.1121C27.0508 34.5027 29.6689 35.415 32.0974 35.7923C34.5258 36.1696 38.0459 36.0109 39.9508 35.4948C41.8556 34.9799 44.2441 34.1952 46.1678 31.5372C48.0915 28.8791 47.367 25.735 47.0109 24.8316C46.6537 23.9282 45.7617 22.0337 43.1247 20.744C40.4877 19.4544 35.6985 18.4833 35.44 18.4223C35.1815 18.3635 33.1302 17.9262 32.4945 17.48C31.8589 17.0339 31.8145 16.6021 31.8544 16.0861C31.8944 15.5711 32.3725 15.0617 32.9605 14.8608C33.6261 14.6344 34.4482 14.5034 35.4788 14.6133C36.5105 14.7243 38.1791 15.0817 38.8946 17.1293V17.1271Z" fill="white"/>
<path d="M50.5762 0H59.144V18.3811H61.9219L67.6985 9.06625H76.7478L69.2006 21.4054L77.5166 35.235H68.2177L62.4034 25.6727H59.1507V35.235H50.5762V0Z" fill="white"/>
</svg>
