<svg width="154" height="100" viewBox="0 0 154 100" fill="none" xmlns="http://www.w3.org/2000/svg">
<path fill-rule="evenodd" clip-rule="evenodd" d="M124.21 96.5106C125.451 96.5106 126.38 96.4618 127 96.3675C127.64 96.2504 128.097 96.039 128.366 95.7334C128.658 95.4244 128.802 94.9431 128.802 94.2927V86.5919C128.802 85.7073 128.444 85.0927 127.729 84.7447C127.033 84.3805 125.907 84.1984 124.358 84.1984H120.902V96.5171H124.214L124.21 96.5106ZM116.369 80.9919H124.388C126.593 80.9919 128.336 81.1675 129.616 81.5122C130.893 81.8374 131.835 82.4163 132.436 83.2423C133.036 84.0683 133.338 85.213 133.338 86.6732V94.2894C133.338 95.7138 133.056 96.8163 132.495 97.6065C131.933 98.3773 131.014 98.9236 129.734 99.2521C128.458 99.561 126.685 99.7138 124.42 99.7138H116.372V80.9919H116.369ZM107.569 88.9821C107.182 89.252 106.457 89.3854 105.39 89.3854H101.497V84.1951H105.39C106.398 84.1951 107.103 84.3285 107.51 84.5984C107.937 84.8488 108.147 85.3203 108.147 86.013V87.3399C108.147 88.1464 107.954 88.6959 107.566 88.9854L107.569 88.9821ZM105.449 80.9919H96.9679V99.7138H101.497V92.3577H103.588L108.528 99.7138H113.756L108.298 92.013C109.595 91.8374 110.632 91.4439 111.406 90.8293C112.201 90.1951 112.598 89.3301 112.598 88.2342V84.9464C112.598 83.522 112.037 82.5138 110.911 81.9187C109.788 81.3041 107.97 80.9951 105.449 80.9951V80.9919ZM88.375 80.9919H92.9045V99.7138H88.375V80.9919ZM80.0447 96.1366C79.5819 96.387 78.7975 96.5106 77.6914 96.5106H74.4682V91.522H78.3019C79.2111 91.522 79.8412 91.6651 80.1892 91.9545C80.5568 92.2439 80.7406 92.735 80.7406 93.4244V94.9236C80.7406 95.4797 80.5075 95.8862 80.0447 96.1366ZM79.1717 88.4358C78.8238 88.5529 78.292 88.6081 77.5732 88.6081H74.465V84.1951H77.4846C78.2592 84.1951 78.8205 84.2439 79.1684 84.3382C79.536 84.4358 79.7789 84.5984 79.8938 84.8293C80.0086 85.0407 80.0677 85.3691 80.0677 85.8114V86.735C80.0677 87.2358 79.9988 87.6195 79.8642 87.8895C79.7461 88.1399 79.5163 88.322 79.1684 88.4358H79.1717ZM77.5732 80.9919H69.9355V99.7138H77.78C80.3369 99.7138 82.2241 99.3951 83.4451 98.761C84.6628 98.1268 85.2733 97.0504 85.2733 95.5317V92.6472C85.2733 91.974 84.9648 91.3691 84.3445 90.8293C83.7438 90.2732 83.0775 89.9545 82.339 89.8764V89.7333C82.9003 89.561 83.3828 89.2423 83.793 88.7805C84.2197 88.3187 84.4331 87.8277 84.4331 87.3073V85.0016C84.4331 83.9838 84.2296 83.1935 83.8226 82.6374C83.4156 82.0618 82.7198 81.6455 81.7318 81.3951C80.7635 81.1252 79.3784 80.9919 77.5765 80.9919H77.5732ZM58.9564 89.3854C60.0232 89.3854 60.7485 89.252 61.1358 88.9821C61.5231 88.6927 61.7168 88.1464 61.7168 87.3366V86.0098C61.7168 85.3171 61.5034 84.8455 61.0768 84.5951C60.6698 84.3252 59.9641 84.1919 58.9564 84.1919H55.067V89.3821H58.9564V89.3854ZM50.5342 80.9919H59.0155C61.533 80.9919 63.3513 81.3008 64.4771 81.9155C65.5997 82.5106 66.1609 83.522 66.1609 84.9431V88.2309C66.1609 89.3268 65.7638 90.1919 64.9695 90.826C64.1949 91.4407 63.1577 91.8342 61.8612 92.0098L67.3228 99.7106H62.0942L57.1578 92.3545H55.067V99.7106H50.5342V80.9886V80.9919ZM38.8003 84.7415L41.1799 91.7789H36.2992L38.6821 84.7415H38.797H38.8003ZM41.646 80.9919H36.1253L29.1538 99.7138H33.6275L35.2817 94.7805H42.1679L43.8516 99.7138H48.4402L41.6427 80.9919H41.646ZM7.44846 80.9919H2.74175L8.58083 99.7138H13.0545L16.77 86.1268L20.3739 99.7138H24.8443L30.8868 80.9919H26.2983L22.9274 94.6667L18.9756 80.9919H14.7645L11.1049 94.6667L7.44518 80.9919H7.44846ZM136.41 99.4829C139.062 99.8309 141.291 100.003 143.09 100.003C144.406 100.003 145.528 99.9187 146.457 99.7431C147.406 99.5903 148.269 99.3106 149.04 98.9073C150.649 98.1171 151.453 96.6081 151.453 94.3772V93.135C151.453 91.5187 150.967 90.3187 149.999 89.5285C149.031 88.7382 147.472 88.3447 145.322 88.3447H143.057C141.393 88.3447 140.559 87.8537 140.559 86.8748V85.548C140.559 84.9724 140.841 84.5496 141.403 84.2797C141.925 84.0293 142.952 83.9057 144.481 83.9057C145.584 83.9057 147.6 84.0781 150.524 84.426V81.0797C148.144 80.8293 146.175 80.7025 144.629 80.7025C141.646 80.7025 139.466 81.0862 138.091 81.8569C136.716 82.6244 136.03 83.8277 136.03 85.4634V86.8488C136.03 90.1203 138.101 91.7529 142.246 91.7529H144.455C145.387 91.7529 146.024 91.9155 146.372 92.2407C146.74 92.5691 146.923 93.0407 146.923 93.6553V94.8683C146.923 96.1561 145.663 96.8 143.146 96.8C141.944 96.8 139.699 96.5496 136.407 96.0488V99.4829H136.41ZM149.132 4.4L149.917 0.0747968L149.989 0.409756C152.047 10 154.761 22.6472 153.265 22.6341L91.0336 57.0829C83.2941 60.8585 70.5624 60.709 62.7835 57.0829L0.519681 22.6472C-0.957321 22.6472 1.66518 10.3252 3.71329 0.715447C3.7658 0.474797 3.81504 0.237398 3.86427 0L4.64872 4.3252L4.13998 9.67155L5.98459 5.83415L57.4302 25.0894L58.021 28.7642L68.0023 30.9268C70.5952 31.4407 73.2177 31.7626 75.8501 31.8894C75.2757 31.1382 74.8752 30.2504 74.6783 29.3008C74.4846 28.3512 74.5043 27.3626 74.7341 26.4228C75.4923 22.439 77.5699 20.8228 77.6815 21.0764C76.8544 22.2309 77.4813 23.5285 78.1673 24.9463C78.7778 26.2049 79.431 27.561 79.1651 28.9984C79.0305 30.039 78.6662 31.0276 78.1049 31.8862C80.6848 31.7463 83.2482 31.4244 85.7886 30.9236L95.7699 28.761L96.364 25.0862L147.81 5.8309L149.654 9.73984L149.132 4.3935V4.4Z" fill="#777548"/>
</svg>
